0
SECTION
2
ENTITIES
0
LINE
8
FCrtYd
62
7
10
23.379852
20
-48.606675
11
32.752153
21
-45.919211
0
LINE
8
FCrtYd
62
7
10
22.635631
20
-46.011269
11
23.379852
21
-48.606675
0
LINE
8
FCrtYd
62
7
10
32.007932
20
-43.323804
11
22.635631
21
-46.011269
0
LINE
8
FCrtYd
62
7
10
32.752153
20
-45.919211
11
32.007932
21
-43.323804
0
LINE
8
FFab
62
5
10
29.329715
20
-46.536475
11
28.77844
21
-44.613951
0
LINE
8
FFab
62
5
10
24.045904
20
-47.011284
11
25.785788
21
-46.51238
0
LINE
8
FFab
62
5
10
31.370718
20
-44.910927
11
29.630834
21
-45.409831
0
LINE
8
FFab
62
5
10
26.061425
20
-47.473642
11
29.906472
21
-46.371092
0
LINE
8
FFab
62
5
10
25.51015
20
-45.551118
11
26.061425
21
-47.473642
0
LINE
8
FFab
62
5
10
29.355197
20
-44.448569
11
25.51015
21
-45.551118
0
LINE
8
FFab
62
5
10
29.906472
20
-46.371092
11
29.355197
21
-44.448569
0
LINE
8
Eco2
62
4
10
277.114415
20
-86.358528
11
273.263761
21
-99.787354
0
LINE
8
Eco2
62
4
10
263.685589
20
-82.507874
11
277.114415
21
-86.358528
0
LINE
8
Eco2
62
4
10
259.834935
20
-95.9367
11
263.685589
21
-82.507874
0
LINE
8
Eco2
62
4
10
273.263761
20
-99.787354
11
259.834935
21
-95.9367
0
LINE
8
0
10
280.099052
20
-84.704116
11
274.918173
21
-102.771991
0
LINE
8
0
10
262.031177
20
-79.523237
11
280.099052
21
-84.704116
0
LINE
8
0
10
256.850298
20
-97.591112
11
262.031177
21
-79.523237
0
LINE
8
0
10
274.918173
20
-102.771991
11
256.850298
21
-97.591112
0
LINE
8
Cmts
62
1
10
276.328984
20
-86.793899
11
272.82839
21
-99.001923
0
LINE
8
Cmts
62
1
10
264.12096
20
-83.293305
11
276.328984
21
-86.793899
0
LINE
8
Cmts
62
1
10
260.620366
20
-95.501329
11
264.12096
21
-83.293305
0
LINE
8
Cmts
62
1
10
272.82839
20
-99.001923
11
260.620366
21
-95.501329
0
LINE
8
Eco2
62
4
10
271.863524
20
-68.046493
11
268.01287
21
-81.475319
0
LINE
8
Eco2
62
4
10
258.434698
20
-64.195839
11
271.863524
21
-68.046493
0
LINE
8
Eco2
62
4
10
254.584044
20
-77.624665
11
258.434698
21
-64.195839
0
LINE
8
Eco2
62
4
10
268.01287
20
-81.475319
11
254.584044
21
-77.624665
0
LINE
8
0
10
274.848161
20
-66.392081
11
269.667282
21
-84.459956
0
LINE
8
0
10
256.780286
20
-61.211202
11
274.848161
21
-66.392081
0
LINE
8
0
10
251.599407
20
-79.279077
11
256.780286
21
-61.211202
0
LINE
8
0
10
269.667282
20
-84.459956
11
251.599407
21
-79.279077
0
LINE
8
Cmts
62
1
10
271.078093
20
-68.481864
11
267.577499
21
-80.689888
0
LINE
8
Cmts
62
1
10
258.870069
20
-64.98127
11
271.078093
21
-68.481864
0
LINE
8
Cmts
62
1
10
255.369475
20
-77.189294
11
258.870069
21
-64.98127
0
LINE
8
Cmts
62
1
10
267.577499
20
-80.689888
11
255.369475
21
-77.189294
0
LINE
8
Eco2
62
4
10
266.612632
20
-49.734457
11
262.761978
21
-63.163283
0
LINE
8
Eco2
62
4
10
253.183806
20
-45.883803
11
266.612632
21
-49.734457
0
LINE
8
Eco2
62
4
10
249.333152
20
-59.312629
11
253.183806
21
-45.883803
0
LINE
8
Eco2
62
4
10
262.761978
20
-63.163283
11
249.333152
21
-59.312629
0
LINE
8
0
10
269.597269
20
-48.080045
11
264.41639
21
-66.14792
0
LINE
8
0
10
251.529394
20
-42.899166
11
269.597269
21
-48.080045
0
LINE
8
0
10
246.348515
20
-60.967041
11
251.529394
21
-42.899166
0
LINE
8
0
10
264.41639
20
-66.14792
11
246.348515
21
-60.967041
0
LINE
8
Cmts
62
1
10
265.827201
20
-50.169828
11
262.326607
21
-62.377852
0
LINE
8
Cmts
62
1
10
253.619177
20
-46.669234
11
265.827201
21
-50.169828
0
LINE
8
Cmts
62
1
10
250.118583
20
-58.877258
11
253.619177
21
-46.669234
0
LINE
8
Cmts
62
1
10
262.326607
20
-62.377852
11
250.118583
21
-58.877258
0
LINE
8
Eco2
62
4
10
243.115792
20
-106.016331
11
239.265138
21
-119.445157
0
LINE
8
Eco2
62
4
10
229.686966
20
-102.165677
11
243.115792
21
-106.016331
0
LINE
8
Eco2
62
4
10
225.836312
20
-115.594503
11
229.686966
21
-102.165677
0
LINE
8
Eco2
62
4
10
239.265138
20
-119.445157
11
225.836312
21
-115.594503
0
LINE
8
0
10
246.100429
20
-104.361919
11
240.91955
21
-122.429794
0
LINE
8
0
10
228.032554
20
-99.18104
11
246.100429
21
-104.361919
0
LINE
8
0
10
222.851675
20
-117.248915
11
228.032554
21
-99.18104
0
LINE
8
0
10
240.91955
20
-122.429794
11
222.851675
21
-117.248915
0
LINE
8
Cmts
62
1
10
242.330361
20
-106.451702
11
238.829767
21
-118.659726
0
LINE
8
Cmts
62
1
10
230.122337
20
-102.951108
11
242.330361
21
-106.451702
0
LINE
8
Cmts
62
1
10
226.621743
20
-115.159132
11
230.122337
21
-102.951108
0
LINE
8
Cmts
62
1
10
238.829767
20
-118.659726
11
226.621743
21
-115.159132
0
LINE
8
Eco2
62
4
10
257.489658
20
-87.031412
11
253.639004
21
-100.460238
0
LINE
8
Eco2
62
4
10
244.060832
20
-83.180758
11
257.489658
21
-87.031412
0
LINE
8
Eco2
62
4
10
240.210178
20
-96.609584
11
244.060832
21
-83.180758
0
LINE
8
Eco2
62
4
10
253.639004
20
-100.460238
11
240.210178
21
-96.609584
0
LINE
8
0
10
260.474295
20
-85.377
11
255.293416
21
-103.444875
0
LINE
8
0
10
242.40642
20
-80.196121
11
260.474295
21
-85.377
0
LINE
8
0
10
237.225541
20
-98.263996
11
242.40642
21
-80.196121
0
LINE
8
0
10
255.293416
20
-103.444875
11
237.225541
21
-98.263996
0
LINE
8
Cmts
62
1
10
256.704227
20
-87.466783
11
253.203633
21
-99.674807
0
LINE
8
Cmts
62
1
10
244.496203
20
-83.966189
11
256.704227
21
-87.466783
0
LINE
8
Cmts
62
1
10
240.995609
20
-96.174213
11
244.496203
21
-83.966189
0
LINE
8
Cmts
62
1
10
253.203633
20
-99.674807
11
240.995609
21
-96.174213
0
LINE
8
Eco2
62
4
10
252.238767
20
-68.719377
11
248.388113
21
-82.148203
0
LINE
8
Eco2
62
4
10
238.809941
20
-64.868723
11
252.238767
21
-68.719377
0
LINE
8
Eco2
62
4
10
234.959287
20
-78.297549
11
238.809941
21
-64.868723
0
LINE
8
Eco2
62
4
10
248.388113
20
-82.148203
11
234.959287
21
-78.297549
0
LINE
8
0
10
255.223404
20
-67.064965
11
250.042525
21
-85.13284
0
LINE
8
0
10
237.155529
20
-61.884086
11
255.223404
21
-67.064965
0
LINE
8
0
10
231.97465
20
-79.951961
11
237.155529
21
-61.884086
0
LINE
8
0
10
250.042525
20
-85.13284
11
231.97465
21
-79.951961
0
LINE
8
Cmts
62
1
10
251.453336
20
-69.154748
11
247.952742
21
-81.362772
0
LINE
8
Cmts
62
1
10
239.245312
20
-65.654154
11
251.453336
21
-69.154748
0
LINE
8
Cmts
62
1
10
235.744718
20
-77.862178
11
239.245312
21
-65.654154
0
LINE
8
Cmts
62
1
10
247.952742
20
-81.362772
11
235.744718
21
-77.862178
0
LINE
8
Eco2
62
4
10
246.987875
20
-50.407341
11
243.137221
21
-63.836167
0
LINE
8
Eco2
62
4
10
233.559049
20
-46.556687
11
246.987875
21
-50.407341
0
LINE
8
Eco2
62
4
10
229.708395
20
-59.985513
11
233.559049
21
-46.556687
0
LINE
8
Eco2
62
4
10
243.137221
20
-63.836167
11
229.708395
21
-59.985513
0
LINE
8
0
10
249.972512
20
-48.752929
11
244.791633
21
-66.820804
0
LINE
8
0
10
231.904637
20
-43.57205
11
249.972512
21
-48.752929
0
LINE
8
0
10
226.723758
20
-61.639925
11
231.904637
21
-43.57205
0
LINE
8
0
10
244.791633
20
-66.820804
11
226.723758
21
-61.639925
0
LINE
8
Cmts
62
1
10
246.202444
20
-50.842712
11
242.70185
21
-63.050736
0
LINE
8
Cmts
62
1
10
233.99442
20
-47.342118
11
246.202444
21
-50.842712
0
LINE
8
Cmts
62
1
10
230.493826
20
-59.550142
11
233.99442
21
-47.342118
0
LINE
8
Cmts
62
1
10
242.70185
20
-63.050736
11
230.493826
21
-59.550142
0
LINE
8
Eco2
62
4
10
223.491035
20
-106.689215
11
219.640381
21
-120.118041
0
LINE
8
Eco2
62
4
10
210.062209
20
-102.838561
11
223.491035
21
-106.689215
0
LINE
8
Eco2
62
4
10
206.211555
20
-116.267387
11
210.062209
21
-102.838561
0
LINE
8
Eco2
62
4
10
219.640381
20
-120.118041
11
206.211555
21
-116.267387
0
LINE
8
0
10
226.475672
20
-105.034803
11
221.294793
21
-123.102678
0
LINE
8
0
10
208.407797
20
-99.853924
11
226.475672
21
-105.034803
0
LINE
8
0
10
203.226918
20
-117.921799
11
208.407797
21
-99.853924
0
LINE
8
0
10
221.294793
20
-123.102678
11
203.226918
21
-117.921799
0
LINE
8
Cmts
62
1
10
222.705604
20
-107.124586
11
219.20501
21
-119.33261
0
LINE
8
Cmts
62
1
10
210.49758
20
-103.623992
11
222.705604
21
-107.124586
0
LINE
8
Cmts
62
1
10
206.996986
20
-115.832016
11
210.49758
21
-103.623992
0
LINE
8
Cmts
62
1
10
219.20501
20
-119.33261
11
206.996986
21
-115.832016
0
LINE
8
Eco2
62
4
10
237.864901
20
-87.704296
11
234.014247
21
-101.133122
0
LINE
8
Eco2
62
4
10
224.436075
20
-83.853642
11
237.864901
21
-87.704296
0
LINE
8
Eco2
62
4
10
220.585421
20
-97.282468
11
224.436075
21
-83.853642
0
LINE
8
Eco2
62
4
10
234.014247
20
-101.133122
11
220.585421
21
-97.282468
0
LINE
8
0
10
240.849538
20
-86.049884
11
235.668659
21
-104.117759
0
LINE
8
0
10
222.781663
20
-80.869005
11
240.849538
21
-86.049884
0
LINE
8
0
10
217.600784
20
-98.93688
11
222.781663
21
-80.869005
0
LINE
8
0
10
235.668659
20
-104.117759
11
217.600784
21
-98.93688
0
LINE
8
Cmts
62
1
10
237.07947
20
-88.139667
11
233.578876
21
-100.347691
0
LINE
8
Cmts
62
1
10
224.871446
20
-84.639073
11
237.07947
21
-88.139667
0
LINE
8
Cmts
62
1
10
221.370852
20
-96.847097
11
224.871446
21
-84.639073
0
LINE
8
Cmts
62
1
10
233.578876
20
-100.347691
11
221.370852
21
-96.847097
0
LINE
8
Eco2
62
4
10
232.61401
20
-69.392261
11
228.763356
21
-82.821087
0
LINE
8
Eco2
62
4
10
219.185184
20
-65.541607
11
232.61401
21
-69.392261
0
LINE
8
Eco2
62
4
10
215.33453
20
-78.970433
11
219.185184
21
-65.541607
0
LINE
8
Eco2
62
4
10
228.763356
20
-82.821087
11
215.33453
21
-78.970433
0
LINE
8
0
10
235.598647
20
-67.737849
11
230.417768
21
-85.805724
0
LINE
8
0
10
217.530772
20
-62.55697
11
235.598647
21
-67.737849
0
LINE
8
0
10
212.349893
20
-80.624845
11
217.530772
21
-62.55697
0
LINE
8
0
10
230.417768
20
-85.805724
11
212.349893
21
-80.624845
0
LINE
8
Cmts
62
1
10
231.828579
20
-69.827632
11
228.327985
21
-82.035656
0
LINE
8
Cmts
62
1
10
219.620555
20
-66.327038
11
231.828579
21
-69.827632
0
LINE
8
Cmts
62
1
10
216.119961
20
-78.535062
11
219.620555
21
-66.327038
0
LINE
8
Cmts
62
1
10
228.327985
20
-82.035656
11
216.119961
21
-78.535062
0
LINE
8
Eco2
62
4
10
227.363118
20
-51.080225
11
223.512464
21
-64.509051
0
LINE
8
Eco2
62
4
10
213.934292
20
-47.229571
11
227.363118
21
-51.080225
0
LINE
8
Eco2
62
4
10
210.083638
20
-60.658397
11
213.934292
21
-47.229571
0
LINE
8
Eco2
62
4
10
223.512464
20
-64.509051
11
210.083638
21
-60.658397
0
LINE
8
0
10
230.347755
20
-49.425813
11
225.166876
21
-67.493688
0
LINE
8
0
10
212.27988
20
-44.244934
11
230.347755
21
-49.425813
0
LINE
8
0
10
207.099001
20
-62.312809
11
212.27988
21
-44.244934
0
LINE
8
0
10
225.166876
20
-67.493688
11
207.099001
21
-62.312809
0
LINE
8
Cmts
62
1
10
226.577687
20
-51.515596
11
223.077093
21
-63.72362
0
LINE
8
Cmts
62
1
10
214.369663
20
-48.015002
11
226.577687
21
-51.515596
0
LINE
8
Cmts
62
1
10
210.869069
20
-60.223026
11
214.369663
21
-48.015002
0
LINE
8
Cmts
62
1
10
223.077093
20
-63.72362
11
210.869069
21
-60.223026
0
LINE
8
Eco2
62
4
10
206.491724
20
-116.518117
11
202.64107
21
-129.946943
0
LINE
8
Eco2
62
4
10
193.062898
20
-112.667463
11
206.491724
21
-116.518117
0
LINE
8
Eco2
62
4
10
189.212244
20
-126.096289
11
193.062898
21
-112.667463
0
LINE
8
Eco2
62
4
10
202.64107
20
-129.946943
11
189.212244
21
-126.096289
0
LINE
8
0
10
209.476361
20
-114.863705
11
204.295482
21
-132.93158
0
LINE
8
0
10
191.408486
20
-109.682826
11
209.476361
21
-114.863705
0
LINE
8
0
10
186.227607
20
-127.750701
11
191.408486
21
-109.682826
0
LINE
8
0
10
204.295482
20
-132.93158
11
186.227607
21
-127.750701
0
LINE
8
Cmts
62
1
10
205.706293
20
-116.953488
11
202.205699
21
-129.161512
0
LINE
8
Cmts
62
1
10
193.498269
20
-113.452894
11
205.706293
21
-116.953488
0
LINE
8
Cmts
62
1
10
189.997675
20
-125.660918
11
193.498269
21
-113.452894
0
LINE
8
Cmts
62
1
10
202.205699
20
-129.161512
11
189.997675
21
-125.660918
0
LINE
8
Eco2
62
4
10
218.240144
20
-88.37718
11
214.38949
21
-101.806006
0
LINE
8
Eco2
62
4
10
204.811318
20
-84.526526
11
218.240144
21
-88.37718
0
LINE
8
Eco2
62
4
10
200.960664
20
-97.955352
11
204.811318
21
-84.526526
0
LINE
8
Eco2
62
4
10
214.38949
20
-101.806006
11
200.960664
21
-97.955352
0
LINE
8
0
10
221.224781
20
-86.722768
11
216.043902
21
-104.790643
0
LINE
8
0
10
203.156906
20
-81.541889
11
221.224781
21
-86.722768
0
LINE
8
0
10
197.976027
20
-99.609764
11
203.156906
21
-81.541889
0
LINE
8
0
10
216.043902
20
-104.790643
11
197.976027
21
-99.609764
0
LINE
8
Cmts
62
1
10
217.454713
20
-88.812551
11
213.954119
21
-101.020575
0
LINE
8
Cmts
62
1
10
205.246689
20
-85.311957
11
217.454713
21
-88.812551
0
LINE
8
Cmts
62
1
10
201.746095
20
-97.519981
11
205.246689
21
-85.311957
0
LINE
8
Cmts
62
1
10
213.954119
20
-101.020575
11
201.746095
21
-97.519981
0
LINE
8
Eco2
62
4
10
212.989253
20
-70.065145
11
209.138599
21
-83.493971
0
LINE
8
Eco2
62
4
10
199.560427
20
-66.214491
11
212.989253
21
-70.065145
0
LINE
8
Eco2
62
4
10
195.709773
20
-79.643317
11
199.560427
21
-66.214491
0
LINE
8
Eco2
62
4
10
209.138599
20
-83.493971
11
195.709773
21
-79.643317
0
LINE
8
0
10
215.97389
20
-68.410733
11
210.793011
21
-86.478608
0
LINE
8
0
10
197.906015
20
-63.229854
11
215.97389
21
-68.410733
0
LINE
8
0
10
192.725136
20
-81.297729
11
197.906015
21
-63.229854
0
LINE
8
0
10
210.793011
20
-86.478608
11
192.725136
21
-81.297729
0
LINE
8
Cmts
62
1
10
212.203822
20
-70.500516
11
208.703228
21
-82.70854
0
LINE
8
Cmts
62
1
10
199.995798
20
-66.999922
11
212.203822
21
-70.500516
0
LINE
8
Cmts
62
1
10
196.495204
20
-79.207946
11
199.995798
21
-66.999922
0
LINE
8
Cmts
62
1
10
208.703228
20
-82.70854
11
196.495204
21
-79.207946
0
LINE
8
Eco2
62
4
10
207.738362
20
-51.75311
11
203.887708
21
-65.181936
0
LINE
8
Eco2
62
4
10
194.309536
20
-47.902456
11
207.738362
21
-51.75311
0
LINE
8
Eco2
62
4
10
190.458882
20
-61.331282
11
194.309536
21
-47.902456
0
LINE
8
Eco2
62
4
10
203.887708
20
-65.181936
11
190.458882
21
-61.331282
0
LINE
8
0
10
210.722999
20
-50.098698
11
205.54212
21
-68.166573
0
LINE
8
0
10
192.655124
20
-44.917819
11
210.722999
21
-50.098698
0
LINE
8
0
10
187.474245
20
-62.985694
11
192.655124
21
-44.917819
0
LINE
8
0
10
205.54212
20
-68.166573
11
187.474245
21
-62.985694
0
LINE
8
Cmts
62
1
10
206.952931
20
-52.188481
11
203.452337
21
-64.396505
0
LINE
8
Cmts
62
1
10
194.744907
20
-48.687887
11
206.952931
21
-52.188481
0
LINE
8
Cmts
62
1
10
191.244313
20
-60.895911
11
194.744907
21
-48.687887
0
LINE
8
Cmts
62
1
10
203.452337
20
-64.396505
11
191.244313
21
-60.895911
0
LINE
8
Eco2
62
4
10
189.492413
20
-126.347019
11
185.641759
21
-139.775845
0
LINE
8
Eco2
62
4
10
176.063587
20
-122.496365
11
189.492413
21
-126.347019
0
LINE
8
Eco2
62
4
10
172.212933
20
-135.925191
11
176.063587
21
-122.496365
0
LINE
8
Eco2
62
4
10
185.641759
20
-139.775845
11
172.212933
21
-135.925191
0
LINE
8
0
10
192.47705
20
-124.692607
11
187.296171
21
-142.760482
0
LINE
8
0
10
174.409175
20
-119.511728
11
192.47705
21
-124.692607
0
LINE
8
0
10
169.228296
20
-137.579603
11
174.409175
21
-119.511728
0
LINE
8
0
10
187.296171
20
-142.760482
11
169.228296
21
-137.579603
0
LINE
8
Cmts
62
1
10
188.706982
20
-126.78239
11
185.206388
21
-138.990414
0
LINE
8
Cmts
62
1
10
176.498958
20
-123.281796
11
188.706982
21
-126.78239
0
LINE
8
Cmts
62
1
10
172.998364
20
-135.48982
11
176.498958
21
-123.281796
0
LINE
8
Cmts
62
1
10
185.206388
20
-138.990414
11
172.998364
21
-135.48982
0
LINE
8
Eco2
62
4
10
201.240833
20
-98.206082
11
197.390179
21
-111.634908
0
LINE
8
Eco2
62
4
10
187.812007
20
-94.355428
11
201.240833
21
-98.206082
0
LINE
8
Eco2
62
4
10
183.961353
20
-107.784254
11
187.812007
21
-94.355428
0
LINE
8
Eco2
62
4
10
197.390179
20
-111.634908
11
183.961353
21
-107.784254
0
LINE
8
0
10
204.22547
20
-96.55167
11
199.044591
21
-114.619545
0
LINE
8
0
10
186.157595
20
-91.370791
11
204.22547
21
-96.55167
0
LINE
8
0
10
180.976716
20
-109.438666
11
186.157595
21
-91.370791
0
LINE
8
0
10
199.044591
20
-114.619545
11
180.976716
21
-109.438666
0
LINE
8
Cmts
62
1
10
200.455402
20
-98.641453
11
196.954808
21
-110.849477
0
LINE
8
Cmts
62
1
10
188.247378
20
-95.140859
11
200.455402
21
-98.641453
0
LINE
8
Cmts
62
1
10
184.746784
20
-107.348883
11
188.247378
21
-95.140859
0
LINE
8
Cmts
62
1
10
196.954808
20
-110.849477
11
184.746784
21
-107.348883
0
LINE
8
Eco2
62
4
10
195.989942
20
-79.894047
11
192.139288
21
-93.322873
0
LINE
8
Eco2
62
4
10
182.561116
20
-76.043393
11
195.989942
21
-79.894047
0
LINE
8
Eco2
62
4
10
178.710462
20
-89.472219
11
182.561116
21
-76.043393
0
LINE
8
Eco2
62
4
10
192.139288
20
-93.322873
11
178.710462
21
-89.472219
0
LINE
8
0
10
198.974579
20
-78.239635
11
193.7937
21
-96.30751
0
LINE
8
0
10
180.906704
20
-73.058756
11
198.974579
21
-78.239635
0
LINE
8
0
10
175.725825
20
-91.126631
11
180.906704
21
-73.058756
0
LINE
8
0
10
193.7937
20
-96.30751
11
175.725825
21
-91.126631
0
LINE
8
Cmts
62
1
10
195.204511
20
-80.329418
11
191.703917
21
-92.537442
0
LINE
8
Cmts
62
1
10
182.996487
20
-76.828824
11
195.204511
21
-80.329418
0
LINE
8
Cmts
62
1
10
179.495893
20
-89.036848
11
182.996487
21
-76.828824
0
LINE
8
Cmts
62
1
10
191.703917
20
-92.537442
11
179.495893
21
-89.036848
0
LINE
8
Eco2
62
4
10
190.739051
20
-61.582012
11
186.888397
21
-75.010838
0
LINE
8
Eco2
62
4
10
177.310225
20
-57.731358
11
190.739051
21
-61.582012
0
LINE
8
Eco2
62
4
10
173.459571
20
-71.160184
11
177.310225
21
-57.731358
0
LINE
8
Eco2
62
4
10
186.888397
20
-75.010838
11
173.459571
21
-71.160184
0
LINE
8
0
10
193.723688
20
-59.9276
11
188.542809
21
-77.995475
0
LINE
8
0
10
175.655813
20
-54.746721
11
193.723688
21
-59.9276
0
LINE
8
0
10
170.474934
20
-72.814596
11
175.655813
21
-54.746721
0
LINE
8
0
10
188.542809
20
-77.995475
11
170.474934
21
-72.814596
0
LINE
8
Cmts
62
1
10
189.95362
20
-62.017383
11
186.453026
21
-74.225407
0
LINE
8
Cmts
62
1
10
177.745596
20
-58.516789
11
189.95362
21
-62.017383
0
LINE
8
Cmts
62
1
10
174.245002
20
-70.724813
11
177.745596
21
-58.516789
0
LINE
8
Cmts
62
1
10
186.453026
20
-74.225407
11
174.245002
21
-70.724813
0
LINE
8
Eco2
62
4
10
171.180377
20
-131.59791
11
167.329723
21
-145.026736
0
LINE
8
Eco2
62
4
10
157.751551
20
-127.747256
11
171.180377
21
-131.59791
0
LINE
8
Eco2
62
4
10
153.900897
20
-141.176082
11
157.751551
21
-127.747256
0
LINE
8
Eco2
62
4
10
167.329723
20
-145.026736
11
153.900897
21
-141.176082
0
LINE
8
0
10
174.165014
20
-129.943498
11
168.984135
21
-148.011373
0
LINE
8
0
10
156.097139
20
-124.762619
11
174.165014
21
-129.943498
0
LINE
8
0
10
150.91626
20
-142.830494
11
156.097139
21
-124.762619
0
LINE
8
0
10
168.984135
20
-148.011373
11
150.91626
21
-142.830494
0
LINE
8
Cmts
62
1
10
170.394946
20
-132.033281
11
166.894352
21
-144.241305
0
LINE
8
Cmts
62
1
10
158.186922
20
-128.532687
11
170.394946
21
-132.033281
0
LINE
8
Cmts
62
1
10
154.686328
20
-140.740711
11
158.186922
21
-128.532687
0
LINE
8
Cmts
62
1
10
166.894352
20
-144.241305
11
154.686328
21
-140.740711
0
LINE
8
Eco2
62
4
10
184.241522
20
-108.034984
11
180.390868
21
-121.46381
0
LINE
8
Eco2
62
4
10
170.812696
20
-104.18433
11
184.241522
21
-108.034984
0
LINE
8
Eco2
62
4
10
166.962042
20
-117.613156
11
170.812696
21
-104.18433
0
LINE
8
Eco2
62
4
10
180.390868
20
-121.46381
11
166.962042
21
-117.613156
0
LINE
8
0
10
187.226159
20
-106.380572
11
182.04528
21
-124.448447
0
LINE
8
0
10
169.158284
20
-101.199693
11
187.226159
21
-106.380572
0
LINE
8
0
10
163.977405
20
-119.267568
11
169.158284
21
-101.199693
0
LINE
8
0
10
182.04528
20
-124.448447
11
163.977405
21
-119.267568
0
LINE
8
Cmts
62
1
10
183.456091
20
-108.470355
11
179.955497
21
-120.678379
0
LINE
8
Cmts
62
1
10
171.248067
20
-104.969761
11
183.456091
21
-108.470355
0
LINE
8
Cmts
62
1
10
167.747473
20
-117.177785
11
171.248067
21
-104.969761
0
LINE
8
Cmts
62
1
10
179.955497
20
-120.678379
11
167.747473
21
-117.177785
0
LINE
8
Eco2
62
4
10
178.990631
20
-89.722949
11
175.139977
21
-103.151775
0
LINE
8
Eco2
62
4
10
165.561805
20
-85.872295
11
178.990631
21
-89.722949
0
LINE
8
Eco2
62
4
10
161.711151
20
-99.301121
11
165.561805
21
-85.872295
0
LINE
8
Eco2
62
4
10
175.139977
20
-103.151775
11
161.711151
21
-99.301121
0
LINE
8
0
10
181.975268
20
-88.068537
11
176.794389
21
-106.136412
0
LINE
8
0
10
163.907393
20
-82.887658
11
181.975268
21
-88.068537
0
LINE
8
0
10
158.726514
20
-100.955533
11
163.907393
21
-82.887658
0
LINE
8
0
10
176.794389
20
-106.136412
11
158.726514
21
-100.955533
0
LINE
8
Cmts
62
1
10
178.2052
20
-90.15832
11
174.704606
21
-102.366344
0
LINE
8
Cmts
62
1
10
165.997176
20
-86.657726
11
178.2052
21
-90.15832
0
LINE
8
Cmts
62
1
10
162.496582
20
-98.86575
11
165.997176
21
-86.657726
0
LINE
8
Cmts
62
1
10
174.704606
20
-102.366344
11
162.496582
21
-98.86575
0
LINE
8
Eco2
62
4
10
173.73974
20
-71.410914
11
169.889086
21
-84.83974
0
LINE
8
Eco2
62
4
10
160.310914
20
-67.56026
11
173.73974
21
-71.410914
0
LINE
8
Eco2
62
4
10
156.46026
20
-80.989086
11
160.310914
21
-67.56026
0
LINE
8
Eco2
62
4
10
169.889086
20
-84.83974
11
156.46026
21
-80.989086
0
LINE
8
0
10
176.724377
20
-69.756502
11
171.543498
21
-87.824377
0
LINE
8
0
10
158.656502
20
-64.575623
11
176.724377
21
-69.756502
0
LINE
8
0
10
153.475623
20
-82.643498
11
158.656502
21
-64.575623
0
LINE
8
0
10
171.543498
20
-87.824377
11
153.475623
21
-82.643498
0
LINE
8
Cmts
62
1
10
172.954309
20
-71.846285
11
169.453715
21
-84.054309
0
LINE
8
Cmts
62
1
10
160.746285
20
-68.345691
11
172.954309
21
-71.846285
0
LINE
8
Cmts
62
1
10
157.245691
20
-80.553715
11
160.746285
21
-68.345691
0
LINE
8
Cmts
62
1
10
169.453715
20
-84.054309
11
157.245691
21
-80.553715
0
LINE
8
Eco2
62
4
10
134.348445
20
-127.747256
11
138.199099
21
-141.176082
0
LINE
8
Eco2
62
4
10
120.919619
20
-131.59791
11
134.348445
21
-127.747256
0
LINE
8
Eco2
62
4
10
124.770273
20
-145.026736
11
120.919619
21
-131.59791
0
LINE
8
Eco2
62
4
10
138.199099
20
-141.176082
11
124.770273
21
-145.026736
0
LINE
8
0
10
136.002857
20
-124.762619
11
141.183736
21
-142.830494
0
LINE
8
0
10
117.934982
20
-129.943498
11
136.002857
21
-124.762619
0
LINE
8
0
10
123.115861
20
-148.011373
11
117.934982
21
-129.943498
0
LINE
8
0
10
141.183736
20
-142.830494
11
123.115861
21
-148.011373
0
LINE
8
Cmts
62
1
10
133.913074
20
-128.532687
11
137.413668
21
-140.740711
0
LINE
8
Cmts
62
1
10
121.70505
20
-132.033281
11
133.913074
21
-128.532687
0
LINE
8
Cmts
62
1
10
125.205644
20
-144.241305
11
121.70505
21
-132.033281
0
LINE
8
Cmts
62
1
10
137.413668
20
-140.740711
11
125.205644
21
-144.241305
0
LINE
8
Eco2
62
4
10
121.287302
20
-104.18433
11
125.137956
21
-117.613156
0
LINE
8
Eco2
62
4
10
107.858476
20
-108.034984
11
121.287302
21
-104.18433
0
LINE
8
Eco2
62
4
10
111.70913
20
-121.46381
11
107.858476
21
-108.034984
0
LINE
8
Eco2
62
4
10
125.137956
20
-117.613156
11
111.70913
21
-121.46381
0
LINE
8
0
10
122.941714
20
-101.199693
11
128.122593
21
-119.267568
0
LINE
8
0
10
104.873839
20
-106.380572
11
122.941714
21
-101.199693
0
LINE
8
0
10
110.054718
20
-124.448447
11
104.873839
21
-106.380572
0
LINE
8
0
10
128.122593
20
-119.267568
11
110.054718
21
-124.448447
0
LINE
8
Cmts
62
1
10
120.851931
20
-104.969761
11
124.352525
21
-117.177785
0
LINE
8
Cmts
62
1
10
108.643907
20
-108.470355
11
120.851931
21
-104.969761
0
LINE
8
Cmts
62
1
10
112.144501
20
-120.678379
11
108.643907
21
-108.470355
0
LINE
8
Cmts
62
1
10
124.352525
20
-117.177785
11
112.144501
21
-120.678379
0
LINE
8
Eco2
62
4
10
126.538194
20
-85.872295
11
130.388848
21
-99.301121
0
LINE
8
Eco2
62
4
10
113.109368
20
-89.722949
11
126.538194
21
-85.872295
0
LINE
8
Eco2
62
4
10
116.960022
20
-103.151775
11
113.109368
21
-89.722949
0
LINE
8
Eco2
62
4
10
130.388848
20
-99.301121
11
116.960022
21
-103.151775
0
LINE
8
0
10
128.192606
20
-82.887658
11
133.373485
21
-100.955533
0
LINE
8
0
10
110.124731
20
-88.068537
11
128.192606
21
-82.887658
0
LINE
8
0
10
115.30561
20
-106.136412
11
110.124731
21
-88.068537
0
LINE
8
0
10
133.373485
20
-100.955533
11
115.30561
21
-106.136412
0
LINE
8
Cmts
62
1
10
126.102823
20
-86.657726
11
129.603417
21
-98.86575
0
LINE
8
Cmts
62
1
10
113.894799
20
-90.15832
11
126.102823
21
-86.657726
0
LINE
8
Cmts
62
1
10
117.395393
20
-102.366344
11
113.894799
21
-90.15832
0
LINE
8
Cmts
62
1
10
129.603417
20
-98.86575
11
117.395393
21
-102.366344
0
LINE
8
Eco2
62
4
10
131.789086
20
-67.56026
11
135.63974
21
-80.989086
0
LINE
8
Eco2
62
4
10
118.36026
20
-71.410914
11
131.789086
21
-67.56026
0
LINE
8
Eco2
62
4
10
122.210914
20
-84.83974
11
118.36026
21
-71.410914
0
LINE
8
Eco2
62
4
10
135.63974
20
-80.989086
11
122.210914
21
-84.83974
0
LINE
8
0
10
133.443498
20
-64.575623
11
138.624377
21
-82.643498
0
LINE
8
0
10
115.375623
20
-69.756502
11
133.443498
21
-64.575623
0
LINE
8
0
10
120.556502
20
-87.824377
11
115.375623
21
-69.756502
0
LINE
8
0
10
138.624377
20
-82.643498
11
120.556502
21
-87.824377
0
LINE
8
Cmts
62
1
10
131.353715
20
-68.345691
11
134.854309
21
-80.553715
0
LINE
8
Cmts
62
1
10
119.145691
20
-71.846285
11
131.353715
21
-68.345691
0
LINE
8
Cmts
62
1
10
122.646285
20
-84.054309
11
119.145691
21
-71.846285
0
LINE
8
Cmts
62
1
10
134.854309
20
-80.553715
11
122.646285
21
-84.054309
0
LINE
8
Eco2
62
4
10
116.03641
20
-122.496365
11
119.887064
21
-135.925191
0
LINE
8
Eco2
62
4
10
102.607584
20
-126.347019
11
116.03641
21
-122.496365
0
LINE
8
Eco2
62
4
10
106.458238
20
-139.775845
11
102.607584
21
-126.347019
0
LINE
8
Eco2
62
4
10
119.887064
20
-135.925191
11
106.458238
21
-139.775845
0
LINE
8
0
10
117.690822
20
-119.511728
11
122.871701
21
-137.579603
0
LINE
8
0
10
99.622947
20
-124.692607
11
117.690822
21
-119.511728
0
LINE
8
0
10
104.803826
20
-142.760482
11
99.622947
21
-124.692607
0
LINE
8
0
10
122.871701
20
-137.579603
11
104.803826
21
-142.760482
0
LINE
8
Cmts
62
1
10
115.601039
20
-123.281796
11
119.101633
21
-135.48982
0
LINE
8
Cmts
62
1
10
103.393015
20
-126.78239
11
115.601039
21
-123.281796
0
LINE
8
Cmts
62
1
10
106.893609
20
-138.990414
11
103.393015
21
-126.78239
0
LINE
8
Cmts
62
1
10
119.101633
20
-135.48982
11
106.893609
21
-138.990414
0
LINE
8
Eco2
62
4
10
104.287988
20
-94.355428
11
108.138642
21
-107.784254
0
LINE
8
Eco2
62
4
10
90.859162
20
-98.206082
11
104.287988
21
-94.355428
0
LINE
8
Eco2
62
4
10
94.709816
20
-111.634908
11
90.859162
21
-98.206082
0
LINE
8
Eco2
62
4
10
108.138642
20
-107.784254
11
94.709816
21
-111.634908
0
LINE
8
0
10
105.9424
20
-91.370791
11
111.123279
21
-109.438666
0
LINE
8
0
10
87.874525
20
-96.55167
11
105.9424
21
-91.370791
0
LINE
8
0
10
93.055404
20
-114.619545
11
87.874525
21
-96.55167
0
LINE
8
0
10
111.123279
20
-109.438666
11
93.055404
21
-114.619545
0
LINE
8
Cmts
62
1
10
103.852617
20
-95.140859
11
107.353211
21
-107.348883
0
LINE
8
Cmts
62
1
10
91.644593
20
-98.641453
11
103.852617
21
-95.140859
0
LINE
8
Cmts
62
1
10
95.145187
20
-110.849477
11
91.644593
21
-98.641453
0
LINE
8
Cmts
62
1
10
107.353211
20
-107.348883
11
95.145187
21
-110.849477
0
LINE
8
Eco2
62
4
10
109.53888
20
-76.043393
11
113.389534
21
-89.472219
0
LINE
8
Eco2
62
4
10
96.110054
20
-79.894047
11
109.53888
21
-76.043393
0
LINE
8
Eco2
62
4
10
99.960708
20
-93.322873
11
96.110054
21
-79.894047
0
LINE
8
Eco2
62
4
10
113.389534
20
-89.472219
11
99.960708
21
-93.322873
0
LINE
8
0
10
111.193292
20
-73.058756
11
116.374171
21
-91.126631
0
LINE
8
0
10
93.125417
20
-78.239635
11
111.193292
21
-73.058756
0
LINE
8
0
10
98.306296
20
-96.30751
11
93.125417
21
-78.239635
0
LINE
8
0
10
116.374171
20
-91.126631
11
98.306296
21
-96.30751
0
LINE
8
Cmts
62
1
10
109.103509
20
-76.828824
11
112.604103
21
-89.036848
0
LINE
8
Cmts
62
1
10
96.895485
20
-80.329418
11
109.103509
21
-76.828824
0
LINE
8
Cmts
62
1
10
100.396079
20
-92.537442
11
96.895485
21
-80.329418
0
LINE
8
Cmts
62
1
10
112.604103
20
-89.036848
11
100.396079
21
-92.537442
0
LINE
8
Eco2
62
4
10
114.789772
20
-57.731358
11
118.640426
21
-71.160184
0
LINE
8
Eco2
62
4
10
101.360946
20
-61.582012
11
114.789772
21
-57.731358
0
LINE
8
Eco2
62
4
10
105.2116
20
-75.010838
11
101.360946
21
-61.582012
0
LINE
8
Eco2
62
4
10
118.640426
20
-71.160184
11
105.2116
21
-75.010838
0
LINE
8
0
10
116.444184
20
-54.746721
11
121.625063
21
-72.814596
0
LINE
8
0
10
98.376309
20
-59.9276
11
116.444184
21
-54.746721
0
LINE
8
0
10
103.557188
20
-77.995475
11
98.376309
21
-59.9276
0
LINE
8
0
10
121.625063
20
-72.814596
11
103.557188
21
-77.995475
0
LINE
8
Cmts
62
1
10
114.354401
20
-58.516789
11
117.854995
21
-70.724813
0
LINE
8
Cmts
62
1
10
102.146377
20
-62.017383
11
114.354401
21
-58.516789
0
LINE
8
Cmts
62
1
10
105.646971
20
-74.225407
11
102.146377
21
-62.017383
0
LINE
8
Cmts
62
1
10
117.854995
20
-70.724813
11
105.646971
21
-74.225407
0
LINE
8
Eco2
62
4
10
99.037096
20
-112.667463
11
102.88775
21
-126.096289
0
LINE
8
Eco2
62
4
10
85.60827
20
-116.518117
11
99.037096
21
-112.667463
0
LINE
8
Eco2
62
4
10
89.458924
20
-129.946943
11
85.60827
21
-116.518117
0
LINE
8
Eco2
62
4
10
102.88775
20
-126.096289
11
89.458924
21
-129.946943
0
LINE
8
0
10
100.691508
20
-109.682826
11
105.872387
21
-127.750701
0
LINE
8
0
10
82.623633
20
-114.863705
11
100.691508
21
-109.682826
0
LINE
8
0
10
87.804512
20
-132.93158
11
82.623633
21
-114.863705
0
LINE
8
0
10
105.872387
20
-127.750701
11
87.804512
21
-132.93158
0
LINE
8
Cmts
62
1
10
98.601725
20
-113.452894
11
102.102319
21
-125.660918
0
LINE
8
Cmts
62
1
10
86.393701
20
-116.953488
11
98.601725
21
-113.452894
0
LINE
8
Cmts
62
1
10
89.894295
20
-129.161512
11
86.393701
21
-116.953488
0
LINE
8
Cmts
62
1
10
102.102319
20
-125.660918
11
89.894295
21
-129.161512
0
LINE
8
Eco2
62
4
10
87.288674
20
-84.526526
11
91.139328
21
-97.955352
0
LINE
8
Eco2
62
4
10
73.859848
20
-88.37718
11
87.288674
21
-84.526526
0
LINE
8
Eco2
62
4
10
77.710502
20
-101.806006
11
73.859848
21
-88.37718
0
LINE
8
Eco2
62
4
10
91.139328
20
-97.955352
11
77.710502
21
-101.806006
0
LINE
8
0
10
88.943086
20
-81.541889
11
94.123965
21
-99.609764
0
LINE
8
0
10
70.875211
20
-86.722768
11
88.943086
21
-81.541889
0
LINE
8
0
10
76.05609
20
-104.790643
11
70.875211
21
-86.722768
0
LINE
8
0
10
94.123965
20
-99.609764
11
76.05609
21
-104.790643
0
LINE
8
Cmts
62
1
10
86.853303
20
-85.311957
11
90.353897
21
-97.519981
0
LINE
8
Cmts
62
1
10
74.645279
20
-88.812551
11
86.853303
21
-85.311957
0
LINE
8
Cmts
62
1
10
78.145873
20
-101.020575
11
74.645279
21
-88.812551
0
LINE
8
Cmts
62
1
10
90.353897
20
-97.519981
11
78.145873
21
-101.020575
0
LINE
8
Eco2
62
4
10
92.539566
20
-66.214491
11
96.39022
21
-79.643317
0
LINE
8
Eco2
62
4
10
79.11074
20
-70.065145
11
92.539566
21
-66.214491
0
LINE
8
Eco2
62
4
10
82.961394
20
-83.493971
11
79.11074
21
-70.065145
0
LINE
8
Eco2
62
4
10
96.39022
20
-79.643317
11
82.961394
21
-83.493971
0
LINE
8
0
10
94.193978
20
-63.229854
11
99.374857
21
-81.297729
0
LINE
8
0
10
76.126103
20
-68.410733
11
94.193978
21
-63.229854
0
LINE
8
0
10
81.306982
20
-86.478608
11
76.126103
21
-68.410733
0
LINE
8
0
10
99.374857
20
-81.297729
11
81.306982
21
-86.478608
0
LINE
8
Cmts
62
1
10
92.104195
20
-66.999922
11
95.604789
21
-79.207946
0
LINE
8
Cmts
62
1
10
79.896171
20
-70.500516
11
92.104195
21
-66.999922
0
LINE
8
Cmts
62
1
10
83.396765
20
-82.70854
11
79.896171
21
-70.500516
0
LINE
8
Cmts
62
1
10
95.604789
20
-79.207946
11
83.396765
21
-82.70854
0
LINE
8
Eco2
62
4
10
97.790458
20
-47.902456
11
101.641112
21
-61.331282
0
LINE
8
Eco2
62
4
10
84.361632
20
-51.75311
11
97.790458
21
-47.902456
0
LINE
8
Eco2
62
4
10
88.212286
20
-65.181936
11
84.361632
21
-51.75311
0
LINE
8
Eco2
62
4
10
101.641112
20
-61.331282
11
88.212286
21
-65.181936
0
LINE
8
0
10
99.44487
20
-44.917819
11
104.625749
21
-62.985694
0
LINE
8
0
10
81.376995
20
-50.098698
11
99.44487
21
-44.917819
0
LINE
8
0
10
86.557874
20
-68.166573
11
81.376995
21
-50.098698
0
LINE
8
0
10
104.625749
20
-62.985694
11
86.557874
21
-68.166573
0
LINE
8
Cmts
62
1
10
97.355087
20
-48.687887
11
100.855681
21
-60.895911
0
LINE
8
Cmts
62
1
10
85.147063
20
-52.188481
11
97.355087
21
-48.687887
0
LINE
8
Cmts
62
1
10
88.647657
20
-64.396505
11
85.147063
21
-52.188481
0
LINE
8
Cmts
62
1
10
100.855681
20
-60.895911
11
88.647657
21
-64.396505
0
LINE
8
Eco2
62
4
10
82.037782
20
-102.838561
11
85.888436
21
-116.267387
0
LINE
8
Eco2
62
4
10
68.608956
20
-106.689215
11
82.037782
21
-102.838561
0
LINE
8
Eco2
62
4
10
72.45961
20
-120.118041
11
68.608956
21
-106.689215
0
LINE
8
Eco2
62
4
10
85.888436
20
-116.267387
11
72.45961
21
-120.118041
0
LINE
8
0
10
83.692194
20
-99.853924
11
88.873073
21
-117.921799
0
LINE
8
0
10
65.624319
20
-105.034803
11
83.692194
21
-99.853924
0
LINE
8
0
10
70.805198
20
-123.102678
11
65.624319
21
-105.034803
0
LINE
8
0
10
88.873073
20
-117.921799
11
70.805198
21
-123.102678
0
LINE
8
Cmts
62
1
10
81.602411
20
-103.623992
11
85.103005
21
-115.832016
0
LINE
8
Cmts
62
1
10
69.394387
20
-107.124586
11
81.602411
21
-103.623992
0
LINE
8
Cmts
62
1
10
72.894981
20
-119.33261
11
69.394387
21
-107.124586
0
LINE
8
Cmts
62
1
10
85.103005
20
-115.832016
11
72.894981
21
-119.33261
0
LINE
8
Eco2
62
4
10
67.663915
20
-83.853643
11
71.514569
21
-97.282469
0
LINE
8
Eco2
62
4
10
54.235089
20
-87.704297
11
67.663915
21
-83.853643
0
LINE
8
Eco2
62
4
10
58.085743
20
-101.133123
11
54.235089
21
-87.704297
0
LINE
8
Eco2
62
4
10
71.514569
20
-97.282469
11
58.085743
21
-101.133123
0
LINE
8
0
10
69.318327
20
-80.869006
11
74.499206
21
-98.936881
0
LINE
8
0
10
51.250452
20
-86.049885
11
69.318327
21
-80.869006
0
LINE
8
0
10
56.431331
20
-104.11776
11
51.250452
21
-86.049885
0
LINE
8
0
10
74.499206
20
-98.936881
11
56.431331
21
-104.11776
0
LINE
8
Cmts
62
1
10
67.228544
20
-84.639074
11
70.729138
21
-96.847098
0
LINE
8
Cmts
62
1
10
55.02052
20
-88.139668
11
67.228544
21
-84.639074
0
LINE
8
Cmts
62
1
10
58.521114
20
-100.347692
11
55.02052
21
-88.139668
0
LINE
8
Cmts
62
1
10
70.729138
20
-96.847098
11
58.521114
21
-100.347692
0
LINE
8
Eco2
62
4
10
72.914807
20
-65.541608
11
76.765461
21
-78.970434
0
LINE
8
Eco2
62
4
10
59.485981
20
-69.392262
11
72.914807
21
-65.541608
0
LINE
8
Eco2
62
4
10
63.336635
20
-82.821088
11
59.485981
21
-69.392262
0
LINE
8
Eco2
62
4
10
76.765461
20
-78.970434
11
63.336635
21
-82.821088
0
LINE
8
0
10
74.569219
20
-62.556971
11
79.750098
21
-80.624846
0
LINE
8
0
10
56.501344
20
-67.73785
11
74.569219
21
-62.556971
0
LINE
8
0
10
61.682223
20
-85.805725
11
56.501344
21
-67.73785
0
LINE
8
0
10
79.750098
20
-80.624846
11
61.682223
21
-85.805725
0
LINE
8
Cmts
62
1
10
72.479436
20
-66.327039
11
75.98003
21
-78.535063
0
LINE
8
Cmts
62
1
10
60.271412
20
-69.827633
11
72.479436
21
-66.327039
0
LINE
8
Cmts
62
1
10
63.772006
20
-82.035657
11
60.271412
21
-69.827633
0
LINE
8
Cmts
62
1
10
75.98003
20
-78.535063
11
63.772006
21
-82.035657
0
LINE
8
Eco2
62
4
10
78.165698
20
-47.229572
11
82.016352
21
-60.658398
0
LINE
8
Eco2
62
4
10
64.736872
20
-51.080226
11
78.165698
21
-47.229572
0
LINE
8
Eco2
62
4
10
68.587526
20
-64.509052
11
64.736872
21
-51.080226
0
LINE
8
Eco2
62
4
10
82.016352
20
-60.658398
11
68.587526
21
-64.509052
0
LINE
8
0
10
79.82011
20
-44.244935
11
85.000989
21
-62.31281
0
LINE
8
0
10
61.752235
20
-49.425814
11
79.82011
21
-44.244935
0
LINE
8
0
10
66.933114
20
-67.493689
11
61.752235
21
-49.425814
0
LINE
8
0
10
85.000989
20
-62.31281
11
66.933114
21
-67.493689
0
LINE
8
Cmts
62
1
10
77.730327
20
-48.015003
11
81.230921
21
-60.223027
0
LINE
8
Cmts
62
1
10
65.522303
20
-51.515597
11
77.730327
21
-48.015003
0
LINE
8
Cmts
62
1
10
69.022897
20
-63.723621
11
65.522303
21
-51.515597
0
LINE
8
Cmts
62
1
10
81.230921
20
-60.223027
11
69.022897
21
-63.723621
0
LINE
8
Eco2
62
4
10
62.413023
20
-102.165678
11
66.263677
21
-115.594504
0
LINE
8
Eco2
62
4
10
48.984197
20
-106.016332
11
62.413023
21
-102.165678
0
LINE
8
Eco2
62
4
10
52.834851
20
-119.445158
11
48.984197
21
-106.016332
0
LINE
8
Eco2
62
4
10
66.263677
20
-115.594504
11
52.834851
21
-119.445158
0
LINE
8
0
10
64.067435
20
-99.181041
11
69.248314
21
-117.248916
0
LINE
8
0
10
45.99956
20
-104.36192
11
64.067435
21
-99.181041
0
LINE
8
0
10
51.180439
20
-122.429795
11
45.99956
21
-104.36192
0
LINE
8
0
10
69.248314
20
-117.248916
11
51.180439
21
-122.429795
0
LINE
8
Cmts
62
1
10
61.977652
20
-102.951109
11
65.478246
21
-115.159133
0
LINE
8
Cmts
62
1
10
49.769628
20
-106.451703
11
61.977652
21
-102.951109
0
LINE
8
Cmts
62
1
10
53.270222
20
-118.659727
11
49.769628
21
-106.451703
0
LINE
8
Cmts
62
1
10
65.478246
20
-115.159133
11
53.270222
21
-118.659727
0
LINE
8
Eco2
62
4
10
48.039155
20
-83.180759
11
51.889809
21
-96.609585
0
LINE
8
Eco2
62
4
10
34.610329
20
-87.031413
11
48.039155
21
-83.180759
0
LINE
8
Eco2
62
4
10
38.460983
20
-100.460239
11
34.610329
21
-87.031413
0
LINE
8
Eco2
62
4
10
51.889809
20
-96.609585
11
38.460983
21
-100.460239
0
LINE
8
0
10
49.693567
20
-80.196122
11
54.874446
21
-98.263997
0
LINE
8
0
10
31.625692
20
-85.377001
11
49.693567
21
-80.196122
0
LINE
8
0
10
36.806571
20
-103.444876
11
31.625692
21
-85.377001
0
LINE
8
0
10
54.874446
20
-98.263997
11
36.806571
21
-103.444876
0
LINE
8
Cmts
62
1
10
47.603784
20
-83.96619
11
51.104378
21
-96.174214
0
LINE
8
Cmts
62
1
10
35.39576
20
-87.466784
11
47.603784
21
-83.96619
0
LINE
8
Cmts
62
1
10
38.896354
20
-99.674808
11
35.39576
21
-87.466784
0
LINE
8
Cmts
62
1
10
51.104378
20
-96.174214
11
38.896354
21
-99.674808
0
LINE
8
Eco2
62
4
10
53.290047
20
-64.868724
11
57.140701
21
-78.29755
0
LINE
8
Eco2
62
4
10
39.861221
20
-68.719378
11
53.290047
21
-64.868724
0
LINE
8
Eco2
62
4
10
43.711875
20
-82.148204
11
39.861221
21
-68.719378
0
LINE
8
Eco2
62
4
10
57.140701
20
-78.29755
11
43.711875
21
-82.148204
0
LINE
8
0
10
54.944459
20
-61.884087
11
60.125338
21
-79.951962
0
LINE
8
0
10
36.876584
20
-67.064966
11
54.944459
21
-61.884087
0
LINE
8
0
10
42.057463
20
-85.132841
11
36.876584
21
-67.064966
0
LINE
8
0
10
60.125338
20
-79.951962
11
42.057463
21
-85.132841
0
LINE
8
Cmts
62
1
10
52.854676
20
-65.654155
11
56.35527
21
-77.862179
0
LINE
8
Cmts
62
1
10
40.646652
20
-69.154749
11
52.854676
21
-65.654155
0
LINE
8
Cmts
62
1
10
44.147246
20
-81.362773
11
40.646652
21
-69.154749
0
LINE
8
Cmts
62
1
10
56.35527
20
-77.862179
11
44.147246
21
-81.362773
0
LINE
8
Eco2
62
4
10
58.540938
20
-46.556688
11
62.391592
21
-59.985514
0
LINE
8
Eco2
62
4
10
45.112112
20
-50.407342
11
58.540938
21
-46.556688
0
LINE
8
Eco2
62
4
10
48.962766
20
-63.836168
11
45.112112
21
-50.407342
0
LINE
8
Eco2
62
4
10
62.391592
20
-59.985514
11
48.962766
21
-63.836168
0
LINE
8
0
10
60.19535
20
-43.572051
11
65.376229
21
-61.639926
0
LINE
8
0
10
42.127475
20
-48.75293
11
60.19535
21
-43.572051
0
LINE
8
0
10
47.308354
20
-66.820805
11
42.127475
21
-48.75293
0
LINE
8
0
10
65.376229
20
-61.639926
11
47.308354
21
-66.820805
0
LINE
8
Cmts
62
1
10
58.105567
20
-47.342119
11
61.606161
21
-59.550143
0
LINE
8
Cmts
62
1
10
45.897543
20
-50.842713
11
58.105567
21
-47.342119
0
LINE
8
Cmts
62
1
10
49.398137
20
-63.050737
11
45.897543
21
-50.842713
0
LINE
8
Cmts
62
1
10
61.606161
20
-59.550143
11
49.398137
21
-63.050737
0
LINE
8
Eco2
62
4
10
28.414395
20
-82.507875
11
32.265049
21
-95.936701
0
LINE
8
Eco2
62
4
10
14.985569
20
-86.358529
11
28.414395
21
-82.507875
0
LINE
8
Eco2
62
4
10
18.836223
20
-99.787355
11
14.985569
21
-86.358529
0
LINE
8
Eco2
62
4
10
32.265049
20
-95.936701
11
18.836223
21
-99.787355
0
LINE
8
0
10
30.068807
20
-79.523238
11
35.249686
21
-97.591113
0
LINE
8
0
10
12.000932
20
-84.704117
11
30.068807
21
-79.523238
0
LINE
8
0
10
17.181811
20
-102.771992
11
12.000932
21
-84.704117
0
LINE
8
0
10
35.249686
20
-97.591113
11
17.181811
21
-102.771992
0
LINE
8
Cmts
62
1
10
27.979024
20
-83.293306
11
31.479618
21
-95.50133
0
LINE
8
Cmts
62
1
10
15.771
20
-86.7939
11
27.979024
21
-83.293306
0
LINE
8
Cmts
62
1
10
19.271594
20
-99.001924
11
15.771
21
-86.7939
0
LINE
8
Cmts
62
1
10
31.479618
20
-95.50133
11
19.271594
21
-99.001924
0
LINE
8
Eco2
62
4
10
33.665287
20
-64.19584
11
37.515941
21
-77.624666
0
LINE
8
Eco2
62
4
10
20.236461
20
-68.046494
11
33.665287
21
-64.19584
0
LINE
8
Eco2
62
4
10
24.087115
20
-81.47532
11
20.236461
21
-68.046494
0
LINE
8
Eco2
62
4
10
37.515941
20
-77.624666
11
24.087115
21
-81.47532
0
LINE
8
0
10
35.319699
20
-61.211203
11
40.500578
21
-79.279078
0
LINE
8
0
10
17.251824
20
-66.392082
11
35.319699
21
-61.211203
0
LINE
8
0
10
22.432703
20
-84.459957
11
17.251824
21
-66.392082
0
LINE
8
0
10
40.500578
20
-79.279078
11
22.432703
21
-84.459957
0
LINE
8
Cmts
62
1
10
33.229916
20
-64.981271
11
36.73051
21
-77.189295
0
LINE
8
Cmts
62
1
10
21.021892
20
-68.481865
11
33.229916
21
-64.981271
0
LINE
8
Cmts
62
1
10
24.522486
20
-80.689889
11
21.021892
21
-68.481865
0
LINE
8
Cmts
62
1
10
36.73051
20
-77.189295
11
24.522486
21
-80.689889
0
LINE
8
Eco2
62
4
10
38.916178
20
-45.883804
11
42.766832
21
-59.31263
0
LINE
8
Eco2
62
4
10
25.487352
20
-49.734458
11
38.916178
21
-45.883804
0
LINE
8
Eco2
62
4
10
29.338006
20
-63.163284
11
25.487352
21
-49.734458
0
LINE
8
Eco2
62
4
10
42.766832
20
-59.31263
11
29.338006
21
-63.163284
0
LINE
8
0
10
40.57059
20
-42.899167
11
45.751469
21
-60.967042
0
LINE
8
0
10
22.502715
20
-48.080046
11
40.57059
21
-42.899167
0
LINE
8
0
10
27.683594
20
-66.147921
11
22.502715
21
-48.080046
0
LINE
8
0
10
45.751469
20
-60.967042
11
27.683594
21
-66.147921
0
LINE
8
Cmts
62
1
10
38.480807
20
-46.669235
11
41.981401
21
-58.877259
0
LINE
8
Cmts
62
1
10
26.272783
20
-50.169829
11
38.480807
21
-46.669235
0
LINE
8
Cmts
62
1
10
29.773377
20
-62.377853
11
26.272783
21
-50.169829
0
LINE
8
Cmts
62
1
10
41.981401
20
-58.877259
11
29.773377
21
-62.377853
0
LINE
8
FCrtYd
62
7
10
251.614913
20
-83.989658
11
260.987214
21
-86.677123
0
LINE
8
FCrtYd
62
7
10
252.359134
20
-81.394252
11
251.614913
21
-83.989658
0
LINE
8
FCrtYd
62
7
10
261.731435
20
-84.081716
11
252.359134
21
-81.394252
0
LINE
8
FCrtYd
62
7
10
260.987214
20
-86.677123
11
261.731435
21
-84.081716
0
LINE
8
FFab
62
5
10
257.757722
20
-85.386976
11
258.308997
21
-83.464452
0
LINE
8
FFab
62
5
10
253.025186
20
-82.989643
11
254.76507
21
-83.488547
0
LINE
8
FFab
62
5
10
260.35
20
-85.09
11
258.610116
21
-84.591096
0
LINE
8
FFab
62
5
10
254.489432
20
-84.449809
11
258.334479
21
-85.552358
0
LINE
8
FFab
62
5
10
255.040707
20
-82.527285
11
254.489432
21
-84.449809
0
LINE
8
FFab
62
5
10
258.885754
20
-83.629835
11
255.040707
21
-82.527285
0
LINE
8
FFab
62
5
10
258.334479
20
-85.552358
11
258.885754
21
-83.629835
0
LINE
8
FCrtYd
62
7
10
246.534913
20
-65.574658
11
255.907214
21
-68.262123
0
LINE
8
FCrtYd
62
7
10
247.279134
20
-62.979252
11
246.534913
21
-65.574658
0
LINE
8
FCrtYd
62
7
10
256.651435
20
-65.666716
11
247.279134
21
-62.979252
0
LINE
8
FCrtYd
62
7
10
255.907214
20
-68.262123
11
256.651435
21
-65.666716
0
LINE
8
FFab
62
5
10
252.677722
20
-66.971976
11
253.228997
21
-65.049452
0
LINE
8
FFab
62
5
10
247.945186
20
-64.574643
11
249.68507
21
-65.073547
0
LINE
8
FFab
62
5
10
255.27
20
-66.675
11
253.530116
21
-66.176096
0
LINE
8
FFab
62
5
10
249.409432
20
-66.034809
11
253.254479
21
-67.137358
0
LINE
8
FFab
62
5
10
249.960707
20
-64.112285
11
249.409432
21
-66.034809
0
LINE
8
FFab
62
5
10
253.805754
20
-65.214835
11
249.960707
21
-64.112285
0
LINE
8
FFab
62
5
10
253.254479
20
-67.137358
11
253.805754
21
-65.214835
0
LINE
8
FCrtYd
62
7
10
240.819913
20
-47.159658
11
250.192214
21
-49.847123
0
LINE
8
FCrtYd
62
7
10
241.564134
20
-44.564252
11
240.819913
21
-47.159658
0
LINE
8
FCrtYd
62
7
10
250.936435
20
-47.251716
11
241.564134
21
-44.564252
0
LINE
8
FCrtYd
62
7
10
250.192214
20
-49.847123
11
250.936435
21
-47.251716
0
LINE
8
FFab
62
5
10
246.962722
20
-48.556976
11
247.513997
21
-46.634452
0
LINE
8
FFab
62
5
10
242.230186
20
-46.159643
11
243.97007
21
-46.658547
0
LINE
8
FFab
62
5
10
249.555
20
-48.26
11
247.815116
21
-47.761096
0
LINE
8
FFab
62
5
10
243.694432
20
-47.619809
11
247.539479
21
-48.722358
0
LINE
8
FFab
62
5
10
244.245707
20
-45.697285
11
243.694432
21
-47.619809
0
LINE
8
FFab
62
5
10
248.090754
20
-46.799835
11
244.245707
21
-45.697285
0
LINE
8
FFab
62
5
10
247.539479
20
-48.722358
11
248.090754
21
-46.799835
0
LINE
8
FCrtYd
62
7
10
217.324913
20
-103.674658
11
226.697214
21
-106.362123
0
LINE
8
FCrtYd
62
7
10
218.069134
20
-101.079252
11
217.324913
21
-103.674658
0
LINE
8
FCrtYd
62
7
10
227.441435
20
-103.766716
11
218.069134
21
-101.079252
0
LINE
8
FCrtYd
62
7
10
226.697214
20
-106.362123
11
227.441435
21
-103.766716
0
LINE
8
FFab
62
5
10
223.467722
20
-105.071976
11
224.018997
21
-103.149452
0
LINE
8
FFab
62
5
10
218.735186
20
-102.674643
11
220.47507
21
-103.173547
0
LINE
8
FFab
62
5
10
226.06
20
-104.775
11
224.320116
21
-104.276096
0
LINE
8
FFab
62
5
10
220.199432
20
-104.134809
11
224.044479
21
-105.237358
0
LINE
8
FFab
62
5
10
220.750707
20
-102.212285
11
220.199432
21
-104.134809
0
LINE
8
FFab
62
5
10
224.595754
20
-103.314835
11
220.750707
21
-102.212285
0
LINE
8
FFab
62
5
10
224.044479
20
-105.237358
11
224.595754
21
-103.314835
0
LINE
8
FCrtYd
62
7
10
231.929913
20
-83.989658
11
241.302214
21
-86.677123
0
LINE
8
FCrtYd
62
7
10
232.674134
20
-81.394252
11
231.929913
21
-83.989658
0
LINE
8
FCrtYd
62
7
10
242.046435
20
-84.081716
11
232.674134
21
-81.394252
0
LINE
8
FCrtYd
62
7
10
241.302214
20
-86.677123
11
242.046435
21
-84.081716
0
LINE
8
FFab
62
5
10
238.072722
20
-85.386976
11
238.623997
21
-83.464452
0
LINE
8
FFab
62
5
10
233.340186
20
-82.989643
11
235.08007
21
-83.488547
0
LINE
8
FFab
62
5
10
240.665
20
-85.09
11
238.925116
21
-84.591096
0
LINE
8
FFab
62
5
10
234.804432
20
-84.449809
11
238.649479
21
-85.552358
0
LINE
8
FFab
62
5
10
235.355707
20
-82.527285
11
234.804432
21
-84.449809
0
LINE
8
FFab
62
5
10
239.200754
20
-83.629835
11
235.355707
21
-82.527285
0
LINE
8
FFab
62
5
10
238.649479
20
-85.552358
11
239.200754
21
-83.629835
0
LINE
8
FCrtYd
62
7
10
226.849913
20
-66.209658
11
236.222214
21
-68.897123
0
LINE
8
FCrtYd
62
7
10
227.594134
20
-63.614252
11
226.849913
21
-66.209658
0
LINE
8
FCrtYd
62
7
10
236.966435
20
-66.301716
11
227.594134
21
-63.614252
0
LINE
8
FCrtYd
62
7
10
236.222214
20
-68.897123
11
236.966435
21
-66.301716
0
LINE
8
FFab
62
5
10
232.992722
20
-67.606976
11
233.543997
21
-65.684452
0
LINE
8
FFab
62
5
10
228.260186
20
-65.209643
11
230.00007
21
-65.708547
0
LINE
8
FFab
62
5
10
235.585
20
-67.31
11
233.845116
21
-66.811096
0
LINE
8
FFab
62
5
10
229.724432
20
-66.669809
11
233.569479
21
-67.772358
0
LINE
8
FFab
62
5
10
230.275707
20
-64.747285
11
229.724432
21
-66.669809
0
LINE
8
FFab
62
5
10
234.120754
20
-65.849835
11
230.275707
21
-64.747285
0
LINE
8
FFab
62
5
10
233.569479
20
-67.772358
11
234.120754
21
-65.849835
0
LINE
8
FCrtYd
62
7
10
221.134913
20
-47.794658
11
230.507214
21
-50.482123
0
LINE
8
FCrtYd
62
7
10
221.879134
20
-45.199252
11
221.134913
21
-47.794658
0
LINE
8
FCrtYd
62
7
10
231.251435
20
-47.886716
11
221.879134
21
-45.199252
0
LINE
8
FCrtYd
62
7
10
230.507214
20
-50.482123
11
231.251435
21
-47.886716
0
LINE
8
FFab
62
5
10
227.277722
20
-49.191976
11
227.828997
21
-47.269452
0
LINE
8
FFab
62
5
10
222.545186
20
-46.794643
11
224.28507
21
-47.293547
0
LINE
8
FFab
62
5
10
229.87
20
-48.895
11
228.130116
21
-48.396096
0
LINE
8
FFab
62
5
10
224.009432
20
-48.254809
11
227.854479
21
-49.357358
0
LINE
8
FFab
62
5
10
224.560707
20
-46.332285
11
224.009432
21
-48.254809
0
LINE
8
FFab
62
5
10
228.405754
20
-47.434835
11
224.560707
21
-46.332285
0
LINE
8
FFab
62
5
10
227.854479
20
-49.357358
11
228.405754
21
-47.434835
0
LINE
8
FCrtYd
62
7
10
198.274913
20
-103.674658
11
207.647214
21
-106.362123
0
LINE
8
FCrtYd
62
7
10
199.019134
20
-101.079252
11
198.274913
21
-103.674658
0
LINE
8
FCrtYd
62
7
10
208.391435
20
-103.766716
11
199.019134
21
-101.079252
0
LINE
8
FCrtYd
62
7
10
207.647214
20
-106.362123
11
208.391435
21
-103.766716
0
LINE
8
FFab
62
5
10
204.417722
20
-105.071976
11
204.968997
21
-103.149452
0
LINE
8
FFab
62
5
10
199.685186
20
-102.674643
11
201.42507
21
-103.173547
0
LINE
8
FFab
62
5
10
207.01
20
-104.775
11
205.270116
21
-104.276096
0
LINE
8
FFab
62
5
10
201.149432
20
-104.134809
11
204.994479
21
-105.237358
0
LINE
8
FFab
62
5
10
201.700707
20
-102.212285
11
201.149432
21
-104.134809
0
LINE
8
FFab
62
5
10
205.545754
20
-103.314835
11
201.700707
21
-102.212285
0
LINE
8
FFab
62
5
10
204.994479
20
-105.237358
11
205.545754
21
-103.314835
0
LINE
8
FCrtYd
62
7
10
212.244913
20
-84.624658
11
221.617214
21
-87.312123
0
LINE
8
FCrtYd
62
7
10
212.989134
20
-82.029252
11
212.244913
21
-84.624658
0
LINE
8
FCrtYd
62
7
10
222.361435
20
-84.716716
11
212.989134
21
-82.029252
0
LINE
8
FCrtYd
62
7
10
221.617214
20
-87.312123
11
222.361435
21
-84.716716
0
LINE
8
FFab
62
5
10
218.387722
20
-86.021976
11
218.938997
21
-84.099452
0
LINE
8
FFab
62
5
10
213.655186
20
-83.624643
11
215.39507
21
-84.123547
0
LINE
8
FFab
62
5
10
220.98
20
-85.725
11
219.240116
21
-85.226096
0
LINE
8
FFab
62
5
10
215.119432
20
-85.084809
11
218.964479
21
-86.187358
0
LINE
8
FFab
62
5
10
215.670707
20
-83.162285
11
215.119432
21
-85.084809
0
LINE
8
FFab
62
5
10
219.515754
20
-84.264835
11
215.670707
21
-83.162285
0
LINE
8
FFab
62
5
10
218.964479
20
-86.187358
11
219.515754
21
-84.264835
0
LINE
8
FCrtYd
62
7
10
207.164913
20
-66.844658
11
216.537214
21
-69.532123
0
LINE
8
FCrtYd
62
7
10
207.909134
20
-64.249252
11
207.164913
21
-66.844658
0
LINE
8
FCrtYd
62
7
10
217.281435
20
-66.936716
11
207.909134
21
-64.249252
0
LINE
8
FCrtYd
62
7
10
216.537214
20
-69.532123
11
217.281435
21
-66.936716
0
LINE
8
FFab
62
5
10
213.307722
20
-68.241976
11
213.858997
21
-66.319452
0
LINE
8
FFab
62
5
10
208.575186
20
-65.844643
11
210.31507
21
-66.343547
0
LINE
8
FFab
62
5
10
215.9
20
-67.945
11
214.160116
21
-67.446096
0
LINE
8
FFab
62
5
10
210.039432
20
-67.304809
11
213.884479
21
-68.407358
0
LINE
8
FFab
62
5
10
210.590707
20
-65.382285
11
210.039432
21
-67.304809
0
LINE
8
FFab
62
5
10
214.435754
20
-66.484835
11
210.590707
21
-65.382285
0
LINE
8
FFab
62
5
10
213.884479
20
-68.407358
11
214.435754
21
-66.484835
0
LINE
8
FCrtYd
62
7
10
202.084913
20
-48.429658
11
211.457214
21
-51.117123
0
LINE
8
FCrtYd
62
7
10
202.829134
20
-45.834252
11
202.084913
21
-48.429658
0
LINE
8
FCrtYd
62
7
10
212.201435
20
-48.521716
11
202.829134
21
-45.834252
0
LINE
8
FCrtYd
62
7
10
211.457214
20
-51.117123
11
212.201435
21
-48.521716
0
LINE
8
FFab
62
5
10
208.227722
20
-49.826976
11
208.778997
21
-47.904452
0
LINE
8
FFab
62
5
10
203.495186
20
-47.429643
11
205.23507
21
-47.928547
0
LINE
8
FFab
62
5
10
210.82
20
-49.53
11
209.080116
21
-49.031096
0
LINE
8
FFab
62
5
10
204.959432
20
-48.889809
11
208.804479
21
-49.992358
0
LINE
8
FFab
62
5
10
205.510707
20
-46.967285
11
204.959432
21
-48.889809
0
LINE
8
FFab
62
5
10
209.355754
20
-48.069835
11
205.510707
21
-46.967285
0
LINE
8
FFab
62
5
10
208.804479
20
-49.992358
11
209.355754
21
-48.069835
0
LINE
8
FCrtYd
62
7
10
181.129913
20
-113.834658
11
190.502214
21
-116.522123
0
LINE
8
FCrtYd
62
7
10
181.874134
20
-111.239252
11
181.129913
21
-113.834658
0
LINE
8
FCrtYd
62
7
10
191.246435
20
-113.926716
11
181.874134
21
-111.239252
0
LINE
8
FCrtYd
62
7
10
190.502214
20
-116.522123
11
191.246435
21
-113.926716
0
LINE
8
FFab
62
5
10
187.272722
20
-115.231976
11
187.823997
21
-113.309452
0
LINE
8
FFab
62
5
10
182.540186
20
-112.834643
11
184.28007
21
-113.333547
0
LINE
8
FFab
62
5
10
189.865
20
-114.935
11
188.125116
21
-114.436096
0
LINE
8
FFab
62
5
10
184.004432
20
-114.294809
11
187.849479
21
-115.397358
0
LINE
8
FFab
62
5
10
184.555707
20
-112.372285
11
184.004432
21
-114.294809
0
LINE
8
FFab
62
5
10
188.400754
20
-113.474835
11
184.555707
21
-112.372285
0
LINE
8
FFab
62
5
10
187.849479
20
-115.397358
11
188.400754
21
-113.474835
0
LINE
8
FCrtYd
62
7
10
193.194913
20
-85.259658
11
202.567214
21
-87.947123
0
LINE
8
FCrtYd
62
7
10
193.939134
20
-82.664252
11
193.194913
21
-85.259658
0
LINE
8
FCrtYd
62
7
10
203.311435
20
-85.351716
11
193.939134
21
-82.664252
0
LINE
8
FCrtYd
62
7
10
202.567214
20
-87.947123
11
203.311435
21
-85.351716
0
LINE
8
FFab
62
5
10
199.337722
20
-86.656976
11
199.888997
21
-84.734452
0
LINE
8
FFab
62
5
10
194.605186
20
-84.259643
11
196.34507
21
-84.758547
0
LINE
8
FFab
62
5
10
201.93
20
-86.36
11
200.190116
21
-85.861096
0
LINE
8
FFab
62
5
10
196.069432
20
-85.719809
11
199.914479
21
-86.822358
0
LINE
8
FFab
62
5
10
196.620707
20
-83.797285
11
196.069432
21
-85.719809
0
LINE
8
FFab
62
5
10
200.465754
20
-84.899835
11
196.620707
21
-83.797285
0
LINE
8
FFab
62
5
10
199.914479
20
-86.822358
11
200.465754
21
-84.899835
0
LINE
8
FCrtYd
62
7
10
187.479913
20
-67.479658
11
196.852214
21
-70.167123
0
LINE
8
FCrtYd
62
7
10
188.224134
20
-64.884252
11
187.479913
21
-67.479658
0
LINE
8
FCrtYd
62
7
10
197.596435
20
-67.571716
11
188.224134
21
-64.884252
0
LINE
8
FCrtYd
62
7
10
196.852214
20
-70.167123
11
197.596435
21
-67.571716
0
LINE
8
FFab
62
5
10
193.622722
20
-68.876976
11
194.173997
21
-66.954452
0
LINE
8
FFab
62
5
10
188.890186
20
-66.479643
11
190.63007
21
-66.978547
0
LINE
8
FFab
62
5
10
196.215
20
-68.58
11
194.475116
21
-68.081096
0
LINE
8
FFab
62
5
10
190.354432
20
-67.939809
11
194.199479
21
-69.042358
0
LINE
8
FFab
62
5
10
190.905707
20
-66.017285
11
190.354432
21
-67.939809
0
LINE
8
FFab
62
5
10
194.750754
20
-67.119835
11
190.905707
21
-66.017285
0
LINE
8
FFab
62
5
10
194.199479
20
-69.042358
11
194.750754
21
-67.119835
0
LINE
8
FCrtYd
62
7
10
182.399913
20
-49.064658
11
191.772214
21
-51.752123
0
LINE
8
FCrtYd
62
7
10
183.144134
20
-46.469252
11
182.399913
21
-49.064658
0
LINE
8
FCrtYd
62
7
10
192.516435
20
-49.156716
11
183.144134
21
-46.469252
0
LINE
8
FCrtYd
62
7
10
191.772214
20
-51.752123
11
192.516435
21
-49.156716
0
LINE
8
FFab
62
5
10
188.542722
20
-50.461976
11
189.093997
21
-48.539452
0
LINE
8
FFab
62
5
10
183.810186
20
-48.064643
11
185.55007
21
-48.563547
0
LINE
8
FFab
62
5
10
191.135
20
-50.165
11
189.395116
21
-49.666096
0
LINE
8
FFab
62
5
10
185.274432
20
-49.524809
11
189.119479
21
-50.627358
0
LINE
8
FFab
62
5
10
185.825707
20
-47.602285
11
185.274432
21
-49.524809
0
LINE
8
FFab
62
5
10
189.670754
20
-48.704835
11
185.825707
21
-47.602285
0
LINE
8
FFab
62
5
10
189.119479
20
-50.627358
11
189.670754
21
-48.704835
0
LINE
8
FCrtYd
62
7
10
163.984913
20
-123.359658
11
173.357214
21
-126.047123
0
LINE
8
FCrtYd
62
7
10
164.729134
20
-120.764252
11
163.984913
21
-123.359658
0
LINE
8
FCrtYd
62
7
10
174.101435
20
-123.451716
11
164.729134
21
-120.764252
0
LINE
8
FCrtYd
62
7
10
173.357214
20
-126.047123
11
174.101435
21
-123.451716
0
LINE
8
FFab
62
5
10
170.127722
20
-124.756976
11
170.678997
21
-122.834452
0
LINE
8
FFab
62
5
10
165.395186
20
-122.359643
11
167.13507
21
-122.858547
0
LINE
8
FFab
62
5
10
172.72
20
-124.46
11
170.980116
21
-123.961096
0
LINE
8
FFab
62
5
10
166.859432
20
-123.819809
11
170.704479
21
-124.922358
0
LINE
8
FFab
62
5
10
167.410707
20
-121.897285
11
166.859432
21
-123.819809
0
LINE
8
FFab
62
5
10
171.255754
20
-122.999835
11
167.410707
21
-121.897285
0
LINE
8
FFab
62
5
10
170.704479
20
-124.922358
11
171.255754
21
-122.999835
0
LINE
8
FCrtYd
62
7
10
176.049913
20
-95.419658
11
185.422214
21
-98.107123
0
LINE
8
FCrtYd
62
7
10
176.794134
20
-92.824252
11
176.049913
21
-95.419658
0
LINE
8
FCrtYd
62
7
10
186.166435
20
-95.511716
11
176.794134
21
-92.824252
0
LINE
8
FCrtYd
62
7
10
185.422214
20
-98.107123
11
186.166435
21
-95.511716
0
LINE
8
FFab
62
5
10
182.192722
20
-96.816976
11
182.743997
21
-94.894452
0
LINE
8
FFab
62
5
10
177.460186
20
-94.419643
11
179.20007
21
-94.918547
0
LINE
8
FFab
62
5
10
184.785
20
-96.52
11
183.045116
21
-96.021096
0
LINE
8
FFab
62
5
10
178.924432
20
-95.879809
11
182.769479
21
-96.982358
0
LINE
8
FFab
62
5
10
179.475707
20
-93.957285
11
178.924432
21
-95.879809
0
LINE
8
FFab
62
5
10
183.320754
20
-95.059835
11
179.475707
21
-93.957285
0
LINE
8
FFab
62
5
10
182.769479
20
-96.982358
11
183.320754
21
-95.059835
0
LINE
8
FCrtYd
62
7
10
170.334913
20
-77.004658
11
179.707214
21
-79.692123
0
LINE
8
FCrtYd
62
7
10
171.079134
20
-74.409252
11
170.334913
21
-77.004658
0
LINE
8
FCrtYd
62
7
10
180.451435
20
-77.096716
11
171.079134
21
-74.409252
0
LINE
8
FCrtYd
62
7
10
179.707214
20
-79.692123
11
180.451435
21
-77.096716
0
LINE
8
FFab
62
5
10
176.477722
20
-78.401976
11
177.028997
21
-76.479452
0
LINE
8
FFab
62
5
10
171.745186
20
-76.004643
11
173.48507
21
-76.503547
0
LINE
8
FFab
62
5
10
179.07
20
-78.105
11
177.330116
21
-77.606096
0
LINE
8
FFab
62
5
10
173.209432
20
-77.464809
11
177.054479
21
-78.567358
0
LINE
8
FFab
62
5
10
173.760707
20
-75.542285
11
173.209432
21
-77.464809
0
LINE
8
FFab
62
5
10
177.605754
20
-76.644835
11
173.760707
21
-75.542285
0
LINE
8
FFab
62
5
10
177.054479
20
-78.567358
11
177.605754
21
-76.644835
0
LINE
8
FCrtYd
62
7
10
165.254913
20
-58.589658
11
174.627214
21
-61.277123
0
LINE
8
FCrtYd
62
7
10
165.999134
20
-55.994252
11
165.254913
21
-58.589658
0
LINE
8
FCrtYd
62
7
10
175.371435
20
-58.681716
11
165.999134
21
-55.994252
0
LINE
8
FCrtYd
62
7
10
174.627214
20
-61.277123
11
175.371435
21
-58.681716
0
LINE
8
FFab
62
5
10
171.397722
20
-59.986976
11
171.948997
21
-58.064452
0
LINE
8
FFab
62
5
10
166.665186
20
-57.589643
11
168.40507
21
-58.088547
0
LINE
8
FFab
62
5
10
173.99
20
-59.69
11
172.250116
21
-59.191096
0
LINE
8
FFab
62
5
10
168.129432
20
-59.049809
11
171.974479
21
-60.152358
0
LINE
8
FFab
62
5
10
168.680707
20
-57.127285
11
168.129432
21
-59.049809
0
LINE
8
FFab
62
5
10
172.525754
20
-58.229835
11
168.680707
21
-57.127285
0
LINE
8
FFab
62
5
10
171.974479
20
-60.152358
11
172.525754
21
-58.229835
0
LINE
8
FCrtYd
62
7
10
145.569913
20
-128.439658
11
154.942214
21
-131.127123
0
LINE
8
FCrtYd
62
7
10
146.314134
20
-125.844252
11
145.569913
21
-128.439658
0
LINE
8
FCrtYd
62
7
10
155.686435
20
-128.531716
11
146.314134
21
-125.844252
0
LINE
8
FCrtYd
62
7
10
154.942214
20
-131.127123
11
155.686435
21
-128.531716
0
LINE
8
FFab
62
5
10
151.712722
20
-129.836976
11
152.263997
21
-127.914452
0
LINE
8
FFab
62
5
10
146.980186
20
-127.439643
11
148.72007
21
-127.938547
0
LINE
8
FFab
62
5
10
154.305
20
-129.54
11
152.565116
21
-129.041096
0
LINE
8
FFab
62
5
10
148.444432
20
-128.899809
11
152.289479
21
-130.002358
0
LINE
8
FFab
62
5
10
148.995707
20
-126.977285
11
148.444432
21
-128.899809
0
LINE
8
FFab
62
5
10
152.840754
20
-128.079835
11
148.995707
21
-126.977285
0
LINE
8
FFab
62
5
10
152.289479
20
-130.002358
11
152.840754
21
-128.079835
0
LINE
8
FCrtYd
62
7
10
158.904913
20
-104.944658
11
168.277214
21
-107.632123
0
LINE
8
FCrtYd
62
7
10
159.649134
20
-102.349252
11
158.904913
21
-104.944658
0
LINE
8
FCrtYd
62
7
10
169.021435
20
-105.036716
11
159.649134
21
-102.349252
0
LINE
8
FCrtYd
62
7
10
168.277214
20
-107.632123
11
169.021435
21
-105.036716
0
LINE
8
FFab
62
5
10
165.047722
20
-106.341976
11
165.598997
21
-104.419452
0
LINE
8
FFab
62
5
10
160.315186
20
-103.944643
11
162.05507
21
-104.443547
0
LINE
8
FFab
62
5
10
167.64
20
-106.045
11
165.900116
21
-105.546096
0
LINE
8
FFab
62
5
10
161.779432
20
-105.404809
11
165.624479
21
-106.507358
0
LINE
8
FFab
62
5
10
162.330707
20
-103.482285
11
161.779432
21
-105.404809
0
LINE
8
FFab
62
5
10
166.175754
20
-104.584835
11
162.330707
21
-103.482285
0
LINE
8
FFab
62
5
10
165.624479
20
-106.507358
11
166.175754
21
-104.584835
0
LINE
8
FCrtYd
62
7
10
153.189913
20
-87.164658
11
162.562214
21
-89.852123
0
LINE
8
FCrtYd
62
7
10
153.934134
20
-84.569252
11
153.189913
21
-87.164658
0
LINE
8
FCrtYd
62
7
10
163.306435
20
-87.256716
11
153.934134
21
-84.569252
0
LINE
8
FCrtYd
62
7
10
162.562214
20
-89.852123
11
163.306435
21
-87.256716
0
LINE
8
FFab
62
5
10
159.332722
20
-88.561976
11
159.883997
21
-86.639452
0
LINE
8
FFab
62
5
10
154.600186
20
-86.164643
11
156.34007
21
-86.663547
0
LINE
8
FFab
62
5
10
161.925
20
-88.265
11
160.185116
21
-87.766096
0
LINE
8
FFab
62
5
10
156.064432
20
-87.624809
11
159.909479
21
-88.727358
0
LINE
8
FFab
62
5
10
156.615707
20
-85.702285
11
156.064432
21
-87.624809
0
LINE
8
FFab
62
5
10
160.460754
20
-86.804835
11
156.615707
21
-85.702285
0
LINE
8
FFab
62
5
10
159.909479
20
-88.727358
11
160.460754
21
-86.804835
0
LINE
8
FCrtYd
62
7
10
148.109913
20
-68.749658
11
157.482214
21
-71.437123
0
LINE
8
FCrtYd
62
7
10
148.854134
20
-66.154252
11
148.109913
21
-68.749658
0
LINE
8
FCrtYd
62
7
10
158.226435
20
-68.841716
11
148.854134
21
-66.154252
0
LINE
8
FCrtYd
62
7
10
157.482214
20
-71.437123
11
158.226435
21
-68.841716
0
LINE
8
FFab
62
5
10
154.252722
20
-70.146976
11
154.803997
21
-68.224452
0
LINE
8
FFab
62
5
10
149.520186
20
-67.749643
11
151.26007
21
-68.248547
0
LINE
8
FFab
62
5
10
156.845
20
-69.85
11
155.105116
21
-69.351096
0
LINE
8
FFab
62
5
10
150.984432
20
-69.209809
11
154.829479
21
-70.312358
0
LINE
8
FFab
62
5
10
151.535707
20
-67.287285
11
150.984432
21
-69.209809
0
LINE
8
FFab
62
5
10
155.380754
20
-68.389835
11
151.535707
21
-67.287285
0
LINE
8
FFab
62
5
10
154.829479
20
-70.312358
11
155.380754
21
-68.389835
0
LINE
8
FCrtYd
62
7
10
118.812119
20
-130.470127
11
128.18442
21
-127.782663
0
LINE
8
FCrtYd
62
7
10
118.067898
20
-127.874721
11
118.812119
21
-130.470127
0
LINE
8
FCrtYd
62
7
10
127.440199
20
-125.187256
11
118.067898
21
-127.874721
0
LINE
8
FCrtYd
62
7
10
128.18442
20
-127.782663
11
127.440199
21
-125.187256
0
LINE
8
FFab
62
5
10
124.761982
20
-128.399927
11
124.210707
21
-126.477403
0
LINE
8
FFab
62
5
10
119.478171
20
-128.874736
11
121.218055
21
-128.375832
0
LINE
8
FFab
62
5
10
126.802985
20
-126.774379
11
125.063101
21
-127.273283
0
LINE
8
FFab
62
5
10
121.493692
20
-129.337094
11
125.338739
21
-128.234544
0
LINE
8
FFab
62
5
10
120.942417
20
-127.41457
11
121.493692
21
-129.337094
0
LINE
8
FFab
62
5
10
124.787464
20
-126.312021
11
120.942417
21
-127.41457
0
LINE
8
FFab
62
5
10
125.338739
20
-128.234544
11
124.787464
21
-126.312021
0
LINE
8
FCrtYd
62
7
10
105.750976
20
-106.907201
11
115.123277
21
-104.219737
0
LINE
8
FCrtYd
62
7
10
105.006755
20
-104.311795
11
105.750976
21
-106.907201
0
LINE
8
FCrtYd
62
7
10
114.379056
20
-101.62433
11
105.006755
21
-104.311795
0
LINE
8
FCrtYd
62
7
10
115.123277
20
-104.219737
11
114.379056
21
-101.62433
0
LINE
8
FFab
62
5
10
111.700839
20
-104.837001
11
111.149564
21
-102.914477
0
LINE
8
FFab
62
5
10
106.417028
20
-105.31181
11
108.156912
21
-104.812906
0
LINE
8
FFab
62
5
10
113.741842
20
-103.211453
11
112.001958
21
-103.710357
0
LINE
8
FFab
62
5
10
108.432549
20
-105.774168
11
112.277596
21
-104.671618
0
LINE
8
FFab
62
5
10
107.881274
20
-103.851644
11
108.432549
21
-105.774168
0
LINE
8
FFab
62
5
10
111.726321
20
-102.749095
11
107.881274
21
-103.851644
0
LINE
8
FFab
62
5
10
112.277596
20
-104.671618
11
111.726321
21
-102.749095
0
LINE
8
FCrtYd
62
7
10
111.001868
20
-88.595166
11
120.374169
21
-85.907702
0
LINE
8
FCrtYd
62
7
10
110.257647
20
-85.99976
11
111.001868
21
-88.595166
0
LINE
8
FCrtYd
62
7
10
119.629948
20
-83.312295
11
110.257647
21
-85.99976
0
LINE
8
FCrtYd
62
7
10
120.374169
20
-85.907702
11
119.629948
21
-83.312295
0
LINE
8
FFab
62
5
10
116.951731
20
-86.524966
11
116.400456
21
-84.602442
0
LINE
8
FFab
62
5
10
111.66792
20
-86.999775
11
113.407804
21
-86.500871
0
LINE
8
FFab
62
5
10
118.992734
20
-84.899418
11
117.25285
21
-85.398322
0
LINE
8
FFab
62
5
10
113.683441
20
-87.462133
11
117.528488
21
-86.359583
0
LINE
8
FFab
62
5
10
113.132166
20
-85.539609
11
113.683441
21
-87.462133
0
LINE
8
FFab
62
5
10
116.977213
20
-84.43706
11
113.132166
21
-85.539609
0
LINE
8
FFab
62
5
10
117.528488
20
-86.359583
11
116.977213
21
-84.43706
0
LINE
8
FCrtYd
62
7
10
116.25276
20
-70.283131
11
125.625061
21
-67.595667
0
LINE
8
FCrtYd
62
7
10
115.508539
20
-67.687725
11
116.25276
21
-70.283131
0
LINE
8
FCrtYd
62
7
10
124.88084
20
-65.00026
11
115.508539
21
-67.687725
0
LINE
8
FCrtYd
62
7
10
125.625061
20
-67.595667
11
124.88084
21
-65.00026
0
LINE
8
FFab
62
5
10
122.202623
20
-68.212931
11
121.651348
21
-66.290407
0
LINE
8
FFab
62
5
10
116.918812
20
-68.68774
11
118.658696
21
-68.188836
0
LINE
8
FFab
62
5
10
124.243626
20
-66.587383
11
122.503742
21
-67.086287
0
LINE
8
FFab
62
5
10
118.934333
20
-69.150098
11
122.77938
21
-68.047548
0
LINE
8
FFab
62
5
10
118.383058
20
-67.227574
11
118.934333
21
-69.150098
0
LINE
8
FFab
62
5
10
122.228105
20
-66.125025
11
118.383058
21
-67.227574
0
LINE
8
FFab
62
5
10
122.77938
20
-68.047548
11
122.228105
21
-66.125025
0
LINE
8
FCrtYd
62
7
10
100.500084
20
-125.219236
11
109.872385
21
-122.531772
0
LINE
8
FCrtYd
62
7
10
99.755863
20
-122.62383
11
100.500084
21
-125.219236
0
LINE
8
FCrtYd
62
7
10
109.128164
20
-119.936365
11
99.755863
21
-122.62383
0
LINE
8
FCrtYd
62
7
10
109.872385
20
-122.531772
11
109.128164
21
-119.936365
0
LINE
8
FFab
62
5
10
106.449947
20
-123.149036
11
105.898672
21
-121.226512
0
LINE
8
FFab
62
5
10
101.166136
20
-123.623845
11
102.90602
21
-123.124941
0
LINE
8
FFab
62
5
10
108.49095
20
-121.523488
11
106.751066
21
-122.022392
0
LINE
8
FFab
62
5
10
103.181657
20
-124.086203
11
107.026704
21
-122.983653
0
LINE
8
FFab
62
5
10
102.630382
20
-122.163679
11
103.181657
21
-124.086203
0
LINE
8
FFab
62
5
10
106.475429
20
-121.06113
11
102.630382
21
-122.163679
0
LINE
8
FFab
62
5
10
107.026704
20
-122.983653
11
106.475429
21
-121.06113
0
LINE
8
FCrtYd
62
7
10
88.751662
20
-97.078299
11
98.123963
21
-94.390835
0
LINE
8
FCrtYd
62
7
10
88.007441
20
-94.482893
11
88.751662
21
-97.078299
0
LINE
8
FCrtYd
62
7
10
97.379742
20
-91.795428
11
88.007441
21
-94.482893
0
LINE
8
FCrtYd
62
7
10
98.123963
20
-94.390835
11
97.379742
21
-91.795428
0
LINE
8
FFab
62
5
10
94.701525
20
-95.008099
11
94.15025
21
-93.085575
0
LINE
8
FFab
62
5
10
89.417714
20
-95.482908
11
91.157598
21
-94.984004
0
LINE
8
FFab
62
5
10
96.742528
20
-93.382551
11
95.002644
21
-93.881455
0
LINE
8
FFab
62
5
10
91.433235
20
-95.945266
11
95.278282
21
-94.842716
0
LINE
8
FFab
62
5
10
90.88196
20
-94.022742
11
91.433235
21
-95.945266
0
LINE
8
FFab
62
5
10
94.727007
20
-92.920193
11
90.88196
21
-94.022742
0
LINE
8
FFab
62
5
10
95.278282
20
-94.842716
11
94.727007
21
-92.920193
0
LINE
8
FCrtYd
62
7
10
94.244134
20
-78.766264
11
103.616435
21
-76.0788
0
LINE
8
FCrtYd
62
7
10
93.499913
20
-76.170858
11
94.244134
21
-78.766264
0
LINE
8
FCrtYd
62
7
10
102.872214
20
-73.483393
11
93.499913
21
-76.170858
0
LINE
8
FCrtYd
62
7
10
103.616435
20
-76.0788
11
102.872214
21
-73.483393
0
LINE
8
FFab
62
5
10
100.193997
20
-76.696064
11
99.642722
21
-74.77354
0
LINE
8
FFab
62
5
10
94.910186
20
-77.170873
11
96.65007
21
-76.671969
0
LINE
8
FFab
62
5
10
102.235
20
-75.070516
11
100.495116
21
-75.56942
0
LINE
8
FFab
62
5
10
96.925707
20
-77.633231
11
100.770754
21
-76.530681
0
LINE
8
FFab
62
5
10
96.374432
20
-75.710707
11
96.925707
21
-77.633231
0
LINE
8
FFab
62
5
10
100.219479
20
-74.608158
11
96.374432
21
-75.710707
0
LINE
8
FFab
62
5
10
100.770754
20
-76.530681
11
100.219479
21
-74.608158
0
LINE
8
FCrtYd
62
7
10
99.253446
20
-60.454229
11
108.625747
21
-57.766765
0
LINE
8
FCrtYd
62
7
10
98.509225
20
-57.858823
11
99.253446
21
-60.454229
0
LINE
8
FCrtYd
62
7
10
107.881526
20
-55.171358
11
98.509225
21
-57.858823
0
LINE
8
FCrtYd
62
7
10
108.625747
20
-57.766765
11
107.881526
21
-55.171358
0
LINE
8
FFab
62
5
10
105.203309
20
-58.384029
11
104.652034
21
-56.461505
0
LINE
8
FFab
62
5
10
99.919498
20
-58.858838
11
101.659382
21
-58.359934
0
LINE
8
FFab
62
5
10
107.244312
20
-56.758481
11
105.504428
21
-57.257385
0
LINE
8
FFab
62
5
10
101.935019
20
-59.321196
11
105.780066
21
-58.218646
0
LINE
8
FFab
62
5
10
101.383744
20
-57.398672
11
101.935019
21
-59.321196
0
LINE
8
FFab
62
5
10
105.228791
20
-56.296123
11
101.383744
21
-57.398672
0
LINE
8
FFab
62
5
10
105.780066
20
-58.218646
11
105.228791
21
-56.296123
0
LINE
8
FCrtYd
62
7
10
83.50077
20
-115.390334
11
92.873071
21
-112.70287
0
LINE
8
FCrtYd
62
7
10
82.756549
20
-112.794928
11
83.50077
21
-115.390334
0
LINE
8
FCrtYd
62
7
10
92.12885
20
-110.107463
11
82.756549
21
-112.794928
0
LINE
8
FCrtYd
62
7
10
92.873071
20
-112.70287
11
92.12885
21
-110.107463
0
LINE
8
FFab
62
5
10
89.450633
20
-113.320134
11
88.899358
21
-111.39761
0
LINE
8
FFab
62
5
10
84.166822
20
-113.794943
11
85.906706
21
-113.296039
0
LINE
8
FFab
62
5
10
91.491636
20
-111.694586
11
89.751752
21
-112.19349
0
LINE
8
FFab
62
5
10
86.182343
20
-114.257301
11
90.02739
21
-113.154751
0
LINE
8
FFab
62
5
10
85.631068
20
-112.334777
11
86.182343
21
-114.257301
0
LINE
8
FFab
62
5
10
89.476115
20
-111.232228
11
85.631068
21
-112.334777
0
LINE
8
FFab
62
5
10
90.02739
20
-113.154751
11
89.476115
21
-111.232228
0
LINE
8
FCrtYd
62
7
10
71.752348
20
-87.249397
11
81.124649
21
-84.561933
0
LINE
8
FCrtYd
62
7
10
71.008127
20
-84.653991
11
71.752348
21
-87.249397
0
LINE
8
FCrtYd
62
7
10
80.380428
20
-81.966526
11
71.008127
21
-84.653991
0
LINE
8
FCrtYd
62
7
10
81.124649
20
-84.561933
11
80.380428
21
-81.966526
0
LINE
8
FFab
62
5
10
77.702211
20
-85.179197
11
77.150936
21
-83.256673
0
LINE
8
FFab
62
5
10
72.4184
20
-85.654006
11
74.158284
21
-85.155102
0
LINE
8
FFab
62
5
10
79.743214
20
-83.553649
11
78.00333
21
-84.052553
0
LINE
8
FFab
62
5
10
74.433921
20
-86.116364
11
78.278968
21
-85.013814
0
LINE
8
FFab
62
5
10
73.882646
20
-84.19384
11
74.433921
21
-86.116364
0
LINE
8
FFab
62
5
10
77.727693
20
-83.091291
11
73.882646
21
-84.19384
0
LINE
8
FFab
62
5
10
78.278968
20
-85.013814
11
77.727693
21
-83.091291
0
LINE
8
FCrtYd
62
7
10
77.00324
20
-68.937362
11
86.375541
21
-66.249898
0
LINE
8
FCrtYd
62
7
10
76.259019
20
-66.341956
11
77.00324
21
-68.937362
0
LINE
8
FCrtYd
62
7
10
85.63132
20
-63.654491
11
76.259019
21
-66.341956
0
LINE
8
FCrtYd
62
7
10
86.375541
20
-66.249898
11
85.63132
21
-63.654491
0
LINE
8
FFab
62
5
10
82.953103
20
-66.867162
11
82.401828
21
-64.944638
0
LINE
8
FFab
62
5
10
77.669292
20
-67.341971
11
79.409176
21
-66.843067
0
LINE
8
FFab
62
5
10
84.994106
20
-65.241614
11
83.254222
21
-65.740518
0
LINE
8
FFab
62
5
10
79.684813
20
-67.804329
11
83.52986
21
-66.701779
0
LINE
8
FFab
62
5
10
79.133538
20
-65.881805
11
79.684813
21
-67.804329
0
LINE
8
FFab
62
5
10
82.978585
20
-64.779256
11
79.133538
21
-65.881805
0
LINE
8
FFab
62
5
10
83.52986
20
-66.701779
11
82.978585
21
-64.779256
0
LINE
8
FCrtYd
62
7
10
82.254132
20
-50.625327
11
91.626433
21
-47.937863
0
LINE
8
FCrtYd
62
7
10
81.509911
20
-48.029921
11
82.254132
21
-50.625327
0
LINE
8
FCrtYd
62
7
10
90.882212
20
-45.342456
11
81.509911
21
-48.029921
0
LINE
8
FCrtYd
62
7
10
91.626433
20
-47.937863
11
90.882212
21
-45.342456
0
LINE
8
FFab
62
5
10
88.203995
20
-48.555127
11
87.65272
21
-46.632603
0
LINE
8
FFab
62
5
10
82.920184
20
-49.029936
11
84.660068
21
-48.531032
0
LINE
8
FFab
62
5
10
90.244998
20
-46.929579
11
88.505114
21
-47.428483
0
LINE
8
FFab
62
5
10
84.935705
20
-49.492294
11
88.780752
21
-48.389744
0
LINE
8
FFab
62
5
10
84.38443
20
-47.56977
11
84.935705
21
-49.492294
0
LINE
8
FFab
62
5
10
88.229477
20
-46.467221
11
84.38443
21
-47.56977
0
LINE
8
FFab
62
5
10
88.780752
20
-48.389744
11
88.229477
21
-46.467221
0
LINE
8
FCrtYd
62
7
10
66.501456
20
-105.561432
11
75.873757
21
-102.873968
0
LINE
8
FCrtYd
62
7
10
65.757235
20
-102.966026
11
66.501456
21
-105.561432
0
LINE
8
FCrtYd
62
7
10
75.129536
20
-100.278561
11
65.757235
21
-102.966026
0
LINE
8
FCrtYd
62
7
10
75.873757
20
-102.873968
11
75.129536
21
-100.278561
0
LINE
8
FFab
62
5
10
72.451319
20
-103.491232
11
71.900044
21
-101.568708
0
LINE
8
FFab
62
5
10
67.167508
20
-103.966041
11
68.907392
21
-103.467137
0
LINE
8
FFab
62
5
10
74.492322
20
-101.865684
11
72.752438
21
-102.364588
0
LINE
8
FFab
62
5
10
69.183029
20
-104.428399
11
73.028076
21
-103.325849
0
LINE
8
FFab
62
5
10
68.631754
20
-102.505875
11
69.183029
21
-104.428399
0
LINE
8
FFab
62
5
10
72.476801
20
-101.403326
11
68.631754
21
-102.505875
0
LINE
8
FFab
62
5
10
73.028076
20
-103.325849
11
72.476801
21
-101.403326
0
LINE
8
FCrtYd
62
7
10
52.127589
20
-86.576514
11
61.49989
21
-83.88905
0
LINE
8
FCrtYd
62
7
10
51.383368
20
-83.981108
11
52.127589
21
-86.576514
0
LINE
8
FCrtYd
62
7
10
60.755669
20
-81.293643
11
51.383368
21
-83.981108
0
LINE
8
FCrtYd
62
7
10
61.49989
20
-83.88905
11
60.755669
21
-81.293643
0
LINE
8
FFab
62
5
10
58.077452
20
-84.506314
11
57.526177
21
-82.58379
0
LINE
8
FFab
62
5
10
52.793641
20
-84.981123
11
54.533525
21
-84.482219
0
LINE
8
FFab
62
5
10
60.118455
20
-82.880766
11
58.378571
21
-83.37967
0
LINE
8
FFab
62
5
10
54.809162
20
-85.443481
11
58.654209
21
-84.340931
0
LINE
8
FFab
62
5
10
54.257887
20
-83.520957
11
54.809162
21
-85.443481
0
LINE
8
FFab
62
5
10
58.102934
20
-82.418408
11
54.257887
21
-83.520957
0
LINE
8
FFab
62
5
10
58.654209
20
-84.340931
11
58.102934
21
-82.418408
0
LINE
8
FCrtYd
62
7
10
57.378481
20
-68.264479
11
66.750782
21
-65.577015
0
LINE
8
FCrtYd
62
7
10
56.63426
20
-65.669073
11
57.378481
21
-68.264479
0
LINE
8
FCrtYd
62
7
10
66.006561
20
-62.981608
11
56.63426
21
-65.669073
0
LINE
8
FCrtYd
62
7
10
66.750782
20
-65.577015
11
66.006561
21
-62.981608
0
LINE
8
FFab
62
5
10
63.328344
20
-66.194279
11
62.777069
21
-64.271755
0
LINE
8
FFab
62
5
10
58.044533
20
-66.669088
11
59.784417
21
-66.170184
0
LINE
8
FFab
62
5
10
65.369347
20
-64.568731
11
63.629463
21
-65.067635
0
LINE
8
FFab
62
5
10
60.060054
20
-67.131446
11
63.905101
21
-66.028896
0
LINE
8
FFab
62
5
10
59.508779
20
-65.208922
11
60.060054
21
-67.131446
0
LINE
8
FFab
62
5
10
63.353826
20
-64.106373
11
59.508779
21
-65.208922
0
LINE
8
FFab
62
5
10
63.905101
20
-66.028896
11
63.353826
21
-64.106373
0
LINE
8
FCrtYd
62
7
10
62.629372
20
-49.952443
11
72.001673
21
-47.264979
0
LINE
8
FCrtYd
62
7
10
61.885151
20
-47.357037
11
62.629372
21
-49.952443
0
LINE
8
FCrtYd
62
7
10
71.257452
20
-44.669572
11
61.885151
21
-47.357037
0
LINE
8
FCrtYd
62
7
10
72.001673
20
-47.264979
11
71.257452
21
-44.669572
0
LINE
8
FFab
62
5
10
68.579235
20
-47.882243
11
68.02796
21
-45.959719
0
LINE
8
FFab
62
5
10
63.295424
20
-48.357052
11
65.035308
21
-47.858148
0
LINE
8
FFab
62
5
10
70.620238
20
-46.256695
11
68.880354
21
-46.755599
0
LINE
8
FFab
62
5
10
65.310945
20
-48.81941
11
69.155992
21
-47.71686
0
LINE
8
FFab
62
5
10
64.75967
20
-46.896886
11
65.310945
21
-48.81941
0
LINE
8
FFab
62
5
10
68.604717
20
-45.794337
11
64.75967
21
-46.896886
0
LINE
8
FFab
62
5
10
69.155992
20
-47.71686
11
68.604717
21
-45.794337
0
LINE
8
FCrtYd
62
7
10
46.876697
20
-104.888549
11
56.248998
21
-102.201085
0
LINE
8
FCrtYd
62
7
10
46.132476
20
-102.293143
11
46.876697
21
-104.888549
0
LINE
8
FCrtYd
62
7
10
55.504777
20
-99.605678
11
46.132476
21
-102.293143
0
LINE
8
FCrtYd
62
7
10
56.248998
20
-102.201085
11
55.504777
21
-99.605678
0
LINE
8
FFab
62
5
10
52.82656
20
-102.818349
11
52.275285
21
-100.895825
0
LINE
8
FFab
62
5
10
47.542749
20
-103.293158
11
49.282633
21
-102.794254
0
LINE
8
FFab
62
5
10
54.867563
20
-101.192801
11
53.127679
21
-101.691705
0
LINE
8
FFab
62
5
10
49.55827
20
-103.755516
11
53.403317
21
-102.652966
0
LINE
8
FFab
62
5
10
49.006995
20
-101.832992
11
49.55827
21
-103.755516
0
LINE
8
FFab
62
5
10
52.852042
20
-100.730443
11
49.006995
21
-101.832992
0
LINE
8
FFab
62
5
10
53.403317
20
-102.652966
11
52.852042
21
-100.730443
0
LINE
8
FCrtYd
62
7
10
32.502829
20
-85.90363
11
41.87513
21
-83.216166
0
LINE
8
FCrtYd
62
7
10
31.758608
20
-83.308224
11
32.502829
21
-85.90363
0
LINE
8
FCrtYd
62
7
10
41.130909
20
-80.620759
11
31.758608
21
-83.308224
0
LINE
8
FCrtYd
62
7
10
41.87513
20
-83.216166
11
41.130909
21
-80.620759
0
LINE
8
FFab
62
5
10
38.452692
20
-83.83343
11
37.901417
21
-81.910906
0
LINE
8
FFab
62
5
10
33.168881
20
-84.308239
11
34.908765
21
-83.809335
0
LINE
8
FFab
62
5
10
40.493695
20
-82.207882
11
38.753811
21
-82.706786
0
LINE
8
FFab
62
5
10
35.184402
20
-84.770597
11
39.029449
21
-83.668047
0
LINE
8
FFab
62
5
10
34.633127
20
-82.848073
11
35.184402
21
-84.770597
0
LINE
8
FFab
62
5
10
38.478174
20
-81.745524
11
34.633127
21
-82.848073
0
LINE
8
FFab
62
5
10
39.029449
20
-83.668047
11
38.478174
21
-81.745524
0
LINE
8
FCrtYd
62
7
10
37.753721
20
-67.591595
11
47.126022
21
-64.904131
0
LINE
8
FCrtYd
62
7
10
37.0095
20
-64.996189
11
37.753721
21
-67.591595
0
LINE
8
FCrtYd
62
7
10
46.381801
20
-62.308724
11
37.0095
21
-64.996189
0
LINE
8
FCrtYd
62
7
10
47.126022
20
-64.904131
11
46.381801
21
-62.308724
0
LINE
8
FFab
62
5
10
43.703584
20
-65.521395
11
43.152309
21
-63.598871
0
LINE
8
FFab
62
5
10
38.419773
20
-65.996204
11
40.159657
21
-65.4973
0
LINE
8
FFab
62
5
10
45.744587
20
-63.895847
11
44.004703
21
-64.394751
0
LINE
8
FFab
62
5
10
40.435294
20
-66.458562
11
44.280341
21
-65.356012
0
LINE
8
FFab
62
5
10
39.884019
20
-64.536038
11
40.435294
21
-66.458562
0
LINE
8
FFab
62
5
10
43.729066
20
-63.433489
11
39.884019
21
-64.536038
0
LINE
8
FFab
62
5
10
44.280341
20
-65.356012
11
43.729066
21
-63.433489
0
LINE
8
FCrtYd
62
7
10
43.004612
20
-49.279559
11
52.376913
21
-46.592095
0
LINE
8
FCrtYd
62
7
10
42.260391
20
-46.684153
11
43.004612
21
-49.279559
0
LINE
8
FCrtYd
62
7
10
51.632692
20
-43.996688
11
42.260391
21
-46.684153
0
LINE
8
FCrtYd
62
7
10
52.376913
20
-46.592095
11
51.632692
21
-43.996688
0
LINE
8
FFab
62
5
10
48.954475
20
-47.209359
11
48.4032
21
-45.286835
0
LINE
8
FFab
62
5
10
43.670664
20
-47.684168
11
45.410548
21
-47.185264
0
LINE
8
FFab
62
5
10
50.995478
20
-45.583811
11
49.255594
21
-46.082715
0
LINE
8
FFab
62
5
10
45.686185
20
-48.146526
11
49.531232
21
-47.043976
0
LINE
8
FFab
62
5
10
45.13491
20
-46.224002
11
45.686185
21
-48.146526
0
LINE
8
FFab
62
5
10
48.979957
20
-45.121453
11
45.13491
21
-46.224002
0
LINE
8
FFab
62
5
10
49.531232
20
-47.043976
11
48.979957
21
-45.121453
0
LINE
8
FCrtYd
62
7
10
12.878069
20
-85.230746
11
22.25037
21
-82.543282
0
LINE
8
FCrtYd
62
7
10
12.133848
20
-82.63534
11
12.878069
21
-85.230746
0
LINE
8
FCrtYd
62
7
10
21.506149
20
-79.947875
11
12.133848
21
-82.63534
0
LINE
8
FCrtYd
62
7
10
22.25037
20
-82.543282
11
21.506149
21
-79.947875
0
LINE
8
FFab
62
5
10
18.827932
20
-83.160546
11
18.276657
21
-81.238022
0
LINE
8
FFab
62
5
10
13.544121
20
-83.635355
11
15.284005
21
-83.136451
0
LINE
8
FFab
62
5
10
20.868935
20
-81.534998
11
19.129051
21
-82.033902
0
LINE
8
FFab
62
5
10
15.559642
20
-84.097713
11
19.404689
21
-82.995163
0
LINE
8
FFab
62
5
10
15.008367
20
-82.175189
11
15.559642
21
-84.097713
0
LINE
8
FFab
62
5
10
18.853414
20
-81.07264
11
15.008367
21
-82.175189
0
LINE
8
FFab
62
5
10
19.404689
20
-82.995163
11
18.853414
21
-81.07264
0
LINE
8
FCrtYd
62
7
10
18.128961
20
-66.918711
11
27.501262
21
-64.231247
0
LINE
8
FCrtYd
62
7
10
17.38474
20
-64.323305
11
18.128961
21
-66.918711
0
LINE
8
FCrtYd
62
7
10
26.757041
20
-61.63584
11
17.38474
21
-64.323305
0
LINE
8
FCrtYd
62
7
10
27.501262
20
-64.231247
11
26.757041
21
-61.63584
0
LINE
8
FFab
62
5
10
24.078824
20
-64.848511
11
23.527549
21
-62.925987
0
LINE
8
FFab
62
5
10
18.795013
20
-65.32332
11
20.534897
21
-64.824416
0
LINE
8
FFab
62
5
10
26.119827
20
-63.222963
11
24.379943
21
-63.721867
0
LINE
8
FFab
62
5
10
20.810534
20
-65.785678
11
24.655581
21
-64.683128
0
LINE
8
FFab
62
5
10
20.259259
20
-63.863154
11
20.810534
21
-65.785678
0
LINE
8
FFab
62
5
10
24.104306
20
-62.760605
11
20.259259
21
-63.863154
0
LINE
8
FFab
62
5
10
24.655581
20
-64.683128
11
24.104306
21
-62.760605
0
LINE
8
Edge
62
2
10
265.43
20
-42.545
11
264.16
21
-41.91
0
LINE
8
Edge
62
2
10
27.94
20
-41.91
11
26.67
21
-42.545
0
LINE
8
Edge
62
2
10
10.795
20
-97.155
11
11.43
21
-98.425
0
LINE
8
Edge
62
2
10
281.305
20
-97.155
11
280.67
21
-98.425
0
LINE
8
Edge
62
2
10
45.085
20
-118.11
11
11.43
21
-98.425
0
LINE
8
Edge
62
2
10
247.015
20
-118.11
11
280.67
21
-98.425
0
LINE
8
Edge
62
2
10
193.675
20
-138.43
11
247.015
21
-118.11
0
LINE
8
Edge
62
2
10
98.425
20
-138.43
11
45.085
21
-118.11
0
LINE
8
Edge
62
2
10
135.89
20
-149.225
11
98.425
21
-138.43
0
LINE
8
Edge
62
2
10
156.21
20
-149.225
11
193.675
21
-138.43
0
LINE
8
Edge
62
2
10
135.89
20
-149.225
11
156.21
21
-149.225
0
LINE
8
Edge
62
2
10
26.67
20
-42.545
11
10.795
21
-97.155
0
LINE
8
Edge
62
2
10
265.43
20
-42.545
11
281.305
21
-97.155
0
LINE
8
Edge
62
2
10
152.4
20
-110.49
11
152.4
21
-80.01
0
LINE
8
Edge
62
2
10
139.7
20
-110.49
11
152.4
21
-110.49
0
LINE
8
Edge
62
2
10
139.7
20
-80.01
11
139.7
21
-110.49
0
LINE
8
Edge
62
2
10
152.4
20
-67.945
11
153.035
21
-67.31
0
LINE
8
Edge
62
2
10
152.4
20
-80.01
11
152.4
21
-67.945
0
LINE
8
Edge
62
2
10
139.7
20
-67.945
11
139.065
21
-67.31
0
LINE
8
Edge
62
2
10
139.7
20
-80.01
11
139.7
21
-67.945
0
LINE
8
Edge
62
2
10
122.555
20
-57.15
11
139.065
21
-67.31
0
LINE
8
Edge
62
2
10
105.41
20
-46.99
11
122.555
21
-57.15
0
LINE
8
Edge
62
2
10
169.545
20
-57.15
11
153.035
21
-67.31
0
LINE
8
Edge
62
2
10
186.69
20
-46.99
11
169.545
21
-57.15
0
LINE
8
Edge
62
2
10
205.74
20
-41.91
11
186.69
21
-46.99
0
LINE
8
Edge
62
2
10
86.36
20
-41.91
11
105.41
21
-46.99
0
LINE
8
Edge
62
2
10
27.94
20
-41.91
11
86.36
21
-41.91
0
LINE
8
Edge
62
2
10
264.16
20
-41.91
11
205.74
21
-41.91
0
ENDSEC
0
EOF
