0
SECTION
2
HEADER
9
$INSUNITS
70
4
9
$ACADVER
1
AC1014
9
$HANDSEED
5
FFFF
0
ENDSEC
0
SECTION
2
TABLES
0
TABLE
2
VPORT
5
8
100
AcDbSymbolTable
0
ENDTAB
0
TABLE
2
LTYPE
5
5
100
AcDbSymbolTable
70
2
0
LTYPE
5
14
100
AcDbSymbolTableRecord
100
AcDbLinetypeTableRecord
2
BYBLOCK
70
0
0
LTYPE
5
15
100
AcDbSymbolTableRecord
100
AcDbLinetypeTableRecord
2
BYLAYER
70
0
0
ENDTAB
0
TABLE
2
LAYER
5
2
100
AcDbSymbolTable
70
3
0
LAYER
5
50
100
AcDbSymbolTableRecord
100
AcDbLayerTableRecord
2
0
70
0
6
CONTINUOUS
0
LAYER
5
51
100
AcDbSymbolTableRecord
100
AcDbLayerTableRecord
2
CUTOUTS
70
0
62
1
6
CONTINUOUS
0
LAYER
5
52
100
AcDbSymbolTableRecord
100
AcDbLayerTableRecord
2
PERIMETER
70
0
62
5
6
CONTINUOUS
0
ENDTAB
0
TABLE
2
STYLE
5
3
100
AcDbSymbolTable
70
1
0
STYLE
5
11
100
AcDbSymbolTableRecord
100
AcDbTextStyleTableRecord
2
STANDARD
70
0
0
ENDTAB
0
TABLE
2
VIEW
5
6
100
AcDbSymbolTable
0
ENDTAB
0
TABLE
2
UCS
5
7
100
AcDbSymbolTable
0
ENDTAB
0
TABLE
2
APPID
5
9
100
AcDbSymbolTable
70
1
0
APPID
5
12
100
AcDbSymbolTableRecord
100
AcDbRegAppTableRecord
2
ACAD
70
0
0
ENDTAB
0
TABLE
2
DIMSTYLE
5
A
100
AcDbSymbolTable
0
ENDTAB
0
TABLE
2
BLOCK_RECORD
5
1
100
AcDbSymbolTable
70
2
0
BLOCK_RECORD
5
1F
100
AcDbSymbolTableRecord
100
AcDbBlockTableRecord
2
*MODEL_SPACE
0
BLOCK_RECORD
5
1B
100
AcDbSymbolTableRecord
100
AcDbBlockTableRecord
2
*PAPER_SPACE
0
ENDTAB
0
ENDSEC
0
SECTION
2
BLOCKS
0
BLOCK
5
20
100
AcDbEntity
100
AcDbBlockBegin
2
*MODEL_SPACE
0
ENDBLK
5
21
100
AcDbEntity
100
AcDbBlockEnd
0
BLOCK
5
1C
100
AcDbEntity
100
AcDbBlockBegin
2
*PAPER_SPACE
0
ENDBLK
5
1D
100
AcDbEntity
100
AcDbBlockEnd
0
ENDSEC
0
SECTION
2
ENTITIES
0
CIRCLE
5
100
100
AcDbEntity
8
CUTOUTS
100
AcDbCircle
10
-122.64722460804811
20
-14.494430944880143
30
0
40
1.5000000000000036
210
0
220
0
230
1
0
CIRCLE
5
101
100
AcDbEntity
8
CUTOUTS
100
AcDbCircle
10
91.921321151657466
20
57.657499999999956
30
0
40
1.5000000000000213
210
0
220
0
230
1
0
CIRCLE
5
102
100
AcDbEntity
8
CUTOUTS
100
AcDbCircle
10
-91.921321151657366
20
57.65749999999997
30
0
40
1.5000000000000036
210
0
220
0
230
1
0
CIRCLE
5
103
100
AcDbEntity
8
CUTOUTS
100
AcDbCircle
10
122.64722460804832
20
-14.494430944880108
30
0
40
1.4999999999999858
210
0
220
0
230
1
0
CIRCLE
5
104
100
AcDbEntity
8
CUTOUTS
100
AcDbCircle
10
-29.999985981371236
20
-52.103627817708968
30
0
40
1.5000000000000036
210
0
220
0
230
1
0
CIRCLE
5
105
100
AcDbEntity
8
CUTOUTS
100
AcDbCircle
10
21.398610297342682
20
41.824133266818137
30
0
40
1.5000000000000213
210
0
220
0
230
1
0
CIRCLE
5
106
100
AcDbEntity
8
CUTOUTS
100
AcDbCircle
10
-21.398610297341456
20
41.824133266819068
30
0
40
1.5000000000000036
210
0
220
0
230
1
0
CIRCLE
5
107
100
AcDbEntity
8
CUTOUTS
100
AcDbCircle
10
29.999985981373225
20
-52.1036278177084
30
0
40
1.4999999999999858
210
0
220
0
230
1
0
LINE
5
108
100
AcDbEntity
8
PERIMETER
100
AcDbLine
10
104.43213559463685
20
-29.782526460802643
30
0
11
142.88235858659431
21
-7.2927733900351122
31
0
0
ARC
5
109
100
AcDbEntity
8
PERIMETER
100
AcDbCircle
10
141.3677086414805
20
-4.7032105806469104
30
0
40
2.999999999999972
210
-0
220
0
230
1
100
AcDbArc
50
-59.676393137450866
51
16.209024927808692
0
LINE
5
10A
100
AcDbEntity
8
PERIMETER
100
AcDbLine
10
144.24845782716793
20
-3.8657834917842493
30
0
11
125.82964661186368
21
59.494927088862596
31
0
0
ARC
5
10B
100
AcDbEntity
8
PERIMETER
100
AcDbCircle
10
122.94889742617622
20
58.65749999999997
30
0
40
2.9999999999999858
210
0
220
-0
230
1
100
AcDbArc
50
16.209024927807803
51
90
0
LINE
5
10C
100
AcDbEntity
8
PERIMETER
100
AcDbLine
10
122.94889742617622
20
61.657499999999956
30
0
11
58.641650607479562
21
61.657499999999928
31
0
0
LINE
5
10D
100
AcDbEntity
8
PERIMETER
100
AcDbLine
10
58.641650607479562
20
61.657499999999928
30
0
11
37.511640727558188
21
56.022830698687599
31
0
0
LINE
5
10E
100
AcDbEntity
8
PERIMETER
100
AcDbLine
10
37.511640727558188
20
56.022830698687599
30
0
11
19.359112381656178
21
45.265776864079861
31
0
0
LINE
5
10F
100
AcDbEntity
8
PERIMETER
100
AcDbLine
10
19.359112381656178
20
45.265776864079861
30
0
11
7.7777077230070368
21
38.138758612603525
31
0
0
ARC
5
110
100
AcDbEntity
8
PERIMETER
100
AcDbCircle
10
9.350000000000076
20
35.583783662489843
30
0
40
3.0000000000000595
210
0
220
0
230
1
100
AcDbArc
50
121.607502246249
51
180
0
LINE
5
111
100
AcDbEntity
8
PERIMETER
100
AcDbLine
10
6.3500000000000156
20
35.583783662489878
30
0
11
6.3500000000000156
21
19.622500000000002
31
0
0
LINE
5
112
100
AcDbEntity
8
PERIMETER
100
AcDbLine
10
6.3500000000000156
20
19.622500000000002
30
0
11
-6.3499999999999801
21
19.622500000000002
31
0
0
LINE
5
113
100
AcDbEntity
8
PERIMETER
100
AcDbLine
10
-6.3499999999999801
20
19.622500000000002
30
0
11
-6.3499999999999623
21
35.583783662491115
31
0
0
ARC
5
114
100
AcDbEntity
8
PERIMETER
100
AcDbCircle
10
-9.3499999999999162
20
35.583783662491165
30
0
40
2.9999999999999538
210
-0
220
0
230
1
100
AcDbArc
50
0
51
58.392497753744223
0
LINE
5
115
100
AcDbEntity
8
PERIMETER
100
AcDbLine
10
-7.7777077230066283
20
38.138758612604569
30
0
11
-19.359112381419248
21
45.265776863937447
31
0
0
LINE
5
116
100
AcDbEntity
8
PERIMETER
100
AcDbLine
10
-19.359112381419248
20
45.265776863937447
30
0
11
-37.511640727561293
21
56.02283069868831
31
0
0
LINE
5
117
100
AcDbEntity
8
PERIMETER
100
AcDbLine
10
-37.511640727561293
20
56.02283069868831
30
0
11
-58.641650607479448
21
61.65749999999997
31
0
0
LINE
5
118
100
AcDbEntity
8
PERIMETER
100
AcDbLine
10
-58.641650607479448
20
61.657499999999963
30
0
11
-122.94889742617613
21
61.657499999999963
31
0
0
ARC
5
119
100
AcDbEntity
8
PERIMETER
100
AcDbCircle
10
-122.94889742617613
20
58.65749999999997
30
0
40
3.0000000000000071
210
0
220
-0
230
1
100
AcDbArc
50
90
51
163.79097507219203
0
LINE
5
11A
100
AcDbEntity
8
PERIMETER
100
AcDbLine
10
-125.82964661186359
20
59.494927088862603
30
0
11
-144.2484578271679
21
-3.8657834917842138
31
0
0
ARC
5
11B
100
AcDbEntity
8
PERIMETER
100
AcDbCircle
10
-141.36770864148045
20
-4.7032105806468572
30
0
40
2.9999999999999738
210
0
220
0
230
1
100
AcDbArc
50
163.79097507219177
51
239.67639313745096
0
LINE
5
11C
100
AcDbEntity
8
PERIMETER
100
AcDbLine
10
-142.88235858659425
20
-7.2927733900350766
30
0
11
-104.43213559463641
21
-29.782526460802767
31
0
0
LINE
5
11D
100
AcDbEntity
8
PERIMETER
100
AcDbLine
10
-104.43213559463641
20
-29.782526460802767
30
0
11
-50.160878805398667
21
-50.457290951940728
31
0
0
LINE
5
11E
100
AcDbEntity
8
PERIMETER
100
AcDbLine
10
-50.160878805398674
20
-50.457290951940728
30
0
11
-11.289565050369408
21
-61.657499999999992
31
0
0
LINE
5
11F
100
AcDbEntity
8
PERIMETER
100
AcDbLine
10
-11.289565050369408
20
-61.657499999999992
30
0
11
11.289565050369479
21
-61.65749999999997
31
0
0
LINE
5
120
100
AcDbEntity
8
PERIMETER
100
AcDbLine
10
11.289565050369479
20
-61.65749999999997
30
0
11
50.160878805402845
21
-50.45729095193952
31
0
0
LINE
5
121
100
AcDbEntity
8
PERIMETER
100
AcDbLine
10
50.160878805402845
20
-50.45729095193952
30
0
11
104.43213559463685
21
-29.782526460802643
31
0
0
ENDSEC
0
SECTION
2
OBJECTS
0
DICTIONARY
5
C
100
AcDbDictionary
3
ACAD_GROUP
350
D
3
ACAD_MLINESTYLE
350
17
0
DICTIONARY
5
D
100
AcDbDictionary
0
DICTIONARY
5
1A
330
C
100
AcDbDictionary
0
DICTIONARY
5
17
100
AcDbDictionary
0
ENDSEC
0
EOF
