0
SECTION
2
HEADER
9
$INSUNITS
70
4
9
$ACADVER
1
AC1014
9
$HANDSEED
5
FFFF
0
ENDSEC
0
SECTION
2
TABLES
0
TABLE
2
VPORT
5
8
100
AcDbSymbolTable
0
ENDTAB
0
TABLE
2
LTYPE
5
5
100
AcDbSymbolTable
70
2
0
LTYPE
5
14
100
AcDbSymbolTableRecord
100
AcDbLinetypeTableRecord
2
BYBLOCK
70
0
0
LTYPE
5
15
100
AcDbSymbolTableRecord
100
AcDbLinetypeTableRecord
2
BYLAYER
70
0
0
ENDTAB
0
TABLE
2
LAYER
5
2
100
AcDbSymbolTable
70
3
0
LAYER
5
50
100
AcDbSymbolTableRecord
100
AcDbLayerTableRecord
2
0
70
0
6
CONTINUOUS
0
LAYER
5
51
100
AcDbSymbolTableRecord
100
AcDbLayerTableRecord
2
CUTOUTS
70
0
62
1
6
CONTINUOUS
0
LAYER
5
52
100
AcDbSymbolTableRecord
100
AcDbLayerTableRecord
2
PERIMETER
70
0
62
5
6
CONTINUOUS
0
ENDTAB
0
TABLE
2
STYLE
5
3
100
AcDbSymbolTable
70
1
0
STYLE
5
11
100
AcDbSymbolTableRecord
100
AcDbTextStyleTableRecord
2
STANDARD
70
0
0
ENDTAB
0
TABLE
2
VIEW
5
6
100
AcDbSymbolTable
0
ENDTAB
0
TABLE
2
UCS
5
7
100
AcDbSymbolTable
0
ENDTAB
0
TABLE
2
APPID
5
9
100
AcDbSymbolTable
70
1
0
APPID
5
12
100
AcDbSymbolTableRecord
100
AcDbRegAppTableRecord
2
ACAD
70
0
0
ENDTAB
0
TABLE
2
DIMSTYLE
5
A
100
AcDbSymbolTable
0
ENDTAB
0
TABLE
2
BLOCK_RECORD
5
1
100
AcDbSymbolTable
70
2
0
BLOCK_RECORD
5
1F
100
AcDbSymbolTableRecord
100
AcDbBlockTableRecord
2
*MODEL_SPACE
0
BLOCK_RECORD
5
1B
100
AcDbSymbolTableRecord
100
AcDbBlockTableRecord
2
*PAPER_SPACE
0
ENDTAB
0
ENDSEC
0
SECTION
2
BLOCKS
0
BLOCK
5
20
100
AcDbEntity
100
AcDbBlockBegin
2
*MODEL_SPACE
0
ENDBLK
5
21
100
AcDbEntity
100
AcDbBlockEnd
0
BLOCK
5
1C
100
AcDbEntity
100
AcDbBlockBegin
2
*PAPER_SPACE
0
ENDBLK
5
1D
100
AcDbEntity
100
AcDbBlockEnd
0
ENDSEC
0
SECTION
2
ENTITIES
0
CIRCLE
5
100
100
AcDbEntity
8
CUTOUTS
100
AcDbCircle
10
-21.398610297341456
20
41.824133266819068
30
0
40
1.4250000000000029
210
0
220
0
230
1
0
CIRCLE
5
101
100
AcDbEntity
8
CUTOUTS
100
AcDbCircle
10
21.398610297342682
20
41.824133266818137
30
0
40
1.4249999999999874
210
0
220
0
230
1
0
CIRCLE
5
102
100
AcDbEntity
8
CUTOUTS
100
AcDbCircle
10
-91.921321151657366
20
57.65749999999997
30
0
40
1.4250000000000007
210
0
220
0
230
1
0
CIRCLE
5
103
100
AcDbEntity
8
CUTOUTS
100
AcDbCircle
10
91.921321151657466
20
57.657499999999956
30
0
40
1.4249999999999829
210
0
220
0
230
1
0
CIRCLE
5
104
100
AcDbEntity
8
CUTOUTS
100
AcDbCircle
10
-122.64722460804811
20
-14.494430944880143
30
0
40
1.4250000000000007
210
0
220
0
230
1
0
CIRCLE
5
105
100
AcDbEntity
8
CUTOUTS
100
AcDbCircle
10
-29.999985981371236
20
-52.103627817708968
30
0
40
1.4249999999999874
210
0
220
0
230
1
0
CIRCLE
5
106
100
AcDbEntity
8
CUTOUTS
100
AcDbCircle
10
29.999985981373225
20
-52.1036278177084
30
0
40
1.4249999999999874
210
0
220
0
230
1
0
CIRCLE
5
107
100
AcDbEntity
8
CUTOUTS
100
AcDbCircle
10
122.64722460804832
20
-14.494430944880108
30
0
40
1.4249999999999829
210
0
220
0
230
1
0
LINE
5
108
100
AcDbEntity
8
CUTOUTS
100
AcDbLine
10
93.174000555339958
20
-6.6723910665944075
30
0
11
96.991577933405694
21
-19.985865555340006
31
0
0
LINE
5
109
100
AcDbEntity
8
CUTOUTS
100
AcDbLine
10
96.991577933405694
20
-19.985865555340006
30
0
11
83.678103444660096
21
-23.803442933405705
31
0
0
LINE
5
10A
100
AcDbEntity
8
CUTOUTS
100
AcDbLine
10
83.678103444660096
20
-23.803442933405705
30
0
11
79.86052606659436
21
-10.489968444660089
31
0
0
LINE
5
10B
100
AcDbEntity
8
CUTOUTS
100
AcDbLine
10
79.86052606659436
20
-10.489968444660089
30
0
11
93.174000555339958
21
-6.6723910665944075
31
0
0
LINE
5
10C
100
AcDbEntity
8
CUTOUTS
100
AcDbLine
10
73.549243555339942
20
-7.3452750665943611
30
0
11
77.366820933405634
21
-20.658749555339995
31
0
0
LINE
5
10D
100
AcDbEntity
8
CUTOUTS
100
AcDbLine
10
77.366820933405634
20
-20.658749555339995
30
0
11
64.053346444660036
21
-24.476326933405712
31
0
0
LINE
5
10E
100
AcDbEntity
8
CUTOUTS
100
AcDbLine
10
64.053346444660036
20
-24.476326933405712
30
0
11
60.235769066594344
21
-11.162852444660096
31
0
0
LINE
5
10F
100
AcDbEntity
8
CUTOUTS
100
AcDbLine
10
60.235769066594344
20
-11.162852444660096
30
0
11
73.549243555339942
21
-7.3452750665943611
31
0
0
LINE
5
110
100
AcDbEntity
8
CUTOUTS
100
AcDbLine
10
56.549932555339893
20
-17.174177066594396
30
0
11
60.367509933405628
21
-30.487651555339994
31
0
0
LINE
5
111
100
AcDbEntity
8
CUTOUTS
100
AcDbLine
10
60.367509933405628
20
-30.487651555339994
30
0
11
47.05403544466003
21
-34.305228933405729
31
0
0
LINE
5
112
100
AcDbEntity
8
CUTOUTS
100
AcDbLine
10
47.05403544466003
20
-34.305228933405729
30
0
11
43.236458066594295
21
-20.991754444660113
31
0
0
LINE
5
113
100
AcDbEntity
8
CUTOUTS
100
AcDbLine
10
43.236458066594295
20
-20.991754444660113
30
0
11
56.549932555339893
21
-17.174177066594396
31
0
0
LINE
5
114
100
AcDbEntity
8
CUTOUTS
100
AcDbLine
10
21.238585555339906
20
-32.25397006659442
30
0
11
25.056162933405677
21
-45.567444555340018
31
0
0
LINE
5
115
100
AcDbEntity
8
CUTOUTS
100
AcDbLine
10
25.056162933405677
20
-45.567444555340018
30
0
11
11.74268844466015
21
-49.385021933405767
31
0
0
LINE
5
116
100
AcDbEntity
8
CUTOUTS
100
AcDbLine
10
11.74268844466015
20
-49.385021933405767
30
0
11
7.9251110665944502
21
-36.071547444660098
31
0
0
LINE
5
117
100
AcDbEntity
8
CUTOUTS
100
AcDbLine
10
7.9251110665944502
20
-36.071547444660098
30
0
11
21.238585555339906
21
-32.25397006659442
31
0
0
LINE
5
118
100
AcDbEntity
8
CUTOUTS
100
AcDbLine
10
39.550621555340001
20
-27.003079066594395
30
0
11
43.368198933405694
21
-40.316553555339993
31
0
0
LINE
5
119
100
AcDbEntity
8
CUTOUTS
100
AcDbLine
10
43.368198933405694
20
-40.316553555339993
30
0
11
30.054724444660135
21
-44.134130933405714
31
0
0
LINE
5
11A
100
AcDbEntity
8
CUTOUTS
100
AcDbLine
10
30.054724444660135
20
-44.134130933405714
30
0
11
26.237147066594435
21
-30.820656444660077
31
0
0
LINE
5
11B
100
AcDbEntity
8
CUTOUTS
100
AcDbLine
10
26.237147066594435
20
-30.820656444660077
30
0
11
39.550621555340001
21
-27.003079066594395
31
0
0
LINE
5
11C
100
AcDbEntity
8
CUTOUTS
100
AcDbLine
10
34.299730555339934
20
-8.6910440665943689
30
0
11
38.117307933405641
21
-22.004518555339985
31
0
0
LINE
5
11D
100
AcDbEntity
8
CUTOUTS
100
AcDbLine
10
38.117307933405641
20
-22.004518555339985
30
0
11
24.803833444660039
21
-25.822095933405702
31
0
0
LINE
5
11E
100
AcDbEntity
8
CUTOUTS
100
AcDbLine
10
24.803833444660039
20
-25.822095933405702
30
0
11
20.98625606659434
21
-12.508621444660069
31
0
0
LINE
5
11F
100
AcDbEntity
8
CUTOUTS
100
AcDbLine
10
20.98625606659434
20
-12.508621444660069
30
0
11
34.299730555339934
21
-8.6910440665943689
31
0
0
LINE
5
120
100
AcDbEntity
8
CUTOUTS
100
AcDbLine
10
51.299041555339912
20
1.1378579334055949
30
0
11
55.116618933405604
21
-12.175616555340056
31
0
0
LINE
5
121
100
AcDbEntity
8
CUTOUTS
100
AcDbLine
10
55.116618933405604
20
-12.175616555340056
30
0
11
41.803144444660049
21
-15.99319393340572
31
0
0
LINE
5
122
100
AcDbEntity
8
CUTOUTS
100
AcDbLine
10
41.803144444660049
20
-15.99319393340572
30
0
11
37.985567066594342
21
-2.6797194446600869
31
0
0
LINE
5
123
100
AcDbEntity
8
CUTOUTS
100
AcDbLine
10
37.985567066594342
20
-2.6797194446600869
30
0
11
51.299041555339912
21
1.1378579334055949
31
0
0
LINE
5
124
100
AcDbEntity
8
CUTOUTS
100
AcDbLine
10
40.797259555340005
20
37.761927933405644
30
0
11
44.614836933405741
21
24.448453444660025
31
0
0
LINE
5
125
100
AcDbEntity
8
CUTOUTS
100
AcDbLine
10
44.614836933405741
20
24.448453444660025
30
0
11
31.301362444660175
21
20.630876066594304
31
0
0
LINE
5
126
100
AcDbEntity
8
CUTOUTS
100
AcDbLine
10
31.301362444660175
20
20.630876066594304
30
0
11
27.483785066594439
21
33.944350555339923
31
0
0
LINE
5
127
100
AcDbEntity
8
CUTOUTS
100
AcDbLine
10
27.483785066594439
20
33.944350555339923
30
0
11
40.797259555340005
21
37.761927933405644
31
0
0
LINE
5
128
100
AcDbEntity
8
CUTOUTS
100
AcDbLine
10
23.797948555339925
20
27.933025933405638
30
0
11
27.615525933405625
21
14.619551444659979
31
0
0
LINE
5
129
100
AcDbEntity
8
CUTOUTS
100
AcDbLine
10
27.615525933405625
20
14.619551444659979
30
0
11
14.302051444660098
21
10.801974066594298
31
0
0
LINE
5
12A
100
AcDbEntity
8
CUTOUTS
100
AcDbLine
10
14.302051444660098
20
10.801974066594298
30
0
11
10.484474066594363
21
24.115448555339924
31
0
0
LINE
5
12B
100
AcDbEntity
8
CUTOUTS
100
AcDbLine
10
10.484474066594363
20
24.115448555339924
30
0
11
23.797948555339925
21
27.933025933405638
31
0
0
LINE
5
12C
100
AcDbEntity
8
CUTOUTS
100
AcDbLine
10
15.735365066594351
20
5.8034135553399047
30
0
11
29.048839555339985
21
9.6209909334056221
31
0
0
LINE
5
12D
100
AcDbEntity
8
CUTOUTS
100
AcDbLine
10
29.048839555339985
20
9.6209909334056221
30
0
11
32.866416933405688
21
-3.6924835553400115
31
0
0
LINE
5
12E
100
AcDbEntity
8
CUTOUTS
100
AcDbLine
10
32.866416933405688
20
-3.6924835553400115
30
0
11
19.552942444660051
21
-7.5100609334057289
31
0
0
LINE
5
12F
100
AcDbEntity
8
CUTOUTS
100
AcDbLine
10
19.552942444660051
20
-7.5100609334057289
30
0
11
15.735365066594351
21
5.8034135553399047
31
0
0
LINE
5
130
100
AcDbEntity
8
CUTOUTS
100
AcDbLine
10
46.048150555339959
20
19.44989293340565
30
0
11
49.865727933405651
21
6.1364184446600234
31
0
0
LINE
5
131
100
AcDbEntity
8
CUTOUTS
100
AcDbLine
10
49.865727933405651
20
6.1364184446600234
30
0
11
36.552253444660096
21
2.3188410665943238
31
0
0
LINE
5
132
100
AcDbEntity
8
CUTOUTS
100
AcDbLine
10
36.552253444660096
20
2.3188410665943238
30
0
11
32.734676066594389
21
15.63231555533994
31
0
0
LINE
5
133
100
AcDbEntity
8
CUTOUTS
100
AcDbLine
10
32.734676066594389
20
15.63231555533994
30
0
11
46.048150555339959
21
19.44989293340565
31
0
0
LINE
5
134
100
AcDbEntity
8
CUTOUTS
100
AcDbLine
10
63.047461555339922
20
29.278794933405639
30
0
11
66.865038933405629
21
15.965320444660014
31
0
0
LINE
5
135
100
AcDbEntity
8
CUTOUTS
100
AcDbLine
10
66.865038933405629
20
15.965320444660014
30
0
11
53.551564444660059
21
12.147743066594323
31
0
0
LINE
5
136
100
AcDbEntity
8
CUTOUTS
100
AcDbLine
10
53.551564444660059
20
12.147743066594323
30
0
11
49.733987066594366
21
25.461217555339939
31
0
0
LINE
5
137
100
AcDbEntity
8
CUTOUTS
100
AcDbLine
10
49.733987066594366
20
25.461217555339939
30
0
11
63.047461555339922
21
29.278794933405639
31
0
0
LINE
5
138
100
AcDbEntity
8
CUTOUTS
100
AcDbLine
10
82.672218555339953
20
29.951678933405638
30
0
11
86.489795933405688
21
16.638204444660012
31
0
0
LINE
5
139
100
AcDbEntity
8
CUTOUTS
100
AcDbLine
10
86.489795933405688
20
16.638204444660012
30
0
11
73.17632144466009
21
12.820627066594295
31
0
0
LINE
5
13A
100
AcDbEntity
8
CUTOUTS
100
AcDbLine
10
73.17632144466009
20
12.820627066594295
30
0
11
69.358744066594355
21
26.13410155533991
31
0
0
LINE
5
13B
100
AcDbEntity
8
CUTOUTS
100
AcDbLine
10
69.358744066594355
20
26.13410155533991
30
0
11
82.672218555339953
21
29.951678933405638
31
0
0
LINE
5
13C
100
AcDbEntity
8
CUTOUTS
100
AcDbLine
10
102.29697555533994
20
30.624562933405617
30
0
11
106.1145529334057
21
17.311088444660001
31
0
0
LINE
5
13D
100
AcDbEntity
8
CUTOUTS
100
AcDbLine
10
106.1145529334057
20
17.311088444660001
30
0
11
92.801078444660149
21
13.493511066594266
31
0
0
LINE
5
13E
100
AcDbEntity
8
CUTOUTS
100
AcDbLine
10
92.801078444660149
20
13.493511066594266
30
0
11
88.983501066594371
21
26.806985555339882
31
0
0
LINE
5
13F
100
AcDbEntity
8
CUTOUTS
100
AcDbLine
10
88.983501066594371
20
26.806985555339882
30
0
11
102.29697555533994
21
30.624562933405617
31
0
0
LINE
5
140
100
AcDbEntity
8
CUTOUTS
100
AcDbLine
10
121.92173255534003
20
31.297446933405642
30
0
11
125.73930993340576
21
17.983972444660008
31
0
0
LINE
5
141
100
AcDbEntity
8
CUTOUTS
100
AcDbLine
10
125.73930993340576
20
17.983972444660008
30
0
11
112.42583544466017
21
14.166395066594291
31
0
0
LINE
5
142
100
AcDbEntity
8
CUTOUTS
100
AcDbLine
10
112.42583544466017
20
14.166395066594291
30
0
11
108.60825806659443
21
27.479869555339906
31
0
0
LINE
5
143
100
AcDbEntity
8
CUTOUTS
100
AcDbLine
10
108.60825806659443
20
27.479869555339906
30
0
11
121.92173255534003
21
31.297446933405642
31
0
0
LINE
5
144
100
AcDbEntity
8
CUTOUTS
100
AcDbLine
10
130.99020093340567
20
-0.32806255534001849
30
0
11
117.67672644466012
21
-4.1456399334057359
31
0
0
LINE
5
145
100
AcDbEntity
8
CUTOUTS
100
AcDbLine
10
117.67672644466012
20
-4.1456399334057359
30
0
11
113.85914906659438
21
9.1678345553398977
31
0
0
LINE
5
146
100
AcDbEntity
8
CUTOUTS
100
AcDbLine
10
113.85914906659438
20
9.1678345553398977
30
0
11
127.17262355533995
21
12.985411933405615
31
0
0
LINE
5
147
100
AcDbEntity
8
CUTOUTS
100
AcDbLine
10
127.17262355533995
20
12.985411933405615
30
0
11
130.99020093340567
21
-0.32806255534001849
31
0
0
LINE
5
148
100
AcDbEntity
8
CUTOUTS
100
AcDbLine
10
107.54786655533997
20
12.312527933405626
30
0
11
111.36544393340566
21
-1.0009465553400076
31
0
0
LINE
5
149
100
AcDbEntity
8
CUTOUTS
100
AcDbLine
10
111.36544393340566
20
-1.0009465553400076
30
0
11
98.051969444660102
21
-4.818523933405725
31
0
0
LINE
5
14A
100
AcDbEntity
8
CUTOUTS
100
AcDbLine
10
98.051969444660102
20
-4.818523933405725
30
0
11
94.234392066594395
21
8.4949505553399085
31
0
0
LINE
5
14B
100
AcDbEntity
8
CUTOUTS
100
AcDbLine
10
94.234392066594395
20
8.4949505553399085
30
0
11
107.54786655533997
21
12.312527933405626
31
0
0
LINE
5
14C
100
AcDbEntity
8
CUTOUTS
100
AcDbLine
10
91.740686933405712
20
-1.6738305553399613
30
0
11
78.427212444660142
21
-5.4914079334056787
31
0
0
LINE
5
14D
100
AcDbEntity
8
CUTOUTS
100
AcDbLine
10
78.427212444660142
20
-5.4914079334056787
30
0
11
74.609635066594407
21
7.8220665553399371
31
0
0
LINE
5
14E
100
AcDbEntity
8
CUTOUTS
100
AcDbLine
10
74.609635066594407
20
7.8220665553399371
30
0
11
87.923109555339977
21
11.639643933405655
31
0
0
LINE
5
14F
100
AcDbEntity
8
CUTOUTS
100
AcDbLine
10
87.923109555339977
20
11.639643933405655
30
0
11
91.740686933405712
21
-1.6738305553399613
31
0
0
LINE
5
150
100
AcDbEntity
8
CUTOUTS
100
AcDbLine
10
68.298352555339918
20
10.966759933405648
30
0
11
72.115929933405653
21
-2.346714555339986
31
0
0
LINE
5
151
100
AcDbEntity
8
CUTOUTS
100
AcDbLine
10
72.115929933405653
20
-2.346714555339986
30
0
11
58.802455444660126
21
-6.1642919334056856
31
0
0
LINE
5
152
100
AcDbEntity
8
CUTOUTS
100
AcDbLine
10
58.802455444660126
20
-6.1642919334056856
30
0
11
54.984878066594391
21
7.1491825553399124
31
0
0
LINE
5
153
100
AcDbEntity
8
CUTOUTS
100
AcDbLine
10
54.984878066594391
20
7.1491825553399124
30
0
11
68.298352555339918
21
10.966759933405648
31
0
0
LINE
5
154
100
AcDbEntity
8
CUTOUTS
100
AcDbLine
10
57.796570555339969
20
47.590829933405658
30
0
11
61.614147933405675
21
34.277355444660039
31
0
0
LINE
5
155
100
AcDbEntity
8
CUTOUTS
100
AcDbLine
10
61.614147933405675
20
34.277355444660039
30
0
11
48.300673444660077
21
30.459778066594314
31
0
0
LINE
5
156
100
AcDbEntity
8
CUTOUTS
100
AcDbLine
10
48.300673444660077
20
30.459778066594314
30
0
11
44.483096066594371
21
43.773252555339923
31
0
0
LINE
5
157
100
AcDbEntity
8
CUTOUTS
100
AcDbLine
10
44.483096066594371
20
43.773252555339923
30
0
11
57.796570555339969
21
47.590829933405658
31
0
0
LINE
5
158
100
AcDbEntity
8
CUTOUTS
100
AcDbLine
10
77.421326555339917
20
48.263714933405652
30
0
11
81.238903933405652
21
34.950240444660011
31
0
0
LINE
5
159
100
AcDbEntity
8
CUTOUTS
100
AcDbLine
10
81.238903933405652
20
34.950240444660011
30
0
11
67.925429444660082
21
31.132663066594279
31
0
0
LINE
5
15A
100
AcDbEntity
8
CUTOUTS
100
AcDbLine
10
67.925429444660082
20
31.132663066594279
30
0
11
64.107852066594347
21
44.446137555339917
31
0
0
LINE
5
15B
100
AcDbEntity
8
CUTOUTS
100
AcDbLine
10
64.107852066594347
20
44.446137555339917
30
0
11
77.421326555339917
21
48.263714933405652
31
0
0
LINE
5
15C
100
AcDbEntity
8
CUTOUTS
100
AcDbLine
10
97.046083555339933
20
48.936598933405655
30
0
11
100.86366093340567
21
35.623124444660021
31
0
0
LINE
5
15D
100
AcDbEntity
8
CUTOUTS
100
AcDbLine
10
100.86366093340567
20
35.623124444660021
30
0
11
87.550186444660113
21
31.805547066594279
31
0
0
LINE
5
15E
100
AcDbEntity
8
CUTOUTS
100
AcDbLine
10
87.550186444660113
20
31.805547066594279
30
0
11
83.732609066594378
21
45.119021555339899
31
0
0
LINE
5
15F
100
AcDbEntity
8
CUTOUTS
100
AcDbLine
10
83.732609066594378
20
45.119021555339899
30
0
11
97.046083555339933
21
48.936598933405655
31
0
0
LINE
5
160
100
AcDbEntity
8
CUTOUTS
100
AcDbLine
10
107.17494344466013
20
32.478431066594297
30
0
11
103.35736606659439
21
45.791905555339952
31
0
0
LINE
5
161
100
AcDbEntity
8
CUTOUTS
100
AcDbLine
10
103.35736606659439
20
45.791905555339952
30
0
11
116.67084055533999
21
49.609482933405701
31
0
0
LINE
5
162
100
AcDbEntity
8
CUTOUTS
100
AcDbLine
10
116.67084055533999
20
49.609482933405701
30
0
11
120.48841793340573
21
36.296008444660046
31
0
0
LINE
5
163
100
AcDbEntity
8
CUTOUTS
100
AcDbLine
10
120.48841793340573
20
36.296008444660046
30
0
11
107.17494344466013
21
32.478431066594297
31
0
0
LINE
5
164
100
AcDbEntity
8
CUTOUTS
100
AcDbLine
10
-7.9251150665943371
20
-36.071547444660098
30
0
11
-11.742692444660072
21
-49.385021933405739
31
0
0
LINE
5
165
100
AcDbEntity
8
CUTOUTS
100
AcDbLine
10
-11.742692444660072
20
-49.385021933405739
30
0
11
-25.056166933405688
21
-45.567444555340003
31
0
0
LINE
5
166
100
AcDbEntity
8
CUTOUTS
100
AcDbLine
10
-25.056166933405688
20
-45.567444555340003
30
0
11
-21.238589555339971
21
-32.253970066594363
31
0
0
LINE
5
167
100
AcDbEntity
8
CUTOUTS
100
AcDbLine
10
-21.238589555339971
20
-32.253970066594363
30
0
11
-7.9251150665943371
21
-36.071547444660098
31
0
0
LINE
5
168
100
AcDbEntity
8
CUTOUTS
100
AcDbLine
10
-39.550624555339965
20
-27.00307906659436
30
0
11
-26.237150066594292
21
-30.820656444660059
31
0
0
LINE
5
169
100
AcDbEntity
8
CUTOUTS
100
AcDbLine
10
-26.237150066594292
20
-30.820656444660059
30
0
11
-30.054727444659992
21
-44.134130933405693
31
0
0
LINE
5
16A
100
AcDbEntity
8
CUTOUTS
100
AcDbLine
10
-30.054727444659992
20
-44.134130933405693
30
0
11
-43.368201933405658
21
-40.316553555339993
31
0
0
LINE
5
16B
100
AcDbEntity
8
CUTOUTS
100
AcDbLine
10
-43.368201933405658
20
-40.316553555339993
30
0
11
-39.550624555339965
21
-27.00307906659436
31
0
0
LINE
5
16C
100
AcDbEntity
8
CUTOUTS
100
AcDbLine
10
-56.549938555340887
20
-17.174177066594822
30
0
11
-43.236464066594813
21
-20.991754444659136
31
0
0
LINE
5
16D
100
AcDbEntity
8
CUTOUTS
100
AcDbLine
10
-43.236464066594813
20
-20.991754444659136
30
0
11
-47.054041444659127
21
-34.305228933405218
31
0
0
LINE
5
16E
100
AcDbEntity
8
CUTOUTS
100
AcDbLine
10
-47.054041444659127
20
-34.305228933405218
30
0
11
-60.367515933405201
21
-30.4876515553409
31
0
0
LINE
5
16F
100
AcDbEntity
8
CUTOUTS
100
AcDbLine
10
-60.367515933405201
20
-30.4876515553409
30
0
11
-56.549938555340887
21
-17.174177066594822
31
0
0
LINE
5
170
100
AcDbEntity
8
CUTOUTS
100
AcDbLine
10
-73.5492525553409
20
-7.3452750665948763
30
0
11
-60.235778066594818
21
-11.16285244465919
31
0
0
LINE
5
171
100
AcDbEntity
8
CUTOUTS
100
AcDbLine
10
-60.235778066594818
20
-11.16285244465919
30
0
11
-64.053355444659118
21
-24.476326933405232
31
0
0
LINE
5
172
100
AcDbEntity
8
CUTOUTS
100
AcDbLine
10
-64.053355444659118
20
-24.476326933405232
30
0
11
-77.366829933405199
21
-20.658749555340918
31
0
0
LINE
5
173
100
AcDbEntity
8
CUTOUTS
100
AcDbLine
10
-77.366829933405199
20
-20.658749555340918
30
0
11
-73.5492525553409
21
-7.3452750665948763
31
0
0
LINE
5
174
100
AcDbEntity
8
CUTOUTS
100
AcDbLine
10
-93.174011555340854
20
-6.6723920665948455
30
0
11
-79.860537066594816
21
-10.48996944465916
31
0
0
LINE
5
175
100
AcDbEntity
8
CUTOUTS
100
AcDbLine
10
-79.860537066594802
20
-10.48996944465916
30
0
11
-83.678114444659087
21
-23.803443933405202
31
0
0
LINE
5
176
100
AcDbEntity
8
CUTOUTS
100
AcDbLine
10
-83.678114444659087
20
-23.803443933405202
30
0
11
-96.991588933405126
21
-19.985866555340888
31
0
0
LINE
5
177
100
AcDbEntity
8
CUTOUTS
100
AcDbLine
10
-96.991588933405126
20
-19.985866555340888
30
0
11
-93.17401155534084
21
-6.6723920665948455
31
0
0
LINE
5
178
100
AcDbEntity
8
CUTOUTS
100
AcDbLine
10
-34.299732555339929
20
-8.6910440665943334
30
0
11
-20.986258066594292
21
-12.508621444660051
31
0
0
LINE
5
179
100
AcDbEntity
8
CUTOUTS
100
AcDbLine
10
-20.986258066594292
20
-12.508621444660051
30
0
11
-24.803835444659992
21
-25.82209593340572
31
0
0
LINE
5
17A
100
AcDbEntity
8
CUTOUTS
100
AcDbLine
10
-24.803835444659992
20
-25.82209593340572
30
0
11
-38.117309933405664
21
-22.004518555340002
31
0
0
LINE
5
17B
100
AcDbEntity
8
CUTOUTS
100
AcDbLine
10
-38.117309933405664
20
-22.004518555340002
30
0
11
-34.299732555339929
21
-8.6910440665943334
31
0
0
LINE
5
17C
100
AcDbEntity
8
CUTOUTS
100
AcDbLine
10
-55.116623933406061
20
-12.175616555339328
30
0
11
-51.29904655533926
21
1.1378579334060213
31
0
0
LINE
5
17D
100
AcDbEntity
8
CUTOUTS
100
AcDbLine
10
-51.29904655533926
20
1.1378579334060213
30
0
11
-37.985572066593903
21
-2.6797194446607797
31
0
0
LINE
5
17E
100
AcDbEntity
8
CUTOUTS
100
AcDbLine
10
-37.985572066593903
20
-2.6797194446607797
30
0
11
-41.803149444660704
21
-15.993193933406129
31
0
0
LINE
5
17F
100
AcDbEntity
8
CUTOUTS
100
AcDbLine
10
-41.803149444660704
20
-15.993193933406129
30
0
11
-55.116623933406061
21
-12.175616555339328
31
0
0
LINE
5
180
100
AcDbEntity
8
CUTOUTS
100
AcDbLine
10
-68.298360555340878
20
10.96675993340515
30
0
11
-54.984886066594797
21
7.1491825553408361
31
0
0
LINE
5
181
100
AcDbEntity
8
CUTOUTS
100
AcDbLine
10
-54.984886066594797
20
7.1491825553408361
30
0
11
-58.802463444659111
21
-6.164291933405206
31
0
0
LINE
5
182
100
AcDbEntity
8
CUTOUTS
100
AcDbLine
10
-58.802463444659111
20
-6.164291933405206
30
0
11
-72.115937933405192
21
-2.3467145553408919
31
0
0
LINE
5
183
100
AcDbEntity
8
CUTOUTS
100
AcDbLine
10
-72.115937933405192
20
-2.3467145553408919
30
0
11
-68.298360555340878
21
10.96675993340515
31
0
0
LINE
5
184
100
AcDbEntity
8
CUTOUTS
100
AcDbLine
10
-91.740696933405147
20
-1.6738315553409144
30
0
11
-87.923119555340833
21
11.639642933405163
31
0
0
LINE
5
185
100
AcDbEntity
8
CUTOUTS
100
AcDbLine
10
-87.923119555340833
20
11.639642933405163
30
0
11
-74.609645066594808
21
7.8220655553408491
31
0
0
LINE
5
186
100
AcDbEntity
8
CUTOUTS
100
AcDbLine
10
-74.609645066594808
20
7.8220655553408491
30
0
11
-78.427222444659122
21
-5.4914089334052285
31
0
0
LINE
5
187
100
AcDbEntity
8
CUTOUTS
100
AcDbLine
10
-78.427222444659122
20
-5.4914089334052285
30
0
11
-91.740696933405147
21
-1.6738315553409144
31
0
0
LINE
5
188
100
AcDbEntity
8
CUTOUTS
100
AcDbLine
10
-107.54787955534086
20
12.31252693340517
30
0
11
-94.234405066594803
21
8.4949495553408561
31
0
0
LINE
5
189
100
AcDbEntity
8
CUTOUTS
100
AcDbLine
10
-94.234405066594803
20
8.4949495553408561
30
0
11
-98.051982444659117
21
-4.8185249334052216
31
0
0
LINE
5
18A
100
AcDbEntity
8
CUTOUTS
100
AcDbLine
10
-98.051982444659117
20
-4.8185249334052216
30
0
11
-111.36545693340516
21
-1.0009475553409075
31
0
0
LINE
5
18B
100
AcDbEntity
8
CUTOUTS
100
AcDbLine
10
-111.36545693340516
20
-1.0009475553409075
30
0
11
-107.54787955534084
21
12.31252693340517
31
0
0
LINE
5
18C
100
AcDbEntity
8
CUTOUTS
100
AcDbLine
10
-127.17263955534087
20
12.985410933405124
30
0
11
-113.85916506659483
21
9.1678335553408274
31
0
0
LINE
5
18D
100
AcDbEntity
8
CUTOUTS
100
AcDbLine
10
-113.85916506659483
20
9.1678335553408274
30
0
11
-117.67674244465908
21
-4.1456409334051791
31
0
0
LINE
5
18E
100
AcDbEntity
8
CUTOUTS
100
AcDbLine
10
-117.67674244465908
20
-4.1456409334051791
30
0
11
-130.99021693340512
21
-0.32806355534088283
31
0
0
LINE
5
18F
100
AcDbEntity
8
CUTOUTS
100
AcDbLine
10
-130.99021693340512
20
-0.32806355534088283
30
0
11
-127.17263955534087
21
12.985410933405124
31
0
0
LINE
5
190
100
AcDbEntity
8
CUTOUTS
100
AcDbLine
10
-29.048840555339943
20
9.6209909334056753
30
0
11
-15.735366066594274
21
5.803413555339958
31
0
0
LINE
5
191
100
AcDbEntity
8
CUTOUTS
100
AcDbLine
10
-15.735366066594274
20
5.803413555339958
30
0
11
-19.552943444660009
21
-7.5100609334057111
31
0
0
LINE
5
192
100
AcDbEntity
8
CUTOUTS
100
AcDbLine
10
-19.552943444660009
20
-7.5100609334057111
30
0
11
-32.866417933405678
21
-3.6924835553399937
31
0
0
LINE
5
193
100
AcDbEntity
8
CUTOUTS
100
AcDbLine
10
-32.866417933405678
20
-3.6924835553399937
30
0
11
-29.048840555339943
21
9.6209909334056753
31
0
0
LINE
5
194
100
AcDbEntity
8
CUTOUTS
100
AcDbLine
10
-36.552257444660725
20
2.3188410665938797
30
0
11
-49.865731933406074
21
6.1364184446606984
31
0
0
LINE
5
195
100
AcDbEntity
8
CUTOUTS
100
AcDbLine
10
-49.865731933406074
20
6.1364184446606984
30
0
11
-46.048154555339252
21
19.449892933406048
31
0
0
LINE
5
196
100
AcDbEntity
8
CUTOUTS
100
AcDbLine
10
-46.048154555339252
20
19.449892933406048
30
0
11
-32.73468006659391
21
15.632315555339229
31
0
0
LINE
5
197
100
AcDbEntity
8
CUTOUTS
100
AcDbLine
10
-32.73468006659391
20
15.632315555339229
30
0
11
-36.552257444660725
21
2.3188410665938797
31
0
0
LINE
5
198
100
AcDbEntity
8
CUTOUTS
100
AcDbLine
10
-53.551571444659096
20
12.147743066594767
30
0
11
-66.86504593340517
21
15.965320444659072
31
0
0
LINE
5
199
100
AcDbEntity
8
CUTOUTS
100
AcDbLine
10
-66.86504593340517
20
15.965320444659072
30
0
11
-63.047468555340878
21
29.278794933405152
31
0
0
LINE
5
19A
100
AcDbEntity
8
CUTOUTS
100
AcDbLine
10
-63.047468555340878
20
29.278794933405152
30
0
11
-49.733994066594803
21
25.461217555340852
31
0
0
LINE
5
19B
100
AcDbEntity
8
CUTOUTS
100
AcDbLine
10
-49.733994066594803
20
25.461217555340852
30
0
11
-53.551571444659096
21
12.147743066594767
31
0
0
LINE
5
19C
100
AcDbEntity
8
CUTOUTS
100
AcDbLine
10
-82.672227555340854
20
29.951677933405119
30
0
11
-69.358753066594815
21
26.13410055534084
31
0
0
LINE
5
19D
100
AcDbEntity
8
CUTOUTS
100
AcDbLine
10
-69.358753066594815
20
26.13410055534084
30
0
11
-73.176330444659101
21
12.820626066594816
31
0
0
LINE
5
19E
100
AcDbEntity
8
CUTOUTS
100
AcDbLine
10
-73.176330444659101
20
12.820626066594816
30
0
11
-86.489804933405139
21
16.638203444659084
31
0
0
LINE
5
19F
100
AcDbEntity
8
CUTOUTS
100
AcDbLine
10
-86.489804933405139
20
16.638203444659084
30
0
11
-82.672227555340854
21
29.951677933405119
31
0
0
LINE
5
1A0
100
AcDbEntity
8
CUTOUTS
100
AcDbLine
10
-102.29698755534088
20
30.624561933405143
30
0
11
-88.983513066594838
21
26.806984555340847
31
0
0
LINE
5
1A1
100
AcDbEntity
8
CUTOUTS
100
AcDbLine
10
-88.983513066594838
20
26.806984555340847
30
0
11
-92.80109044465911
21
13.493510066594823
31
0
0
LINE
5
1A2
100
AcDbEntity
8
CUTOUTS
100
AcDbLine
10
-92.80109044465911
20
13.493510066594823
30
0
11
-106.11456493340515
21
17.311087444659108
31
0
0
LINE
5
1A3
100
AcDbEntity
8
CUTOUTS
100
AcDbLine
10
-106.11456493340515
20
17.311087444659108
30
0
11
-102.29698755534088
21
30.624561933405143
31
0
0
LINE
5
1A4
100
AcDbEntity
8
CUTOUTS
100
AcDbLine
10
-121.92174755534086
20
31.29744593340515
30
0
11
-108.60827306659482
21
27.479868555340843
31
0
0
LINE
5
1A5
100
AcDbEntity
8
CUTOUTS
100
AcDbLine
10
-108.60827306659482
20
27.479868555340843
30
0
11
-112.42585044465913
21
14.166394066594794
31
0
0
LINE
5
1A6
100
AcDbEntity
8
CUTOUTS
100
AcDbLine
10
-112.42585044465912
20
14.166394066594794
30
0
11
-125.73932493340516
21
17.98397144465909
31
0
0
LINE
5
1A7
100
AcDbEntity
8
CUTOUTS
100
AcDbLine
10
-125.73932493340519
20
17.98397144465909
30
0
11
-121.92174755534086
21
31.29744593340515
31
0
0
LINE
5
1A8
100
AcDbEntity
8
CUTOUTS
100
AcDbLine
10
-23.797948555339961
20
27.933025933405649
30
0
11
-10.484474066594291
21
24.115448555339903
31
0
0
LINE
5
1A9
100
AcDbEntity
8
CUTOUTS
100
AcDbLine
10
-10.484474066594291
20
24.115448555339903
30
0
11
-14.302051444660009
21
10.80197406659428
31
0
0
LINE
5
1AA
100
AcDbEntity
8
CUTOUTS
100
AcDbLine
10
-14.302051444660009
20
10.80197406659428
30
0
11
-27.615525933405678
21
14.619551444660015
31
0
0
LINE
5
1AB
100
AcDbEntity
8
CUTOUTS
100
AcDbLine
10
-27.615525933405678
20
14.619551444660015
30
0
11
-23.797948555339961
21
27.933025933405649
31
0
0
LINE
5
1AC
100
AcDbEntity
8
CUTOUTS
100
AcDbLine
10
-44.614839933405705
20
24.448453444660014
30
0
11
-40.797262555339969
21
37.761927933405644
31
0
0
LINE
5
1AD
100
AcDbEntity
8
CUTOUTS
100
AcDbLine
10
-40.797262555339969
20
37.761927933405644
30
0
11
-27.483788066594297
21
33.944350555339895
31
0
0
LINE
5
1AE
100
AcDbEntity
8
CUTOUTS
100
AcDbLine
10
-27.483788066594297
20
33.944350555339895
30
0
11
-31.301365444660032
21
20.630876066594261
31
0
0
LINE
5
1AF
100
AcDbEntity
8
CUTOUTS
100
AcDbLine
10
-31.301365444660032
20
20.630876066594261
30
0
11
-44.614839933405705
21
24.448453444660014
31
0
0
LINE
5
1B0
100
AcDbEntity
8
CUTOUTS
100
AcDbLine
10
-57.796576555340877
20
47.590829933405146
30
0
11
-44.483102066594796
21
43.773252555340832
31
0
0
LINE
5
1B1
100
AcDbEntity
8
CUTOUTS
100
AcDbLine
10
-44.483102066594796
20
43.773252555340832
30
0
11
-48.30067944465911
21
30.459778066594787
31
0
0
LINE
5
1B2
100
AcDbEntity
8
CUTOUTS
100
AcDbLine
10
-48.30067944465911
20
30.459778066594787
30
0
11
-61.614153933405191
21
34.277355444659108
31
0
0
LINE
5
1B3
100
AcDbEntity
8
CUTOUTS
100
AcDbLine
10
-61.614153933405191
20
34.277355444659108
30
0
11
-57.796576555340877
21
47.590829933405146
31
0
0
LINE
5
1B4
100
AcDbEntity
8
CUTOUTS
100
AcDbLine
10
-81.238913933405144
20
34.95023944465909
30
0
11
-77.421336555340858
21
48.263713933405143
31
0
0
LINE
5
1B5
100
AcDbEntity
8
CUTOUTS
100
AcDbLine
10
-77.421336555340872
20
48.263713933405143
30
0
11
-64.107862066594834
21
44.44613655534085
31
0
0
LINE
5
1B6
100
AcDbEntity
8
CUTOUTS
100
AcDbLine
10
-64.107862066594834
20
44.44613655534085
30
0
11
-67.925439444659133
21
31.132662066594811
31
0
0
LINE
5
1B7
100
AcDbEntity
8
CUTOUTS
100
AcDbLine
10
-67.925439444659133
20
31.132662066594811
30
0
11
-81.238913933405144
21
34.95023944465909
31
0
0
LINE
5
1B8
100
AcDbEntity
8
CUTOUTS
100
AcDbLine
10
-100.86367393340517
20
35.6231234446591
30
0
11
-97.046096555340853
21
48.936597933405146
31
0
0
LINE
5
1B9
100
AcDbEntity
8
CUTOUTS
100
AcDbLine
10
-97.046096555340853
20
48.936597933405146
30
0
11
-83.732622066594814
21
45.119020555340839
31
0
0
LINE
5
1BA
100
AcDbEntity
8
CUTOUTS
100
AcDbLine
10
-83.732622066594814
20
45.119020555340839
30
0
11
-87.550199444659114
21
31.80554606659479
31
0
0
LINE
5
1BB
100
AcDbEntity
8
CUTOUTS
100
AcDbLine
10
-87.550199444659114
20
31.80554606659479
30
0
11
-100.86367393340517
21
35.6231234446591
31
0
0
LINE
5
1BC
100
AcDbEntity
8
CUTOUTS
100
AcDbLine
10
-103.35738206659484
20
45.791904555340835
30
0
11
-107.17495944465911
21
32.478430066594797
31
0
0
LINE
5
1BD
100
AcDbEntity
8
CUTOUTS
100
AcDbLine
10
-107.17495944465911
20
32.478430066594797
30
0
11
-120.48843393340516
21
36.296007444659097
31
0
0
LINE
5
1BE
100
AcDbEntity
8
CUTOUTS
100
AcDbLine
10
-120.48843393340516
20
36.296007444659097
30
0
11
-116.67085655534083
21
49.609481933405135
31
0
0
LINE
5
1BF
100
AcDbEntity
8
CUTOUTS
100
AcDbLine
10
-116.67085655534086
20
49.609481933405135
30
0
11
-103.35738206659484
21
45.791904555340835
31
0
0
ARC
5
1C0
100
AcDbEntity
8
PERIMETER
100
AcDbCircle
10
9.350000000000076
20
35.583783662489843
30
0
40
3.0750000000000495
210
0
220
0
230
1
100
AcDbArc
50
121.60750224624879
51
180
0
LINE
5
1C1
100
AcDbEntity
8
PERIMETER
100
AcDbLine
10
6.2750000000000128
20
35.583783662489878
30
0
11
6.2750000000000128
21
19.697499999999994
31
0
0
LINE
5
1C2
100
AcDbEntity
8
PERIMETER
100
AcDbLine
10
6.2750000000000128
20
19.697499999999994
30
0
11
-6.2749999999999773
21
19.697499999999994
31
0
0
LINE
5
1C3
100
AcDbEntity
8
PERIMETER
100
AcDbLine
10
-6.2749999999999773
20
19.697499999999994
30
0
11
-6.2749999999999595
21
35.583783662491115
31
0
0
ARC
5
1C4
100
AcDbEntity
8
PERIMETER
100
AcDbCircle
10
-9.3499999999999162
20
35.583783662491165
30
0
40
3.0749999999999567
210
-0
220
0
230
1
100
AcDbArc
50
0
51
58.39249775374433
0
LINE
5
1C5
100
AcDbEntity
8
PERIMETER
100
AcDbLine
10
-7.7384004160817987
20
38.202632986357408
30
0
11
-19.320338434996529
21
45.329979459537732
31
0
0
LINE
5
1C6
100
AcDbEntity
8
PERIMETER
100
AcDbLine
10
-19.320338434996529
20
45.329979459537732
30
0
11
-37.482312359382192
21
56.092630673988502
31
0
0
LINE
5
1C7
100
AcDbEntity
8
PERIMETER
100
AcDbLine
10
-37.482312359382192
20
56.092630673988502
30
0
11
-58.631822331924575
21
61.732499999999959
31
0
0
LINE
5
1C8
100
AcDbEntity
8
PERIMETER
100
AcDbLine
10
-58.631822331924575
20
61.732499999999959
30
0
11
-122.94889742617613
21
61.732499999999959
31
0
0
ARC
5
1C9
100
AcDbEntity
8
PERIMETER
100
AcDbCircle
10
-122.94889742617613
20
58.65749999999997
30
0
40
3.0749999999999922
210
0
220
-0
230
1
100
AcDbArc
50
90
51
163.79097507219223
0
LINE
5
1CA
100
AcDbEntity
8
PERIMETER
100
AcDbLine
10
-125.90166534150578
20
59.515862766084169
30
0
11
-144.32047655681006
21
-3.8448478145626552
31
0
0
ARC
5
1CB
100
AcDbEntity
8
PERIMETER
100
AcDbCircle
10
-141.36770864148045
20
-4.7032105806468572
30
0
40
3.07499999999997
210
0
220
0
230
1
100
AcDbArc
50
163.79097507219183
51
239.67639313745056
0
LINE
5
1CC
100
AcDbEntity
8
PERIMETER
100
AcDbLine
10
-142.92022483522211
20
-7.3575124602697706
30
0
11
-104.46463999083603
21
-29.850401708872827
31
0
0
LINE
5
1CD
100
AcDbEntity
8
PERIMETER
100
AcDbLine
10
-104.46463999083603
20
-29.850401708872827
30
0
11
-50.184652669199338
21
-50.528492117115164
31
0
0
LINE
5
1CE
100
AcDbEntity
8
PERIMETER
100
AcDbLine
10
-50.184652669199338
20
-50.528492117115164
30
0
11
-11.300154722716602
21
-61.732499999999995
31
0
0
LINE
5
1CF
100
AcDbEntity
8
PERIMETER
100
AcDbLine
10
-11.300154722716602
20
-61.732499999999995
30
0
11
11.300154722716673
21
-61.732499999999973
31
0
0
LINE
5
1D0
100
AcDbEntity
8
PERIMETER
100
AcDbLine
10
11.300154722716673
20
-61.732499999999973
30
0
11
50.184652669203572
21
-50.528492117113935
31
0
0
LINE
5
1D1
100
AcDbEntity
8
PERIMETER
100
AcDbLine
10
50.184652669203572
20
-50.528492117113935
30
0
11
104.46463999083646
21
-29.850401708872702
31
0
0
LINE
5
1D2
100
AcDbEntity
8
PERIMETER
100
AcDbLine
10
104.46463999083646
20
-29.850401708872702
30
0
11
142.92022483522214
21
-7.3575124602698061
31
0
0
ARC
5
1D3
100
AcDbEntity
8
PERIMETER
100
AcDbCircle
10
141.3677086414805
20
-4.7032105806469104
30
0
40
3.0749999999999558
210
-0
220
0
230
1
100
AcDbArc
50
-59.676393137450916
51
16.209024927808532
0
LINE
5
1D4
100
AcDbEntity
8
PERIMETER
100
AcDbLine
10
144.32047655681012
20
-3.8448478145626908
30
0
11
125.90166534150585
21
59.515862766084155
31
0
0
ARC
5
1D5
100
AcDbEntity
8
PERIMETER
100
AcDbCircle
10
122.94889742617622
20
58.65749999999997
30
0
40
3.074999999999962
210
0
220
-0
230
1
100
AcDbArc
50
16.20902492780753
51
90
0
LINE
5
1D6
100
AcDbEntity
8
PERIMETER
100
AcDbLine
10
122.94889742617622
20
61.732499999999952
30
0
11
58.631822331924667
21
61.732499999999924
31
0
0
LINE
5
1D7
100
AcDbEntity
8
PERIMETER
100
AcDbLine
10
58.631822331924667
20
61.732499999999924
30
0
11
37.482312359379065
21
56.092630673987792
31
0
0
LINE
5
1D8
100
AcDbEntity
8
PERIMETER
100
AcDbLine
10
37.482312359379065
20
56.092630673987792
30
0
11
19.320338435233655
21
45.329979459680267
31
0
0
LINE
5
1D9
100
AcDbEntity
8
PERIMETER
100
AcDbLine
10
19.320338435233655
20
45.329979459680267
30
0
11
7.7384004160822251
21
38.202632986356363
31
0
0
ENDSEC
0
SECTION
2
OBJECTS
0
DICTIONARY
5
C
100
AcDbDictionary
3
ACAD_GROUP
350
D
3
ACAD_MLINESTYLE
350
17
0
DICTIONARY
5
D
100
AcDbDictionary
0
DICTIONARY
5
1A
330
C
100
AcDbDictionary
0
DICTIONARY
5
17
100
AcDbDictionary
0
ENDSEC
0
EOF
