0
SECTION
2
HEADER
9
$INSUNITS
70
4
9
$ACADVER
1
AC1014
9
$HANDSEED
5
FFFF
0
ENDSEC
0
SECTION
2
TABLES
0
TABLE
2
VPORT
5
8
100
AcDbSymbolTable
0
ENDTAB
0
TABLE
2
LTYPE
5
5
100
AcDbSymbolTable
70
2
0
LTYPE
5
14
100
AcDbSymbolTableRecord
100
AcDbLinetypeTableRecord
2
BYBLOCK
70
0
0
LTYPE
5
15
100
AcDbSymbolTableRecord
100
AcDbLinetypeTableRecord
2
BYLAYER
70
0
0
ENDTAB
0
TABLE
2
LAYER
5
2
100
AcDbSymbolTable
70
3
0
LAYER
5
50
100
AcDbSymbolTableRecord
100
AcDbLayerTableRecord
2
0
70
0
6
CONTINUOUS
0
LAYER
5
51
100
AcDbSymbolTableRecord
100
AcDbLayerTableRecord
2
CUTOUTS
70
0
62
1
6
CONTINUOUS
0
LAYER
5
52
100
AcDbSymbolTableRecord
100
AcDbLayerTableRecord
2
PERIMETER
70
0
62
5
6
CONTINUOUS
0
ENDTAB
0
TABLE
2
STYLE
5
3
100
AcDbSymbolTable
70
1
0
STYLE
5
11
100
AcDbSymbolTableRecord
100
AcDbTextStyleTableRecord
2
STANDARD
70
0
0
ENDTAB
0
TABLE
2
VIEW
5
6
100
AcDbSymbolTable
0
ENDTAB
0
TABLE
2
UCS
5
7
100
AcDbSymbolTable
0
ENDTAB
0
TABLE
2
APPID
5
9
100
AcDbSymbolTable
70
1
0
APPID
5
12
100
AcDbSymbolTableRecord
100
AcDbRegAppTableRecord
2
ACAD
70
0
0
ENDTAB
0
TABLE
2
DIMSTYLE
5
A
100
AcDbSymbolTable
0
ENDTAB
0
TABLE
2
BLOCK_RECORD
5
1
100
AcDbSymbolTable
70
2
0
BLOCK_RECORD
5
1F
100
AcDbSymbolTableRecord
100
AcDbBlockTableRecord
2
*MODEL_SPACE
0
BLOCK_RECORD
5
1B
100
AcDbSymbolTableRecord
100
AcDbBlockTableRecord
2
*PAPER_SPACE
0
ENDTAB
0
ENDSEC
0
SECTION
2
BLOCKS
0
BLOCK
5
20
100
AcDbEntity
100
AcDbBlockBegin
2
*MODEL_SPACE
0
ENDBLK
5
21
100
AcDbEntity
100
AcDbBlockEnd
0
BLOCK
5
1C
100
AcDbEntity
100
AcDbBlockBegin
2
*PAPER_SPACE
0
ENDBLK
5
1D
100
AcDbEntity
100
AcDbBlockEnd
0
ENDSEC
0
SECTION
2
ENTITIES
0
CIRCLE
5
100
100
AcDbEntity
8
CUTOUTS
100
AcDbCircle
10
-122.64722460804811
20
-14.494430944880143
30
0
40
1.4250000000000007
210
0
220
0
230
1
0
CIRCLE
5
101
100
AcDbEntity
8
CUTOUTS
100
AcDbCircle
10
91.921321151657466
20
57.657499999999956
30
0
40
1.4250000000000185
210
0
220
0
230
1
0
CIRCLE
5
102
100
AcDbEntity
8
CUTOUTS
100
AcDbCircle
10
-91.921321151657366
20
57.65749999999997
30
0
40
1.4250000000000007
210
0
220
0
230
1
0
CIRCLE
5
103
100
AcDbEntity
8
CUTOUTS
100
AcDbCircle
10
122.64722460804832
20
-14.494430944880108
30
0
40
1.4249999999999829
210
0
220
0
230
1
0
CIRCLE
5
104
100
AcDbEntity
8
CUTOUTS
100
AcDbCircle
10
-29.999985981371236
20
-52.103627817708968
30
0
40
1.4250000000000052
210
0
220
0
230
1
0
CIRCLE
5
105
100
AcDbEntity
8
CUTOUTS
100
AcDbCircle
10
21.398610297342682
20
41.824133266818137
30
0
40
1.4250000000000229
210
0
220
0
230
1
0
CIRCLE
5
106
100
AcDbEntity
8
CUTOUTS
100
AcDbCircle
10
-21.398610297341456
20
41.824133266819068
30
0
40
1.4250000000000029
210
0
220
0
230
1
0
CIRCLE
5
107
100
AcDbEntity
8
CUTOUTS
100
AcDbCircle
10
29.999985981373225
20
-52.1036278177084
30
0
40
1.4249999999999874
210
0
220
0
230
1
0
LINE
5
108
100
AcDbEntity
8
PERIMETER
100
AcDbLine
10
-50.184652669199338
20
-50.528492117115164
30
0
11
-11.300154722716602
21
-61.732499999999995
31
0
0
LINE
5
109
100
AcDbEntity
8
PERIMETER
100
AcDbLine
10
-11.300154722716602
20
-61.732499999999995
30
0
11
11.300154722716673
21
-61.732499999999973
31
0
0
LINE
5
10A
100
AcDbEntity
8
PERIMETER
100
AcDbLine
10
11.300154722716673
20
-61.732499999999973
30
0
11
50.184652669203572
21
-50.528492117113935
31
0
0
LINE
5
10B
100
AcDbEntity
8
PERIMETER
100
AcDbLine
10
50.184652669203572
20
-50.528492117113935
30
0
11
104.46463999083646
21
-29.850401708872702
31
0
0
LINE
5
10C
100
AcDbEntity
8
PERIMETER
100
AcDbLine
10
104.46463999083646
20
-29.850401708872702
30
0
11
142.92022483522214
21
-7.3575124602698061
31
0
0
ARC
5
10D
100
AcDbEntity
8
PERIMETER
100
AcDbCircle
10
141.3677086414805
20
-4.7032105806469104
30
0
40
3.0749999999999558
210
-0
220
0
230
1
100
AcDbArc
50
-59.676393137450916
51
16.209024927808532
0
LINE
5
10E
100
AcDbEntity
8
PERIMETER
100
AcDbLine
10
144.32047655681012
20
-3.8448478145626908
30
0
11
125.90166534150585
21
59.515862766084155
31
0
0
ARC
5
10F
100
AcDbEntity
8
PERIMETER
100
AcDbCircle
10
122.94889742617622
20
58.65749999999997
30
0
40
3.074999999999962
210
0
220
-0
230
1
100
AcDbArc
50
16.20902492780753
51
90
0
LINE
5
110
100
AcDbEntity
8
PERIMETER
100
AcDbLine
10
122.94889742617622
20
61.732499999999952
30
0
11
58.631822331924667
21
61.732499999999924
31
0
0
LINE
5
111
100
AcDbEntity
8
PERIMETER
100
AcDbLine
10
58.631822331924667
20
61.732499999999924
30
0
11
37.482312359379065
21
56.092630673987792
31
0
0
LINE
5
112
100
AcDbEntity
8
PERIMETER
100
AcDbLine
10
37.482312359379065
20
56.092630673987792
30
0
11
19.320338435233655
21
45.329979459680267
31
0
0
LINE
5
113
100
AcDbEntity
8
PERIMETER
100
AcDbLine
10
19.320338435233655
20
45.329979459680267
30
0
11
7.7384004160822251
21
38.202632986356363
31
0
0
ARC
5
114
100
AcDbEntity
8
PERIMETER
100
AcDbCircle
10
9.350000000000076
20
35.583783662489843
30
0
40
3.0750000000000495
210
0
220
0
230
1
100
AcDbArc
50
121.60750224624879
51
180
0
LINE
5
115
100
AcDbEntity
8
PERIMETER
100
AcDbLine
10
6.2750000000000128
20
35.583783662489878
30
0
11
6.2750000000000128
21
19.697499999999994
31
0
0
LINE
5
116
100
AcDbEntity
8
PERIMETER
100
AcDbLine
10
6.2750000000000128
20
19.697499999999994
30
0
11
-6.2749999999999773
21
19.697499999999994
31
0
0
LINE
5
117
100
AcDbEntity
8
PERIMETER
100
AcDbLine
10
-6.2749999999999773
20
19.697499999999994
30
0
11
-6.2749999999999595
21
35.583783662491115
31
0
0
ARC
5
118
100
AcDbEntity
8
PERIMETER
100
AcDbCircle
10
-9.3499999999999162
20
35.583783662491165
30
0
40
3.0749999999999567
210
-0
220
0
230
1
100
AcDbArc
50
0
51
58.39249775374433
0
LINE
5
119
100
AcDbEntity
8
PERIMETER
100
AcDbLine
10
-7.7384004160817987
20
38.202632986357408
30
0
11
-19.320338434996529
21
45.329979459537732
31
0
0
LINE
5
11A
100
AcDbEntity
8
PERIMETER
100
AcDbLine
10
-19.320338434996529
20
45.329979459537732
30
0
11
-37.482312359382192
21
56.092630673988502
31
0
0
LINE
5
11B
100
AcDbEntity
8
PERIMETER
100
AcDbLine
10
-37.482312359382192
20
56.092630673988502
30
0
11
-58.631822331924575
21
61.732499999999959
31
0
0
LINE
5
11C
100
AcDbEntity
8
PERIMETER
100
AcDbLine
10
-58.631822331924575
20
61.732499999999959
30
0
11
-122.94889742617613
21
61.732499999999959
31
0
0
ARC
5
11D
100
AcDbEntity
8
PERIMETER
100
AcDbCircle
10
-122.94889742617613
20
58.65749999999997
30
0
40
3.0749999999999922
210
0
220
-0
230
1
100
AcDbArc
50
90
51
163.79097507219223
0
LINE
5
11E
100
AcDbEntity
8
PERIMETER
100
AcDbLine
10
-125.90166534150578
20
59.515862766084169
30
0
11
-144.32047655681006
21
-3.8448478145626552
31
0
0
ARC
5
11F
100
AcDbEntity
8
PERIMETER
100
AcDbCircle
10
-141.36770864148045
20
-4.7032105806468572
30
0
40
3.07499999999997
210
0
220
0
230
1
100
AcDbArc
50
163.79097507219183
51
239.67639313745056
0
LINE
5
120
100
AcDbEntity
8
PERIMETER
100
AcDbLine
10
-142.92022483522211
20
-7.3575124602697706
30
0
11
-104.46463999083603
21
-29.850401708872827
31
0
0
LINE
5
121
100
AcDbEntity
8
PERIMETER
100
AcDbLine
10
-104.46463999083603
20
-29.850401708872827
30
0
11
-50.184652669199338
21
-50.528492117115164
31
0
0
ENDSEC
0
SECTION
2
OBJECTS
0
DICTIONARY
5
C
100
AcDbDictionary
3
ACAD_GROUP
350
D
3
ACAD_MLINESTYLE
350
17
0
DICTIONARY
5
D
100
AcDbDictionary
0
DICTIONARY
5
1A
330
C
100
AcDbDictionary
0
DICTIONARY
5
17
100
AcDbDictionary
0
ENDSEC
0
EOF
