0
SECTION
2
HEADER
9
$INSUNITS
70
4
9
$ACADVER
1
AC1014
9
$HANDSEED
5
FFFF
0
ENDSEC
0
SECTION
2
TABLES
0
TABLE
2
VPORT
5
8
100
AcDbSymbolTable
0
ENDTAB
0
TABLE
2
LTYPE
5
5
100
AcDbSymbolTable
70
2
0
LTYPE
5
14
100
AcDbSymbolTableRecord
100
AcDbLinetypeTableRecord
2
BYBLOCK
70
0
0
LTYPE
5
15
100
AcDbSymbolTableRecord
100
AcDbLinetypeTableRecord
2
BYLAYER
70
0
0
ENDTAB
0
TABLE
2
LAYER
5
2
100
AcDbSymbolTable
70
3
0
LAYER
5
50
100
AcDbSymbolTableRecord
100
AcDbLayerTableRecord
2
0
70
0
6
CONTINUOUS
0
LAYER
5
51
100
AcDbSymbolTableRecord
100
AcDbLayerTableRecord
2
CUTOUTS
70
0
62
1
6
CONTINUOUS
0
LAYER
5
52
100
AcDbSymbolTableRecord
100
AcDbLayerTableRecord
2
PERIMETER
70
0
62
5
6
CONTINUOUS
0
ENDTAB
0
TABLE
2
STYLE
5
3
100
AcDbSymbolTable
70
1
0
STYLE
5
11
100
AcDbSymbolTableRecord
100
AcDbTextStyleTableRecord
2
STANDARD
70
0
0
ENDTAB
0
TABLE
2
VIEW
5
6
100
AcDbSymbolTable
0
ENDTAB
0
TABLE
2
UCS
5
7
100
AcDbSymbolTable
0
ENDTAB
0
TABLE
2
APPID
5
9
100
AcDbSymbolTable
70
1
0
APPID
5
12
100
AcDbSymbolTableRecord
100
AcDbRegAppTableRecord
2
ACAD
70
0
0
ENDTAB
0
TABLE
2
DIMSTYLE
5
A
100
AcDbSymbolTable
0
ENDTAB
0
TABLE
2
BLOCK_RECORD
5
1
100
AcDbSymbolTable
70
2
0
BLOCK_RECORD
5
1F
100
AcDbSymbolTableRecord
100
AcDbBlockTableRecord
2
*MODEL_SPACE
0
BLOCK_RECORD
5
1B
100
AcDbSymbolTableRecord
100
AcDbBlockTableRecord
2
*PAPER_SPACE
0
ENDTAB
0
ENDSEC
0
SECTION
2
BLOCKS
0
BLOCK
5
20
100
AcDbEntity
100
AcDbBlockBegin
2
*MODEL_SPACE
0
ENDBLK
5
21
100
AcDbEntity
100
AcDbBlockEnd
0
BLOCK
5
1C
100
AcDbEntity
100
AcDbBlockBegin
2
*PAPER_SPACE
0
ENDBLK
5
1D
100
AcDbEntity
100
AcDbBlockEnd
0
ENDSEC
0
SECTION
2
ENTITIES
0
CIRCLE
5
100
100
AcDbEntity
8
CUTOUTS
100
AcDbCircle
10
-21.398610297341456
20
41.824133266819068
30
0
40
1.5000000000000036
210
0
220
0
230
1
0
CIRCLE
5
101
100
AcDbEntity
8
CUTOUTS
100
AcDbCircle
10
21.398610297342682
20
41.824133266818137
30
0
40
1.4999999999999858
210
0
220
0
230
1
0
CIRCLE
5
102
100
AcDbEntity
8
CUTOUTS
100
AcDbCircle
10
-91.921321151657366
20
57.65749999999997
30
0
40
1.5000000000000036
210
0
220
0
230
1
0
CIRCLE
5
103
100
AcDbEntity
8
CUTOUTS
100
AcDbCircle
10
91.921321151657466
20
57.657499999999956
30
0
40
1.4999999999999858
210
0
220
0
230
1
0
CIRCLE
5
104
100
AcDbEntity
8
CUTOUTS
100
AcDbCircle
10
-122.64722460804811
20
-14.494430944880143
30
0
40
1.5000000000000036
210
0
220
0
230
1
0
CIRCLE
5
105
100
AcDbEntity
8
CUTOUTS
100
AcDbCircle
10
-29.999985981371236
20
-52.103627817708968
30
0
40
1.4999999999999858
210
0
220
0
230
1
0
CIRCLE
5
106
100
AcDbEntity
8
CUTOUTS
100
AcDbCircle
10
29.999985981373225
20
-52.1036278177084
30
0
40
1.4999999999999858
210
0
220
0
230
1
0
CIRCLE
5
107
100
AcDbEntity
8
CUTOUTS
100
AcDbCircle
10
122.64722460804832
20
-14.494430944880108
30
0
40
1.4999999999999858
210
0
220
0
230
1
0
LINE
5
108
100
AcDbEntity
8
CUTOUTS
100
AcDbLine
10
97.084345362287351
20
-20.037287380849094
30
0
11
83.626681619151015
21
-23.896210362287356
31
0
0
LINE
5
109
100
AcDbEntity
8
CUTOUTS
100
AcDbLine
10
83.626681619151015
20
-23.896210362287356
30
0
11
79.767758637712717
21
-10.438546619151001
31
0
0
LINE
5
10A
100
AcDbEntity
8
CUTOUTS
100
AcDbLine
10
79.767758637712717
20
-10.438546619151001
30
0
11
93.225422380849054
21
-6.579623637712757
31
0
0
LINE
5
10B
100
AcDbEntity
8
CUTOUTS
100
AcDbLine
10
93.225422380849054
20
-6.579623637712757
30
0
11
97.084345362287351
21
-20.037287380849094
31
0
0
LINE
5
10C
100
AcDbEntity
8
CUTOUTS
100
AcDbLine
10
73.600665380849023
20
-7.2525076377127107
30
0
11
77.459588362287292
21
-20.710171380849083
31
0
0
LINE
5
10D
100
AcDbEntity
8
CUTOUTS
100
AcDbLine
10
77.459588362287292
20
-20.710171380849083
30
0
11
64.001924619150955
21
-24.569094362287363
31
0
0
LINE
5
10E
100
AcDbEntity
8
CUTOUTS
100
AcDbLine
10
64.001924619150955
20
-24.569094362287363
30
0
11
60.143001637712686
21
-11.111430619151008
31
0
0
LINE
5
10F
100
AcDbEntity
8
CUTOUTS
100
AcDbLine
10
60.143001637712686
20
-11.111430619151008
30
0
11
73.600665380849023
21
-7.2525076377127107
31
0
0
LINE
5
110
100
AcDbEntity
8
CUTOUTS
100
AcDbLine
10
47.002613619150949
20
-34.39799636228738
30
0
11
43.143690637712652
21
-20.940332619151025
31
0
0
LINE
5
111
100
AcDbEntity
8
CUTOUTS
100
AcDbLine
10
43.143690637712652
20
-20.940332619151025
30
0
11
56.601354380848989
21
-17.081409637712746
31
0
0
LINE
5
112
100
AcDbEntity
8
CUTOUTS
100
AcDbLine
10
56.601354380848989
20
-17.081409637712746
30
0
11
60.460277362287286
21
-30.5390733808491
31
0
0
LINE
5
113
100
AcDbEntity
8
CUTOUTS
100
AcDbLine
10
60.460277362287286
20
-30.5390733808491
30
0
11
47.002613619150949
21
-34.39799636228738
31
0
0
LINE
5
114
100
AcDbEntity
8
CUTOUTS
100
AcDbLine
10
21.290007380848994
20
-32.161202637712769
30
0
11
25.148930362287327
21
-45.618866380849127
31
0
0
LINE
5
115
100
AcDbEntity
8
CUTOUTS
100
AcDbLine
10
25.148930362287327
20
-45.618866380849127
30
0
11
11.691266619151062
21
-49.477789362287425
31
0
0
LINE
5
116
100
AcDbEntity
8
CUTOUTS
100
AcDbLine
10
11.691266619151062
20
-49.477789362287425
30
0
11
7.8323436377127997
21
-36.020125619151017
31
0
0
LINE
5
117
100
AcDbEntity
8
CUTOUTS
100
AcDbLine
10
7.8323436377127997
20
-36.020125619151017
30
0
11
21.290007380848994
21
-32.161202637712769
31
0
0
LINE
5
118
100
AcDbEntity
8
CUTOUTS
100
AcDbLine
10
39.602043380849082
20
-26.910311637712745
30
0
11
43.460966362287351
21
-40.367975380849103
31
0
0
LINE
5
119
100
AcDbEntity
8
CUTOUTS
100
AcDbLine
10
43.460966362287351
20
-40.367975380849103
30
0
11
30.003302619151047
21
-44.226898362287358
31
0
0
LINE
5
11A
100
AcDbEntity
8
CUTOUTS
100
AcDbLine
10
30.003302619151047
20
-44.226898362287358
30
0
11
26.144379637712785
21
-30.769234619150989
31
0
0
LINE
5
11B
100
AcDbEntity
8
CUTOUTS
100
AcDbLine
10
26.144379637712785
20
-30.769234619150989
30
0
11
39.602043380849082
21
-26.910311637712745
31
0
0
LINE
5
11C
100
AcDbEntity
8
CUTOUTS
100
AcDbLine
10
34.35115238084903
20
-8.5982766377127184
30
0
11
38.210075362287284
21
-22.055940380849091
31
0
0
LINE
5
11D
100
AcDbEntity
8
CUTOUTS
100
AcDbLine
10
38.210075362287284
20
-22.055940380849091
30
0
11
24.752411619150951
21
-25.914863362287353
31
0
0
LINE
5
11E
100
AcDbEntity
8
CUTOUTS
100
AcDbLine
10
24.752411619150951
20
-25.914863362287353
30
0
11
20.893488637712689
21
-12.45719961915098
31
0
0
LINE
5
11F
100
AcDbEntity
8
CUTOUTS
100
AcDbLine
10
20.893488637712689
20
-12.45719961915098
30
0
11
34.35115238084903
21
-8.5982766377127184
31
0
0
LINE
5
120
100
AcDbEntity
8
CUTOUTS
100
AcDbLine
10
51.350463380848993
20
1.2306253622872454
30
0
11
55.209386362287262
21
-12.227038380849145
31
0
0
LINE
5
121
100
AcDbEntity
8
CUTOUTS
100
AcDbLine
10
55.209386362287262
20
-12.227038380849145
30
0
11
41.751722619150954
21
-16.085961362287371
31
0
0
LINE
5
122
100
AcDbEntity
8
CUTOUTS
100
AcDbLine
10
41.751722619150954
20
-16.085961362287371
30
0
11
37.892799637712699
21
-2.6282976191509988
31
0
0
LINE
5
123
100
AcDbEntity
8
CUTOUTS
100
AcDbLine
10
37.892799637712699
20
-2.6282976191509988
30
0
11
51.350463380848993
21
1.2306253622872454
31
0
0
LINE
5
124
100
AcDbEntity
8
CUTOUTS
100
AcDbLine
10
40.848681380849087
20
37.854695362287288
30
0
11
44.707604362287384
21
24.397031619150926
31
0
0
LINE
5
125
100
AcDbEntity
8
CUTOUTS
100
AcDbLine
10
44.707604362287384
20
24.397031619150926
30
0
11
31.249940619151086
21
20.538108637712664
31
0
0
LINE
5
126
100
AcDbEntity
8
CUTOUTS
100
AcDbLine
10
31.249940619151086
20
20.538108637712664
30
0
11
27.391017637712789
21
33.995772380849019
31
0
0
LINE
5
127
100
AcDbEntity
8
CUTOUTS
100
AcDbLine
10
27.391017637712789
20
33.995772380849019
30
0
11
40.848681380849087
21
37.854695362287288
31
0
0
LINE
5
128
100
AcDbEntity
8
CUTOUTS
100
AcDbLine
10
23.849370380849013
20
28.025793362287281
30
0
11
27.708293362287275
21
14.568129619150891
31
0
0
LINE
5
129
100
AcDbEntity
8
CUTOUTS
100
AcDbLine
10
27.708293362287275
20
14.568129619150891
30
0
11
14.25062961915101
21
10.709206637712647
31
0
0
LINE
5
12A
100
AcDbEntity
8
CUTOUTS
100
AcDbLine
10
14.25062961915101
20
10.709206637712647
30
0
11
10.391706637712712
21
24.166870380849019
31
0
0
LINE
5
12B
100
AcDbEntity
8
CUTOUTS
100
AcDbLine
10
10.391706637712712
20
24.166870380849019
30
0
11
23.849370380849013
21
28.025793362287281
31
0
0
LINE
5
12C
100
AcDbEntity
8
CUTOUTS
100
AcDbLine
10
29.100261380849073
20
9.7137583622872725
30
0
11
32.959184362287331
21
-3.7439053808490996
31
0
0
LINE
5
12D
100
AcDbEntity
8
CUTOUTS
100
AcDbLine
10
32.959184362287331
20
-3.7439053808490996
30
0
11
19.501520619150963
21
-7.6028283622873793
31
0
0
LINE
5
12E
100
AcDbEntity
8
CUTOUTS
100
AcDbLine
10
19.501520619150963
20
-7.6028283622873793
30
0
11
15.642597637712701
21
5.8548353808489928
31
0
0
LINE
5
12F
100
AcDbEntity
8
CUTOUTS
100
AcDbLine
10
15.642597637712701
20
5.8548353808489928
30
0
11
29.100261380849073
21
9.7137583622872725
31
0
0
LINE
5
130
100
AcDbEntity
8
CUTOUTS
100
AcDbLine
10
46.09957238084904
20
19.54266036228729
30
0
11
49.958495362287309
21
6.0849966191509353
31
0
0
LINE
5
131
100
AcDbEntity
8
CUTOUTS
100
AcDbLine
10
49.958495362287309
20
6.0849966191509353
30
0
11
36.500831619151
21
2.2260736377126733
31
0
0
LINE
5
132
100
AcDbEntity
8
CUTOUTS
100
AcDbLine
10
36.500831619151
20
2.2260736377126733
30
0
11
32.641908637712746
21
15.683737380849037
31
0
0
LINE
5
133
100
AcDbEntity
8
CUTOUTS
100
AcDbLine
10
32.641908637712746
20
15.683737380849037
30
0
11
46.09957238084904
21
19.54266036228729
31
0
0
LINE
5
134
100
AcDbEntity
8
CUTOUTS
100
AcDbLine
10
63.098883380849017
20
29.371562362287278
30
0
11
66.957806362287272
21
15.913898619150917
31
0
0
LINE
5
135
100
AcDbEntity
8
CUTOUTS
100
AcDbLine
10
66.957806362287272
20
15.913898619150917
30
0
11
53.500142619150978
21
12.054975637712673
31
0
0
LINE
5
136
100
AcDbEntity
8
CUTOUTS
100
AcDbLine
10
53.500142619150978
20
12.054975637712673
30
0
11
49.641219637712709
21
25.512639380849038
31
0
0
LINE
5
137
100
AcDbEntity
8
CUTOUTS
100
AcDbLine
10
49.641219637712709
20
25.512639380849038
30
0
11
63.098883380849017
21
29.371562362287278
31
0
0
LINE
5
138
100
AcDbEntity
8
CUTOUTS
100
AcDbLine
10
86.582563362287331
20
16.586782619150917
30
0
11
73.124899619150995
21
12.727859637712644
31
0
0
LINE
5
139
100
AcDbEntity
8
CUTOUTS
100
AcDbLine
10
73.124899619150995
20
12.727859637712644
30
0
11
69.265976637712697
21
26.185523380849006
31
0
0
LINE
5
13A
100
AcDbEntity
8
CUTOUTS
100
AcDbLine
10
69.265976637712697
20
26.185523380849006
30
0
11
82.723640380849034
21
30.044446362287278
31
0
0
LINE
5
13B
100
AcDbEntity
8
CUTOUTS
100
AcDbLine
10
82.723640380849034
20
30.044446362287278
30
0
11
86.582563362287331
21
16.586782619150917
31
0
0
LINE
5
13C
100
AcDbEntity
8
CUTOUTS
100
AcDbLine
10
92.749656619151054
20
13.400743637712615
30
0
11
88.890733637712728
21
26.85840738084898
31
0
0
LINE
5
13D
100
AcDbEntity
8
CUTOUTS
100
AcDbLine
10
88.890733637712728
20
26.85840738084898
30
0
11
102.34839738084902
21
30.717330362287257
31
0
0
LINE
5
13E
100
AcDbEntity
8
CUTOUTS
100
AcDbLine
10
102.34839738084902
20
30.717330362287257
30
0
11
106.20732036228736
21
17.259666619150895
31
0
0
LINE
5
13F
100
AcDbEntity
8
CUTOUTS
100
AcDbLine
10
106.20732036228736
20
17.259666619150895
30
0
11
92.749656619151054
21
13.400743637712615
31
0
0
LINE
5
140
100
AcDbEntity
8
CUTOUTS
100
AcDbLine
10
112.37441361915108
20
14.07362763771264
30
0
11
108.51549063771279
21
27.531291380849005
31
0
0
LINE
5
141
100
AcDbEntity
8
CUTOUTS
100
AcDbLine
10
108.51549063771279
20
27.531291380849005
30
0
11
121.97315438084912
21
31.390214362287281
31
0
0
LINE
5
142
100
AcDbEntity
8
CUTOUTS
100
AcDbLine
10
121.97315438084912
20
31.390214362287281
30
0
11
125.83207736228742
21
17.932550619150909
31
0
0
LINE
5
143
100
AcDbEntity
8
CUTOUTS
100
AcDbLine
10
125.83207736228742
20
17.932550619150909
30
0
11
112.37441361915108
21
14.07362763771264
31
0
0
LINE
5
144
100
AcDbEntity
8
CUTOUTS
100
AcDbLine
10
127.22404538084903
20
13.078179362287266
30
0
11
131.08296836228735
21
-0.37948438084910663
31
0
0
LINE
5
145
100
AcDbEntity
8
CUTOUTS
100
AcDbLine
10
131.08296836228735
20
-0.37948438084910663
30
0
11
117.62530461915104
21
-4.2384073622873863
31
0
0
LINE
5
146
100
AcDbEntity
8
CUTOUTS
100
AcDbLine
10
117.62530461915104
20
-4.2384073622873863
30
0
11
113.76638163771274
21
9.2192563808489858
31
0
0
LINE
5
147
100
AcDbEntity
8
CUTOUTS
100
AcDbLine
10
113.76638163771274
20
9.2192563808489858
30
0
11
127.22404538084903
21
13.078179362287266
31
0
0
LINE
5
148
100
AcDbEntity
8
CUTOUTS
100
AcDbLine
10
107.59928838084905
20
12.405295362287276
30
0
11
111.45821136228732
21
-1.0523683808490958
31
0
0
LINE
5
149
100
AcDbEntity
8
CUTOUTS
100
AcDbLine
10
111.45821136228732
20
-1.0523683808490958
30
0
11
98.000547619151007
21
-4.9112913622873755
31
0
0
LINE
5
14A
100
AcDbEntity
8
CUTOUTS
100
AcDbLine
10
98.000547619151007
20
-4.9112913622873755
30
0
11
94.141624637712752
21
8.5463723808489966
31
0
0
LINE
5
14B
100
AcDbEntity
8
CUTOUTS
100
AcDbLine
10
94.141624637712752
20
8.5463723808489966
30
0
11
107.59928838084905
21
12.405295362287276
31
0
0
LINE
5
14C
100
AcDbEntity
8
CUTOUTS
100
AcDbLine
10
87.974531380849058
20
11.732411362287305
30
0
11
91.833454362287355
21
-1.7252523808490494
31
0
0
LINE
5
14D
100
AcDbEntity
8
CUTOUTS
100
AcDbLine
10
91.833454362287355
20
-1.7252523808490494
30
0
11
78.375790619151061
21
-5.5841753622873291
31
0
0
LINE
5
14E
100
AcDbEntity
8
CUTOUTS
100
AcDbLine
10
78.375790619151061
20
-5.5841753622873291
30
0
11
74.516867637712764
21
7.8734883808490252
31
0
0
LINE
5
14F
100
AcDbEntity
8
CUTOUTS
100
AcDbLine
10
74.516867637712764
20
7.8734883808490252
30
0
11
87.974531380849058
21
11.732411362287305
31
0
0
LINE
5
150
100
AcDbEntity
8
CUTOUTS
100
AcDbLine
10
68.349774380848999
20
11.059527362287298
30
0
11
72.208697362287296
21
-2.3981363808490741
31
0
0
LINE
5
151
100
AcDbEntity
8
CUTOUTS
100
AcDbLine
10
72.208697362287296
20
-2.3981363808490741
30
0
11
58.751033619151031
21
-6.2570593622873361
31
0
0
LINE
5
152
100
AcDbEntity
8
CUTOUTS
100
AcDbLine
10
58.751033619151031
20
-6.2570593622873361
30
0
11
54.892110637712733
21
7.2006043808490183
31
0
0
LINE
5
153
100
AcDbEntity
8
CUTOUTS
100
AcDbLine
10
54.892110637712733
20
7.2006043808490183
30
0
11
68.349774380848999
21
11.059527362287298
31
0
0
LINE
5
154
100
AcDbEntity
8
CUTOUTS
100
AcDbLine
10
57.847992380849064
20
47.683597362287301
30
0
11
61.706915362287319
21
34.225933619150943
31
0
0
LINE
5
155
100
AcDbEntity
8
CUTOUTS
100
AcDbLine
10
61.706915362287319
20
34.225933619150943
30
0
11
48.249251619150982
21
30.367010637712664
31
0
0
LINE
5
156
100
AcDbEntity
8
CUTOUTS
100
AcDbLine
10
48.249251619150982
20
30.367010637712664
30
0
11
44.390328637712727
21
43.824674380849018
31
0
0
LINE
5
157
100
AcDbEntity
8
CUTOUTS
100
AcDbLine
10
44.390328637712727
20
43.824674380849018
30
0
11
57.847992380849064
21
47.683597362287301
31
0
0
LINE
5
158
100
AcDbEntity
8
CUTOUTS
100
AcDbLine
10
77.472748380848998
20
48.356482362287288
30
0
11
81.331671362287295
21
34.898818619150916
31
0
0
LINE
5
159
100
AcDbEntity
8
CUTOUTS
100
AcDbLine
10
81.331671362287295
20
34.898818619150916
30
0
11
67.874007619151001
21
31.03989563771264
31
0
0
LINE
5
15A
100
AcDbEntity
8
CUTOUTS
100
AcDbLine
10
67.874007619151001
20
31.03989563771264
30
0
11
64.015084637712704
21
44.497559380849012
31
0
0
LINE
5
15B
100
AcDbEntity
8
CUTOUTS
100
AcDbLine
10
64.015084637712704
20
44.497559380849012
30
0
11
77.472748380848998
21
48.356482362287288
31
0
0
LINE
5
15C
100
AcDbEntity
8
CUTOUTS
100
AcDbLine
10
97.097505380849029
20
49.029366362287298
30
0
11
100.95642836228733
21
35.571702619150926
31
0
0
LINE
5
15D
100
AcDbEntity
8
CUTOUTS
100
AcDbLine
10
100.95642836228733
20
35.571702619150926
30
0
11
87.498764619151018
21
31.712779637712636
31
0
0
LINE
5
15E
100
AcDbEntity
8
CUTOUTS
100
AcDbLine
10
87.498764619151018
20
31.712779637712636
30
0
11
83.639841637712721
21
45.170443380849008
31
0
0
LINE
5
15F
100
AcDbEntity
8
CUTOUTS
100
AcDbLine
10
83.639841637712721
20
45.170443380849008
30
0
11
97.097505380849029
21
49.029366362287298
31
0
0
LINE
5
160
100
AcDbEntity
8
CUTOUTS
100
AcDbLine
10
116.72226238084909
20
49.70225036228733
30
0
11
120.58118536228739
21
36.244586619150951
31
0
0
LINE
5
161
100
AcDbEntity
8
CUTOUTS
100
AcDbLine
10
120.58118536228739
20
36.244586619150951
30
0
11
107.12352161915105
21
32.385663637712661
31
0
0
LINE
5
162
100
AcDbEntity
8
CUTOUTS
100
AcDbLine
10
107.12352161915105
20
32.385663637712661
30
0
11
103.26459863771275
21
45.84332738084904
31
0
0
LINE
5
163
100
AcDbEntity
8
CUTOUTS
100
AcDbLine
10
103.26459863771275
20
45.84332738084904
30
0
11
116.72226238084909
21
49.70225036228733
31
0
0
LINE
5
164
100
AcDbEntity
8
CUTOUTS
100
AcDbLine
10
-21.290011380849059
20
-32.161202637712719
30
0
11
-7.8323476377126866
21
-36.020125619151017
31
0
0
LINE
5
165
100
AcDbEntity
8
CUTOUTS
100
AcDbLine
10
-7.8323476377126866
20
-36.020125619151017
30
0
11
-11.691270619150984
21
-49.477789362287382
31
0
0
LINE
5
166
100
AcDbEntity
8
CUTOUTS
100
AcDbLine
10
-11.691270619150984
20
-49.477789362287382
30
0
11
-25.148934362287338
21
-45.618866380849084
31
0
0
LINE
5
167
100
AcDbEntity
8
CUTOUTS
100
AcDbLine
10
-25.148934362287338
20
-45.618866380849084
30
0
11
-21.290011380849059
21
-32.161202637712719
31
0
0
LINE
5
168
100
AcDbEntity
8
CUTOUTS
100
AcDbLine
10
-39.602046380849046
20
-26.910311637712709
30
0
11
-26.144382637712642
21
-30.769234619150971
31
0
0
LINE
5
169
100
AcDbEntity
8
CUTOUTS
100
AcDbLine
10
-26.144382637712642
20
-30.769234619150971
30
0
11
-30.003305619150904
21
-44.226898362287344
31
0
0
LINE
5
16A
100
AcDbEntity
8
CUTOUTS
100
AcDbLine
10
-30.003305619150904
20
-44.226898362287344
30
0
11
-43.460969362287315
21
-40.367975380849082
31
0
0
LINE
5
16B
100
AcDbEntity
8
CUTOUTS
100
AcDbLine
10
-43.460969362287315
20
-40.367975380849082
30
0
11
-39.602046380849046
21
-26.910311637712709
31
0
0
LINE
5
16C
100
AcDbEntity
8
CUTOUTS
100
AcDbLine
10
-56.601360380849997
20
-17.08140963771319
30
0
11
-43.143696637713177
21
-20.940332619150031
31
0
0
LINE
5
16D
100
AcDbEntity
8
CUTOUTS
100
AcDbLine
10
-43.143696637713177
20
-20.940332619150031
30
0
11
-47.002619619150025
21
-34.397996362286847
31
0
0
LINE
5
16E
100
AcDbEntity
8
CUTOUTS
100
AcDbLine
10
-47.002619619150025
20
-34.397996362286847
30
0
11
-60.460283362286837
21
-30.539073380850006
31
0
0
LINE
5
16F
100
AcDbEntity
8
CUTOUTS
100
AcDbLine
10
-60.460283362286837
20
-30.539073380850006
30
0
11
-56.601360380849997
21
-17.08140963771319
31
0
0
LINE
5
170
100
AcDbEntity
8
CUTOUTS
100
AcDbLine
10
-73.600674380849995
20
-7.2525076377132436
30
0
11
-60.143010637713189
21
-11.111430619150084
31
0
0
LINE
5
171
100
AcDbEntity
8
CUTOUTS
100
AcDbLine
10
-60.143010637713189
20
-11.111430619150084
30
0
11
-64.001933619150009
21
-24.569094362286865
31
0
0
LINE
5
172
100
AcDbEntity
8
CUTOUTS
100
AcDbLine
10
-64.001933619150009
20
-24.569094362286865
30
0
11
-77.459597362286829
21
-20.710171380850024
31
0
0
LINE
5
173
100
AcDbEntity
8
CUTOUTS
100
AcDbLine
10
-77.459597362286829
20
-20.710171380850024
30
0
11
-73.600674380849995
21
-7.2525076377132436
31
0
0
LINE
5
174
100
AcDbEntity
8
CUTOUTS
100
AcDbLine
10
-93.225433380849964
20
-6.5796246377132128
30
0
11
-79.767769637713158
21
-10.438547619150054
31
0
0
LINE
5
175
100
AcDbEntity
8
CUTOUTS
100
AcDbLine
10
-79.767769637713158
20
-10.438547619150054
30
0
11
-83.626692619149992
21
-23.896211362286834
31
0
0
LINE
5
176
100
AcDbEntity
8
CUTOUTS
100
AcDbLine
10
-83.626692619149992
20
-23.896211362286834
30
0
11
-97.084356362286783
21
-20.037288380849994
31
0
0
LINE
5
177
100
AcDbEntity
8
CUTOUTS
100
AcDbLine
10
-97.084356362286783
20
-20.037288380849994
30
0
11
-93.225433380849964
21
-6.5796246377132128
31
0
0
LINE
5
178
100
AcDbEntity
8
CUTOUTS
100
AcDbLine
10
-34.35115438084901
20
-8.5982766377126829
30
0
11
-20.893490637712642
21
-12.457199619150963
31
0
0
LINE
5
179
100
AcDbEntity
8
CUTOUTS
100
AcDbLine
10
-20.893490637712642
20
-12.457199619150963
30
0
11
-24.752413619150904
21
-25.91486336228737
31
0
0
LINE
5
17A
100
AcDbEntity
8
CUTOUTS
100
AcDbLine
10
-24.752413619150904
20
-25.91486336228737
30
0
11
-38.210077362287308
21
-22.055940380849091
31
0
0
LINE
5
17B
100
AcDbEntity
8
CUTOUTS
100
AcDbLine
10
-38.210077362287308
20
-22.055940380849091
30
0
11
-34.35115438084901
21
-8.5982766377126829
31
0
0
LINE
5
17C
100
AcDbEntity
8
CUTOUTS
100
AcDbLine
10
-51.350468380848341
20
1.2306253622876717
30
0
11
-37.89280463771226
21
-2.6282976191516916
31
0
0
LINE
5
17D
100
AcDbEntity
8
CUTOUTS
100
AcDbLine
10
-37.89280463771226
20
-2.6282976191516916
30
0
11
-41.751727619151623
21
-16.08596136228778
31
0
0
LINE
5
17E
100
AcDbEntity
8
CUTOUTS
100
AcDbLine
10
-41.751727619151623
20
-16.08596136228778
30
0
11
-55.209391362287704
21
-12.227038380848416
31
0
0
LINE
5
17F
100
AcDbEntity
8
CUTOUTS
100
AcDbLine
10
-55.209391362287704
20
-12.227038380848416
30
0
11
-51.350468380848341
21
1.2306253622876717
31
0
0
LINE
5
180
100
AcDbEntity
8
CUTOUTS
100
AcDbLine
10
-68.349782380849987
20
11.059527362286783
30
0
11
-54.892118637713168
21
7.200604380849942
31
0
0
LINE
5
181
100
AcDbEntity
8
CUTOUTS
100
AcDbLine
10
-54.892118637713168
20
7.200604380849942
30
0
11
-58.751041619150008
21
-6.2570593622868387
31
0
0
LINE
5
182
100
AcDbEntity
8
CUTOUTS
100
AcDbLine
10
-58.751041619150008
20
-6.2570593622868387
30
0
11
-72.208705362286821
21
-2.3981363808499978
31
0
0
LINE
5
183
100
AcDbEntity
8
CUTOUTS
100
AcDbLine
10
-72.208705362286821
20
-2.3981363808499978
30
0
11
-68.349782380849987
21
11.059527362286783
31
0
0
LINE
5
184
100
AcDbEntity
8
CUTOUTS
100
AcDbLine
10
-87.974541380849942
20
11.732410362286796
30
0
11
-74.516877637713165
21
7.873487380849955
31
0
0
LINE
5
185
100
AcDbEntity
8
CUTOUTS
100
AcDbLine
10
-74.516877637713165
20
7.873487380849955
30
0
11
-78.375800619150013
21
-5.5841763622868612
31
0
0
LINE
5
186
100
AcDbEntity
8
CUTOUTS
100
AcDbLine
10
-78.375800619150013
20
-5.5841763622868612
30
0
11
-91.833464362286776
21
-1.7252533808500203
31
0
0
LINE
5
187
100
AcDbEntity
8
CUTOUTS
100
AcDbLine
10
-91.833464362286776
20
-1.7252533808500203
30
0
11
-87.974541380849942
21
11.732410362286796
31
0
0
LINE
5
188
100
AcDbEntity
8
CUTOUTS
100
AcDbLine
10
-107.59930138084997
20
12.405294362286803
30
0
11
-94.14163763771316
21
8.546371380849962
31
0
0
LINE
5
189
100
AcDbEntity
8
CUTOUTS
100
AcDbLine
10
-94.14163763771316
20
8.546371380849962
30
0
11
-98.000560619150008
21
-4.9112923622868543
31
0
0
LINE
5
18A
100
AcDbEntity
8
CUTOUTS
100
AcDbLine
10
-98.000560619150008
20
-4.9112923622868543
30
0
11
-111.45822436228681
21
-1.0523693808500134
31
0
0
LINE
5
18B
100
AcDbEntity
8
CUTOUTS
100
AcDbLine
10
-111.45822436228681
20
-1.0523693808500134
30
0
11
-107.59930138084997
21
12.405294362286803
31
0
0
LINE
5
18C
100
AcDbEntity
8
CUTOUTS
100
AcDbLine
10
-131.08298436228677
20
-0.37948538085000649
30
0
11
-127.22406138084997
21
13.078178362286774
31
0
0
LINE
5
18D
100
AcDbEntity
8
CUTOUTS
100
AcDbLine
10
-127.22406138084997
20
13.078178362286774
30
0
11
-113.76639763771317
21
9.2192553808499511
31
0
0
LINE
5
18E
100
AcDbEntity
8
CUTOUTS
100
AcDbLine
10
-113.76639763771317
20
9.2192553808499511
30
0
11
-117.62532061914997
21
-4.2384083622868296
31
0
0
LINE
5
18F
100
AcDbEntity
8
CUTOUTS
100
AcDbLine
10
-117.62532061914997
20
-4.2384083622868296
30
0
11
-131.08298436228677
21
-0.37948538085000649
31
0
0
LINE
5
190
100
AcDbEntity
8
CUTOUTS
100
AcDbLine
10
-29.100262380849031
20
9.7137583622873258
30
0
11
-15.642598637712624
21
5.8548353808490461
31
0
0
LINE
5
191
100
AcDbEntity
8
CUTOUTS
100
AcDbLine
10
-15.642598637712624
20
5.8548353808490461
30
0
11
-19.501521619150921
21
-7.6028283622873616
31
0
0
LINE
5
192
100
AcDbEntity
8
CUTOUTS
100
AcDbLine
10
-19.501521619150921
20
-7.6028283622873616
30
0
11
-32.959185362287329
21
-3.7439053808490819
31
0
0
LINE
5
193
100
AcDbEntity
8
CUTOUTS
100
AcDbLine
10
-32.959185362287329
20
-3.7439053808490819
30
0
11
-29.100262380849031
21
9.7137583622873258
31
0
0
LINE
5
194
100
AcDbEntity
8
CUTOUTS
100
AcDbLine
10
-46.099576380848347
20
19.542660362287698
30
0
11
-32.641912637712252
21
15.683737380848317
31
0
0
LINE
5
195
100
AcDbEntity
8
CUTOUTS
100
AcDbLine
10
-32.641912637712252
20
15.683737380848317
30
0
11
-36.500835619151637
21
2.2260736377122292
31
0
0
LINE
5
196
100
AcDbEntity
8
CUTOUTS
100
AcDbLine
10
-36.500835619151637
20
2.2260736377122292
30
0
11
-49.958499362287725
21
6.0849966191516103
31
0
0
LINE
5
197
100
AcDbEntity
8
CUTOUTS
100
AcDbLine
10
-49.958499362287725
20
6.0849966191516103
30
0
11
-46.099576380848347
21
19.542660362287698
31
0
0
LINE
5
198
100
AcDbEntity
8
CUTOUTS
100
AcDbLine
10
-63.09889038084998
20
29.371562362286781
30
0
11
-49.641226637713167
21
25.512639380849961
31
0
0
LINE
5
199
100
AcDbEntity
8
CUTOUTS
100
AcDbLine
10
-49.641226637713167
20
25.512639380849961
30
0
11
-53.500149619149994
21
12.054975637713135
31
0
0
LINE
5
19A
100
AcDbEntity
8
CUTOUTS
100
AcDbLine
10
-53.500149619149994
20
12.054975637713135
30
0
11
-66.957813362286799
21
15.913898619149967
31
0
0
LINE
5
19B
100
AcDbEntity
8
CUTOUTS
100
AcDbLine
10
-66.957813362286799
20
15.913898619149967
30
0
11
-63.09889038084998
21
29.371562362286781
31
0
0
LINE
5
19C
100
AcDbEntity
8
CUTOUTS
100
AcDbLine
10
-82.723649380849963
20
30.044445362286769
30
0
11
-69.265985637713172
21
26.185522380849946
31
0
0
LINE
5
19D
100
AcDbEntity
8
CUTOUTS
100
AcDbLine
10
-69.265985637713172
20
26.185522380849946
30
0
11
-73.124908619149991
21
12.727858637713165
31
0
0
LINE
5
19E
100
AcDbEntity
8
CUTOUTS
100
AcDbLine
10
-73.124908619149991
20
12.727858637713165
30
0
11
-86.582572362286783
21
16.586781619149971
31
0
0
LINE
5
19F
100
AcDbEntity
8
CUTOUTS
100
AcDbLine
10
-86.582572362286783
20
16.586781619149971
30
0
11
-82.723649380849963
21
30.044445362286769
31
0
0
LINE
5
1A0
100
AcDbEntity
8
CUTOUTS
100
AcDbLine
10
-102.34840938084999
20
30.717329362286794
30
0
11
-88.890745637713181
21
26.858406380849964
31
0
0
LINE
5
1A1
100
AcDbEntity
8
CUTOUTS
100
AcDbLine
10
-88.890745637713181
20
26.858406380849964
30
0
11
-92.749668619150015
21
13.400742637713172
31
0
0
LINE
5
1A2
100
AcDbEntity
8
CUTOUTS
100
AcDbLine
10
-92.749668619150015
20
13.400742637713172
30
0
11
-106.20733236228681
21
17.259665619149995
31
0
0
LINE
5
1A3
100
AcDbEntity
8
CUTOUTS
100
AcDbLine
10
-106.20733236228681
20
17.259665619149995
30
0
11
-102.34840938084999
21
30.717329362286794
31
0
0
LINE
5
1A4
100
AcDbEntity
8
CUTOUTS
100
AcDbLine
10
-121.97316938084997
20
31.390213362286794
30
0
11
-108.51550563771318
21
27.531290380849953
31
0
0
LINE
5
1A5
100
AcDbEntity
8
CUTOUTS
100
AcDbLine
10
-108.51550563771318
20
27.531290380849953
30
0
11
-112.37442861915001
21
14.073626637713161
31
0
0
LINE
5
1A6
100
AcDbEntity
8
CUTOUTS
100
AcDbLine
10
-112.37442861915001
20
14.073626637713161
30
0
11
-125.83209236228682
21
17.932549619149995
31
0
0
LINE
5
1A7
100
AcDbEntity
8
CUTOUTS
100
AcDbLine
10
-125.83209236228682
20
17.932549619149995
30
0
11
-121.97316938084997
21
31.390213362286794
31
0
0
LINE
5
1A8
100
AcDbEntity
8
CUTOUTS
100
AcDbLine
10
-23.849370380849049
20
28.025793362287299
30
0
11
-10.391706637712641
21
24.166870380849002
31
0
0
LINE
5
1A9
100
AcDbEntity
8
CUTOUTS
100
AcDbLine
10
-10.391706637712641
20
24.166870380849002
30
0
11
-14.250629619150921
21
10.709206637712629
31
0
0
LINE
5
1AA
100
AcDbEntity
8
CUTOUTS
100
AcDbLine
10
-14.250629619150921
20
10.709206637712629
30
0
11
-27.708293362287328
21
14.568129619150927
31
0
0
LINE
5
1AB
100
AcDbEntity
8
CUTOUTS
100
AcDbLine
10
-27.708293362287328
20
14.568129619150927
30
0
11
-23.849370380849049
21
28.025793362287299
31
0
0
LINE
5
1AC
100
AcDbEntity
8
CUTOUTS
100
AcDbLine
10
-40.848684380849051
20
37.854695362287288
30
0
11
-27.391020637712646
21
33.99577238084899
31
0
0
LINE
5
1AD
100
AcDbEntity
8
CUTOUTS
100
AcDbLine
10
-27.391020637712646
20
33.99577238084899
30
0
11
-31.249943619150944
21
20.538108637712618
31
0
0
LINE
5
1AE
100
AcDbEntity
8
CUTOUTS
100
AcDbLine
10
-31.249943619150944
20
20.538108637712618
30
0
11
-44.707607362287348
21
24.397031619150916
31
0
0
LINE
5
1AF
100
AcDbEntity
8
CUTOUTS
100
AcDbLine
10
-44.707607362287348
20
24.397031619150916
30
0
11
-40.848684380849051
21
37.854695362287288
31
0
0
LINE
5
1B0
100
AcDbEntity
8
CUTOUTS
100
AcDbLine
10
-61.70692136228682
20
34.225933619149991
30
0
11
-57.847998380849987
21
47.68359736228679
31
0
0
LINE
5
1B1
100
AcDbEntity
8
CUTOUTS
100
AcDbLine
10
-57.847998380849987
20
47.68359736228679
30
0
11
-44.390334637713167
21
43.824674380849949
31
0
0
LINE
5
1B2
100
AcDbEntity
8
CUTOUTS
100
AcDbLine
10
-44.390334637713167
20
43.824674380849949
30
0
11
-48.249257619150008
21
30.36701063771315
31
0
0
LINE
5
1B3
100
AcDbEntity
8
CUTOUTS
100
AcDbLine
10
-48.249257619150008
20
30.36701063771315
30
0
11
-61.70692136228682
21
34.225933619149991
31
0
0
LINE
5
1B4
100
AcDbEntity
8
CUTOUTS
100
AcDbLine
10
-81.331681362286787
20
34.89881761914998
30
0
11
-77.472758380849967
21
48.356481362286779
31
0
0
LINE
5
1B5
100
AcDbEntity
8
CUTOUTS
100
AcDbLine
10
-77.472758380849967
20
48.356481362286779
30
0
11
-64.01509463771319
21
44.497558380849959
31
0
0
LINE
5
1B6
100
AcDbEntity
8
CUTOUTS
100
AcDbLine
10
-64.01509463771319
20
44.497558380849959
30
0
11
-67.874017619150024
21
31.039894637713161
31
0
0
LINE
5
1B7
100
AcDbEntity
8
CUTOUTS
100
AcDbLine
10
-67.874017619150024
20
31.039894637713161
30
0
11
-81.331681362286787
21
34.89881761914998
31
0
0
LINE
5
1B8
100
AcDbEntity
8
CUTOUTS
100
AcDbLine
10
-100.9564413622868
20
35.571701619149991
30
0
11
-97.097518380849962
21
49.029365362286789
31
0
0
LINE
5
1B9
100
AcDbEntity
8
CUTOUTS
100
AcDbLine
10
-97.097518380849962
20
49.029365362286789
30
0
11
-83.639854637713157
21
45.170442380849948
31
0
0
LINE
5
1BA
100
AcDbEntity
8
CUTOUTS
100
AcDbLine
10
-83.639854637713157
20
45.170442380849948
30
0
11
-87.498777619150005
21
31.71277863771315
31
0
0
LINE
5
1BB
100
AcDbEntity
8
CUTOUTS
100
AcDbLine
10
-87.498777619150005
20
31.71277863771315
30
0
11
-100.9564413622868
21
35.571701619149991
31
0
0
LINE
5
1BC
100
AcDbEntity
8
CUTOUTS
100
AcDbLine
10
-103.26461463771318
20
45.843326380849945
30
0
11
-107.12353761915
21
32.385662637713146
31
0
0
LINE
5
1BD
100
AcDbEntity
8
CUTOUTS
100
AcDbLine
10
-107.12353761915
20
32.385662637713146
30
0
11
-120.58120136228681
21
36.244585619149987
31
0
0
LINE
5
1BE
100
AcDbEntity
8
CUTOUTS
100
AcDbLine
10
-120.58120136228681
20
36.244585619149987
30
0
11
-116.72227838084996
21
49.702249362286786
31
0
0
LINE
5
1BF
100
AcDbEntity
8
CUTOUTS
100
AcDbLine
10
-116.72227838084996
20
49.702249362286786
30
0
11
-103.26461463771318
21
45.843326380849945
31
0
0
LINE
5
1C0
100
AcDbEntity
8
PERIMETER
100
AcDbLine
10
-50.160878805398674
20
-50.457290951940728
30
0
11
-11.289565050369408
21
-61.657499999999992
31
0
0
LINE
5
1C1
100
AcDbEntity
8
PERIMETER
100
AcDbLine
10
-11.289565050369408
20
-61.657499999999992
30
0
11
11.289565050369479
21
-61.65749999999997
31
0
0
LINE
5
1C2
100
AcDbEntity
8
PERIMETER
100
AcDbLine
10
11.289565050369479
20
-61.65749999999997
30
0
11
50.160878805402845
21
-50.45729095193952
31
0
0
LINE
5
1C3
100
AcDbEntity
8
PERIMETER
100
AcDbLine
10
50.160878805402845
20
-50.45729095193952
30
0
11
104.43213559463685
21
-29.782526460802643
31
0
0
LINE
5
1C4
100
AcDbEntity
8
PERIMETER
100
AcDbLine
10
104.43213559463685
20
-29.782526460802643
30
0
11
142.88235858659431
21
-7.2927733900351122
31
0
0
ARC
5
1C5
100
AcDbEntity
8
PERIMETER
100
AcDbCircle
10
141.3677086414805
20
-4.7032105806469104
30
0
40
2.999999999999972
210
-0
220
0
230
1
100
AcDbArc
50
-59.676393137450866
51
16.209024927808692
0
LINE
5
1C6
100
AcDbEntity
8
PERIMETER
100
AcDbLine
10
144.24845782716793
20
-3.8657834917842493
30
0
11
125.82964661186368
21
59.494927088862596
31
0
0
ARC
5
1C7
100
AcDbEntity
8
PERIMETER
100
AcDbCircle
10
122.94889742617622
20
58.65749999999997
30
0
40
2.9999999999999858
210
0
220
-0
230
1
100
AcDbArc
50
16.209024927807803
51
90
0
LINE
5
1C8
100
AcDbEntity
8
PERIMETER
100
AcDbLine
10
122.94889742617622
20
61.657499999999956
30
0
11
58.641650607479562
21
61.657499999999928
31
0
0
LINE
5
1C9
100
AcDbEntity
8
PERIMETER
100
AcDbLine
10
58.641650607479562
20
61.657499999999928
30
0
11
37.511640727558188
21
56.022830698687599
31
0
0
LINE
5
1CA
100
AcDbEntity
8
PERIMETER
100
AcDbLine
10
37.511640727558188
20
56.022830698687599
30
0
11
19.359112381656178
21
45.265776864079861
31
0
0
LINE
5
1CB
100
AcDbEntity
8
PERIMETER
100
AcDbLine
10
19.359112381656178
20
45.265776864079861
30
0
11
7.7777077230070368
21
38.138758612603525
31
0
0
ARC
5
1CC
100
AcDbEntity
8
PERIMETER
100
AcDbCircle
10
9.350000000000076
20
35.583783662489843
30
0
40
3.0000000000000595
210
0
220
0
230
1
100
AcDbArc
50
121.607502246249
51
180
0
LINE
5
1CD
100
AcDbEntity
8
PERIMETER
100
AcDbLine
10
6.3500000000000156
20
35.583783662489878
30
0
11
6.3500000000000156
21
19.622500000000002
31
0
0
LINE
5
1CE
100
AcDbEntity
8
PERIMETER
100
AcDbLine
10
6.3500000000000156
20
19.622500000000002
30
0
11
-6.3499999999999801
21
19.622500000000002
31
0
0
LINE
5
1CF
100
AcDbEntity
8
PERIMETER
100
AcDbLine
10
-6.3499999999999801
20
19.622500000000002
30
0
11
-6.3499999999999623
21
35.583783662491115
31
0
0
ARC
5
1D0
100
AcDbEntity
8
PERIMETER
100
AcDbCircle
10
-9.3499999999999162
20
35.583783662491165
30
0
40
2.9999999999999538
210
-0
220
0
230
1
100
AcDbArc
50
0
51
58.392497753744223
0
LINE
5
1D1
100
AcDbEntity
8
PERIMETER
100
AcDbLine
10
-7.7777077230066283
20
38.138758612604569
30
0
11
-19.359112381419248
21
45.265776863937447
31
0
0
LINE
5
1D2
100
AcDbEntity
8
PERIMETER
100
AcDbLine
10
-19.359112381419248
20
45.265776863937447
30
0
11
-37.511640727561293
21
56.02283069868831
31
0
0
LINE
5
1D3
100
AcDbEntity
8
PERIMETER
100
AcDbLine
10
-37.511640727561293
20
56.02283069868831
30
0
11
-58.641650607479448
21
61.65749999999997
31
0
0
LINE
5
1D4
100
AcDbEntity
8
PERIMETER
100
AcDbLine
10
-58.641650607479448
20
61.657499999999963
30
0
11
-122.94889742617613
21
61.657499999999963
31
0
0
ARC
5
1D5
100
AcDbEntity
8
PERIMETER
100
AcDbCircle
10
-122.94889742617613
20
58.65749999999997
30
0
40
3.0000000000000071
210
0
220
-0
230
1
100
AcDbArc
50
90
51
163.79097507219203
0
LINE
5
1D6
100
AcDbEntity
8
PERIMETER
100
AcDbLine
10
-125.82964661186359
20
59.494927088862603
30
0
11
-144.2484578271679
21
-3.8657834917842138
31
0
0
ARC
5
1D7
100
AcDbEntity
8
PERIMETER
100
AcDbCircle
10
-141.36770864148045
20
-4.7032105806468572
30
0
40
2.9999999999999738
210
0
220
0
230
1
100
AcDbArc
50
163.79097507219177
51
239.67639313745096
0
LINE
5
1D8
100
AcDbEntity
8
PERIMETER
100
AcDbLine
10
-142.88235858659425
20
-7.2927733900350766
30
0
11
-104.43213559463641
21
-29.782526460802767
31
0
0
LINE
5
1D9
100
AcDbEntity
8
PERIMETER
100
AcDbLine
10
-104.43213559463641
20
-29.782526460802767
30
0
11
-50.160878805398667
21
-50.457290951940728
31
0
0
ENDSEC
0
SECTION
2
OBJECTS
0
DICTIONARY
5
C
100
AcDbDictionary
3
ACAD_GROUP
350
D
3
ACAD_MLINESTYLE
350
17
0
DICTIONARY
5
D
100
AcDbDictionary
0
DICTIONARY
5
1A
330
C
100
AcDbDictionary
0
DICTIONARY
5
17
100
AcDbDictionary
0
ENDSEC
0
EOF
