M48
; DRILL file {KiCad (5.1.5)-3} date 09/15/20 02:52:53
; FORMAT={-:-/ absolute / inch / decimal}
; #@! TF.CreationDate,2020-09-15T02:52:53+03:00
; #@! TF.GenerationSoftware,Kicad,Pcbnew,(5.1.5)-3
FMAT,2
INCH
T1C0.0157
T2C0.0315
T3C0.0430
T4C0.0591
T5C0.0670
T6C0.1570
%
G90
G05
T1
X3.025Y-3.95
X3.225Y-3.95
X3.625Y-4.225
X3.625Y-4.275
X3.975Y-4.225
X3.975Y-4.275
X4.45Y-3.85
X4.45Y-3.925
X4.75Y-3.85
X4.75Y-3.925
X5.1Y-3.8
X5.1Y-3.9
X5.225Y-3.975
X5.275Y-4.025
X5.325Y-3.8
X5.325Y-3.9
X5.975Y-4.425
X5.975Y-4.5
X6.175Y-4.5
X6.225Y-3.7
X6.225Y-3.8
X6.525Y-4.1
X6.675Y-4.0
X7.325Y-3.6
T2
X4.478Y-4.0634
X4.7664Y-4.1461
X4.6848Y-3.3425
X4.9731Y-3.4252
X4.2713Y-4.7844
X4.5597Y-4.8671
X1.0283Y-2.4891
X1.3167Y-2.5718
X3.553Y-1.8476
X3.8413Y-1.9303
X2.3669Y-3.263
X2.6552Y-3.3457
X8.15Y-4.125
X8.4384Y-4.0423
X9.05Y-1.925
X9.3384Y-1.8423
X4.025Y-2.9555
X4.3134Y-3.0382
X4.9922Y-4.9911
X5.2806Y-5.0738
X4.2222Y-2.2346
X4.5106Y-2.3173
X0.8216Y-3.21
X1.11Y-3.2927
X3.602Y-4.3974
X3.8904Y-4.4801
X10.05Y-2.625
X10.3384Y-2.5423
X3.8088Y-3.6765
X4.0971Y-3.7592
X6.85Y-2.35
X7.1384Y-2.2673
X4.8915Y-2.6216
X5.1799Y-2.7042
X2.0077Y-1.7946
X2.2961Y-1.8773
X1.5942Y-3.2365
X1.8826Y-3.3192
X2.7803Y-1.8211
X3.0687Y-1.9038
X7.95Y-3.4
X8.2384Y-3.3173
X7.475Y-4.525
X7.7634Y-4.4423
X6.6Y-4.175
X6.8884Y-4.0923
X7.05Y-3.075
X7.3384Y-2.9923
X2.1601Y-3.984
X2.4485Y-4.0667
X2.5736Y-2.5421
X2.862Y-2.6248
X1.2351Y-1.7681
X1.5234Y-1.8508
X8.3Y-1.95
X8.5884Y-1.8673
X10.25Y-3.35
X10.5384Y-3.2673
X6.375Y-3.475
X6.6634Y-3.3923
X7.275Y-3.8
X7.5634Y-3.7173
X2.9328Y-4.0105
X3.2211Y-4.0932
X1.801Y-2.5156
X2.0893Y-2.5983
X9.275Y-2.65
X9.5634Y-2.5673
X8.5Y-2.675
X8.7884Y-2.5923
X6.075Y-5.1
X6.3634Y-5.0173
X6.8Y-4.9
X7.0884Y-4.8173
X3.1395Y-3.2895
X3.4279Y-3.3722
X8.9Y-4.125
X9.1884Y-4.0423
X9.825Y-1.9
X10.1134Y-1.8173
X8.7Y-3.375
X8.9884Y-3.2923
X7.725Y-2.7
X8.0134Y-2.6173
X6.175Y-2.75
X6.4634Y-2.6673
X7.525Y-1.975
X7.8134Y-1.8923
X3.3462Y-2.5686
X3.6346Y-2.6513
X9.475Y-3.35
X9.7634Y-3.2673
T3
X5.45Y-3.2
X5.45Y-3.3
X5.45Y-3.4
X5.45Y-3.5
X5.45Y-3.6
X5.45Y-3.7
X5.45Y-3.8
X5.45Y-3.9
X5.45Y-4.0
X5.45Y-4.1
X5.45Y-4.2
X5.45Y-4.3
X6.05Y-3.2
X6.05Y-3.3
X6.05Y-3.4
X6.05Y-3.5
X6.05Y-3.6
X6.05Y-3.7
X6.05Y-3.8
X6.05Y-3.9
X6.05Y-4.0
X6.05Y-4.1
X6.05Y-4.2
X6.05Y-4.3
T5
X3.0558Y-3.6128
X3.4403Y-3.7231
X3.5183Y-4.7207
X3.9028Y-4.831
X8.4189Y-2.2547
X8.8034Y-2.1445
X0.7379Y-3.5334
X1.1224Y-3.6436
X2.849Y-4.3338
X3.2335Y-4.444
X8.0597Y-3.7231
X8.4442Y-3.6128
X0.9446Y-2.8124
X1.3291Y-2.9227
X7.3905Y-4.1101
X7.775Y-3.9998
X4.9085Y-5.3144
X5.293Y-5.4247
X4.601Y-3.6658
X4.9855Y-3.7761
X9.1915Y-2.2282
X9.576Y-2.118
X2.2831Y-3.5863
X2.6676Y-3.6966
X6.3077Y-3.0551
X6.6923Y-2.9449
X1.924Y-2.118
X2.3085Y-2.2282
X4.1385Y-2.5579
X4.523Y-2.6682
X4.8077Y-2.9449
X5.1923Y-3.0551
X10.3776Y-3.6436
X10.7621Y-3.5334
X8.8324Y-3.6966
X9.2169Y-3.5863
X3.4692Y-2.1709
X3.8537Y-2.2812
X6.5145Y-3.7761
X6.899Y-3.6658
X1.7172Y-2.8389
X2.1017Y-2.9492
X4.1876Y-5.1077
X4.5721Y-5.218
X9.0391Y-4.4175
X9.4236Y-4.3073
X2.0764Y-4.3073
X2.4609Y-4.4175
X9.3983Y-2.9492
X9.7828Y-2.8389
X3.2625Y-2.8919
X3.647Y-3.0021
X6.7212Y-4.497
X7.1057Y-4.3868
X4.3943Y-4.3868
X4.7788Y-4.497
X9.605Y-3.6701
X9.9895Y-3.5599
X7.6463Y-2.2812
X8.0308Y-2.1709
X2.4899Y-2.8654
X2.8744Y-2.9757
X8.6256Y-2.9757
X9.0101Y-2.8654
X6.207Y-5.4247
X6.5915Y-5.3144
X1.5105Y-3.5599
X1.895Y-3.6701
X10.1709Y-2.9227
X10.5554Y-2.8124
X7.853Y-3.0021
X8.2375Y-2.8919
X3.9318Y-3.2789
X4.3163Y-3.3891
X8.2665Y-4.444
X8.651Y-4.3338
X1.1513Y-2.0915
X1.5358Y-2.2017
X6.9279Y-5.218
X7.3124Y-5.1077
X2.6966Y-2.1445
X3.0811Y-2.2547
X9.9642Y-2.2017
X10.3487Y-2.0915
X7.5972Y-4.831
X7.9817Y-4.7207
X3.725Y-3.9998
X4.1095Y-4.1101
X6.977Y-2.6682
X7.3615Y-2.5579
X7.1837Y-3.3891
X7.5682Y-3.2789
T6
X4.3307Y-2.613
X5.0Y-3.0
X10.5699Y-3.5885
X9.0246Y-3.6415
X3.6615Y-2.2261
X6.7067Y-3.7209
X1.9095Y-2.894
X4.3798Y-5.1628
X9.2313Y-4.3624
X2.2687Y-4.3624
X9.5905Y-2.894
X3.4547Y-2.947
X6.9135Y-4.4419
X4.5865Y-4.4419
X9.7972Y-3.615
X7.8385Y-2.2261
X2.6821Y-2.9205
X8.8179Y-2.9205
X6.3992Y-5.3696
X1.7028Y-3.615
X10.3631Y-2.8675
X8.0453Y-2.947
X4.124Y-3.334
X8.4587Y-4.3889
X1.3436Y-2.1466
X7.1202Y-5.1628
X2.8888Y-2.1996
X10.1564Y-2.1466
X7.7894Y-4.7759
X3.9173Y-4.0549
X7.1693Y-2.613
X7.376Y-3.334
X3.248Y-3.668
X3.7106Y-4.7759
X8.6112Y-2.1996
X0.9301Y-3.5885
X3.0413Y-4.3889
X8.252Y-3.668
X1.1369Y-2.8675
X7.5827Y-4.0549
X5.1008Y-5.3696
X4.7933Y-3.7209
X9.3838Y-2.1731
X2.4754Y-3.6415
X6.5Y-3.0
X2.1162Y-2.1731
T4
G00X4.5164Y-4.258
M15
G01X4.4699Y-4.3044
M16
G05
G00X4.7378Y-4.2772
M15
G01X4.73Y-4.2987
M16
G05
G00X9.6403Y-3.4962
M15
G01X9.6255Y-3.5602
M16
G05
G00X9.8382Y-3.3952
M15
G01X9.843Y-3.4175
M16
G05
G00X7.6816Y-2.1072
M15
G01X7.6668Y-2.1713
M16
G05
G00X7.8795Y-2.0063
M15
G01X7.8843Y-2.0286
M16
G05
G00X2.612Y-2.7366
M15
G01X2.5655Y-2.783
M16
G05
G00X2.8334Y-2.7559
M15
G01X2.8256Y-2.7773
M16
G05
G00X8.661Y-2.8017
M15
G01X8.6461Y-2.8657
M16
G05
G00X8.8589Y-2.7007
M15
G01X8.8637Y-2.7231
M16
G05
G00X6.2423Y-5.2507
M15
G01X6.2275Y-5.3148
M16
G05
G00X6.4402Y-5.1498
M15
G01X6.445Y-5.1721
M16
G05
G00X1.6326Y-3.4311
M15
G01X1.5861Y-3.4775
M16
G05
G00X1.854Y-3.4503
M15
G01X1.8462Y-3.4718
M16
G05
G00X10.2062Y-2.7487
M15
G01X10.1914Y-2.8128
M16
G05
G00X10.4041Y-2.6478
M15
G01X10.4089Y-2.6701
M16
G05
G00X7.8883Y-2.8282
M15
G01X7.8735Y-2.8922
M16
G05
G00X8.0863Y-2.7272
M15
G01X8.091Y-2.7496
M16
G05
G00X4.0539Y-3.1501
M15
G01X4.0074Y-3.1965
M16
G05
G00X4.2752Y-3.1693
M15
G01X4.2675Y-3.1908
M16
G05
G00X8.3018Y-4.2701
M15
G01X8.2869Y-4.3341
M16
G05
G00X8.4997Y-4.1691
M15
G01X8.5045Y-4.1914
M16
G05
G00X1.2735Y-1.9627
M15
G01X1.2269Y-2.0091
M16
G05
G00X1.4948Y-1.9819
M15
G01X1.487Y-2.0034
M16
G05
G00X6.9633Y-5.044
M15
G01X6.9484Y-5.1081
M16
G05
G00X7.1612Y-4.9431
M15
G01X7.166Y-4.9654
M16
G05
G00X2.8187Y-2.0157
M15
G01X2.7722Y-2.0621
M16
G05
G00X3.0401Y-2.0349
M15
G01X3.0323Y-2.0564
M16
G05
G00X9.9995Y-2.0278
M15
G01X9.9846Y-2.0918
M16
G05
G00X10.1974Y-1.9268
M15
G01X10.2022Y-1.9491
M16
G05
G00X7.6325Y-4.657
M15
G01X7.6177Y-4.7211
M16
G05
G00X7.8304Y-4.5561
M15
G01X7.8352Y-4.5784
M16
G05
G00X3.8472Y-3.871
M15
G01X3.8006Y-3.9174
M16
G05
G00X4.0685Y-3.8903
M15
G01X4.0607Y-3.9117
M16
G05
G00X7.0123Y-2.4942
M15
G01X6.9975Y-2.5583
M16
G05
G00X7.2103Y-2.3932
M15
G01X7.215Y-2.4156
M16
G05
G00X7.2191Y-3.2152
M15
G01X7.2042Y-3.2792
M16
G05
G00X7.417Y-3.1142
M15
G01X7.4218Y-3.1365
M16
G05
G00X3.1779Y-3.484
M15
G01X3.1314Y-3.5305
M16
G05
G00X3.3993Y-3.5033
M15
G01X3.3915Y-3.5248
M16
G05
G00X3.6404Y-4.5919
M15
G01X3.5939Y-4.6384
M16
G05
G00X3.8618Y-4.6112
M15
G01X3.854Y-4.6327
M16
G05
G00X8.4542Y-2.0808
M15
G01X8.4394Y-2.1448
M16
G05
G00X8.6522Y-1.9798
M15
G01X8.6569Y-2.0021
M16
G05
G00X0.86Y-3.4046
M15
G01X0.8135Y-3.451
M16
G05
G00X1.0814Y-3.4238
M15
G01X1.0736Y-3.4453
M16
G05
G00X2.9712Y-4.205
M15
G01X2.9246Y-4.2514
M16
G05
G00X3.1925Y-4.2242
M15
G01X3.1848Y-4.2457
M16
G05
G00X8.0951Y-3.5491
M15
G01X8.0802Y-3.6132
M16
G05
G00X8.293Y-3.4482
M15
G01X8.2978Y-3.4705
M16
G05
G00X1.0667Y-2.6836
M15
G01X1.0202Y-2.7301
M16
G05
G00X1.2881Y-2.7029
M15
G01X1.2803Y-2.7243
M16
G05
G00X7.4258Y-3.9361
M15
G01X7.4109Y-4.0002
M16
G05
G00X7.6237Y-3.8351
M15
G01X7.6285Y-3.8575
M16
G05
G00X5.0307Y-5.1856
M15
G01X4.9841Y-5.2321
M16
G05
G00X5.252Y-5.2049
M15
G01X5.2442Y-5.2264
M16
G05
G00X4.7232Y-3.537
M15
G01X4.6766Y-3.5835
M16
G05
G00X4.9445Y-3.5563
M15
G01X4.9367Y-3.5778
M16
G05
G00X9.2269Y-2.0543
M15
G01X9.212Y-2.1183
M16
G05
G00X9.4248Y-1.9533
M15
G01X9.4296Y-1.9756
M16
G05
G00X2.4053Y-3.4575
M15
G01X2.3587Y-3.504
M16
G05
G00X2.6266Y-3.4768
M15
G01X2.6189Y-3.4983
M16
G05
G00X6.3431Y-2.8812
M15
G01X6.3282Y-2.9452
M16
G05
G00X6.541Y-2.7802
M15
G01X6.5458Y-2.8025
M16
G05
G00X2.0461Y-1.9892
M15
G01X1.9996Y-2.0356
M16
G05
G00X2.2675Y-2.0084
M15
G01X2.2597Y-2.0299
M16
G05
G00X4.2606Y-2.4291
M15
G01X4.2141Y-2.4756
M16
G05
G00X4.482Y-2.4484
M15
G01X4.4742Y-2.4698
M16
G05
G00X4.9299Y-2.8161
M15
G01X4.8834Y-2.8625
M16
G05
G00X5.1512Y-2.8353
M15
G01X5.1435Y-2.8568
M16
G05
G00X10.4129Y-3.4697
M15
G01X10.3981Y-3.5337
M16
G05
G00X10.6109Y-3.3687
M15
G01X10.6157Y-3.391
M16
G05
G00X8.8677Y-3.5226
M15
G01X8.8528Y-3.5867
M16
G05
G00X9.0656Y-3.4217
M15
G01X9.0704Y-3.444
M16
G05
G00X3.5914Y-2.0421
M15
G01X3.5448Y-2.0886
M16
G05
G00X3.8127Y-2.0614
M15
G01X3.8049Y-2.0829
M16
G05
G00X6.5498Y-3.6021
M15
G01X6.535Y-3.6662
M16
G05
G00X6.7477Y-3.5012
M15
G01X6.7525Y-3.5235
M16
G05
G00X1.8394Y-2.7101
M15
G01X1.7928Y-2.7566
M16
G05
G00X2.0607Y-2.7294
M15
G01X2.053Y-2.7508
M16
G05
G00X4.3097Y-4.9789
M15
G01X4.2632Y-5.0254
M16
G05
G00X4.5311Y-4.9982
M15
G01X4.5233Y-5.0196
M16
G05
G00X9.0744Y-4.2436
M15
G01X9.0596Y-4.3076
M16
G05
G00X9.2723Y-4.1426
M15
G01X9.2771Y-4.165
M16
G05
G00X2.1985Y-4.1785
M15
G01X2.152Y-4.2249
M16
G05
G00X2.4199Y-4.1978
M15
G01X2.4121Y-4.2192
M16
G05
G00X9.4336Y-2.7752
M15
G01X9.4187Y-2.8393
M16
G05
G00X9.6315Y-2.6742
M15
G01X9.6363Y-2.6966
M16
G05
G00X3.3846Y-2.7631
M15
G01X3.3381Y-2.8095
M16
G05
G00X3.606Y-2.7824
M15
G01X3.5982Y-2.8038
M16
G05
G00X6.7565Y-4.3231
M15
G01X6.7417Y-4.3871
M16
G05
G00X6.9545Y-4.2221
M15
G01X6.9592Y-4.2444
M16
G05
T0
M30
