G04 #@! TF.GenerationSoftware,KiCad,Pcbnew,(5.1.5)-3*
G04 #@! TF.CreationDate,2020-09-15T02:52:10+03:00*
G04 #@! TF.ProjectId,eiri,65697269-2e6b-4696-9361-645f70636258,rev?*
G04 #@! TF.SameCoordinates,Original*
G04 #@! TF.FileFunction,Copper,L1,Top*
G04 #@! TF.FilePolarity,Positive*
%FSLAX46Y46*%
G04 Gerber Fmt 4.6, Leading zero omitted, Abs format (unit mm)*
G04 Created by KiCad (PCBNEW (5.1.5)-3) date 2020-09-15 02:52:10*
%MOMM*%
%LPD*%
G04 APERTURE LIST*
%ADD10R,1.752600X1.752600*%
%ADD11C,1.752600*%
%ADD12C,2.500000*%
%ADD13C,0.100000*%
%ADD14C,1.600000*%
%ADD15C,0.800000*%
%ADD16C,0.250000*%
%ADD17C,0.254000*%
G04 APERTURE END LIST*
D10*
X138430000Y-81280000D03*
D11*
X138430000Y-83820000D03*
X138430000Y-86360000D03*
X138430000Y-88900000D03*
X138430000Y-91440000D03*
X138430000Y-93980000D03*
X138430000Y-96520000D03*
X138430000Y-99060000D03*
X138430000Y-101600000D03*
X138430000Y-104140000D03*
X138430000Y-106680000D03*
X153670000Y-109220000D03*
X153670000Y-106680000D03*
X153670000Y-104140000D03*
X153670000Y-101600000D03*
X153670000Y-99060000D03*
X153670000Y-96520000D03*
X153670000Y-93980000D03*
X153670000Y-91440000D03*
X153670000Y-88900000D03*
X153670000Y-86360000D03*
X153670000Y-83820000D03*
X138430000Y-109220000D03*
X153670000Y-81280000D03*
D12*
X264488789Y-88129398D02*
X264111701Y-89756268D01*
X269515963Y-85565007D02*
X269637541Y-86132121D01*
X259237898Y-69817363D02*
X258860810Y-71444233D01*
X264265072Y-67252972D02*
X264386650Y-67820086D01*
X253987006Y-51505327D02*
X253609918Y-53132197D01*
X259014180Y-48940936D02*
X259135758Y-49508050D01*
X230490166Y-107787201D02*
X230113078Y-109414071D01*
X235517340Y-105222810D02*
X235638918Y-105789924D01*
X244864032Y-88802282D02*
X244486944Y-90429152D01*
X249891206Y-86237891D02*
X250012784Y-86805005D01*
X239613141Y-70490247D02*
X239236053Y-72117117D01*
X244640315Y-67925856D02*
X244761893Y-68492970D01*
X234362249Y-52178211D02*
X233985161Y-53805081D01*
X239389423Y-49613820D02*
X239511001Y-50180934D01*
X210865409Y-108460085D02*
X210488321Y-110086955D01*
X215892583Y-105895694D02*
X216014161Y-106462808D01*
X225239275Y-89475166D02*
X224862187Y-91102036D01*
X230266449Y-86910775D02*
X230388027Y-87477889D01*
X219988384Y-71163131D02*
X219611296Y-72790001D01*
X225015558Y-68598740D02*
X225137136Y-69165854D01*
X214737492Y-52851095D02*
X214360404Y-54477965D01*
X219764666Y-50286704D02*
X219886244Y-50853818D01*
X193866098Y-118288987D02*
X193489010Y-119915857D01*
X198893272Y-115724596D02*
X199014850Y-116291710D01*
X205614518Y-90148050D02*
X205237430Y-91774920D01*
X210641692Y-87583659D02*
X210763270Y-88150773D01*
X200363627Y-71836015D02*
X199986539Y-73462885D01*
X205390801Y-69271624D02*
X205512379Y-69838738D01*
X195112736Y-53523980D02*
X194735648Y-55150850D01*
X200139910Y-50959589D02*
X200261488Y-51526703D01*
X176866787Y-128117889D02*
X176489699Y-129744759D01*
X181893961Y-125553498D02*
X182015539Y-126120612D01*
X188615207Y-99976952D02*
X188238119Y-101603822D01*
X193642381Y-97412561D02*
X193763959Y-97979675D01*
X183364316Y-81664917D02*
X182987228Y-83291787D01*
X188391490Y-79100526D02*
X188513068Y-79667640D01*
X178113425Y-63352882D02*
X177736337Y-64979752D01*
X183140599Y-60788491D02*
X183262177Y-61355605D01*
X158554751Y-133368780D02*
X158177663Y-134995650D01*
X163581925Y-130804389D02*
X163703503Y-131371503D01*
X171615896Y-109805854D02*
X171238808Y-111432724D01*
X176643070Y-107241463D02*
X176764648Y-107808577D01*
X166365005Y-91493819D02*
X165987917Y-93120689D01*
X171392179Y-88929428D02*
X171513757Y-89496542D01*
X161114114Y-73181784D02*
X160737026Y-74808654D01*
X166141288Y-70617393D02*
X166262866Y-71184507D01*
X127778546Y-131715206D02*
X126596648Y-132895044D01*
X133400751Y-132204475D02*
X133203331Y-132749843D01*
X114717403Y-108152280D02*
X113535505Y-109332118D01*
X120339608Y-108641549D02*
X120142188Y-109186917D01*
X119968295Y-89840245D02*
X118786397Y-91020083D01*
X125590500Y-90329514D02*
X125393080Y-90874882D01*
X125219187Y-71528210D02*
X124037289Y-72708048D01*
X130841392Y-72017479D02*
X130643972Y-72562847D01*
X109466511Y-126464315D02*
X108284613Y-127644153D01*
X115088716Y-126953584D02*
X114891296Y-127498952D01*
X97718089Y-98323378D02*
X96536191Y-99503216D01*
X103340294Y-98812647D02*
X103142874Y-99358015D01*
X102968981Y-80011343D02*
X101787083Y-81191181D01*
X108591186Y-80500612D02*
X108393766Y-81045980D01*
X108219873Y-61699308D02*
X107037975Y-62879146D01*
X113842078Y-62188577D02*
X113644658Y-62733945D01*
X92467197Y-116635413D02*
X91285299Y-117815251D01*
X98089402Y-117124682D02*
X97891982Y-117670050D01*
X80718775Y-88494476D02*
X79536877Y-89674314D01*
X86340980Y-88983745D02*
X86143560Y-89529113D01*
X85969667Y-70182441D02*
X84787769Y-71362279D01*
X91591872Y-70671710D02*
X91394452Y-71217078D01*
X91220559Y-51870406D02*
X90038661Y-53050244D01*
X96842764Y-52359675D02*
X96645344Y-52905043D01*
X75467883Y-106806511D02*
X74285985Y-107986349D01*
X81090088Y-107295780D02*
X80892668Y-107841148D01*
X61094016Y-87821593D02*
X59912118Y-89001431D01*
X66716221Y-88310862D02*
X66518801Y-88856230D01*
X66344908Y-69509558D02*
X65163010Y-70689396D01*
X71967113Y-69998827D02*
X71769693Y-70544195D01*
X71595799Y-51197522D02*
X70413901Y-52377360D01*
X77218004Y-51686791D02*
X77020584Y-52232159D01*
X55843124Y-106133628D02*
X54661226Y-107313466D01*
X61465329Y-106622897D02*
X61267909Y-107168265D01*
X41469256Y-87148709D02*
X40287358Y-88328547D01*
X47091461Y-87637978D02*
X46894041Y-88183346D01*
X46720148Y-68836674D02*
X45538250Y-70016512D01*
X52342353Y-69325943D02*
X52144933Y-69871311D01*
X51971039Y-50524638D02*
X50789141Y-51704476D01*
X57593244Y-51013907D02*
X57395824Y-51559275D01*
X21844496Y-86475825D02*
X20662598Y-87655663D01*
X27466701Y-86965094D02*
X27269281Y-87510462D01*
X27095388Y-68163790D02*
X25913490Y-69343628D01*
X32717593Y-68653059D02*
X32520173Y-69198427D01*
X32346279Y-49851754D02*
X31164381Y-51031592D01*
X37968484Y-50341023D02*
X37771064Y-50886391D01*
G04 #@! TA.AperFunction,ComponentPad*
D13*
G36*
X259801501Y-86079519D02*
G01*
X259360481Y-84541501D01*
X260898499Y-84100481D01*
X261339519Y-85638499D01*
X259801501Y-86079519D01*
G37*
G04 #@! TD.AperFunction*
D14*
X267674814Y-82989643D02*
X267674814Y-82989643D01*
G04 #@! TA.AperFunction,ComponentPad*
D13*
G36*
X254721501Y-67664519D02*
G01*
X254280481Y-66126501D01*
X255818499Y-65685481D01*
X256259519Y-67223499D01*
X254721501Y-67664519D01*
G37*
G04 #@! TD.AperFunction*
D14*
X262594814Y-64574643D02*
X262594814Y-64574643D01*
G04 #@! TA.AperFunction,ComponentPad*
D13*
G36*
X249006501Y-49249519D02*
G01*
X248565481Y-47711501D01*
X250103499Y-47270481D01*
X250544519Y-48808499D01*
X249006501Y-49249519D01*
G37*
G04 #@! TD.AperFunction*
D14*
X256879814Y-46159643D02*
X256879814Y-46159643D01*
G04 #@! TA.AperFunction,ComponentPad*
D13*
G36*
X225511501Y-105764519D02*
G01*
X225070481Y-104226501D01*
X226608499Y-103785481D01*
X227049519Y-105323499D01*
X225511501Y-105764519D01*
G37*
G04 #@! TD.AperFunction*
D14*
X233384814Y-102674643D02*
X233384814Y-102674643D01*
G04 #@! TA.AperFunction,ComponentPad*
D13*
G36*
X240116501Y-86079519D02*
G01*
X239675481Y-84541501D01*
X241213499Y-84100481D01*
X241654519Y-85638499D01*
X240116501Y-86079519D01*
G37*
G04 #@! TD.AperFunction*
D14*
X247989814Y-82989643D02*
X247989814Y-82989643D01*
G04 #@! TA.AperFunction,ComponentPad*
D13*
G36*
X235036501Y-68299519D02*
G01*
X234595481Y-66761501D01*
X236133499Y-66320481D01*
X236574519Y-67858499D01*
X235036501Y-68299519D01*
G37*
G04 #@! TD.AperFunction*
D14*
X242909814Y-65209643D02*
X242909814Y-65209643D01*
G04 #@! TA.AperFunction,ComponentPad*
D13*
G36*
X229321501Y-49884519D02*
G01*
X228880481Y-48346501D01*
X230418499Y-47905481D01*
X230859519Y-49443499D01*
X229321501Y-49884519D01*
G37*
G04 #@! TD.AperFunction*
D14*
X237194814Y-46794643D02*
X237194814Y-46794643D01*
G04 #@! TA.AperFunction,ComponentPad*
D13*
G36*
X206461501Y-105764519D02*
G01*
X206020481Y-104226501D01*
X207558499Y-103785481D01*
X207999519Y-105323499D01*
X206461501Y-105764519D01*
G37*
G04 #@! TD.AperFunction*
D14*
X214334814Y-102674643D02*
X214334814Y-102674643D01*
G04 #@! TA.AperFunction,ComponentPad*
D13*
G36*
X220431501Y-86714519D02*
G01*
X219990481Y-85176501D01*
X221528499Y-84735481D01*
X221969519Y-86273499D01*
X220431501Y-86714519D01*
G37*
G04 #@! TD.AperFunction*
D14*
X228304814Y-83624643D02*
X228304814Y-83624643D01*
G04 #@! TA.AperFunction,ComponentPad*
D13*
G36*
X215351501Y-68934519D02*
G01*
X214910481Y-67396501D01*
X216448499Y-66955481D01*
X216889519Y-68493499D01*
X215351501Y-68934519D01*
G37*
G04 #@! TD.AperFunction*
D14*
X223224814Y-65844643D02*
X223224814Y-65844643D01*
G04 #@! TA.AperFunction,ComponentPad*
D13*
G36*
X210271501Y-50519519D02*
G01*
X209830481Y-48981501D01*
X211368499Y-48540481D01*
X211809519Y-50078499D01*
X210271501Y-50519519D01*
G37*
G04 #@! TD.AperFunction*
D14*
X218144814Y-47429643D02*
X218144814Y-47429643D01*
G04 #@! TA.AperFunction,ComponentPad*
D13*
G36*
X189316501Y-115924519D02*
G01*
X188875481Y-114386501D01*
X190413499Y-113945481D01*
X190854519Y-115483499D01*
X189316501Y-115924519D01*
G37*
G04 #@! TD.AperFunction*
D14*
X197189814Y-112834643D02*
X197189814Y-112834643D01*
G04 #@! TA.AperFunction,ComponentPad*
D13*
G36*
X201381501Y-87349519D02*
G01*
X200940481Y-85811501D01*
X202478499Y-85370481D01*
X202919519Y-86908499D01*
X201381501Y-87349519D01*
G37*
G04 #@! TD.AperFunction*
D14*
X209254814Y-84259643D02*
X209254814Y-84259643D01*
G04 #@! TA.AperFunction,ComponentPad*
D13*
G36*
X195666501Y-69569519D02*
G01*
X195225481Y-68031501D01*
X196763499Y-67590481D01*
X197204519Y-69128499D01*
X195666501Y-69569519D01*
G37*
G04 #@! TD.AperFunction*
D14*
X203539814Y-66479643D02*
X203539814Y-66479643D01*
G04 #@! TA.AperFunction,ComponentPad*
D13*
G36*
X190586501Y-51154519D02*
G01*
X190145481Y-49616501D01*
X191683499Y-49175481D01*
X192124519Y-50713499D01*
X190586501Y-51154519D01*
G37*
G04 #@! TD.AperFunction*
D14*
X198459814Y-48064643D02*
X198459814Y-48064643D01*
G04 #@! TA.AperFunction,ComponentPad*
D13*
G36*
X172171501Y-125449519D02*
G01*
X171730481Y-123911501D01*
X173268499Y-123470481D01*
X173709519Y-125008499D01*
X172171501Y-125449519D01*
G37*
G04 #@! TD.AperFunction*
D14*
X180044814Y-122359643D02*
X180044814Y-122359643D01*
G04 #@! TA.AperFunction,ComponentPad*
D13*
G36*
X184236501Y-97509519D02*
G01*
X183795481Y-95971501D01*
X185333499Y-95530481D01*
X185774519Y-97068499D01*
X184236501Y-97509519D01*
G37*
G04 #@! TD.AperFunction*
D14*
X192109814Y-94419643D02*
X192109814Y-94419643D01*
G04 #@! TA.AperFunction,ComponentPad*
D13*
G36*
X178521501Y-79094519D02*
G01*
X178080481Y-77556501D01*
X179618499Y-77115481D01*
X180059519Y-78653499D01*
X178521501Y-79094519D01*
G37*
G04 #@! TD.AperFunction*
D14*
X186394814Y-76004643D02*
X186394814Y-76004643D01*
G04 #@! TA.AperFunction,ComponentPad*
D13*
G36*
X173441501Y-60679519D02*
G01*
X173000481Y-59141501D01*
X174538499Y-58700481D01*
X174979519Y-60238499D01*
X173441501Y-60679519D01*
G37*
G04 #@! TD.AperFunction*
D14*
X181314814Y-57589643D02*
X181314814Y-57589643D01*
G04 #@! TA.AperFunction,ComponentPad*
D13*
G36*
X153756501Y-130529519D02*
G01*
X153315481Y-128991501D01*
X154853499Y-128550481D01*
X155294519Y-130088499D01*
X153756501Y-130529519D01*
G37*
G04 #@! TD.AperFunction*
D14*
X161629814Y-127439643D02*
X161629814Y-127439643D01*
G04 #@! TA.AperFunction,ComponentPad*
D13*
G36*
X167091501Y-107034519D02*
G01*
X166650481Y-105496501D01*
X168188499Y-105055481D01*
X168629519Y-106593499D01*
X167091501Y-107034519D01*
G37*
G04 #@! TD.AperFunction*
D14*
X174964814Y-103944643D02*
X174964814Y-103944643D01*
G04 #@! TA.AperFunction,ComponentPad*
D13*
G36*
X161376501Y-89254519D02*
G01*
X160935481Y-87716501D01*
X162473499Y-87275481D01*
X162914519Y-88813499D01*
X161376501Y-89254519D01*
G37*
G04 #@! TD.AperFunction*
D14*
X169249814Y-86164643D02*
X169249814Y-86164643D01*
G04 #@! TA.AperFunction,ComponentPad*
D13*
G36*
X156296501Y-70839519D02*
G01*
X155855481Y-69301501D01*
X157393499Y-68860481D01*
X157834519Y-70398499D01*
X156296501Y-70839519D01*
G37*
G04 #@! TD.AperFunction*
D14*
X164169814Y-67749643D02*
X164169814Y-67749643D01*
G04 #@! TA.AperFunction,ComponentPad*
D13*
G36*
X125813466Y-127322878D02*
G01*
X126254486Y-125784860D01*
X127792504Y-126225880D01*
X127351484Y-127763898D01*
X125813466Y-127322878D01*
G37*
G04 #@! TD.AperFunction*
D14*
X134127799Y-128874736D02*
X134127799Y-128874736D01*
G04 #@! TA.AperFunction,ComponentPad*
D13*
G36*
X112752323Y-103759952D02*
G01*
X113193343Y-102221934D01*
X114731361Y-102662954D01*
X114290341Y-104200972D01*
X112752323Y-103759952D01*
G37*
G04 #@! TD.AperFunction*
D14*
X121066656Y-105311810D02*
X121066656Y-105311810D01*
G04 #@! TA.AperFunction,ComponentPad*
D13*
G36*
X118003215Y-85447917D02*
G01*
X118444235Y-83909899D01*
X119982253Y-84350919D01*
X119541233Y-85888937D01*
X118003215Y-85447917D01*
G37*
G04 #@! TD.AperFunction*
D14*
X126317548Y-86999775D02*
X126317548Y-86999775D01*
G04 #@! TA.AperFunction,ComponentPad*
D13*
G36*
X123254107Y-67135882D02*
G01*
X123695127Y-65597864D01*
X125233145Y-66038884D01*
X124792125Y-67576902D01*
X123254107Y-67135882D01*
G37*
G04 #@! TD.AperFunction*
D14*
X131568440Y-68687740D02*
X131568440Y-68687740D01*
G04 #@! TA.AperFunction,ComponentPad*
D13*
G36*
X107501431Y-122071987D02*
G01*
X107942451Y-120533969D01*
X109480469Y-120974989D01*
X109039449Y-122513007D01*
X107501431Y-122071987D01*
G37*
G04 #@! TD.AperFunction*
D14*
X115815764Y-123623845D02*
X115815764Y-123623845D01*
G04 #@! TA.AperFunction,ComponentPad*
D13*
G36*
X95753009Y-93931050D02*
G01*
X96194029Y-92393032D01*
X97732047Y-92834052D01*
X97291027Y-94372070D01*
X95753009Y-93931050D01*
G37*
G04 #@! TD.AperFunction*
D14*
X104067342Y-95482908D02*
X104067342Y-95482908D01*
G04 #@! TA.AperFunction,ComponentPad*
D13*
G36*
X101245481Y-75619015D02*
G01*
X101686501Y-74080997D01*
X103224519Y-74522017D01*
X102783499Y-76060035D01*
X101245481Y-75619015D01*
G37*
G04 #@! TD.AperFunction*
D14*
X109559814Y-77170873D02*
X109559814Y-77170873D01*
G04 #@! TA.AperFunction,ComponentPad*
D13*
G36*
X106254793Y-57306980D02*
G01*
X106695813Y-55768962D01*
X108233831Y-56209982D01*
X107792811Y-57748000D01*
X106254793Y-57306980D01*
G37*
G04 #@! TD.AperFunction*
D14*
X114569126Y-58858838D02*
X114569126Y-58858838D01*
G04 #@! TA.AperFunction,ComponentPad*
D13*
G36*
X90502117Y-112243085D02*
G01*
X90943137Y-110705067D01*
X92481155Y-111146087D01*
X92040135Y-112684105D01*
X90502117Y-112243085D01*
G37*
G04 #@! TD.AperFunction*
D14*
X98816450Y-113794943D02*
X98816450Y-113794943D01*
G04 #@! TA.AperFunction,ComponentPad*
D13*
G36*
X78753695Y-84102148D02*
G01*
X79194715Y-82564130D01*
X80732733Y-83005150D01*
X80291713Y-84543168D01*
X78753695Y-84102148D01*
G37*
G04 #@! TD.AperFunction*
D14*
X87068028Y-85654006D02*
X87068028Y-85654006D01*
G04 #@! TA.AperFunction,ComponentPad*
D13*
G36*
X84004587Y-65790113D02*
G01*
X84445607Y-64252095D01*
X85983625Y-64693115D01*
X85542605Y-66231133D01*
X84004587Y-65790113D01*
G37*
G04 #@! TD.AperFunction*
D14*
X92318920Y-67341971D02*
X92318920Y-67341971D01*
G04 #@! TA.AperFunction,ComponentPad*
D13*
G36*
X89255479Y-47478078D02*
G01*
X89696499Y-45940060D01*
X91234517Y-46381080D01*
X90793497Y-47919098D01*
X89255479Y-47478078D01*
G37*
G04 #@! TD.AperFunction*
D14*
X97569812Y-49029936D02*
X97569812Y-49029936D01*
G04 #@! TA.AperFunction,ComponentPad*
D13*
G36*
X73502803Y-102414183D02*
G01*
X73943823Y-100876165D01*
X75481841Y-101317185D01*
X75040821Y-102855203D01*
X73502803Y-102414183D01*
G37*
G04 #@! TD.AperFunction*
D14*
X81817136Y-103966041D02*
X81817136Y-103966041D01*
G04 #@! TA.AperFunction,ComponentPad*
D13*
G36*
X59128936Y-83429265D02*
G01*
X59569956Y-81891247D01*
X61107974Y-82332267D01*
X60666954Y-83870285D01*
X59128936Y-83429265D01*
G37*
G04 #@! TD.AperFunction*
D14*
X67443269Y-84981123D02*
X67443269Y-84981123D01*
G04 #@! TA.AperFunction,ComponentPad*
D13*
G36*
X64379828Y-65117230D02*
G01*
X64820848Y-63579212D01*
X66358866Y-64020232D01*
X65917846Y-65558250D01*
X64379828Y-65117230D01*
G37*
G04 #@! TD.AperFunction*
D14*
X72694161Y-66669088D02*
X72694161Y-66669088D01*
G04 #@! TA.AperFunction,ComponentPad*
D13*
G36*
X69630719Y-46805194D02*
G01*
X70071739Y-45267176D01*
X71609757Y-45708196D01*
X71168737Y-47246214D01*
X69630719Y-46805194D01*
G37*
G04 #@! TD.AperFunction*
D14*
X77945052Y-48357052D02*
X77945052Y-48357052D01*
G04 #@! TA.AperFunction,ComponentPad*
D13*
G36*
X53878044Y-101741300D02*
G01*
X54319064Y-100203282D01*
X55857082Y-100644302D01*
X55416062Y-102182320D01*
X53878044Y-101741300D01*
G37*
G04 #@! TD.AperFunction*
D14*
X62192377Y-103293158D02*
X62192377Y-103293158D01*
G04 #@! TA.AperFunction,ComponentPad*
D13*
G36*
X39504176Y-82756381D02*
G01*
X39945196Y-81218363D01*
X41483214Y-81659383D01*
X41042194Y-83197401D01*
X39504176Y-82756381D01*
G37*
G04 #@! TD.AperFunction*
D14*
X47818509Y-84308239D02*
X47818509Y-84308239D01*
G04 #@! TA.AperFunction,ComponentPad*
D13*
G36*
X44755068Y-64444346D02*
G01*
X45196088Y-62906328D01*
X46734106Y-63347348D01*
X46293086Y-64885366D01*
X44755068Y-64444346D01*
G37*
G04 #@! TD.AperFunction*
D14*
X53069401Y-65996204D02*
X53069401Y-65996204D01*
G04 #@! TA.AperFunction,ComponentPad*
D13*
G36*
X50005959Y-46132310D02*
G01*
X50446979Y-44594292D01*
X51984997Y-45035312D01*
X51543977Y-46573330D01*
X50005959Y-46132310D01*
G37*
G04 #@! TD.AperFunction*
D14*
X58320292Y-47684168D02*
X58320292Y-47684168D01*
G04 #@! TA.AperFunction,ComponentPad*
D13*
G36*
X19879416Y-82083497D02*
G01*
X20320436Y-80545479D01*
X21858454Y-80986499D01*
X21417434Y-82524517D01*
X19879416Y-82083497D01*
G37*
G04 #@! TD.AperFunction*
D14*
X28193749Y-83635355D02*
X28193749Y-83635355D01*
G04 #@! TA.AperFunction,ComponentPad*
D13*
G36*
X25130308Y-63771462D02*
G01*
X25571328Y-62233444D01*
X27109346Y-62674464D01*
X26668326Y-64212482D01*
X25130308Y-63771462D01*
G37*
G04 #@! TD.AperFunction*
D14*
X33444641Y-65323320D02*
X33444641Y-65323320D01*
G04 #@! TA.AperFunction,ComponentPad*
D13*
G36*
X30381199Y-45459426D02*
G01*
X30822219Y-43921408D01*
X32360237Y-44362428D01*
X31919217Y-45900446D01*
X30381199Y-45459426D01*
G37*
G04 #@! TD.AperFunction*
D14*
X38695532Y-47011284D02*
X38695532Y-47011284D01*
D15*
X151765000Y-112395000D03*
X151765000Y-114300000D03*
X156845000Y-114300000D03*
X135255000Y-96520000D03*
X129540000Y-96520000D03*
X120650000Y-97790000D03*
X113030000Y-97790000D03*
X100965000Y-107315000D03*
X92075000Y-107315000D03*
X81915000Y-100330000D03*
X76835000Y-100330000D03*
X135255000Y-99060000D03*
X129540000Y-99060000D03*
X120650000Y-99695000D03*
X113030000Y-99695000D03*
X100965000Y-108585000D03*
X92075000Y-108585000D03*
X133985000Y-102235000D03*
X132715000Y-100965000D03*
X165735000Y-104140000D03*
X169545000Y-101600000D03*
X186055000Y-91440000D03*
X158115000Y-96520000D03*
X158115000Y-93980000D03*
D16*
X156845000Y-70682239D02*
X156845000Y-69850000D01*
X156845000Y-107822926D02*
X156845000Y-70682239D01*
X153827916Y-110840010D02*
X156845000Y-107822926D01*
X137228699Y-109796625D02*
X138272084Y-110840010D01*
X138272084Y-110840010D02*
X153827916Y-110840010D01*
X137228699Y-107881301D02*
X137228699Y-109796625D01*
X138430000Y-106680000D02*
X137228699Y-107881301D01*
X133985000Y-100330000D02*
X138430000Y-106680000D01*
X125075865Y-66587383D02*
X132080000Y-66675000D01*
X132080000Y-66675000D02*
X133350000Y-67310000D01*
X133350000Y-67310000D02*
X133985000Y-75565000D01*
X124243626Y-66587383D02*
X125075865Y-66587383D01*
X133985000Y-75565000D02*
X133985000Y-100330000D01*
X37869774Y-47837042D02*
X38695532Y-47011284D01*
X37869774Y-50613707D02*
X37869774Y-47837042D01*
X161925000Y-89097239D02*
X161925000Y-88265000D01*
X151765000Y-112395000D02*
X161925000Y-112395000D01*
X161925000Y-112395000D02*
X161925000Y-89097239D01*
X32618883Y-66149078D02*
X33444641Y-65323320D01*
X32618883Y-68925743D02*
X32618883Y-66149078D01*
X151765000Y-114300000D02*
X156845000Y-114300000D01*
X156845000Y-114300000D02*
X156845000Y-114300000D01*
X27367991Y-84461113D02*
X28193749Y-83635355D01*
X27367991Y-87237778D02*
X27367991Y-84461113D01*
X57494534Y-48509926D02*
X58320292Y-47684168D01*
X57494534Y-51286591D02*
X57494534Y-48509926D01*
X52243643Y-66821962D02*
X53069401Y-65996204D01*
X52243643Y-69598627D02*
X52243643Y-66821962D01*
X46992751Y-85133997D02*
X47818509Y-84308239D01*
X46992751Y-87910662D02*
X46992751Y-85133997D01*
X61366619Y-104118916D02*
X62192377Y-103293158D01*
X61366619Y-106895581D02*
X61366619Y-104118916D01*
X77119294Y-49182810D02*
X77945052Y-48357052D01*
X77119294Y-51959475D02*
X77119294Y-49182810D01*
X71868403Y-67494846D02*
X72694161Y-66669088D01*
X71868403Y-70271511D02*
X71868403Y-67494846D01*
X66617511Y-85806881D02*
X67443269Y-84981123D01*
X66617511Y-88583546D02*
X66617511Y-85806881D01*
X80991378Y-104791799D02*
X81817136Y-103966041D01*
X80991378Y-107568464D02*
X80991378Y-104791799D01*
X96744054Y-49855694D02*
X97569812Y-49029936D01*
X96744054Y-52632359D02*
X96744054Y-49855694D01*
X91493162Y-68167729D02*
X92318920Y-67341971D01*
X91493162Y-70944394D02*
X91493162Y-68167729D01*
X86242270Y-86479764D02*
X87068028Y-85654006D01*
X86242270Y-89256429D02*
X86242270Y-86479764D01*
X97990692Y-114620701D02*
X98816450Y-113794943D01*
X97990692Y-117397366D02*
X97990692Y-114620701D01*
X113743368Y-59684596D02*
X114569126Y-58858838D01*
X113743368Y-62461261D02*
X113743368Y-59684596D01*
X109559814Y-79705958D02*
X109559814Y-77170873D01*
X108492476Y-80773296D02*
X109559814Y-79705958D01*
X103241584Y-96308666D02*
X104067342Y-95482908D01*
X103241584Y-99085331D02*
X103241584Y-96308666D01*
X114990006Y-124449603D02*
X115815764Y-123623845D01*
X114990006Y-127226268D02*
X114990006Y-124449603D01*
X130742682Y-69513498D02*
X131568440Y-68687740D01*
X130742682Y-72290163D02*
X130742682Y-69513498D01*
X125491790Y-87825533D02*
X126317548Y-86999775D01*
X125491790Y-90602198D02*
X125491790Y-87825533D01*
X120240898Y-106137568D02*
X121066656Y-105311810D01*
X120240898Y-108914233D02*
X120240898Y-106137568D01*
X133302041Y-129700494D02*
X134127799Y-128874736D01*
X133302041Y-132477159D02*
X133302041Y-129700494D01*
X164169814Y-68868687D02*
X164169814Y-67749643D01*
X166202077Y-70900950D02*
X164169814Y-68868687D01*
X169249814Y-87009831D02*
X169249814Y-86164643D01*
X171452968Y-89212985D02*
X169249814Y-87009831D01*
X174964814Y-105785975D02*
X174964814Y-103944643D01*
X176703859Y-107525020D02*
X174964814Y-105785975D01*
X163642714Y-129452543D02*
X161629814Y-127439643D01*
X163642714Y-131087946D02*
X163642714Y-129452543D01*
X181314814Y-59185474D02*
X181314814Y-57589643D01*
X183201388Y-61072048D02*
X181314814Y-59185474D01*
X186394814Y-77326618D02*
X186394814Y-76004643D01*
X188452279Y-79384083D02*
X186394814Y-77326618D01*
X193703170Y-96012999D02*
X192109814Y-94419643D01*
X193703170Y-97696118D02*
X193703170Y-96012999D01*
X180044814Y-123927119D02*
X180044814Y-122359643D01*
X181954750Y-125837055D02*
X180044814Y-123927119D01*
X198459814Y-49502261D02*
X198459814Y-48064643D01*
X200200699Y-51243146D02*
X198459814Y-49502261D01*
X203539814Y-67611013D02*
X203539814Y-66479643D01*
X203539814Y-68921806D02*
X203539814Y-67611013D01*
X204173189Y-69555181D02*
X203539814Y-68921806D01*
X205451590Y-69555181D02*
X204173189Y-69555181D01*
X210702481Y-85707310D02*
X209254814Y-84259643D01*
X210702481Y-87867216D02*
X210702481Y-85707310D01*
X197189814Y-114243906D02*
X197189814Y-112834643D01*
X198954061Y-116008153D02*
X197189814Y-114243906D01*
X218144814Y-48889620D02*
X218144814Y-47429643D01*
X219825455Y-50570261D02*
X218144814Y-48889620D01*
X223224814Y-67030764D02*
X223224814Y-65844643D01*
X225076347Y-68882297D02*
X223224814Y-67030764D01*
X230327238Y-85647067D02*
X228304814Y-83624643D01*
X230327238Y-87194332D02*
X230327238Y-85647067D01*
X214334814Y-104560693D02*
X214334814Y-102674643D01*
X215953372Y-106179251D02*
X214334814Y-104560693D01*
X237194814Y-47926013D02*
X237194814Y-46794643D01*
X237194814Y-48920380D02*
X237194814Y-47926013D01*
X238171811Y-49897377D02*
X237194814Y-48920380D01*
X239450212Y-49897377D02*
X238171811Y-49897377D01*
X242909814Y-66418123D02*
X242909814Y-65209643D01*
X244701104Y-68209413D02*
X242909814Y-66418123D01*
X247989814Y-84559267D02*
X247989814Y-82989643D01*
X249951995Y-86521448D02*
X247989814Y-84559267D01*
X233384814Y-103313052D02*
X233384814Y-102674643D01*
X235578129Y-105506367D02*
X233384814Y-103313052D01*
X256879814Y-47029338D02*
X256879814Y-46159643D01*
X259074969Y-49224493D02*
X256879814Y-47029338D01*
X262594814Y-65805482D02*
X262594814Y-64574643D01*
X264325861Y-67536529D02*
X262594814Y-65805482D01*
X267674814Y-83946626D02*
X267674814Y-82989643D01*
X269576752Y-85848564D02*
X267674814Y-83946626D01*
X28192720Y-68753709D02*
X26504439Y-68753709D01*
X31755330Y-65191099D02*
X28192720Y-68753709D01*
X31755330Y-50441673D02*
X31755330Y-65191099D01*
X22941828Y-87065744D02*
X21253547Y-87065744D01*
X26557300Y-83450272D02*
X22941828Y-87065744D01*
X26557300Y-68806570D02*
X26557300Y-83450272D01*
X26504439Y-68753709D02*
X26557300Y-68806570D01*
X136525000Y-91440000D02*
X138430000Y-91440000D01*
X136525000Y-66675000D02*
X136525000Y-91440000D01*
X115570000Y-53975000D02*
X136525000Y-66675000D01*
X104775000Y-47625000D02*
X109220000Y-50165000D01*
X31755330Y-48755091D02*
X36195000Y-42545000D01*
X109220000Y-50165000D02*
X115570000Y-53975000D01*
X31755330Y-50441673D02*
X31755330Y-48755091D01*
X36195000Y-42545000D02*
X86360000Y-42545000D01*
X86360000Y-42545000D02*
X97155000Y-45720000D01*
X97155000Y-45720000D02*
X104775000Y-47625000D01*
X47817480Y-69426593D02*
X46129199Y-69426593D01*
X51380090Y-65863983D02*
X47817480Y-69426593D01*
X51380090Y-51114557D02*
X51380090Y-65863983D01*
X42566588Y-87738628D02*
X40878307Y-87738628D01*
X46129199Y-84176017D02*
X42566588Y-87738628D01*
X46129199Y-69426593D02*
X46129199Y-84176017D01*
X53563894Y-106723547D02*
X55252175Y-106723547D01*
X40878307Y-94037960D02*
X53563894Y-106723547D01*
X40878307Y-87738628D02*
X40878307Y-94037960D01*
X57628065Y-43180000D02*
X51380090Y-49427975D01*
X135255000Y-67310000D02*
X130810000Y-64135000D01*
X51380090Y-49427975D02*
X51380090Y-51114557D01*
X130810000Y-64135000D02*
X116840000Y-55880000D01*
X135255000Y-92044275D02*
X135255000Y-67310000D01*
X138430000Y-93980000D02*
X137190725Y-93980000D01*
X137190725Y-93980000D02*
X135255000Y-92044275D01*
X90622850Y-44450000D02*
X86360000Y-43180000D01*
X86360000Y-43180000D02*
X57628065Y-43180000D01*
X116840000Y-55880000D02*
X111760000Y-52705000D01*
X111760000Y-52705000D02*
X104140000Y-48260000D01*
X104140000Y-48260000D02*
X94615000Y-45720000D01*
X94615000Y-45720000D02*
X90622850Y-44450000D01*
X67442240Y-70099477D02*
X65753959Y-70099477D01*
X71004850Y-66536867D02*
X67442240Y-70099477D01*
X71004850Y-51787441D02*
X71004850Y-66536867D01*
X62191348Y-88411512D02*
X60503067Y-88411512D01*
X65753959Y-84848901D02*
X62191348Y-88411512D01*
X65753959Y-70099477D02*
X65753959Y-84848901D01*
X73188653Y-107396430D02*
X74876934Y-107396430D01*
X60503067Y-94710844D02*
X73188653Y-107396430D01*
X60503067Y-88411512D02*
X60503067Y-94710844D01*
X138430000Y-96520000D02*
X135255000Y-96520000D01*
X135255000Y-96520000D02*
X135255000Y-96520000D01*
X129540000Y-96520000D02*
X128270000Y-97790000D01*
X128270000Y-97790000D02*
X120650000Y-97790000D01*
X120650000Y-97790000D02*
X120650000Y-97790000D01*
X113030000Y-97790000D02*
X103505000Y-107315000D01*
X103505000Y-107315000D02*
X100965000Y-107315000D01*
X100965000Y-107315000D02*
X100965000Y-107315000D01*
X92075000Y-107315000D02*
X88900000Y-107315000D01*
X88900000Y-107315000D02*
X81915000Y-100330000D01*
X81915000Y-100330000D02*
X81915000Y-100330000D01*
X76565215Y-107396430D02*
X74876934Y-107396430D01*
X76835000Y-107126645D02*
X76565215Y-107396430D01*
X76835000Y-100330000D02*
X76835000Y-107126645D01*
X87066999Y-70772360D02*
X85378718Y-70772360D01*
X90629610Y-67209749D02*
X87066999Y-70772360D01*
X90629610Y-52460325D02*
X90629610Y-67209749D01*
X81816107Y-89084395D02*
X80127826Y-89084395D01*
X85378718Y-85521784D02*
X81816107Y-89084395D01*
X85378718Y-70772360D02*
X85378718Y-85521784D01*
X90177107Y-115526191D02*
X90992364Y-116341448D01*
X90177107Y-110661010D02*
X90177107Y-115526191D01*
X80127826Y-100611729D02*
X90177107Y-110661010D01*
X90992364Y-116341448D02*
X91876248Y-117225332D01*
X80127826Y-89084395D02*
X80127826Y-100611729D01*
X137190725Y-99060000D02*
X135255000Y-99060000D01*
X138430000Y-99060000D02*
X137190725Y-99060000D01*
X135255000Y-99060000D02*
X135255000Y-99060000D01*
X129540000Y-99060000D02*
X121285000Y-99060000D01*
X121285000Y-99060000D02*
X120650000Y-99695000D01*
X120650000Y-99695000D02*
X120650000Y-99695000D01*
X113030000Y-99695000D02*
X113030000Y-100965000D01*
X113030000Y-100965000D02*
X105410000Y-108585000D01*
X105410000Y-108585000D02*
X100965000Y-108585000D01*
X100965000Y-108585000D02*
X100965000Y-108585000D01*
X92075000Y-108585000D02*
X90170000Y-110490000D01*
X104066313Y-80601262D02*
X102378032Y-80601262D01*
X107628924Y-77038651D02*
X104066313Y-80601262D01*
X107628924Y-62289227D02*
X107628924Y-77038651D01*
X98815421Y-98913297D02*
X97127140Y-98913297D01*
X102378032Y-95350686D02*
X98815421Y-98913297D01*
X102378032Y-80601262D02*
X102378032Y-95350686D01*
X107991678Y-126170350D02*
X108875562Y-127054234D01*
X107176421Y-120489912D02*
X107176421Y-125355093D01*
X97127140Y-110440631D02*
X107176421Y-120489912D01*
X107176421Y-125355093D02*
X107991678Y-126170350D01*
X97127140Y-98913297D02*
X97127140Y-110440631D01*
X135252800Y-105407800D02*
X133985000Y-102235000D01*
X108875562Y-132196317D02*
X115642380Y-138963135D01*
X108875562Y-127054234D02*
X108875562Y-132196317D01*
X115642380Y-138963135D02*
X130415194Y-138963135D01*
X130415194Y-138963135D02*
X135252800Y-134125529D01*
X135252800Y-134125529D02*
X135252800Y-105407800D01*
X133985000Y-102235000D02*
X133985000Y-102235000D01*
X121065627Y-90430164D02*
X119377346Y-90430164D01*
X124628238Y-86867553D02*
X121065627Y-90430164D01*
X124628238Y-72118129D02*
X124628238Y-86867553D01*
X115814735Y-108742199D02*
X114126454Y-108742199D01*
X119377346Y-105179588D02*
X115814735Y-108742199D01*
X114126454Y-119243982D02*
X127187597Y-132305125D01*
X114126454Y-108742199D02*
X114126454Y-119243982D01*
X132715000Y-100965000D02*
X119380000Y-100965000D01*
X119377346Y-90430164D02*
X119377346Y-100967654D01*
X119380000Y-100965000D02*
X119377346Y-100967654D01*
X119377346Y-100967654D02*
X119377346Y-105179588D01*
X158366207Y-123680434D02*
X158366207Y-134182215D01*
X171427352Y-110619289D02*
X158366207Y-123680434D01*
X166176461Y-90260896D02*
X166176461Y-92307254D01*
X161967259Y-86051694D02*
X166176461Y-90260896D01*
X161967259Y-75036908D02*
X161967259Y-86051694D01*
X160925570Y-73995219D02*
X161967259Y-75036908D01*
X171427352Y-108572931D02*
X171427352Y-110619289D01*
X168031990Y-104439336D02*
X171427352Y-107834698D01*
X168031990Y-94162783D02*
X168031990Y-104439336D01*
X171427352Y-107834698D02*
X171427352Y-108572931D01*
X166176461Y-92307254D02*
X168031990Y-94162783D01*
X166370000Y-104439336D02*
X168031990Y-104439336D01*
X165735000Y-104140000D02*
X166370000Y-104439336D01*
X176678243Y-126884966D02*
X176678243Y-128931324D01*
X176678243Y-124061212D02*
X176678243Y-126884966D01*
X189468352Y-111271103D02*
X176678243Y-124061212D01*
X189468352Y-101832076D02*
X189468352Y-111271103D01*
X188426663Y-100790387D02*
X189468352Y-101832076D01*
X183175772Y-80431994D02*
X183175772Y-82478352D01*
X183175772Y-80213118D02*
X183175772Y-80431994D01*
X178966570Y-65208006D02*
X178966570Y-76003916D01*
X178966570Y-76003916D02*
X183175772Y-80213118D01*
X177924881Y-64166317D02*
X178966570Y-65208006D01*
X188426663Y-98744029D02*
X188426663Y-100790387D01*
X184217461Y-93954807D02*
X188426663Y-98164009D01*
X184217461Y-83520041D02*
X184217461Y-93954807D01*
X188426663Y-98164009D02*
X188426663Y-98744029D01*
X183175772Y-82478352D02*
X184217461Y-83520041D01*
X188426663Y-100790387D02*
X170354613Y-100790387D01*
X170354613Y-100790387D02*
X169545000Y-101600000D01*
X169545000Y-101600000D02*
X169545000Y-101600000D01*
X195002513Y-100101807D02*
X195002513Y-117777463D01*
X204142835Y-90961485D02*
X195002513Y-100101807D01*
X195002513Y-117777463D02*
X193677554Y-119102422D01*
X205425974Y-90961485D02*
X204142835Y-90961485D01*
X200175083Y-70603092D02*
X200175083Y-72649450D01*
X200175083Y-61634664D02*
X200175083Y-70603092D01*
X194924192Y-56383773D02*
X200175083Y-61634664D01*
X194924192Y-54337415D02*
X194924192Y-56383773D01*
X205425974Y-88915127D02*
X205425974Y-90961485D01*
X205425974Y-87858320D02*
X205425974Y-88915127D01*
X202030612Y-84462958D02*
X205425974Y-87858320D01*
X202030612Y-74504979D02*
X202030612Y-84462958D01*
X200175083Y-72649450D02*
X202030612Y-74504979D01*
X205425974Y-90961485D02*
X186533515Y-90961485D01*
X186533515Y-90961485D02*
X186055000Y-91440000D01*
X186055000Y-91440000D02*
X186055000Y-91440000D01*
X219799840Y-69930208D02*
X219799840Y-71976566D01*
X215590637Y-65637983D02*
X219799840Y-69847186D01*
X219799840Y-69847186D02*
X219799840Y-69930208D01*
X215590637Y-54706219D02*
X215590637Y-65637983D01*
X214548948Y-53664530D02*
X215590637Y-54706219D01*
X225050731Y-88242243D02*
X225050731Y-90288601D01*
X225050731Y-87798077D02*
X225050731Y-88242243D01*
X220841529Y-83588875D02*
X225050731Y-87798077D01*
X220841529Y-73018255D02*
X220841529Y-83588875D01*
X219799840Y-71976566D02*
X220841529Y-73018255D01*
X210676865Y-103379328D02*
X210676865Y-107227162D01*
X210676865Y-107227162D02*
X210676865Y-109273520D01*
X223767592Y-90288601D02*
X210676865Y-103379328D01*
X225050731Y-90288601D02*
X223767592Y-90288601D01*
X214548948Y-51261294D02*
X208372654Y-45085000D01*
X214548948Y-53664530D02*
X214548948Y-51261294D01*
X198685165Y-45085000D02*
X187178818Y-48153357D01*
X208372654Y-45085000D02*
X198685165Y-45085000D01*
X187178818Y-48153357D02*
X177214328Y-54058240D01*
X177214328Y-54058240D02*
X170843699Y-57833428D01*
X159040890Y-69636237D02*
X159040890Y-95594110D01*
X170843699Y-57833428D02*
X159040890Y-69636237D01*
X159040890Y-95594110D02*
X158115000Y-96520000D01*
X158115000Y-96520000D02*
X158115000Y-96520000D01*
X239424597Y-69257324D02*
X239424597Y-71303682D01*
X239424597Y-60288896D02*
X239424597Y-69257324D01*
X234173705Y-55038004D02*
X239424597Y-60288896D01*
X234173705Y-52991646D02*
X234173705Y-55038004D01*
X244675488Y-78016898D02*
X244675488Y-87569359D01*
X239424597Y-72766007D02*
X244675488Y-78016898D01*
X244675488Y-87569359D02*
X244675488Y-89615717D01*
X239424597Y-71303682D02*
X239424597Y-72766007D01*
X230301622Y-106554278D02*
X230301622Y-108600636D01*
X230301622Y-102706444D02*
X230301622Y-106554278D01*
X243392349Y-89615717D02*
X230301622Y-102706444D01*
X244675488Y-89615717D02*
X243392349Y-89615717D01*
X158115000Y-93980000D02*
X158115000Y-93980000D01*
X158115000Y-71120000D02*
X158115000Y-93980000D01*
X160020000Y-64770000D02*
X158115000Y-71120000D01*
X169958638Y-57834820D02*
X160020000Y-64770000D01*
X187002844Y-47734549D02*
X169958638Y-57834820D01*
X227422654Y-44450000D02*
X199319908Y-44450000D01*
X234173705Y-52991646D02*
X233132016Y-51949957D01*
X199319908Y-44450000D02*
X187002844Y-47734549D01*
X233132016Y-51949957D02*
X233132016Y-50159362D01*
X233132016Y-50159362D02*
X227422654Y-44450000D01*
X259049354Y-68584440D02*
X259049354Y-70630798D01*
X259049354Y-68456700D02*
X259049354Y-68584440D01*
X254840151Y-64247497D02*
X259049354Y-68456700D01*
X254840151Y-53360451D02*
X254840151Y-64247497D01*
X253798462Y-52318762D02*
X254840151Y-53360451D01*
X264300245Y-86896475D02*
X264300245Y-88942833D01*
X260091043Y-71672487D02*
X260091043Y-82687273D01*
X260091043Y-82687273D02*
X264300245Y-86896475D01*
X259049354Y-70630798D02*
X260091043Y-71672487D01*
X155268470Y-66346530D02*
X155268470Y-89841530D01*
X169725957Y-57449616D02*
X155268470Y-66346530D01*
X186826870Y-47315741D02*
X169725957Y-57449616D01*
X253798462Y-50272404D02*
X252730000Y-49203942D01*
X155268470Y-89841530D02*
X153670000Y-91440000D01*
X202335901Y-43180000D02*
X186826870Y-47315741D01*
X253798462Y-52318762D02*
X253798462Y-50272404D01*
X252730000Y-49203942D02*
X252730000Y-43180000D01*
X252730000Y-43180000D02*
X202335901Y-43180000D01*
D17*
G36*
X137466602Y-84993904D02*
G01*
X137629809Y-85102955D01*
X137562437Y-85312831D01*
X138430000Y-86180395D01*
X138444142Y-86166252D01*
X138623748Y-86345858D01*
X138609605Y-86360000D01*
X138623748Y-86374143D01*
X138444142Y-86553748D01*
X138430000Y-86539605D01*
X137562437Y-87407169D01*
X137633968Y-87630000D01*
X137562437Y-87852831D01*
X138430000Y-88720395D01*
X138444142Y-88706252D01*
X138623748Y-88885858D01*
X138609605Y-88900000D01*
X138623748Y-88914143D01*
X138444142Y-89093748D01*
X138430000Y-89079605D01*
X137562437Y-89947169D01*
X137629809Y-90157045D01*
X137466602Y-90266096D01*
X137285000Y-90447698D01*
X137285000Y-89736158D01*
X137382831Y-89767563D01*
X138250395Y-88900000D01*
X137382831Y-88032437D01*
X137285000Y-88063842D01*
X137285000Y-87196158D01*
X137382831Y-87227563D01*
X138250395Y-86360000D01*
X137382831Y-85492437D01*
X137285000Y-85523842D01*
X137285000Y-84812302D01*
X137466602Y-84993904D01*
G37*
X137466602Y-84993904D02*
X137629809Y-85102955D01*
X137562437Y-85312831D01*
X138430000Y-86180395D01*
X138444142Y-86166252D01*
X138623748Y-86345858D01*
X138609605Y-86360000D01*
X138623748Y-86374143D01*
X138444142Y-86553748D01*
X138430000Y-86539605D01*
X137562437Y-87407169D01*
X137633968Y-87630000D01*
X137562437Y-87852831D01*
X138430000Y-88720395D01*
X138444142Y-88706252D01*
X138623748Y-88885858D01*
X138609605Y-88900000D01*
X138623748Y-88914143D01*
X138444142Y-89093748D01*
X138430000Y-89079605D01*
X137562437Y-89947169D01*
X137629809Y-90157045D01*
X137466602Y-90266096D01*
X137285000Y-90447698D01*
X137285000Y-89736158D01*
X137382831Y-89767563D01*
X138250395Y-88900000D01*
X137382831Y-88032437D01*
X137285000Y-88063842D01*
X137285000Y-87196158D01*
X137382831Y-87227563D01*
X138250395Y-86360000D01*
X137382831Y-85492437D01*
X137285000Y-85523842D01*
X137285000Y-84812302D01*
X137466602Y-84993904D01*
G36*
X153863748Y-83805858D02*
G01*
X153849605Y-83820000D01*
X153863748Y-83834142D01*
X153684142Y-84013748D01*
X153670000Y-83999605D01*
X153655858Y-84013748D01*
X153476253Y-83834143D01*
X153490395Y-83820000D01*
X153476253Y-83805858D01*
X153655858Y-83626252D01*
X153670000Y-83640395D01*
X153684142Y-83626252D01*
X153863748Y-83805858D01*
G37*
X153863748Y-83805858D02*
X153849605Y-83820000D01*
X153863748Y-83834142D01*
X153684142Y-84013748D01*
X153670000Y-83999605D01*
X153655858Y-84013748D01*
X153476253Y-83834143D01*
X153490395Y-83820000D01*
X153476253Y-83805858D01*
X153655858Y-83626252D01*
X153670000Y-83640395D01*
X153684142Y-83626252D01*
X153863748Y-83805858D01*
M02*
