G04 #@! TF.GenerationSoftware,KiCad,Pcbnew,(5.1.5)-3*
G04 #@! TF.CreationDate,2020-09-15T02:52:10+03:00*
G04 #@! TF.ProjectId,eiri,65697269-2e6b-4696-9361-645f70636258,rev?*
G04 #@! TF.SameCoordinates,Original*
G04 #@! TF.FileFunction,Legend,Top*
G04 #@! TF.FilePolarity,Positive*
%FSLAX46Y46*%
G04 Gerber Fmt 4.6, Leading zero omitted, Abs format (unit mm)*
G04 Created by KiCad (PCBNEW (5.1.5)-3) date 2020-09-15 02:52:10*
%MOMM*%
%LPD*%
G04 APERTURE LIST*
%ADD10C,0.010000*%
%ADD11C,0.381000*%
%ADD12C,0.120000*%
G04 APERTURE END LIST*
D10*
G36*
X132825846Y-106766538D02*
G01*
X132842000Y-106807000D01*
X132781233Y-106889243D01*
X132762330Y-106891667D01*
X132647663Y-106830123D01*
X132630334Y-106807000D01*
X132649527Y-106734517D01*
X132710003Y-106722334D01*
X132825846Y-106766538D01*
G37*
X132825846Y-106766538D02*
X132842000Y-106807000D01*
X132781233Y-106889243D01*
X132762330Y-106891667D01*
X132647663Y-106830123D01*
X132630334Y-106807000D01*
X132649527Y-106734517D01*
X132710003Y-106722334D01*
X132825846Y-106766538D01*
G36*
X148562534Y-109954665D02*
G01*
X148639530Y-109991471D01*
X148688872Y-110088150D01*
X148718535Y-110278275D01*
X148736490Y-110595418D01*
X148740227Y-110702920D01*
X148753573Y-111085042D01*
X148767884Y-111446478D01*
X148780456Y-111719810D01*
X148782561Y-111758633D01*
X148801667Y-112095933D01*
X148293667Y-112301265D01*
X147768624Y-112475032D01*
X147313425Y-112548549D01*
X146950305Y-112520169D01*
X146733475Y-112416999D01*
X146579167Y-112200275D01*
X146526962Y-111927013D01*
X146586329Y-111671374D01*
X146629921Y-111606025D01*
X146759667Y-111514011D01*
X146994654Y-111397813D01*
X147227643Y-111303934D01*
X147545171Y-111163423D01*
X147759499Y-110990098D01*
X147911785Y-110737490D01*
X148032411Y-110395333D01*
X148155816Y-110169825D01*
X148343852Y-110006483D01*
X148540712Y-109951693D01*
X148562534Y-109954665D01*
G37*
X148562534Y-109954665D02*
X148639530Y-109991471D01*
X148688872Y-110088150D01*
X148718535Y-110278275D01*
X148736490Y-110595418D01*
X148740227Y-110702920D01*
X148753573Y-111085042D01*
X148767884Y-111446478D01*
X148780456Y-111719810D01*
X148782561Y-111758633D01*
X148801667Y-112095933D01*
X148293667Y-112301265D01*
X147768624Y-112475032D01*
X147313425Y-112548549D01*
X146950305Y-112520169D01*
X146733475Y-112416999D01*
X146579167Y-112200275D01*
X146526962Y-111927013D01*
X146586329Y-111671374D01*
X146629921Y-111606025D01*
X146759667Y-111514011D01*
X146994654Y-111397813D01*
X147227643Y-111303934D01*
X147545171Y-111163423D01*
X147759499Y-110990098D01*
X147911785Y-110737490D01*
X148032411Y-110395333D01*
X148155816Y-110169825D01*
X148343852Y-110006483D01*
X148540712Y-109951693D01*
X148562534Y-109954665D01*
G36*
X157227381Y-114131520D02*
G01*
X157272439Y-114229025D01*
X157208732Y-114323817D01*
X157141334Y-114342334D01*
X157030933Y-114281376D01*
X157017949Y-114263517D01*
X157023449Y-114163149D01*
X157125235Y-114109528D01*
X157227381Y-114131520D01*
G37*
X157227381Y-114131520D02*
X157272439Y-114229025D01*
X157208732Y-114323817D01*
X157141334Y-114342334D01*
X157030933Y-114281376D01*
X157017949Y-114263517D01*
X157023449Y-114163149D01*
X157125235Y-114109528D01*
X157227381Y-114131520D01*
G36*
X139158134Y-114799534D02*
G01*
X139161738Y-114968799D01*
X139121351Y-115039516D01*
X139029067Y-115074621D01*
X138971867Y-114985800D01*
X138968262Y-114816534D01*
X139008649Y-114745818D01*
X139100934Y-114710713D01*
X139158134Y-114799534D01*
G37*
X139158134Y-114799534D02*
X139161738Y-114968799D01*
X139121351Y-115039516D01*
X139029067Y-115074621D01*
X138971867Y-114985800D01*
X138968262Y-114816534D01*
X139008649Y-114745818D01*
X139100934Y-114710713D01*
X139158134Y-114799534D01*
G36*
X167269904Y-115326606D02*
G01*
X167301334Y-115400667D01*
X167230747Y-115504095D01*
X167132000Y-115527667D01*
X166994096Y-115474727D01*
X166962667Y-115400667D01*
X167033253Y-115297239D01*
X167132000Y-115273667D01*
X167269904Y-115326606D01*
G37*
X167269904Y-115326606D02*
X167301334Y-115400667D01*
X167230747Y-115504095D01*
X167132000Y-115527667D01*
X166994096Y-115474727D01*
X166962667Y-115400667D01*
X167033253Y-115297239D01*
X167132000Y-115273667D01*
X167269904Y-115326606D01*
G36*
X167810715Y-116163520D02*
G01*
X167855773Y-116261025D01*
X167792065Y-116355817D01*
X167724667Y-116374334D01*
X167614267Y-116313376D01*
X167601283Y-116295517D01*
X167606782Y-116195149D01*
X167708568Y-116141528D01*
X167810715Y-116163520D01*
G37*
X167810715Y-116163520D02*
X167855773Y-116261025D01*
X167792065Y-116355817D01*
X167724667Y-116374334D01*
X167614267Y-116313376D01*
X167601283Y-116295517D01*
X167606782Y-116195149D01*
X167708568Y-116141528D01*
X167810715Y-116163520D01*
G36*
X145787036Y-117628318D02*
G01*
X145796000Y-117686667D01*
X145744004Y-117803434D01*
X145627108Y-117782511D01*
X145600746Y-117759524D01*
X145583624Y-117653983D01*
X145669437Y-117568408D01*
X145716330Y-117559667D01*
X145787036Y-117628318D01*
G37*
X145787036Y-117628318D02*
X145796000Y-117686667D01*
X145744004Y-117803434D01*
X145627108Y-117782511D01*
X145600746Y-117759524D01*
X145583624Y-117653983D01*
X145669437Y-117568408D01*
X145716330Y-117559667D01*
X145787036Y-117628318D01*
G36*
X145273672Y-117944051D02*
G01*
X145288000Y-117983000D01*
X145219424Y-118058115D01*
X145161000Y-118067667D01*
X145048328Y-118021949D01*
X145034000Y-117983000D01*
X145102577Y-117907886D01*
X145161000Y-117898334D01*
X145273672Y-117944051D01*
G37*
X145273672Y-117944051D02*
X145288000Y-117983000D01*
X145219424Y-118058115D01*
X145161000Y-118067667D01*
X145048328Y-118021949D01*
X145034000Y-117983000D01*
X145102577Y-117907886D01*
X145161000Y-117898334D01*
X145273672Y-117944051D01*
G36*
X130654112Y-118323685D02*
G01*
X130633516Y-118420688D01*
X130518139Y-118476042D01*
X130405173Y-118435134D01*
X130386667Y-118364000D01*
X130447532Y-118257244D01*
X130534834Y-118253118D01*
X130654112Y-118323685D01*
G37*
X130654112Y-118323685D02*
X130633516Y-118420688D01*
X130518139Y-118476042D01*
X130405173Y-118435134D01*
X130386667Y-118364000D01*
X130447532Y-118257244D01*
X130534834Y-118253118D01*
X130654112Y-118323685D01*
G36*
X155457158Y-119102636D02*
G01*
X155460700Y-119126000D01*
X155394785Y-119225275D01*
X155369684Y-119236772D01*
X155292481Y-119195902D01*
X155278667Y-119126000D01*
X155321627Y-119020627D01*
X155369684Y-119015228D01*
X155457158Y-119102636D01*
G37*
X155457158Y-119102636D02*
X155460700Y-119126000D01*
X155394785Y-119225275D01*
X155369684Y-119236772D01*
X155292481Y-119195902D01*
X155278667Y-119126000D01*
X155321627Y-119020627D01*
X155369684Y-119015228D01*
X155457158Y-119102636D01*
G36*
X123011115Y-119067577D02*
G01*
X123020667Y-119126000D01*
X122974949Y-119238672D01*
X122936000Y-119253000D01*
X122860886Y-119184424D01*
X122851334Y-119126000D01*
X122897051Y-119013328D01*
X122936000Y-118999000D01*
X123011115Y-119067577D01*
G37*
X123011115Y-119067577D02*
X123020667Y-119126000D01*
X122974949Y-119238672D01*
X122936000Y-119253000D01*
X122860886Y-119184424D01*
X122851334Y-119126000D01*
X122897051Y-119013328D01*
X122936000Y-118999000D01*
X123011115Y-119067577D01*
G36*
X144466337Y-119568544D02*
G01*
X144483667Y-119591667D01*
X144464473Y-119664150D01*
X144403997Y-119676334D01*
X144288155Y-119632129D01*
X144272000Y-119591667D01*
X144332768Y-119509424D01*
X144351670Y-119507000D01*
X144466337Y-119568544D01*
G37*
X144466337Y-119568544D02*
X144483667Y-119591667D01*
X144464473Y-119664150D01*
X144403997Y-119676334D01*
X144288155Y-119632129D01*
X144272000Y-119591667D01*
X144332768Y-119509424D01*
X144351670Y-119507000D01*
X144466337Y-119568544D01*
G36*
X122537288Y-108123266D02*
G01*
X122761004Y-108211107D01*
X122766667Y-108213482D01*
X122923768Y-108270471D01*
X123103149Y-108312746D01*
X123332491Y-108342598D01*
X123639475Y-108362321D01*
X124051782Y-108374206D01*
X124597091Y-108380545D01*
X124798667Y-108381748D01*
X125625048Y-108393953D01*
X126317386Y-108423571D01*
X126910382Y-108473942D01*
X127438743Y-108548408D01*
X127937170Y-108650311D01*
X128157695Y-108705160D01*
X128501169Y-108829095D01*
X128825423Y-109004654D01*
X129088047Y-109202998D01*
X129246634Y-109395293D01*
X129271091Y-109462239D01*
X129237693Y-109603893D01*
X129088383Y-109659972D01*
X128857113Y-109623731D01*
X128725099Y-109570678D01*
X128441537Y-109474620D01*
X128152764Y-109431810D01*
X128139056Y-109431667D01*
X127877732Y-109459200D01*
X127520918Y-109530968D01*
X127131290Y-109630727D01*
X126771523Y-109742229D01*
X126504292Y-109849231D01*
X126480192Y-109861654D01*
X126162543Y-109983217D01*
X125723098Y-110083724D01*
X125208891Y-110155163D01*
X124666955Y-110189523D01*
X124544667Y-110191332D01*
X124084222Y-110207347D01*
X123592690Y-110246893D01*
X123126659Y-110303636D01*
X122742715Y-110371245D01*
X122589016Y-110410171D01*
X122457213Y-110512209D01*
X122350512Y-110677389D01*
X122294827Y-110861355D01*
X122237453Y-111155397D01*
X122181529Y-111526929D01*
X122130195Y-111943366D01*
X122086588Y-112372123D01*
X122053847Y-112780616D01*
X122035112Y-113136259D01*
X122033520Y-113406467D01*
X122052211Y-113558654D01*
X122070886Y-113580334D01*
X122179894Y-113536117D01*
X122375340Y-113422759D01*
X122521093Y-113327874D01*
X122686080Y-113221060D01*
X122832717Y-113149550D01*
X123000104Y-113106202D01*
X123227342Y-113083876D01*
X123553530Y-113075432D01*
X123911995Y-113073874D01*
X124425018Y-113081078D01*
X124786843Y-113105593D01*
X125014883Y-113149075D01*
X125097328Y-113186704D01*
X125284404Y-113268949D01*
X125551089Y-113336779D01*
X125645334Y-113351948D01*
X125964848Y-113402048D01*
X126330045Y-113469593D01*
X126476506Y-113499810D01*
X126731467Y-113558627D01*
X126847620Y-113607160D01*
X126852061Y-113669024D01*
X126777263Y-113761900D01*
X126659550Y-113858607D01*
X126504456Y-113894353D01*
X126253976Y-113879921D01*
X126186096Y-113871808D01*
X125859111Y-113856273D01*
X125464242Y-113872555D01*
X125165672Y-113906197D01*
X124796586Y-113960286D01*
X124346133Y-114021956D01*
X123901167Y-114079380D01*
X123825000Y-114088762D01*
X123446133Y-114140899D01*
X123098968Y-114198995D01*
X122841681Y-114252979D01*
X122783647Y-114269034D01*
X122544839Y-114312933D01*
X122353091Y-114254900D01*
X122299792Y-114222328D01*
X122133679Y-114125153D01*
X122038443Y-114088334D01*
X122001499Y-114165590D01*
X121992516Y-114373743D01*
X122007653Y-114677370D01*
X122043070Y-115041048D01*
X122094927Y-115429352D01*
X122159381Y-115806861D01*
X122232594Y-116138150D01*
X122277772Y-116295824D01*
X122501542Y-116837500D01*
X122804035Y-117357658D01*
X123151518Y-117805122D01*
X123463993Y-118095326D01*
X123986240Y-118416532D01*
X124618993Y-118674437D01*
X125378503Y-118874141D01*
X126281022Y-119020742D01*
X126492000Y-119045453D01*
X126788807Y-119085860D01*
X127116651Y-119142050D01*
X127424301Y-119203830D01*
X127660525Y-119261012D01*
X127768548Y-119299381D01*
X127841448Y-119403027D01*
X127778974Y-119567223D01*
X127774752Y-119573933D01*
X127653022Y-119633088D01*
X127395312Y-119675256D01*
X127034131Y-119700378D01*
X126601984Y-119708393D01*
X126131377Y-119699243D01*
X125654818Y-119672867D01*
X125204813Y-119629207D01*
X124871783Y-119579254D01*
X124490192Y-119505777D01*
X124141753Y-119432432D01*
X123881194Y-119370981D01*
X123808095Y-119350621D01*
X123433172Y-119173019D01*
X123058455Y-118888853D01*
X122714564Y-118534326D01*
X122432119Y-118145640D01*
X122241741Y-117758997D01*
X122174000Y-117418623D01*
X122138862Y-117117635D01*
X122042368Y-116716398D01*
X121897896Y-116266612D01*
X121827050Y-116078000D01*
X121745503Y-115812341D01*
X121684912Y-115470027D01*
X121641022Y-115019465D01*
X121611551Y-114477746D01*
X121596229Y-114108939D01*
X121583367Y-113801926D01*
X121574667Y-113597185D01*
X121572045Y-113538000D01*
X121577890Y-113414880D01*
X121597201Y-113176964D01*
X121623131Y-112903000D01*
X121659401Y-112517634D01*
X121693745Y-112114118D01*
X121711028Y-111887000D01*
X121738554Y-111526179D01*
X121772954Y-111116051D01*
X121792554Y-110898559D01*
X121813623Y-110601900D01*
X121796879Y-110409610D01*
X121726091Y-110258107D01*
X121585027Y-110083809D01*
X121584359Y-110083048D01*
X121409225Y-109840701D01*
X121336770Y-109592109D01*
X121327334Y-109396604D01*
X121370076Y-108945660D01*
X121510228Y-108612435D01*
X121765672Y-108365148D01*
X121973276Y-108248779D01*
X122216671Y-108138843D01*
X122380260Y-108098092D01*
X122537288Y-108123266D01*
G37*
X122537288Y-108123266D02*
X122761004Y-108211107D01*
X122766667Y-108213482D01*
X122923768Y-108270471D01*
X123103149Y-108312746D01*
X123332491Y-108342598D01*
X123639475Y-108362321D01*
X124051782Y-108374206D01*
X124597091Y-108380545D01*
X124798667Y-108381748D01*
X125625048Y-108393953D01*
X126317386Y-108423571D01*
X126910382Y-108473942D01*
X127438743Y-108548408D01*
X127937170Y-108650311D01*
X128157695Y-108705160D01*
X128501169Y-108829095D01*
X128825423Y-109004654D01*
X129088047Y-109202998D01*
X129246634Y-109395293D01*
X129271091Y-109462239D01*
X129237693Y-109603893D01*
X129088383Y-109659972D01*
X128857113Y-109623731D01*
X128725099Y-109570678D01*
X128441537Y-109474620D01*
X128152764Y-109431810D01*
X128139056Y-109431667D01*
X127877732Y-109459200D01*
X127520918Y-109530968D01*
X127131290Y-109630727D01*
X126771523Y-109742229D01*
X126504292Y-109849231D01*
X126480192Y-109861654D01*
X126162543Y-109983217D01*
X125723098Y-110083724D01*
X125208891Y-110155163D01*
X124666955Y-110189523D01*
X124544667Y-110191332D01*
X124084222Y-110207347D01*
X123592690Y-110246893D01*
X123126659Y-110303636D01*
X122742715Y-110371245D01*
X122589016Y-110410171D01*
X122457213Y-110512209D01*
X122350512Y-110677389D01*
X122294827Y-110861355D01*
X122237453Y-111155397D01*
X122181529Y-111526929D01*
X122130195Y-111943366D01*
X122086588Y-112372123D01*
X122053847Y-112780616D01*
X122035112Y-113136259D01*
X122033520Y-113406467D01*
X122052211Y-113558654D01*
X122070886Y-113580334D01*
X122179894Y-113536117D01*
X122375340Y-113422759D01*
X122521093Y-113327874D01*
X122686080Y-113221060D01*
X122832717Y-113149550D01*
X123000104Y-113106202D01*
X123227342Y-113083876D01*
X123553530Y-113075432D01*
X123911995Y-113073874D01*
X124425018Y-113081078D01*
X124786843Y-113105593D01*
X125014883Y-113149075D01*
X125097328Y-113186704D01*
X125284404Y-113268949D01*
X125551089Y-113336779D01*
X125645334Y-113351948D01*
X125964848Y-113402048D01*
X126330045Y-113469593D01*
X126476506Y-113499810D01*
X126731467Y-113558627D01*
X126847620Y-113607160D01*
X126852061Y-113669024D01*
X126777263Y-113761900D01*
X126659550Y-113858607D01*
X126504456Y-113894353D01*
X126253976Y-113879921D01*
X126186096Y-113871808D01*
X125859111Y-113856273D01*
X125464242Y-113872555D01*
X125165672Y-113906197D01*
X124796586Y-113960286D01*
X124346133Y-114021956D01*
X123901167Y-114079380D01*
X123825000Y-114088762D01*
X123446133Y-114140899D01*
X123098968Y-114198995D01*
X122841681Y-114252979D01*
X122783647Y-114269034D01*
X122544839Y-114312933D01*
X122353091Y-114254900D01*
X122299792Y-114222328D01*
X122133679Y-114125153D01*
X122038443Y-114088334D01*
X122001499Y-114165590D01*
X121992516Y-114373743D01*
X122007653Y-114677370D01*
X122043070Y-115041048D01*
X122094927Y-115429352D01*
X122159381Y-115806861D01*
X122232594Y-116138150D01*
X122277772Y-116295824D01*
X122501542Y-116837500D01*
X122804035Y-117357658D01*
X123151518Y-117805122D01*
X123463993Y-118095326D01*
X123986240Y-118416532D01*
X124618993Y-118674437D01*
X125378503Y-118874141D01*
X126281022Y-119020742D01*
X126492000Y-119045453D01*
X126788807Y-119085860D01*
X127116651Y-119142050D01*
X127424301Y-119203830D01*
X127660525Y-119261012D01*
X127768548Y-119299381D01*
X127841448Y-119403027D01*
X127778974Y-119567223D01*
X127774752Y-119573933D01*
X127653022Y-119633088D01*
X127395312Y-119675256D01*
X127034131Y-119700378D01*
X126601984Y-119708393D01*
X126131377Y-119699243D01*
X125654818Y-119672867D01*
X125204813Y-119629207D01*
X124871783Y-119579254D01*
X124490192Y-119505777D01*
X124141753Y-119432432D01*
X123881194Y-119370981D01*
X123808095Y-119350621D01*
X123433172Y-119173019D01*
X123058455Y-118888853D01*
X122714564Y-118534326D01*
X122432119Y-118145640D01*
X122241741Y-117758997D01*
X122174000Y-117418623D01*
X122138862Y-117117635D01*
X122042368Y-116716398D01*
X121897896Y-116266612D01*
X121827050Y-116078000D01*
X121745503Y-115812341D01*
X121684912Y-115470027D01*
X121641022Y-115019465D01*
X121611551Y-114477746D01*
X121596229Y-114108939D01*
X121583367Y-113801926D01*
X121574667Y-113597185D01*
X121572045Y-113538000D01*
X121577890Y-113414880D01*
X121597201Y-113176964D01*
X121623131Y-112903000D01*
X121659401Y-112517634D01*
X121693745Y-112114118D01*
X121711028Y-111887000D01*
X121738554Y-111526179D01*
X121772954Y-111116051D01*
X121792554Y-110898559D01*
X121813623Y-110601900D01*
X121796879Y-110409610D01*
X121726091Y-110258107D01*
X121585027Y-110083809D01*
X121584359Y-110083048D01*
X121409225Y-109840701D01*
X121336770Y-109592109D01*
X121327334Y-109396604D01*
X121370076Y-108945660D01*
X121510228Y-108612435D01*
X121765672Y-108365148D01*
X121973276Y-108248779D01*
X122216671Y-108138843D01*
X122380260Y-108098092D01*
X122537288Y-108123266D01*
G36*
X153278198Y-114349963D02*
G01*
X153523307Y-114357467D01*
X153925197Y-114376873D01*
X154218033Y-114408089D01*
X154462042Y-114467096D01*
X154717452Y-114569873D01*
X155044491Y-114732401D01*
X155157733Y-114791122D01*
X155512010Y-114987235D01*
X155832553Y-115185828D01*
X156073022Y-115357212D01*
X156155745Y-115430556D01*
X156335929Y-115692688D01*
X156434959Y-115988998D01*
X156440783Y-116263057D01*
X156369129Y-116429710D01*
X156160008Y-116593810D01*
X155828450Y-116752720D01*
X155420802Y-116887676D01*
X155026361Y-116973281D01*
X154662382Y-117052595D01*
X154290191Y-117165320D01*
X154118835Y-117231677D01*
X153693329Y-117362728D01*
X153183529Y-117409959D01*
X153119667Y-117410517D01*
X152716255Y-117423515D01*
X152453476Y-117469673D01*
X152303775Y-117562497D01*
X152239595Y-117715495D01*
X152230667Y-117846276D01*
X152305711Y-118170167D01*
X152513790Y-118524357D01*
X152829324Y-118879856D01*
X153226733Y-119207675D01*
X153664073Y-119470706D01*
X153929248Y-119595982D01*
X154124720Y-119652875D01*
X154326881Y-119651172D01*
X154612125Y-119600659D01*
X154637740Y-119595432D01*
X155053474Y-119511313D01*
X155331218Y-119459247D01*
X155498711Y-119436552D01*
X155583696Y-119440545D01*
X155613913Y-119468543D01*
X155617334Y-119500697D01*
X155546088Y-119580416D01*
X155356926Y-119705273D01*
X155086706Y-119851721D01*
X155005889Y-119891306D01*
X154475534Y-120100790D01*
X154011514Y-120178972D01*
X153576560Y-120128496D01*
X153262437Y-120014864D01*
X152940856Y-119840971D01*
X152574343Y-119599895D01*
X152206698Y-119325186D01*
X151881722Y-119050389D01*
X151643214Y-118809053D01*
X151579389Y-118725780D01*
X151407397Y-118422705D01*
X151232936Y-118038839D01*
X151074931Y-117625664D01*
X150952307Y-117234662D01*
X150883986Y-116917313D01*
X150876000Y-116812273D01*
X150902173Y-116545883D01*
X150969909Y-116205466D01*
X151039782Y-115948340D01*
X152327671Y-115948340D01*
X152358362Y-115987473D01*
X152447822Y-116017020D01*
X152620665Y-116041134D01*
X152901505Y-116063968D01*
X153314953Y-116089673D01*
X153569008Y-116104324D01*
X153831323Y-116092826D01*
X154142154Y-116044534D01*
X154229600Y-116024501D01*
X154465561Y-115951429D01*
X154571427Y-115870594D01*
X154585055Y-115752653D01*
X154584592Y-115749335D01*
X154482621Y-115571791D01*
X154259280Y-115409128D01*
X153962380Y-115283407D01*
X153639733Y-115216688D01*
X153429433Y-115216338D01*
X153153914Y-115285848D01*
X152856998Y-115422392D01*
X152587797Y-115595602D01*
X152395425Y-115775109D01*
X152331137Y-115895467D01*
X152327671Y-115948340D01*
X151039782Y-115948340D01*
X151040826Y-115944500D01*
X151147124Y-115649660D01*
X151277791Y-115413500D01*
X151470322Y-115180921D01*
X151739326Y-114918086D01*
X152006691Y-114683836D01*
X152250358Y-114495990D01*
X152428645Y-114385904D01*
X152464973Y-114372247D01*
X152629087Y-114354690D01*
X152915691Y-114347044D01*
X153278198Y-114349963D01*
G37*
X153278198Y-114349963D02*
X153523307Y-114357467D01*
X153925197Y-114376873D01*
X154218033Y-114408089D01*
X154462042Y-114467096D01*
X154717452Y-114569873D01*
X155044491Y-114732401D01*
X155157733Y-114791122D01*
X155512010Y-114987235D01*
X155832553Y-115185828D01*
X156073022Y-115357212D01*
X156155745Y-115430556D01*
X156335929Y-115692688D01*
X156434959Y-115988998D01*
X156440783Y-116263057D01*
X156369129Y-116429710D01*
X156160008Y-116593810D01*
X155828450Y-116752720D01*
X155420802Y-116887676D01*
X155026361Y-116973281D01*
X154662382Y-117052595D01*
X154290191Y-117165320D01*
X154118835Y-117231677D01*
X153693329Y-117362728D01*
X153183529Y-117409959D01*
X153119667Y-117410517D01*
X152716255Y-117423515D01*
X152453476Y-117469673D01*
X152303775Y-117562497D01*
X152239595Y-117715495D01*
X152230667Y-117846276D01*
X152305711Y-118170167D01*
X152513790Y-118524357D01*
X152829324Y-118879856D01*
X153226733Y-119207675D01*
X153664073Y-119470706D01*
X153929248Y-119595982D01*
X154124720Y-119652875D01*
X154326881Y-119651172D01*
X154612125Y-119600659D01*
X154637740Y-119595432D01*
X155053474Y-119511313D01*
X155331218Y-119459247D01*
X155498711Y-119436552D01*
X155583696Y-119440545D01*
X155613913Y-119468543D01*
X155617334Y-119500697D01*
X155546088Y-119580416D01*
X155356926Y-119705273D01*
X155086706Y-119851721D01*
X155005889Y-119891306D01*
X154475534Y-120100790D01*
X154011514Y-120178972D01*
X153576560Y-120128496D01*
X153262437Y-120014864D01*
X152940856Y-119840971D01*
X152574343Y-119599895D01*
X152206698Y-119325186D01*
X151881722Y-119050389D01*
X151643214Y-118809053D01*
X151579389Y-118725780D01*
X151407397Y-118422705D01*
X151232936Y-118038839D01*
X151074931Y-117625664D01*
X150952307Y-117234662D01*
X150883986Y-116917313D01*
X150876000Y-116812273D01*
X150902173Y-116545883D01*
X150969909Y-116205466D01*
X151039782Y-115948340D01*
X152327671Y-115948340D01*
X152358362Y-115987473D01*
X152447822Y-116017020D01*
X152620665Y-116041134D01*
X152901505Y-116063968D01*
X153314953Y-116089673D01*
X153569008Y-116104324D01*
X153831323Y-116092826D01*
X154142154Y-116044534D01*
X154229600Y-116024501D01*
X154465561Y-115951429D01*
X154571427Y-115870594D01*
X154585055Y-115752653D01*
X154584592Y-115749335D01*
X154482621Y-115571791D01*
X154259280Y-115409128D01*
X153962380Y-115283407D01*
X153639733Y-115216688D01*
X153429433Y-115216338D01*
X153153914Y-115285848D01*
X152856998Y-115422392D01*
X152587797Y-115595602D01*
X152395425Y-115775109D01*
X152331137Y-115895467D01*
X152327671Y-115948340D01*
X151039782Y-115948340D01*
X151040826Y-115944500D01*
X151147124Y-115649660D01*
X151277791Y-115413500D01*
X151470322Y-115180921D01*
X151739326Y-114918086D01*
X152006691Y-114683836D01*
X152250358Y-114495990D01*
X152428645Y-114385904D01*
X152464973Y-114372247D01*
X152629087Y-114354690D01*
X152915691Y-114347044D01*
X153278198Y-114349963D01*
G36*
X160549655Y-113691110D02*
G01*
X160781681Y-113769161D01*
X161013628Y-113912536D01*
X161018896Y-113916343D01*
X161342321Y-114190148D01*
X161507913Y-114438506D01*
X161521275Y-114680257D01*
X161388015Y-114934242D01*
X161339450Y-114993779D01*
X161212500Y-115122003D01*
X161074629Y-115194623D01*
X160873003Y-115228202D01*
X160556283Y-115239283D01*
X160232146Y-115245270D01*
X159954343Y-115253092D01*
X159793663Y-115260449D01*
X159575424Y-115334704D01*
X159349614Y-115496721D01*
X159169717Y-115697749D01*
X159089213Y-115889040D01*
X159088667Y-115903071D01*
X159150908Y-116104336D01*
X159299043Y-116283006D01*
X159475185Y-116372664D01*
X159499392Y-116374334D01*
X159612206Y-116428110D01*
X159799882Y-116567283D01*
X159967860Y-116713000D01*
X160173684Y-116894425D01*
X160330346Y-117017332D01*
X160392730Y-117051667D01*
X160504399Y-117100819D01*
X160700841Y-117227260D01*
X160937087Y-117399468D01*
X161168164Y-117585920D01*
X161221828Y-117632823D01*
X161390597Y-117878980D01*
X161500523Y-118235315D01*
X161541053Y-118649707D01*
X161507113Y-119042078D01*
X161365678Y-119391978D01*
X161096051Y-119726611D01*
X160737090Y-120003005D01*
X160550918Y-120099532D01*
X160236797Y-120199351D01*
X159877850Y-120255662D01*
X159532885Y-120264845D01*
X159260712Y-120223281D01*
X159173334Y-120184334D01*
X158990055Y-120118750D01*
X158835882Y-120100963D01*
X158593390Y-120052737D01*
X158297865Y-119931031D01*
X158005159Y-119766656D01*
X157771126Y-119590425D01*
X157658797Y-119451627D01*
X157574478Y-119169061D01*
X157602579Y-118887570D01*
X157708741Y-118617953D01*
X157849993Y-118388731D01*
X157968116Y-118321617D01*
X158051786Y-118409799D01*
X158089683Y-118646464D01*
X158086460Y-118845239D01*
X158077333Y-119087863D01*
X158102039Y-119257435D01*
X158187337Y-119377890D01*
X158359984Y-119473163D01*
X158646742Y-119567189D01*
X159002522Y-119664634D01*
X159336827Y-119748052D01*
X159566402Y-119782760D01*
X159747774Y-119771720D01*
X159937471Y-119717893D01*
X159948092Y-119714166D01*
X160238684Y-119581394D01*
X160529023Y-119404547D01*
X160571683Y-119373231D01*
X160757430Y-119210596D01*
X160842571Y-119049592D01*
X160864023Y-118812275D01*
X160863974Y-118756118D01*
X160840919Y-118490659D01*
X160786046Y-118283796D01*
X160758141Y-118234252D01*
X160619915Y-118117503D01*
X160366642Y-117951873D01*
X160037325Y-117758784D01*
X159670968Y-117559658D01*
X159306574Y-117375916D01*
X158983144Y-117228980D01*
X158800282Y-117158919D01*
X158266278Y-116925162D01*
X157889944Y-116632559D01*
X157669106Y-116278156D01*
X157601589Y-115858995D01*
X157634081Y-115573625D01*
X157718699Y-115285969D01*
X157852260Y-114972689D01*
X158011792Y-114674221D01*
X158174325Y-114431001D01*
X158316889Y-114283464D01*
X158381656Y-114257667D01*
X158486026Y-114212856D01*
X158496000Y-114182059D01*
X158523679Y-114121001D01*
X158623563Y-114060497D01*
X158820929Y-113991146D01*
X159141049Y-113903548D01*
X159453864Y-113825815D01*
X159925670Y-113721747D01*
X160277626Y-113676076D01*
X160549655Y-113691110D01*
G37*
X160549655Y-113691110D02*
X160781681Y-113769161D01*
X161013628Y-113912536D01*
X161018896Y-113916343D01*
X161342321Y-114190148D01*
X161507913Y-114438506D01*
X161521275Y-114680257D01*
X161388015Y-114934242D01*
X161339450Y-114993779D01*
X161212500Y-115122003D01*
X161074629Y-115194623D01*
X160873003Y-115228202D01*
X160556283Y-115239283D01*
X160232146Y-115245270D01*
X159954343Y-115253092D01*
X159793663Y-115260449D01*
X159575424Y-115334704D01*
X159349614Y-115496721D01*
X159169717Y-115697749D01*
X159089213Y-115889040D01*
X159088667Y-115903071D01*
X159150908Y-116104336D01*
X159299043Y-116283006D01*
X159475185Y-116372664D01*
X159499392Y-116374334D01*
X159612206Y-116428110D01*
X159799882Y-116567283D01*
X159967860Y-116713000D01*
X160173684Y-116894425D01*
X160330346Y-117017332D01*
X160392730Y-117051667D01*
X160504399Y-117100819D01*
X160700841Y-117227260D01*
X160937087Y-117399468D01*
X161168164Y-117585920D01*
X161221828Y-117632823D01*
X161390597Y-117878980D01*
X161500523Y-118235315D01*
X161541053Y-118649707D01*
X161507113Y-119042078D01*
X161365678Y-119391978D01*
X161096051Y-119726611D01*
X160737090Y-120003005D01*
X160550918Y-120099532D01*
X160236797Y-120199351D01*
X159877850Y-120255662D01*
X159532885Y-120264845D01*
X159260712Y-120223281D01*
X159173334Y-120184334D01*
X158990055Y-120118750D01*
X158835882Y-120100963D01*
X158593390Y-120052737D01*
X158297865Y-119931031D01*
X158005159Y-119766656D01*
X157771126Y-119590425D01*
X157658797Y-119451627D01*
X157574478Y-119169061D01*
X157602579Y-118887570D01*
X157708741Y-118617953D01*
X157849993Y-118388731D01*
X157968116Y-118321617D01*
X158051786Y-118409799D01*
X158089683Y-118646464D01*
X158086460Y-118845239D01*
X158077333Y-119087863D01*
X158102039Y-119257435D01*
X158187337Y-119377890D01*
X158359984Y-119473163D01*
X158646742Y-119567189D01*
X159002522Y-119664634D01*
X159336827Y-119748052D01*
X159566402Y-119782760D01*
X159747774Y-119771720D01*
X159937471Y-119717893D01*
X159948092Y-119714166D01*
X160238684Y-119581394D01*
X160529023Y-119404547D01*
X160571683Y-119373231D01*
X160757430Y-119210596D01*
X160842571Y-119049592D01*
X160864023Y-118812275D01*
X160863974Y-118756118D01*
X160840919Y-118490659D01*
X160786046Y-118283796D01*
X160758141Y-118234252D01*
X160619915Y-118117503D01*
X160366642Y-117951873D01*
X160037325Y-117758784D01*
X159670968Y-117559658D01*
X159306574Y-117375916D01*
X158983144Y-117228980D01*
X158800282Y-117158919D01*
X158266278Y-116925162D01*
X157889944Y-116632559D01*
X157669106Y-116278156D01*
X157601589Y-115858995D01*
X157634081Y-115573625D01*
X157718699Y-115285969D01*
X157852260Y-114972689D01*
X158011792Y-114674221D01*
X158174325Y-114431001D01*
X158316889Y-114283464D01*
X158381656Y-114257667D01*
X158486026Y-114212856D01*
X158496000Y-114182059D01*
X158523679Y-114121001D01*
X158623563Y-114060497D01*
X158820929Y-113991146D01*
X159141049Y-113903548D01*
X159453864Y-113825815D01*
X159925670Y-113721747D01*
X160277626Y-113676076D01*
X160549655Y-113691110D01*
G36*
X142727834Y-113807500D02*
G01*
X143017711Y-113859126D01*
X143310505Y-113971084D01*
X143467667Y-114047117D01*
X143777200Y-114221129D01*
X143979152Y-114392957D01*
X144127326Y-114611695D01*
X144163587Y-114682117D01*
X144330887Y-115069158D01*
X144483531Y-115508860D01*
X144605266Y-115945285D01*
X144679842Y-116322490D01*
X144695334Y-116512439D01*
X144717682Y-116831568D01*
X144777986Y-117259612D01*
X144866133Y-117743118D01*
X144972012Y-118228633D01*
X145085511Y-118662703D01*
X145128823Y-118803933D01*
X145236137Y-119218178D01*
X145274346Y-119565659D01*
X145244497Y-119820509D01*
X145147637Y-119956860D01*
X145081552Y-119972667D01*
X144958866Y-119919752D01*
X144836907Y-119744559D01*
X144730248Y-119507000D01*
X144623212Y-119259208D01*
X144536043Y-119090308D01*
X144494941Y-119041334D01*
X144403697Y-119091417D01*
X144253578Y-119210647D01*
X143722742Y-119622098D01*
X143186131Y-119918056D01*
X142806094Y-120066372D01*
X142519211Y-120162608D01*
X142306138Y-120231542D01*
X142206722Y-120260335D01*
X142204004Y-120260334D01*
X142127303Y-120236696D01*
X141950758Y-120191560D01*
X141943667Y-120189831D01*
X141465822Y-120022041D01*
X141133417Y-119779032D01*
X140933764Y-119446151D01*
X140854172Y-119008747D01*
X140853272Y-118979191D01*
X141732000Y-118979191D01*
X141797502Y-119191545D01*
X141979608Y-119303627D01*
X142256718Y-119313012D01*
X142607232Y-119217274D01*
X142850479Y-119104834D01*
X143322898Y-118806708D01*
X143676089Y-118481970D01*
X143891760Y-118149977D01*
X143949238Y-117942076D01*
X143956956Y-117720955D01*
X143895044Y-117599606D01*
X143788106Y-117535956D01*
X143660585Y-117504344D01*
X143488185Y-117517880D01*
X143245255Y-117583806D01*
X142906145Y-117709363D01*
X142445207Y-117901793D01*
X142356515Y-117940104D01*
X142143939Y-118102779D01*
X141943881Y-118370181D01*
X141794041Y-118679586D01*
X141732116Y-118968270D01*
X141732000Y-118979191D01*
X140853272Y-118979191D01*
X140851744Y-118929071D01*
X140919257Y-118402697D01*
X141125510Y-117952505D01*
X141453342Y-117598909D01*
X141885592Y-117362326D01*
X142240000Y-117277420D01*
X142481505Y-117218719D01*
X142780407Y-117108395D01*
X143096716Y-116966453D01*
X143390442Y-116812900D01*
X143621598Y-116667742D01*
X143750192Y-116550987D01*
X143764000Y-116514961D01*
X143702247Y-116358068D01*
X143544848Y-116146826D01*
X143333591Y-115925807D01*
X143110266Y-115739582D01*
X142947552Y-115644148D01*
X142529172Y-115539753D01*
X142120058Y-115562682D01*
X141888704Y-115645738D01*
X141690703Y-115713619D01*
X141389858Y-115777849D01*
X141061690Y-115823295D01*
X140604378Y-115838790D01*
X140288601Y-115775354D01*
X140103688Y-115628277D01*
X140038972Y-115392847D01*
X140038667Y-115371529D01*
X140110343Y-115142674D01*
X140308406Y-114865493D01*
X140607405Y-114566624D01*
X140981893Y-114272705D01*
X141259796Y-114093331D01*
X141553124Y-113932521D01*
X141797738Y-113843572D01*
X142071984Y-113805296D01*
X142355460Y-113796998D01*
X142727834Y-113807500D01*
G37*
X142727834Y-113807500D02*
X143017711Y-113859126D01*
X143310505Y-113971084D01*
X143467667Y-114047117D01*
X143777200Y-114221129D01*
X143979152Y-114392957D01*
X144127326Y-114611695D01*
X144163587Y-114682117D01*
X144330887Y-115069158D01*
X144483531Y-115508860D01*
X144605266Y-115945285D01*
X144679842Y-116322490D01*
X144695334Y-116512439D01*
X144717682Y-116831568D01*
X144777986Y-117259612D01*
X144866133Y-117743118D01*
X144972012Y-118228633D01*
X145085511Y-118662703D01*
X145128823Y-118803933D01*
X145236137Y-119218178D01*
X145274346Y-119565659D01*
X145244497Y-119820509D01*
X145147637Y-119956860D01*
X145081552Y-119972667D01*
X144958866Y-119919752D01*
X144836907Y-119744559D01*
X144730248Y-119507000D01*
X144623212Y-119259208D01*
X144536043Y-119090308D01*
X144494941Y-119041334D01*
X144403697Y-119091417D01*
X144253578Y-119210647D01*
X143722742Y-119622098D01*
X143186131Y-119918056D01*
X142806094Y-120066372D01*
X142519211Y-120162608D01*
X142306138Y-120231542D01*
X142206722Y-120260335D01*
X142204004Y-120260334D01*
X142127303Y-120236696D01*
X141950758Y-120191560D01*
X141943667Y-120189831D01*
X141465822Y-120022041D01*
X141133417Y-119779032D01*
X140933764Y-119446151D01*
X140854172Y-119008747D01*
X140853272Y-118979191D01*
X141732000Y-118979191D01*
X141797502Y-119191545D01*
X141979608Y-119303627D01*
X142256718Y-119313012D01*
X142607232Y-119217274D01*
X142850479Y-119104834D01*
X143322898Y-118806708D01*
X143676089Y-118481970D01*
X143891760Y-118149977D01*
X143949238Y-117942076D01*
X143956956Y-117720955D01*
X143895044Y-117599606D01*
X143788106Y-117535956D01*
X143660585Y-117504344D01*
X143488185Y-117517880D01*
X143245255Y-117583806D01*
X142906145Y-117709363D01*
X142445207Y-117901793D01*
X142356515Y-117940104D01*
X142143939Y-118102779D01*
X141943881Y-118370181D01*
X141794041Y-118679586D01*
X141732116Y-118968270D01*
X141732000Y-118979191D01*
X140853272Y-118979191D01*
X140851744Y-118929071D01*
X140919257Y-118402697D01*
X141125510Y-117952505D01*
X141453342Y-117598909D01*
X141885592Y-117362326D01*
X142240000Y-117277420D01*
X142481505Y-117218719D01*
X142780407Y-117108395D01*
X143096716Y-116966453D01*
X143390442Y-116812900D01*
X143621598Y-116667742D01*
X143750192Y-116550987D01*
X143764000Y-116514961D01*
X143702247Y-116358068D01*
X143544848Y-116146826D01*
X143333591Y-115925807D01*
X143110266Y-115739582D01*
X142947552Y-115644148D01*
X142529172Y-115539753D01*
X142120058Y-115562682D01*
X141888704Y-115645738D01*
X141690703Y-115713619D01*
X141389858Y-115777849D01*
X141061690Y-115823295D01*
X140604378Y-115838790D01*
X140288601Y-115775354D01*
X140103688Y-115628277D01*
X140038972Y-115392847D01*
X140038667Y-115371529D01*
X140110343Y-115142674D01*
X140308406Y-114865493D01*
X140607405Y-114566624D01*
X140981893Y-114272705D01*
X141259796Y-114093331D01*
X141553124Y-113932521D01*
X141797738Y-113843572D01*
X142071984Y-113805296D01*
X142355460Y-113796998D01*
X142727834Y-113807500D01*
G36*
X131230873Y-120672096D02*
G01*
X131233334Y-120692334D01*
X131168904Y-120774540D01*
X131148667Y-120777000D01*
X131066460Y-120712571D01*
X131064000Y-120692334D01*
X131128429Y-120610127D01*
X131148667Y-120607667D01*
X131230873Y-120672096D01*
G37*
X131230873Y-120672096D02*
X131233334Y-120692334D01*
X131168904Y-120774540D01*
X131148667Y-120777000D01*
X131066460Y-120712571D01*
X131064000Y-120692334D01*
X131128429Y-120610127D01*
X131148667Y-120607667D01*
X131230873Y-120672096D01*
G36*
X123780207Y-120672096D02*
G01*
X123782667Y-120692334D01*
X123718238Y-120774540D01*
X123698000Y-120777000D01*
X123615794Y-120712571D01*
X123613334Y-120692334D01*
X123677763Y-120610127D01*
X123698000Y-120607667D01*
X123780207Y-120672096D01*
G37*
X123780207Y-120672096D02*
X123782667Y-120692334D01*
X123718238Y-120774540D01*
X123698000Y-120777000D01*
X123615794Y-120712571D01*
X123613334Y-120692334D01*
X123677763Y-120610127D01*
X123698000Y-120607667D01*
X123780207Y-120672096D01*
G36*
X135269111Y-120805222D02*
G01*
X135257489Y-120855557D01*
X135212667Y-120861667D01*
X135142977Y-120830689D01*
X135156222Y-120805222D01*
X135256702Y-120795089D01*
X135269111Y-120805222D01*
G37*
X135269111Y-120805222D02*
X135257489Y-120855557D01*
X135212667Y-120861667D01*
X135142977Y-120830689D01*
X135156222Y-120805222D01*
X135256702Y-120795089D01*
X135269111Y-120805222D01*
G36*
X127818445Y-120805222D02*
G01*
X127806822Y-120855557D01*
X127762000Y-120861667D01*
X127692310Y-120830689D01*
X127705556Y-120805222D01*
X127806035Y-120795089D01*
X127818445Y-120805222D01*
G37*
X127818445Y-120805222D02*
X127806822Y-120855557D01*
X127762000Y-120861667D01*
X127692310Y-120830689D01*
X127705556Y-120805222D01*
X127806035Y-120795089D01*
X127818445Y-120805222D01*
G36*
X164703748Y-111877295D02*
G01*
X164973997Y-112188895D01*
X165071684Y-112357700D01*
X165197910Y-112611372D01*
X165257005Y-112798442D01*
X165258335Y-112991480D01*
X165211269Y-113263058D01*
X165197321Y-113331013D01*
X165145108Y-113657320D01*
X165143086Y-113872135D01*
X165167426Y-113935626D01*
X165279891Y-113970604D01*
X165523297Y-114004260D01*
X165859277Y-114032295D01*
X166167909Y-114047748D01*
X166746754Y-114078925D01*
X167169110Y-114126081D01*
X167447270Y-114191525D01*
X167593526Y-114277563D01*
X167618461Y-114320051D01*
X167601331Y-114417539D01*
X167469395Y-114499768D01*
X167208338Y-114570894D01*
X166803847Y-114635069D01*
X166361770Y-114684756D01*
X165861713Y-114739482D01*
X165504671Y-114795151D01*
X165264619Y-114862651D01*
X165115533Y-114952871D01*
X165031386Y-115076700D01*
X164986154Y-115245026D01*
X164983312Y-115261486D01*
X164933235Y-115537389D01*
X164868338Y-115868420D01*
X164842608Y-115993334D01*
X164812095Y-116204955D01*
X164777758Y-116553444D01*
X164742078Y-117006452D01*
X164707537Y-117531629D01*
X164676619Y-118096628D01*
X164669069Y-118254952D01*
X164642007Y-118871920D01*
X164625491Y-119343630D01*
X164620062Y-119693859D01*
X164626258Y-119946384D01*
X164644619Y-120124985D01*
X164675685Y-120253439D01*
X164716596Y-120349018D01*
X164954007Y-120632216D01*
X165302103Y-120810067D01*
X165667296Y-120864360D01*
X165867784Y-120871429D01*
X165922010Y-120900326D01*
X165853013Y-120969645D01*
X165824651Y-120991360D01*
X165575539Y-121090662D01*
X165229066Y-121113714D01*
X164837541Y-121063470D01*
X164453273Y-120942882D01*
X164380334Y-120909833D01*
X163969064Y-120671646D01*
X163696746Y-120405701D01*
X163533199Y-120075956D01*
X163473801Y-119827206D01*
X163423985Y-119443066D01*
X163381662Y-118924306D01*
X163348259Y-118305530D01*
X163325203Y-117621343D01*
X163313918Y-116906350D01*
X163315832Y-116195154D01*
X163318065Y-116048361D01*
X163339436Y-114833389D01*
X163140218Y-114892968D01*
X162940093Y-114967266D01*
X162678401Y-115081715D01*
X162587903Y-115124751D01*
X162290686Y-115230473D01*
X162079387Y-115230356D01*
X161973745Y-115136554D01*
X161993497Y-114961221D01*
X162080639Y-114812411D01*
X162257208Y-114693720D01*
X162594799Y-114595436D01*
X162769222Y-114563097D01*
X163344500Y-114468737D01*
X163377750Y-113834035D01*
X163381478Y-113454627D01*
X163358867Y-113079939D01*
X163316993Y-112802467D01*
X163266889Y-112505917D01*
X163301688Y-112295406D01*
X163444748Y-112116006D01*
X163685593Y-111935594D01*
X164060722Y-111751003D01*
X164399715Y-111731451D01*
X164703748Y-111877295D01*
G37*
X164703748Y-111877295D02*
X164973997Y-112188895D01*
X165071684Y-112357700D01*
X165197910Y-112611372D01*
X165257005Y-112798442D01*
X165258335Y-112991480D01*
X165211269Y-113263058D01*
X165197321Y-113331013D01*
X165145108Y-113657320D01*
X165143086Y-113872135D01*
X165167426Y-113935626D01*
X165279891Y-113970604D01*
X165523297Y-114004260D01*
X165859277Y-114032295D01*
X166167909Y-114047748D01*
X166746754Y-114078925D01*
X167169110Y-114126081D01*
X167447270Y-114191525D01*
X167593526Y-114277563D01*
X167618461Y-114320051D01*
X167601331Y-114417539D01*
X167469395Y-114499768D01*
X167208338Y-114570894D01*
X166803847Y-114635069D01*
X166361770Y-114684756D01*
X165861713Y-114739482D01*
X165504671Y-114795151D01*
X165264619Y-114862651D01*
X165115533Y-114952871D01*
X165031386Y-115076700D01*
X164986154Y-115245026D01*
X164983312Y-115261486D01*
X164933235Y-115537389D01*
X164868338Y-115868420D01*
X164842608Y-115993334D01*
X164812095Y-116204955D01*
X164777758Y-116553444D01*
X164742078Y-117006452D01*
X164707537Y-117531629D01*
X164676619Y-118096628D01*
X164669069Y-118254952D01*
X164642007Y-118871920D01*
X164625491Y-119343630D01*
X164620062Y-119693859D01*
X164626258Y-119946384D01*
X164644619Y-120124985D01*
X164675685Y-120253439D01*
X164716596Y-120349018D01*
X164954007Y-120632216D01*
X165302103Y-120810067D01*
X165667296Y-120864360D01*
X165867784Y-120871429D01*
X165922010Y-120900326D01*
X165853013Y-120969645D01*
X165824651Y-120991360D01*
X165575539Y-121090662D01*
X165229066Y-121113714D01*
X164837541Y-121063470D01*
X164453273Y-120942882D01*
X164380334Y-120909833D01*
X163969064Y-120671646D01*
X163696746Y-120405701D01*
X163533199Y-120075956D01*
X163473801Y-119827206D01*
X163423985Y-119443066D01*
X163381662Y-118924306D01*
X163348259Y-118305530D01*
X163325203Y-117621343D01*
X163313918Y-116906350D01*
X163315832Y-116195154D01*
X163318065Y-116048361D01*
X163339436Y-114833389D01*
X163140218Y-114892968D01*
X162940093Y-114967266D01*
X162678401Y-115081715D01*
X162587903Y-115124751D01*
X162290686Y-115230473D01*
X162079387Y-115230356D01*
X161973745Y-115136554D01*
X161993497Y-114961221D01*
X162080639Y-114812411D01*
X162257208Y-114693720D01*
X162594799Y-114595436D01*
X162769222Y-114563097D01*
X163344500Y-114468737D01*
X163377750Y-113834035D01*
X163381478Y-113454627D01*
X163358867Y-113079939D01*
X163316993Y-112802467D01*
X163266889Y-112505917D01*
X163301688Y-112295406D01*
X163444748Y-112116006D01*
X163685593Y-111935594D01*
X164060722Y-111751003D01*
X164399715Y-111731451D01*
X164703748Y-111877295D01*
G36*
X137431638Y-107563144D02*
G01*
X137832217Y-107759537D01*
X138072574Y-107950116D01*
X138467469Y-108307638D01*
X138487858Y-110142494D01*
X138497989Y-110717504D01*
X138514536Y-111266298D01*
X138535957Y-111755185D01*
X138560711Y-112150476D01*
X138587257Y-112418480D01*
X138593939Y-112461342D01*
X138627950Y-112794480D01*
X138636573Y-113271980D01*
X138619797Y-113902264D01*
X138591178Y-114469334D01*
X138552103Y-115246512D01*
X138528224Y-115956488D01*
X138519451Y-116580878D01*
X138525696Y-117101301D01*
X138546868Y-117499374D01*
X138582879Y-117756715D01*
X138607496Y-117828919D01*
X138658388Y-118006536D01*
X138683365Y-118255683D01*
X138683889Y-118294934D01*
X138693056Y-118493688D01*
X138718332Y-118821131D01*
X138756260Y-119237752D01*
X138803382Y-119704043D01*
X138823860Y-119894059D01*
X138885918Y-120539858D01*
X138912276Y-121027900D01*
X138902724Y-121366000D01*
X138857051Y-121561973D01*
X138777326Y-121623667D01*
X138699038Y-121553326D01*
X138617542Y-121390834D01*
X138530153Y-121155603D01*
X138468728Y-120988667D01*
X138426676Y-120826784D01*
X138371155Y-120551040D01*
X138312801Y-120215183D01*
X138301175Y-120142000D01*
X138248100Y-119810849D01*
X138193428Y-119492352D01*
X138130255Y-119150148D01*
X138051676Y-118747873D01*
X137950786Y-118249164D01*
X137834965Y-117686667D01*
X137759374Y-117315040D01*
X137693159Y-116978261D01*
X137646999Y-116731063D01*
X137636724Y-116670667D01*
X137584710Y-116446931D01*
X137495055Y-116146951D01*
X137428247Y-115951000D01*
X137330198Y-115591237D01*
X137241235Y-115100461D01*
X137164637Y-114516893D01*
X137103688Y-113878754D01*
X137061669Y-113224266D01*
X137041861Y-112591649D01*
X137047546Y-112019125D01*
X137064776Y-111717667D01*
X137065176Y-111520709D01*
X137048619Y-111227235D01*
X137025770Y-110971883D01*
X136981853Y-110658995D01*
X136918656Y-110465530D01*
X136816204Y-110341580D01*
X136755977Y-110297796D01*
X136621890Y-110220958D01*
X136521430Y-110223359D01*
X136402292Y-110323476D01*
X136274268Y-110467959D01*
X136072436Y-110732058D01*
X135883588Y-111050330D01*
X135696587Y-111447609D01*
X135500297Y-111948729D01*
X135283580Y-112578521D01*
X135170519Y-112929128D01*
X134960771Y-113553784D01*
X134776082Y-114021776D01*
X134610946Y-114342993D01*
X134459859Y-114527323D01*
X134317316Y-114584655D01*
X134255870Y-114572189D01*
X134139515Y-114477300D01*
X133973469Y-114282800D01*
X133818329Y-114066761D01*
X133658635Y-113793035D01*
X133527725Y-113482378D01*
X133409004Y-113089003D01*
X133302880Y-112644583D01*
X133189839Y-112166267D01*
X133062239Y-111678175D01*
X132930368Y-111214839D01*
X132804519Y-110810791D01*
X132694980Y-110500565D01*
X132612042Y-110318692D01*
X132607844Y-110312175D01*
X132487690Y-110201171D01*
X132363263Y-110123029D01*
X132267513Y-110085145D01*
X132194275Y-110110149D01*
X132122172Y-110225847D01*
X132029822Y-110460044D01*
X131966129Y-110639521D01*
X131822916Y-111132352D01*
X131686925Y-111763518D01*
X131563897Y-112502026D01*
X131459575Y-113316883D01*
X131444892Y-113453334D01*
X131403528Y-113784653D01*
X131342168Y-114202338D01*
X131272695Y-114626449D01*
X131258498Y-114707110D01*
X131191790Y-115145554D01*
X131174903Y-115445483D01*
X131206652Y-115629852D01*
X131210399Y-115638443D01*
X131283835Y-115839237D01*
X131361488Y-116109639D01*
X131380320Y-116186417D01*
X131422458Y-116421252D01*
X131399699Y-116593485D01*
X131293932Y-116782891D01*
X131221729Y-116884917D01*
X130978271Y-117221000D01*
X130381931Y-117221000D01*
X129882422Y-117186550D01*
X129529920Y-117080929D01*
X129316250Y-116900731D01*
X129249736Y-116749374D01*
X129224595Y-116399894D01*
X129287114Y-115998085D01*
X129421228Y-115625461D01*
X129497112Y-115494206D01*
X129657416Y-115129666D01*
X129734473Y-114671724D01*
X129793556Y-114254366D01*
X129900992Y-113739675D01*
X130042318Y-113180790D01*
X130203070Y-112630850D01*
X130368787Y-112142992D01*
X130523063Y-111774305D01*
X130607770Y-111556678D01*
X130640667Y-111388592D01*
X130673151Y-111243249D01*
X130760746Y-110981308D01*
X130888670Y-110640407D01*
X131042137Y-110258183D01*
X131206366Y-109872273D01*
X131366571Y-109520313D01*
X131409335Y-109431667D01*
X131690336Y-108923413D01*
X131963901Y-108553184D01*
X132222189Y-108326151D01*
X132457361Y-108247483D01*
X132661574Y-108322351D01*
X132805282Y-108511192D01*
X132914996Y-108772809D01*
X133048109Y-109167831D01*
X133195968Y-109663395D01*
X133349915Y-110226635D01*
X133501297Y-110824686D01*
X133641456Y-111424682D01*
X133761739Y-111993759D01*
X133850205Y-112478822D01*
X133943060Y-112871841D01*
X134072847Y-113185848D01*
X134223237Y-113389723D01*
X134361543Y-113453334D01*
X134409837Y-113433875D01*
X134468094Y-113363200D01*
X134544775Y-113222861D01*
X134648339Y-112994411D01*
X134787246Y-112659401D01*
X134969954Y-112199384D01*
X135159165Y-111713964D01*
X135299532Y-111346016D01*
X135383724Y-111095504D01*
X135418363Y-110922607D01*
X135410070Y-110787503D01*
X135365469Y-110650370D01*
X135344522Y-110599346D01*
X135269463Y-110375691D01*
X135267020Y-110179060D01*
X135333038Y-109925715D01*
X135628847Y-109116918D01*
X135950856Y-108472259D01*
X136301137Y-107988271D01*
X136681767Y-107661486D01*
X136691569Y-107655375D01*
X137048086Y-107527711D01*
X137431638Y-107563144D01*
G37*
X137431638Y-107563144D02*
X137832217Y-107759537D01*
X138072574Y-107950116D01*
X138467469Y-108307638D01*
X138487858Y-110142494D01*
X138497989Y-110717504D01*
X138514536Y-111266298D01*
X138535957Y-111755185D01*
X138560711Y-112150476D01*
X138587257Y-112418480D01*
X138593939Y-112461342D01*
X138627950Y-112794480D01*
X138636573Y-113271980D01*
X138619797Y-113902264D01*
X138591178Y-114469334D01*
X138552103Y-115246512D01*
X138528224Y-115956488D01*
X138519451Y-116580878D01*
X138525696Y-117101301D01*
X138546868Y-117499374D01*
X138582879Y-117756715D01*
X138607496Y-117828919D01*
X138658388Y-118006536D01*
X138683365Y-118255683D01*
X138683889Y-118294934D01*
X138693056Y-118493688D01*
X138718332Y-118821131D01*
X138756260Y-119237752D01*
X138803382Y-119704043D01*
X138823860Y-119894059D01*
X138885918Y-120539858D01*
X138912276Y-121027900D01*
X138902724Y-121366000D01*
X138857051Y-121561973D01*
X138777326Y-121623667D01*
X138699038Y-121553326D01*
X138617542Y-121390834D01*
X138530153Y-121155603D01*
X138468728Y-120988667D01*
X138426676Y-120826784D01*
X138371155Y-120551040D01*
X138312801Y-120215183D01*
X138301175Y-120142000D01*
X138248100Y-119810849D01*
X138193428Y-119492352D01*
X138130255Y-119150148D01*
X138051676Y-118747873D01*
X137950786Y-118249164D01*
X137834965Y-117686667D01*
X137759374Y-117315040D01*
X137693159Y-116978261D01*
X137646999Y-116731063D01*
X137636724Y-116670667D01*
X137584710Y-116446931D01*
X137495055Y-116146951D01*
X137428247Y-115951000D01*
X137330198Y-115591237D01*
X137241235Y-115100461D01*
X137164637Y-114516893D01*
X137103688Y-113878754D01*
X137061669Y-113224266D01*
X137041861Y-112591649D01*
X137047546Y-112019125D01*
X137064776Y-111717667D01*
X137065176Y-111520709D01*
X137048619Y-111227235D01*
X137025770Y-110971883D01*
X136981853Y-110658995D01*
X136918656Y-110465530D01*
X136816204Y-110341580D01*
X136755977Y-110297796D01*
X136621890Y-110220958D01*
X136521430Y-110223359D01*
X136402292Y-110323476D01*
X136274268Y-110467959D01*
X136072436Y-110732058D01*
X135883588Y-111050330D01*
X135696587Y-111447609D01*
X135500297Y-111948729D01*
X135283580Y-112578521D01*
X135170519Y-112929128D01*
X134960771Y-113553784D01*
X134776082Y-114021776D01*
X134610946Y-114342993D01*
X134459859Y-114527323D01*
X134317316Y-114584655D01*
X134255870Y-114572189D01*
X134139515Y-114477300D01*
X133973469Y-114282800D01*
X133818329Y-114066761D01*
X133658635Y-113793035D01*
X133527725Y-113482378D01*
X133409004Y-113089003D01*
X133302880Y-112644583D01*
X133189839Y-112166267D01*
X133062239Y-111678175D01*
X132930368Y-111214839D01*
X132804519Y-110810791D01*
X132694980Y-110500565D01*
X132612042Y-110318692D01*
X132607844Y-110312175D01*
X132487690Y-110201171D01*
X132363263Y-110123029D01*
X132267513Y-110085145D01*
X132194275Y-110110149D01*
X132122172Y-110225847D01*
X132029822Y-110460044D01*
X131966129Y-110639521D01*
X131822916Y-111132352D01*
X131686925Y-111763518D01*
X131563897Y-112502026D01*
X131459575Y-113316883D01*
X131444892Y-113453334D01*
X131403528Y-113784653D01*
X131342168Y-114202338D01*
X131272695Y-114626449D01*
X131258498Y-114707110D01*
X131191790Y-115145554D01*
X131174903Y-115445483D01*
X131206652Y-115629852D01*
X131210399Y-115638443D01*
X131283835Y-115839237D01*
X131361488Y-116109639D01*
X131380320Y-116186417D01*
X131422458Y-116421252D01*
X131399699Y-116593485D01*
X131293932Y-116782891D01*
X131221729Y-116884917D01*
X130978271Y-117221000D01*
X130381931Y-117221000D01*
X129882422Y-117186550D01*
X129529920Y-117080929D01*
X129316250Y-116900731D01*
X129249736Y-116749374D01*
X129224595Y-116399894D01*
X129287114Y-115998085D01*
X129421228Y-115625461D01*
X129497112Y-115494206D01*
X129657416Y-115129666D01*
X129734473Y-114671724D01*
X129793556Y-114254366D01*
X129900992Y-113739675D01*
X130042318Y-113180790D01*
X130203070Y-112630850D01*
X130368787Y-112142992D01*
X130523063Y-111774305D01*
X130607770Y-111556678D01*
X130640667Y-111388592D01*
X130673151Y-111243249D01*
X130760746Y-110981308D01*
X130888670Y-110640407D01*
X131042137Y-110258183D01*
X131206366Y-109872273D01*
X131366571Y-109520313D01*
X131409335Y-109431667D01*
X131690336Y-108923413D01*
X131963901Y-108553184D01*
X132222189Y-108326151D01*
X132457361Y-108247483D01*
X132661574Y-108322351D01*
X132805282Y-108511192D01*
X132914996Y-108772809D01*
X133048109Y-109167831D01*
X133195968Y-109663395D01*
X133349915Y-110226635D01*
X133501297Y-110824686D01*
X133641456Y-111424682D01*
X133761739Y-111993759D01*
X133850205Y-112478822D01*
X133943060Y-112871841D01*
X134072847Y-113185848D01*
X134223237Y-113389723D01*
X134361543Y-113453334D01*
X134409837Y-113433875D01*
X134468094Y-113363200D01*
X134544775Y-113222861D01*
X134648339Y-112994411D01*
X134787246Y-112659401D01*
X134969954Y-112199384D01*
X135159165Y-111713964D01*
X135299532Y-111346016D01*
X135383724Y-111095504D01*
X135418363Y-110922607D01*
X135410070Y-110787503D01*
X135365469Y-110650370D01*
X135344522Y-110599346D01*
X135269463Y-110375691D01*
X135267020Y-110179060D01*
X135333038Y-109925715D01*
X135628847Y-109116918D01*
X135950856Y-108472259D01*
X136301137Y-107988271D01*
X136681767Y-107661486D01*
X136691569Y-107655375D01*
X137048086Y-107527711D01*
X137431638Y-107563144D01*
G36*
X136482667Y-123782667D02*
G01*
X136440334Y-123825000D01*
X136398000Y-123782667D01*
X136440334Y-123740334D01*
X136482667Y-123782667D01*
G37*
X136482667Y-123782667D02*
X136440334Y-123825000D01*
X136398000Y-123782667D01*
X136440334Y-123740334D01*
X136482667Y-123782667D01*
G36*
X129032000Y-123782667D02*
G01*
X128989667Y-123825000D01*
X128947334Y-123782667D01*
X128989667Y-123740334D01*
X129032000Y-123782667D01*
G37*
X129032000Y-123782667D02*
X128989667Y-123825000D01*
X128947334Y-123782667D01*
X128989667Y-123740334D01*
X129032000Y-123782667D01*
G36*
X172537314Y-114665687D02*
G01*
X172723951Y-114912532D01*
X172861018Y-115143194D01*
X172965404Y-115365206D01*
X173042949Y-115608524D01*
X173099498Y-115903100D01*
X173140892Y-116278892D01*
X173172975Y-116765852D01*
X173199902Y-117352660D01*
X173238550Y-118490959D01*
X173252329Y-119477993D01*
X173238265Y-120330409D01*
X173193388Y-121064855D01*
X173114723Y-121697978D01*
X172999298Y-122246425D01*
X172844140Y-122726842D01*
X172646277Y-123155877D01*
X172402736Y-123550178D01*
X172110544Y-123926390D01*
X172004341Y-124047843D01*
X171549131Y-124497827D01*
X171109841Y-124796382D01*
X170652834Y-124953996D01*
X170144472Y-124981161D01*
X169551116Y-124888363D01*
X169415075Y-124855258D01*
X168983216Y-124724061D01*
X168688990Y-124578175D01*
X168500782Y-124397585D01*
X168405982Y-124216472D01*
X168336444Y-123931612D01*
X168317608Y-123615251D01*
X168343889Y-123311291D01*
X168409700Y-123063634D01*
X168509454Y-122916179D01*
X168574312Y-122893667D01*
X168616054Y-122970854D01*
X168645498Y-123172682D01*
X168656000Y-123439691D01*
X168661923Y-123741379D01*
X168692998Y-123928483D01*
X168769188Y-124055676D01*
X168910452Y-124177626D01*
X168931167Y-124193329D01*
X169172968Y-124332168D01*
X169469741Y-124404418D01*
X169714334Y-124424754D01*
X170184923Y-124442988D01*
X170525472Y-124439165D01*
X170774888Y-124402646D01*
X170972080Y-124322793D01*
X171155954Y-124188965D01*
X171365418Y-123990524D01*
X171389245Y-123966741D01*
X171908510Y-123330696D01*
X172297395Y-122590502D01*
X172556888Y-121743716D01*
X172687976Y-120787897D01*
X172690552Y-120747533D01*
X172704259Y-120169278D01*
X172669418Y-119710225D01*
X172588259Y-119385174D01*
X172463014Y-119208927D01*
X172458090Y-119205778D01*
X172348309Y-119223195D01*
X172175831Y-119328278D01*
X172127453Y-119366907D01*
X171824483Y-119576158D01*
X171436376Y-119782519D01*
X171029588Y-119955326D01*
X170670574Y-120063913D01*
X170583958Y-120079137D01*
X170189001Y-120056570D01*
X169732936Y-119888626D01*
X169208518Y-119572545D01*
X169153538Y-119533754D01*
X168902519Y-119319687D01*
X168704889Y-119060859D01*
X168548451Y-118728853D01*
X168421005Y-118295249D01*
X168310352Y-117731629D01*
X168269801Y-117475000D01*
X168196092Y-117050844D01*
X168109870Y-116655834D01*
X168022929Y-116339499D01*
X167960428Y-116175650D01*
X167825597Y-115780418D01*
X167819564Y-115426626D01*
X167928140Y-115138703D01*
X168137139Y-114941080D01*
X168432373Y-114858188D01*
X168708435Y-114887637D01*
X168973250Y-115033278D01*
X169220286Y-115311583D01*
X169430329Y-115685889D01*
X169584165Y-116119532D01*
X169662580Y-116575850D01*
X169668600Y-116719784D01*
X169731826Y-117231429D01*
X169874431Y-117689799D01*
X170084516Y-118091716D01*
X170331439Y-118334057D01*
X170630157Y-118421784D01*
X170995630Y-118359860D01*
X171378397Y-118188726D01*
X171626325Y-118102614D01*
X171897826Y-118067667D01*
X172185554Y-118005043D01*
X172367982Y-117814955D01*
X172447053Y-117494081D01*
X172437553Y-117144352D01*
X172348915Y-116422868D01*
X172249621Y-115844747D01*
X172141570Y-115419881D01*
X172071457Y-115238689D01*
X171983311Y-115003650D01*
X171989744Y-114822060D01*
X172026240Y-114725576D01*
X172165420Y-114543045D01*
X172337791Y-114523622D01*
X172537314Y-114665687D01*
G37*
X172537314Y-114665687D02*
X172723951Y-114912532D01*
X172861018Y-115143194D01*
X172965404Y-115365206D01*
X173042949Y-115608524D01*
X173099498Y-115903100D01*
X173140892Y-116278892D01*
X173172975Y-116765852D01*
X173199902Y-117352660D01*
X173238550Y-118490959D01*
X173252329Y-119477993D01*
X173238265Y-120330409D01*
X173193388Y-121064855D01*
X173114723Y-121697978D01*
X172999298Y-122246425D01*
X172844140Y-122726842D01*
X172646277Y-123155877D01*
X172402736Y-123550178D01*
X172110544Y-123926390D01*
X172004341Y-124047843D01*
X171549131Y-124497827D01*
X171109841Y-124796382D01*
X170652834Y-124953996D01*
X170144472Y-124981161D01*
X169551116Y-124888363D01*
X169415075Y-124855258D01*
X168983216Y-124724061D01*
X168688990Y-124578175D01*
X168500782Y-124397585D01*
X168405982Y-124216472D01*
X168336444Y-123931612D01*
X168317608Y-123615251D01*
X168343889Y-123311291D01*
X168409700Y-123063634D01*
X168509454Y-122916179D01*
X168574312Y-122893667D01*
X168616054Y-122970854D01*
X168645498Y-123172682D01*
X168656000Y-123439691D01*
X168661923Y-123741379D01*
X168692998Y-123928483D01*
X168769188Y-124055676D01*
X168910452Y-124177626D01*
X168931167Y-124193329D01*
X169172968Y-124332168D01*
X169469741Y-124404418D01*
X169714334Y-124424754D01*
X170184923Y-124442988D01*
X170525472Y-124439165D01*
X170774888Y-124402646D01*
X170972080Y-124322793D01*
X171155954Y-124188965D01*
X171365418Y-123990524D01*
X171389245Y-123966741D01*
X171908510Y-123330696D01*
X172297395Y-122590502D01*
X172556888Y-121743716D01*
X172687976Y-120787897D01*
X172690552Y-120747533D01*
X172704259Y-120169278D01*
X172669418Y-119710225D01*
X172588259Y-119385174D01*
X172463014Y-119208927D01*
X172458090Y-119205778D01*
X172348309Y-119223195D01*
X172175831Y-119328278D01*
X172127453Y-119366907D01*
X171824483Y-119576158D01*
X171436376Y-119782519D01*
X171029588Y-119955326D01*
X170670574Y-120063913D01*
X170583958Y-120079137D01*
X170189001Y-120056570D01*
X169732936Y-119888626D01*
X169208518Y-119572545D01*
X169153538Y-119533754D01*
X168902519Y-119319687D01*
X168704889Y-119060859D01*
X168548451Y-118728853D01*
X168421005Y-118295249D01*
X168310352Y-117731629D01*
X168269801Y-117475000D01*
X168196092Y-117050844D01*
X168109870Y-116655834D01*
X168022929Y-116339499D01*
X167960428Y-116175650D01*
X167825597Y-115780418D01*
X167819564Y-115426626D01*
X167928140Y-115138703D01*
X168137139Y-114941080D01*
X168432373Y-114858188D01*
X168708435Y-114887637D01*
X168973250Y-115033278D01*
X169220286Y-115311583D01*
X169430329Y-115685889D01*
X169584165Y-116119532D01*
X169662580Y-116575850D01*
X169668600Y-116719784D01*
X169731826Y-117231429D01*
X169874431Y-117689799D01*
X170084516Y-118091716D01*
X170331439Y-118334057D01*
X170630157Y-118421784D01*
X170995630Y-118359860D01*
X171378397Y-118188726D01*
X171626325Y-118102614D01*
X171897826Y-118067667D01*
X172185554Y-118005043D01*
X172367982Y-117814955D01*
X172447053Y-117494081D01*
X172437553Y-117144352D01*
X172348915Y-116422868D01*
X172249621Y-115844747D01*
X172141570Y-115419881D01*
X172071457Y-115238689D01*
X171983311Y-115003650D01*
X171989744Y-114822060D01*
X172026240Y-114725576D01*
X172165420Y-114543045D01*
X172337791Y-114523622D01*
X172537314Y-114665687D01*
G36*
X148451064Y-113992499D02*
G01*
X148871358Y-114165286D01*
X149198126Y-114442662D01*
X149296400Y-114583473D01*
X149383419Y-114745856D01*
X149411144Y-114876672D01*
X149378421Y-115038737D01*
X149284098Y-115294869D01*
X149283314Y-115296894D01*
X149169438Y-115625446D01*
X149073847Y-115985139D01*
X148994198Y-116396036D01*
X148928148Y-116878202D01*
X148873351Y-117451699D01*
X148827466Y-118136591D01*
X148788147Y-118952941D01*
X148756875Y-119803334D01*
X148728261Y-120596734D01*
X148698215Y-121242615D01*
X148663950Y-121762783D01*
X148622677Y-122179045D01*
X148571607Y-122513210D01*
X148507953Y-122787085D01*
X148428927Y-123022478D01*
X148331738Y-123241196D01*
X148312345Y-123279995D01*
X147976719Y-123816565D01*
X147553033Y-124253107D01*
X147008191Y-124620863D01*
X146749378Y-124755480D01*
X146390218Y-124922897D01*
X146117256Y-125024089D01*
X145868580Y-125074911D01*
X145582281Y-125091221D01*
X145437045Y-125091600D01*
X144954815Y-125060553D01*
X144546906Y-124962566D01*
X144356667Y-124889003D01*
X143979944Y-124676479D01*
X143751067Y-124428960D01*
X143680582Y-124184834D01*
X143738985Y-124093471D01*
X143876447Y-124087095D01*
X144031498Y-124156218D01*
X144123116Y-124253142D01*
X144374325Y-124514005D01*
X144732809Y-124695076D01*
X145150904Y-124784879D01*
X145580944Y-124771936D01*
X145899378Y-124680829D01*
X146226849Y-124481419D01*
X146582750Y-124170660D01*
X146926605Y-123791884D01*
X147217941Y-123388421D01*
X147375381Y-123100623D01*
X147561719Y-122621881D01*
X147694658Y-122134048D01*
X147765262Y-121683210D01*
X147764598Y-121315456D01*
X147743006Y-121204189D01*
X147692688Y-120934295D01*
X147662735Y-120602417D01*
X147659139Y-120465035D01*
X147639844Y-120150522D01*
X147589914Y-119760252D01*
X147525737Y-119406702D01*
X147469105Y-119066140D01*
X147417684Y-118618696D01*
X147377720Y-118126819D01*
X147357613Y-117726107D01*
X147304064Y-116911922D01*
X147200615Y-116237013D01*
X147141850Y-115990440D01*
X147024557Y-115541088D01*
X146951446Y-115216665D01*
X146919493Y-114979484D01*
X146925674Y-114791855D01*
X146966963Y-114616089D01*
X147019661Y-114468040D01*
X147135227Y-114221120D01*
X147273727Y-114084451D01*
X147474296Y-114006426D01*
X147973345Y-113935736D01*
X148451064Y-113992499D01*
G37*
X148451064Y-113992499D02*
X148871358Y-114165286D01*
X149198126Y-114442662D01*
X149296400Y-114583473D01*
X149383419Y-114745856D01*
X149411144Y-114876672D01*
X149378421Y-115038737D01*
X149284098Y-115294869D01*
X149283314Y-115296894D01*
X149169438Y-115625446D01*
X149073847Y-115985139D01*
X148994198Y-116396036D01*
X148928148Y-116878202D01*
X148873351Y-117451699D01*
X148827466Y-118136591D01*
X148788147Y-118952941D01*
X148756875Y-119803334D01*
X148728261Y-120596734D01*
X148698215Y-121242615D01*
X148663950Y-121762783D01*
X148622677Y-122179045D01*
X148571607Y-122513210D01*
X148507953Y-122787085D01*
X148428927Y-123022478D01*
X148331738Y-123241196D01*
X148312345Y-123279995D01*
X147976719Y-123816565D01*
X147553033Y-124253107D01*
X147008191Y-124620863D01*
X146749378Y-124755480D01*
X146390218Y-124922897D01*
X146117256Y-125024089D01*
X145868580Y-125074911D01*
X145582281Y-125091221D01*
X145437045Y-125091600D01*
X144954815Y-125060553D01*
X144546906Y-124962566D01*
X144356667Y-124889003D01*
X143979944Y-124676479D01*
X143751067Y-124428960D01*
X143680582Y-124184834D01*
X143738985Y-124093471D01*
X143876447Y-124087095D01*
X144031498Y-124156218D01*
X144123116Y-124253142D01*
X144374325Y-124514005D01*
X144732809Y-124695076D01*
X145150904Y-124784879D01*
X145580944Y-124771936D01*
X145899378Y-124680829D01*
X146226849Y-124481419D01*
X146582750Y-124170660D01*
X146926605Y-123791884D01*
X147217941Y-123388421D01*
X147375381Y-123100623D01*
X147561719Y-122621881D01*
X147694658Y-122134048D01*
X147765262Y-121683210D01*
X147764598Y-121315456D01*
X147743006Y-121204189D01*
X147692688Y-120934295D01*
X147662735Y-120602417D01*
X147659139Y-120465035D01*
X147639844Y-120150522D01*
X147589914Y-119760252D01*
X147525737Y-119406702D01*
X147469105Y-119066140D01*
X147417684Y-118618696D01*
X147377720Y-118126819D01*
X147357613Y-117726107D01*
X147304064Y-116911922D01*
X147200615Y-116237013D01*
X147141850Y-115990440D01*
X147024557Y-115541088D01*
X146951446Y-115216665D01*
X146919493Y-114979484D01*
X146925674Y-114791855D01*
X146966963Y-114616089D01*
X147019661Y-114468040D01*
X147135227Y-114221120D01*
X147273727Y-114084451D01*
X147474296Y-114006426D01*
X147973345Y-113935736D01*
X148451064Y-113992499D01*
G36*
X136562990Y-119806020D02*
G01*
X136777630Y-119915739D01*
X136939621Y-120052147D01*
X136990667Y-120158810D01*
X136936211Y-120240564D01*
X136791738Y-120410482D01*
X136585590Y-120635632D01*
X136528192Y-120696213D01*
X136058394Y-121283429D01*
X135754872Y-121889550D01*
X135614878Y-122523256D01*
X135635665Y-123193228D01*
X135672265Y-123399827D01*
X135807804Y-123942541D01*
X135966832Y-124341120D01*
X136167760Y-124620688D01*
X136428997Y-124806367D01*
X136768956Y-124923281D01*
X136792714Y-124928760D01*
X137189425Y-124943518D01*
X137527439Y-124805685D01*
X137790276Y-124526656D01*
X137960553Y-124121334D01*
X138012913Y-123810713D01*
X138046277Y-123397383D01*
X138059493Y-122942223D01*
X138051411Y-122506109D01*
X138020880Y-122149920D01*
X138000019Y-122034125D01*
X137900467Y-121739324D01*
X137741196Y-121400339D01*
X137619211Y-121190313D01*
X137434140Y-120866988D01*
X137340866Y-120621541D01*
X137344734Y-120473565D01*
X137414000Y-120438334D01*
X137496338Y-120488337D01*
X137498667Y-120503499D01*
X137546059Y-120598390D01*
X137671171Y-120788798D01*
X137848405Y-121036077D01*
X137875786Y-121072856D01*
X138212532Y-121630408D01*
X138388975Y-122184062D01*
X138401729Y-122722909D01*
X138397352Y-122753627D01*
X138297146Y-123375281D01*
X138205475Y-123853001D01*
X138115849Y-124211518D01*
X138021775Y-124475565D01*
X137916763Y-124669871D01*
X137881466Y-124719167D01*
X137557718Y-125049398D01*
X137202157Y-125218115D01*
X136792105Y-125232890D01*
X136519979Y-125173794D01*
X136148002Y-124986918D01*
X135809306Y-124671769D01*
X135543485Y-124269288D01*
X135461240Y-124079000D01*
X135280512Y-123465166D01*
X135167109Y-122822287D01*
X135127390Y-122206005D01*
X135167715Y-121671964D01*
X135179197Y-121611339D01*
X135355698Y-120926359D01*
X135570695Y-120396118D01*
X135822219Y-120023713D01*
X136108301Y-119812241D01*
X136356311Y-119761000D01*
X136562990Y-119806020D01*
G37*
X136562990Y-119806020D02*
X136777630Y-119915739D01*
X136939621Y-120052147D01*
X136990667Y-120158810D01*
X136936211Y-120240564D01*
X136791738Y-120410482D01*
X136585590Y-120635632D01*
X136528192Y-120696213D01*
X136058394Y-121283429D01*
X135754872Y-121889550D01*
X135614878Y-122523256D01*
X135635665Y-123193228D01*
X135672265Y-123399827D01*
X135807804Y-123942541D01*
X135966832Y-124341120D01*
X136167760Y-124620688D01*
X136428997Y-124806367D01*
X136768956Y-124923281D01*
X136792714Y-124928760D01*
X137189425Y-124943518D01*
X137527439Y-124805685D01*
X137790276Y-124526656D01*
X137960553Y-124121334D01*
X138012913Y-123810713D01*
X138046277Y-123397383D01*
X138059493Y-122942223D01*
X138051411Y-122506109D01*
X138020880Y-122149920D01*
X138000019Y-122034125D01*
X137900467Y-121739324D01*
X137741196Y-121400339D01*
X137619211Y-121190313D01*
X137434140Y-120866988D01*
X137340866Y-120621541D01*
X137344734Y-120473565D01*
X137414000Y-120438334D01*
X137496338Y-120488337D01*
X137498667Y-120503499D01*
X137546059Y-120598390D01*
X137671171Y-120788798D01*
X137848405Y-121036077D01*
X137875786Y-121072856D01*
X138212532Y-121630408D01*
X138388975Y-122184062D01*
X138401729Y-122722909D01*
X138397352Y-122753627D01*
X138297146Y-123375281D01*
X138205475Y-123853001D01*
X138115849Y-124211518D01*
X138021775Y-124475565D01*
X137916763Y-124669871D01*
X137881466Y-124719167D01*
X137557718Y-125049398D01*
X137202157Y-125218115D01*
X136792105Y-125232890D01*
X136519979Y-125173794D01*
X136148002Y-124986918D01*
X135809306Y-124671769D01*
X135543485Y-124269288D01*
X135461240Y-124079000D01*
X135280512Y-123465166D01*
X135167109Y-122822287D01*
X135127390Y-122206005D01*
X135167715Y-121671964D01*
X135179197Y-121611339D01*
X135355698Y-120926359D01*
X135570695Y-120396118D01*
X135822219Y-120023713D01*
X136108301Y-119812241D01*
X136356311Y-119761000D01*
X136562990Y-119806020D01*
G36*
X133639390Y-119891667D02*
G01*
X134010110Y-120057635D01*
X134277267Y-120336688D01*
X134425380Y-120719719D01*
X134450667Y-120995415D01*
X134450667Y-121444995D01*
X133667500Y-122284590D01*
X133327300Y-122668284D01*
X132987760Y-123083901D01*
X132689297Y-123480115D01*
X132480438Y-123792093D01*
X132285539Y-124110897D01*
X132109769Y-124392233D01*
X131981175Y-124591440D01*
X131948253Y-124639492D01*
X131819965Y-124818984D01*
X133008188Y-124880204D01*
X133439597Y-124907453D01*
X133808028Y-124940222D01*
X134081625Y-124974954D01*
X134228532Y-125008091D01*
X134243869Y-125018212D01*
X134242093Y-125094219D01*
X134222830Y-125099687D01*
X134117462Y-125103071D01*
X133875458Y-125109131D01*
X133529481Y-125117096D01*
X133112193Y-125126197D01*
X132969000Y-125129222D01*
X132528976Y-125142232D01*
X132143217Y-125160701D01*
X131846656Y-125182437D01*
X131674227Y-125205250D01*
X131652244Y-125211835D01*
X131508119Y-125232100D01*
X131461744Y-125210522D01*
X131407027Y-125089090D01*
X131446346Y-124906643D01*
X131587856Y-124638907D01*
X131724727Y-124427938D01*
X131942306Y-124091724D01*
X132181089Y-123700736D01*
X132354208Y-123401667D01*
X132562618Y-123073036D01*
X132839167Y-122695838D01*
X133131523Y-122340499D01*
X133196314Y-122268380D01*
X133507248Y-121922143D01*
X133717684Y-121663477D01*
X133846809Y-121460166D01*
X133913809Y-121279992D01*
X133937872Y-121090737D01*
X133939667Y-121020200D01*
X133882193Y-120718729D01*
X133719941Y-120536496D01*
X133478638Y-120484840D01*
X133184011Y-120575101D01*
X133076684Y-120639847D01*
X132702883Y-120854145D01*
X132357680Y-120980547D01*
X132066604Y-121017104D01*
X131855187Y-120961864D01*
X131748956Y-120812879D01*
X131741334Y-120741825D01*
X131814152Y-120537737D01*
X132004556Y-120314618D01*
X132270469Y-120109844D01*
X132569812Y-119960790D01*
X132649186Y-119935424D01*
X133180588Y-119847894D01*
X133639390Y-119891667D01*
G37*
X133639390Y-119891667D02*
X134010110Y-120057635D01*
X134277267Y-120336688D01*
X134425380Y-120719719D01*
X134450667Y-120995415D01*
X134450667Y-121444995D01*
X133667500Y-122284590D01*
X133327300Y-122668284D01*
X132987760Y-123083901D01*
X132689297Y-123480115D01*
X132480438Y-123792093D01*
X132285539Y-124110897D01*
X132109769Y-124392233D01*
X131981175Y-124591440D01*
X131948253Y-124639492D01*
X131819965Y-124818984D01*
X133008188Y-124880204D01*
X133439597Y-124907453D01*
X133808028Y-124940222D01*
X134081625Y-124974954D01*
X134228532Y-125008091D01*
X134243869Y-125018212D01*
X134242093Y-125094219D01*
X134222830Y-125099687D01*
X134117462Y-125103071D01*
X133875458Y-125109131D01*
X133529481Y-125117096D01*
X133112193Y-125126197D01*
X132969000Y-125129222D01*
X132528976Y-125142232D01*
X132143217Y-125160701D01*
X131846656Y-125182437D01*
X131674227Y-125205250D01*
X131652244Y-125211835D01*
X131508119Y-125232100D01*
X131461744Y-125210522D01*
X131407027Y-125089090D01*
X131446346Y-124906643D01*
X131587856Y-124638907D01*
X131724727Y-124427938D01*
X131942306Y-124091724D01*
X132181089Y-123700736D01*
X132354208Y-123401667D01*
X132562618Y-123073036D01*
X132839167Y-122695838D01*
X133131523Y-122340499D01*
X133196314Y-122268380D01*
X133507248Y-121922143D01*
X133717684Y-121663477D01*
X133846809Y-121460166D01*
X133913809Y-121279992D01*
X133937872Y-121090737D01*
X133939667Y-121020200D01*
X133882193Y-120718729D01*
X133719941Y-120536496D01*
X133478638Y-120484840D01*
X133184011Y-120575101D01*
X133076684Y-120639847D01*
X132702883Y-120854145D01*
X132357680Y-120980547D01*
X132066604Y-121017104D01*
X131855187Y-120961864D01*
X131748956Y-120812879D01*
X131741334Y-120741825D01*
X131814152Y-120537737D01*
X132004556Y-120314618D01*
X132270469Y-120109844D01*
X132569812Y-119960790D01*
X132649186Y-119935424D01*
X133180588Y-119847894D01*
X133639390Y-119891667D01*
G36*
X129112323Y-119806020D02*
G01*
X129326963Y-119915739D01*
X129488954Y-120052147D01*
X129540000Y-120158810D01*
X129485544Y-120240564D01*
X129341071Y-120410482D01*
X129134924Y-120635632D01*
X129077526Y-120696213D01*
X128607727Y-121283429D01*
X128304205Y-121889550D01*
X128164211Y-122523256D01*
X128184998Y-123193228D01*
X128221599Y-123399827D01*
X128357138Y-123942541D01*
X128516166Y-124341120D01*
X128717093Y-124620688D01*
X128978331Y-124806367D01*
X129318289Y-124923281D01*
X129342047Y-124928760D01*
X129738758Y-124943518D01*
X130076773Y-124805685D01*
X130339609Y-124526656D01*
X130509887Y-124121334D01*
X130562247Y-123810713D01*
X130595610Y-123397383D01*
X130608827Y-122942223D01*
X130600745Y-122506109D01*
X130570213Y-122149920D01*
X130549353Y-122034125D01*
X130449800Y-121739324D01*
X130290529Y-121400339D01*
X130168545Y-121190313D01*
X129983474Y-120866988D01*
X129890199Y-120621541D01*
X129894068Y-120473565D01*
X129963334Y-120438334D01*
X130045671Y-120488337D01*
X130048000Y-120503499D01*
X130095392Y-120598390D01*
X130220504Y-120788798D01*
X130397738Y-121036077D01*
X130425119Y-121072856D01*
X130761866Y-121630408D01*
X130938308Y-122184062D01*
X130951062Y-122722909D01*
X130946686Y-122753627D01*
X130846480Y-123375281D01*
X130754809Y-123853001D01*
X130665182Y-124211518D01*
X130571108Y-124475565D01*
X130466097Y-124669871D01*
X130430799Y-124719167D01*
X130107051Y-125049398D01*
X129751490Y-125218115D01*
X129341439Y-125232890D01*
X129069313Y-125173794D01*
X128697335Y-124986918D01*
X128358639Y-124671769D01*
X128092818Y-124269288D01*
X128010573Y-124079000D01*
X127829845Y-123465166D01*
X127716442Y-122822287D01*
X127676723Y-122206005D01*
X127717048Y-121671964D01*
X127728531Y-121611339D01*
X127905031Y-120926359D01*
X128120028Y-120396118D01*
X128371552Y-120023713D01*
X128657634Y-119812241D01*
X128905644Y-119761000D01*
X129112323Y-119806020D01*
G37*
X129112323Y-119806020D02*
X129326963Y-119915739D01*
X129488954Y-120052147D01*
X129540000Y-120158810D01*
X129485544Y-120240564D01*
X129341071Y-120410482D01*
X129134924Y-120635632D01*
X129077526Y-120696213D01*
X128607727Y-121283429D01*
X128304205Y-121889550D01*
X128164211Y-122523256D01*
X128184998Y-123193228D01*
X128221599Y-123399827D01*
X128357138Y-123942541D01*
X128516166Y-124341120D01*
X128717093Y-124620688D01*
X128978331Y-124806367D01*
X129318289Y-124923281D01*
X129342047Y-124928760D01*
X129738758Y-124943518D01*
X130076773Y-124805685D01*
X130339609Y-124526656D01*
X130509887Y-124121334D01*
X130562247Y-123810713D01*
X130595610Y-123397383D01*
X130608827Y-122942223D01*
X130600745Y-122506109D01*
X130570213Y-122149920D01*
X130549353Y-122034125D01*
X130449800Y-121739324D01*
X130290529Y-121400339D01*
X130168545Y-121190313D01*
X129983474Y-120866988D01*
X129890199Y-120621541D01*
X129894068Y-120473565D01*
X129963334Y-120438334D01*
X130045671Y-120488337D01*
X130048000Y-120503499D01*
X130095392Y-120598390D01*
X130220504Y-120788798D01*
X130397738Y-121036077D01*
X130425119Y-121072856D01*
X130761866Y-121630408D01*
X130938308Y-122184062D01*
X130951062Y-122722909D01*
X130946686Y-122753627D01*
X130846480Y-123375281D01*
X130754809Y-123853001D01*
X130665182Y-124211518D01*
X130571108Y-124475565D01*
X130466097Y-124669871D01*
X130430799Y-124719167D01*
X130107051Y-125049398D01*
X129751490Y-125218115D01*
X129341439Y-125232890D01*
X129069313Y-125173794D01*
X128697335Y-124986918D01*
X128358639Y-124671769D01*
X128092818Y-124269288D01*
X128010573Y-124079000D01*
X127829845Y-123465166D01*
X127716442Y-122822287D01*
X127676723Y-122206005D01*
X127717048Y-121671964D01*
X127728531Y-121611339D01*
X127905031Y-120926359D01*
X128120028Y-120396118D01*
X128371552Y-120023713D01*
X128657634Y-119812241D01*
X128905644Y-119761000D01*
X129112323Y-119806020D01*
G36*
X126188723Y-119891667D02*
G01*
X126559443Y-120057635D01*
X126826600Y-120336688D01*
X126974714Y-120719719D01*
X127000000Y-120995415D01*
X127000000Y-121444995D01*
X126216834Y-122284590D01*
X125876633Y-122668284D01*
X125537094Y-123083901D01*
X125238630Y-123480115D01*
X125029771Y-123792093D01*
X124834872Y-124110897D01*
X124659103Y-124392233D01*
X124530509Y-124591440D01*
X124497586Y-124639492D01*
X124369298Y-124818984D01*
X125557522Y-124880204D01*
X125988930Y-124907453D01*
X126357361Y-124940222D01*
X126630958Y-124974954D01*
X126777865Y-125008091D01*
X126793203Y-125018212D01*
X126791427Y-125094219D01*
X126772164Y-125099687D01*
X126666795Y-125103071D01*
X126424791Y-125109131D01*
X126078814Y-125117096D01*
X125661526Y-125126197D01*
X125518334Y-125129222D01*
X125078310Y-125142232D01*
X124692550Y-125160701D01*
X124395989Y-125182437D01*
X124223560Y-125205250D01*
X124201578Y-125211835D01*
X124057453Y-125232100D01*
X124011078Y-125210522D01*
X123956361Y-125089090D01*
X123995679Y-124906643D01*
X124137189Y-124638907D01*
X124274061Y-124427938D01*
X124491640Y-124091724D01*
X124730422Y-123700736D01*
X124903541Y-123401667D01*
X125111951Y-123073036D01*
X125388501Y-122695838D01*
X125680857Y-122340499D01*
X125745647Y-122268380D01*
X126056581Y-121922143D01*
X126267017Y-121663477D01*
X126396142Y-121460166D01*
X126463143Y-121279992D01*
X126487206Y-121090737D01*
X126489000Y-121020200D01*
X126431526Y-120718729D01*
X126269274Y-120536496D01*
X126027971Y-120484840D01*
X125733345Y-120575101D01*
X125626017Y-120639847D01*
X125252216Y-120854145D01*
X124907013Y-120980547D01*
X124615938Y-121017104D01*
X124404520Y-120961864D01*
X124298290Y-120812879D01*
X124290667Y-120741825D01*
X124363485Y-120537737D01*
X124553889Y-120314618D01*
X124819802Y-120109844D01*
X125119146Y-119960790D01*
X125198519Y-119935424D01*
X125729921Y-119847894D01*
X126188723Y-119891667D01*
G37*
X126188723Y-119891667D02*
X126559443Y-120057635D01*
X126826600Y-120336688D01*
X126974714Y-120719719D01*
X127000000Y-120995415D01*
X127000000Y-121444995D01*
X126216834Y-122284590D01*
X125876633Y-122668284D01*
X125537094Y-123083901D01*
X125238630Y-123480115D01*
X125029771Y-123792093D01*
X124834872Y-124110897D01*
X124659103Y-124392233D01*
X124530509Y-124591440D01*
X124497586Y-124639492D01*
X124369298Y-124818984D01*
X125557522Y-124880204D01*
X125988930Y-124907453D01*
X126357361Y-124940222D01*
X126630958Y-124974954D01*
X126777865Y-125008091D01*
X126793203Y-125018212D01*
X126791427Y-125094219D01*
X126772164Y-125099687D01*
X126666795Y-125103071D01*
X126424791Y-125109131D01*
X126078814Y-125117096D01*
X125661526Y-125126197D01*
X125518334Y-125129222D01*
X125078310Y-125142232D01*
X124692550Y-125160701D01*
X124395989Y-125182437D01*
X124223560Y-125205250D01*
X124201578Y-125211835D01*
X124057453Y-125232100D01*
X124011078Y-125210522D01*
X123956361Y-125089090D01*
X123995679Y-124906643D01*
X124137189Y-124638907D01*
X124274061Y-124427938D01*
X124491640Y-124091724D01*
X124730422Y-123700736D01*
X124903541Y-123401667D01*
X125111951Y-123073036D01*
X125388501Y-122695838D01*
X125680857Y-122340499D01*
X125745647Y-122268380D01*
X126056581Y-121922143D01*
X126267017Y-121663477D01*
X126396142Y-121460166D01*
X126463143Y-121279992D01*
X126487206Y-121090737D01*
X126489000Y-121020200D01*
X126431526Y-120718729D01*
X126269274Y-120536496D01*
X126027971Y-120484840D01*
X125733345Y-120575101D01*
X125626017Y-120639847D01*
X125252216Y-120854145D01*
X124907013Y-120980547D01*
X124615938Y-121017104D01*
X124404520Y-120961864D01*
X124298290Y-120812879D01*
X124290667Y-120741825D01*
X124363485Y-120537737D01*
X124553889Y-120314618D01*
X124819802Y-120109844D01*
X125119146Y-119960790D01*
X125198519Y-119935424D01*
X125729921Y-119847894D01*
X126188723Y-119891667D01*
D11*
X154940000Y-80010000D02*
X137160000Y-80010000D01*
X137160000Y-80010000D02*
X137160000Y-110490000D01*
X137160000Y-110490000D02*
X154940000Y-110490000D01*
X154940000Y-110490000D02*
X154940000Y-80010000D01*
X139700000Y-80010000D02*
X139700000Y-82550000D01*
X139700000Y-82550000D02*
X137160000Y-82550000D01*
X260620366Y-86793899D02*
X262329489Y-86303816D01*
X271119266Y-83783388D02*
X272828390Y-83293305D01*
X272828390Y-83293305D02*
X273318473Y-85002428D01*
X275838901Y-93792205D02*
X276328984Y-95501329D01*
X276328984Y-95501329D02*
X274619861Y-95991412D01*
X265830084Y-98511840D02*
X264120960Y-99001923D01*
X264120960Y-99001923D02*
X263630877Y-97292800D01*
X261110449Y-88503023D02*
X260620366Y-86793899D01*
X255369475Y-68481864D02*
X257078598Y-67991781D01*
X265868375Y-65471353D02*
X267577499Y-64981270D01*
X267577499Y-64981270D02*
X268067582Y-66690393D01*
X270588010Y-75480170D02*
X271078093Y-77189294D01*
X271078093Y-77189294D02*
X269368970Y-77679377D01*
X260579193Y-80199805D02*
X258870069Y-80689888D01*
X258870069Y-80689888D02*
X258379986Y-78980765D01*
X255859558Y-70190988D02*
X255369475Y-68481864D01*
X250118583Y-50169828D02*
X251827706Y-49679745D01*
X260617483Y-47159317D02*
X262326607Y-46669234D01*
X262326607Y-46669234D02*
X262816690Y-48378357D01*
X265337118Y-57168134D02*
X265827201Y-58877258D01*
X265827201Y-58877258D02*
X264118078Y-59367341D01*
X255328301Y-61887769D02*
X253619177Y-62377852D01*
X253619177Y-62377852D02*
X253129094Y-60668729D01*
X250608666Y-51878952D02*
X250118583Y-50169828D01*
X226621743Y-106451702D02*
X228330866Y-105961619D01*
X237120643Y-103441191D02*
X238829767Y-102951108D01*
X238829767Y-102951108D02*
X239319850Y-104660231D01*
X241840278Y-113450008D02*
X242330361Y-115159132D01*
X242330361Y-115159132D02*
X240621238Y-115649215D01*
X231831461Y-118169643D02*
X230122337Y-118659726D01*
X230122337Y-118659726D02*
X229632254Y-116950603D01*
X227111826Y-108160826D02*
X226621743Y-106451702D01*
X240995609Y-87466783D02*
X242704732Y-86976700D01*
X251494509Y-84456272D02*
X253203633Y-83966189D01*
X253203633Y-83966189D02*
X253693716Y-85675312D01*
X256214144Y-94465089D02*
X256704227Y-96174213D01*
X256704227Y-96174213D02*
X254995104Y-96664296D01*
X246205327Y-99184724D02*
X244496203Y-99674807D01*
X244496203Y-99674807D02*
X244006120Y-97965684D01*
X241485692Y-89175907D02*
X240995609Y-87466783D01*
X235744718Y-69154748D02*
X237453841Y-68664665D01*
X246243618Y-66144237D02*
X247952742Y-65654154D01*
X247952742Y-65654154D02*
X248442825Y-67363277D01*
X250963253Y-76153054D02*
X251453336Y-77862178D01*
X251453336Y-77862178D02*
X249744213Y-78352261D01*
X240954436Y-80872689D02*
X239245312Y-81362772D01*
X239245312Y-81362772D02*
X238755229Y-79653649D01*
X236234801Y-70863872D02*
X235744718Y-69154748D01*
X230493826Y-50842712D02*
X232202949Y-50352629D01*
X240992726Y-47832201D02*
X242701850Y-47342118D01*
X242701850Y-47342118D02*
X243191933Y-49051241D01*
X245712361Y-57841018D02*
X246202444Y-59550142D01*
X246202444Y-59550142D02*
X244493321Y-60040225D01*
X235703544Y-62560653D02*
X233994420Y-63050736D01*
X233994420Y-63050736D02*
X233504337Y-61341613D01*
X230983909Y-52551836D02*
X230493826Y-50842712D01*
X206996986Y-107124586D02*
X208706109Y-106634503D01*
X217495886Y-104114075D02*
X219205010Y-103623992D01*
X219205010Y-103623992D02*
X219695093Y-105333115D01*
X222215521Y-114122892D02*
X222705604Y-115832016D01*
X222705604Y-115832016D02*
X220996481Y-116322099D01*
X212206704Y-118842527D02*
X210497580Y-119332610D01*
X210497580Y-119332610D02*
X210007497Y-117623487D01*
X207487069Y-108833710D02*
X206996986Y-107124586D01*
X221370852Y-88139667D02*
X223079975Y-87649584D01*
X231869752Y-85129156D02*
X233578876Y-84639073D01*
X233578876Y-84639073D02*
X234068959Y-86348196D01*
X236589387Y-95137973D02*
X237079470Y-96847097D01*
X237079470Y-96847097D02*
X235370347Y-97337180D01*
X226580570Y-99857608D02*
X224871446Y-100347691D01*
X224871446Y-100347691D02*
X224381363Y-98638568D01*
X221860935Y-89848791D02*
X221370852Y-88139667D01*
X216119961Y-69827632D02*
X217829084Y-69337549D01*
X226618861Y-66817121D02*
X228327985Y-66327038D01*
X228327985Y-66327038D02*
X228818068Y-68036161D01*
X231338496Y-76825938D02*
X231828579Y-78535062D01*
X231828579Y-78535062D02*
X230119456Y-79025145D01*
X221329679Y-81545573D02*
X219620555Y-82035656D01*
X219620555Y-82035656D02*
X219130472Y-80326533D01*
X216610044Y-71536756D02*
X216119961Y-69827632D01*
X210869069Y-51515596D02*
X212578192Y-51025513D01*
X221367969Y-48505085D02*
X223077093Y-48015002D01*
X223077093Y-48015002D02*
X223567176Y-49724125D01*
X226087604Y-58513902D02*
X226577687Y-60223026D01*
X226577687Y-60223026D02*
X224868564Y-60713109D01*
X216078787Y-63233537D02*
X214369663Y-63723620D01*
X214369663Y-63723620D02*
X213879580Y-62014497D01*
X211359152Y-53224720D02*
X210869069Y-51515596D01*
X189997675Y-116953488D02*
X191706798Y-116463405D01*
X200496575Y-113942977D02*
X202205699Y-113452894D01*
X202205699Y-113452894D02*
X202695782Y-115162017D01*
X205216210Y-123951794D02*
X205706293Y-125660918D01*
X205706293Y-125660918D02*
X203997170Y-126151001D01*
X195207393Y-128671429D02*
X193498269Y-129161512D01*
X193498269Y-129161512D02*
X193008186Y-127452389D01*
X190487758Y-118662612D02*
X189997675Y-116953488D01*
X201746095Y-88812551D02*
X203455218Y-88322468D01*
X212244995Y-85802040D02*
X213954119Y-85311957D01*
X213954119Y-85311957D02*
X214444202Y-87021080D01*
X216964630Y-95810857D02*
X217454713Y-97519981D01*
X217454713Y-97519981D02*
X215745590Y-98010064D01*
X206955813Y-100530492D02*
X205246689Y-101020575D01*
X205246689Y-101020575D02*
X204756606Y-99311452D01*
X202236178Y-90521675D02*
X201746095Y-88812551D01*
X196495204Y-70500516D02*
X198204327Y-70010433D01*
X206994104Y-67490005D02*
X208703228Y-66999922D01*
X208703228Y-66999922D02*
X209193311Y-68709045D01*
X211713739Y-77498822D02*
X212203822Y-79207946D01*
X212203822Y-79207946D02*
X210494699Y-79698029D01*
X201704922Y-82218457D02*
X199995798Y-82708540D01*
X199995798Y-82708540D02*
X199505715Y-80999417D01*
X196985287Y-72209640D02*
X196495204Y-70500516D01*
X191244313Y-52188481D02*
X192953436Y-51698398D01*
X201743213Y-49177970D02*
X203452337Y-48687887D01*
X203452337Y-48687887D02*
X203942420Y-50397010D01*
X206462848Y-59186787D02*
X206952931Y-60895911D01*
X206952931Y-60895911D02*
X205243808Y-61385994D01*
X196454031Y-63906422D02*
X194744907Y-64396505D01*
X194744907Y-64396505D02*
X194254824Y-62687382D01*
X191734396Y-53897605D02*
X191244313Y-52188481D01*
X172998364Y-126782390D02*
X174707487Y-126292307D01*
X183497264Y-123771879D02*
X185206388Y-123281796D01*
X185206388Y-123281796D02*
X185696471Y-124990919D01*
X188216899Y-133780696D02*
X188706982Y-135489820D01*
X188706982Y-135489820D02*
X186997859Y-135979903D01*
X178208082Y-138500331D02*
X176498958Y-138990414D01*
X176498958Y-138990414D02*
X176008875Y-137281291D01*
X173488447Y-128491514D02*
X172998364Y-126782390D01*
X184746784Y-98641453D02*
X186455907Y-98151370D01*
X195245684Y-95630942D02*
X196954808Y-95140859D01*
X196954808Y-95140859D02*
X197444891Y-96849982D01*
X199965319Y-105639759D02*
X200455402Y-107348883D01*
X200455402Y-107348883D02*
X198746279Y-107838966D01*
X189956502Y-110359394D02*
X188247378Y-110849477D01*
X188247378Y-110849477D02*
X187757295Y-109140354D01*
X185236867Y-100350577D02*
X184746784Y-98641453D01*
X179495893Y-80329418D02*
X181205016Y-79839335D01*
X189994793Y-77318907D02*
X191703917Y-76828824D01*
X191703917Y-76828824D02*
X192194000Y-78537947D01*
X194714428Y-87327724D02*
X195204511Y-89036848D01*
X195204511Y-89036848D02*
X193495388Y-89526931D01*
X184705611Y-92047359D02*
X182996487Y-92537442D01*
X182996487Y-92537442D02*
X182506404Y-90828319D01*
X179985976Y-82038542D02*
X179495893Y-80329418D01*
X174245002Y-62017383D02*
X175954125Y-61527300D01*
X184743902Y-59006872D02*
X186453026Y-58516789D01*
X186453026Y-58516789D02*
X186943109Y-60225912D01*
X189463537Y-69015689D02*
X189953620Y-70724813D01*
X189953620Y-70724813D02*
X188244497Y-71214896D01*
X179454720Y-73735324D02*
X177745596Y-74225407D01*
X177745596Y-74225407D02*
X177255513Y-72516284D01*
X174735085Y-63726507D02*
X174245002Y-62017383D01*
X154686328Y-132033281D02*
X156395451Y-131543198D01*
X165185228Y-129022770D02*
X166894352Y-128532687D01*
X166894352Y-128532687D02*
X167384435Y-130241810D01*
X169904863Y-139031587D02*
X170394946Y-140740711D01*
X170394946Y-140740711D02*
X168685823Y-141230794D01*
X159896046Y-143751222D02*
X158186922Y-144241305D01*
X158186922Y-144241305D02*
X157696839Y-142532182D01*
X155176411Y-133742405D02*
X154686328Y-132033281D01*
X167747473Y-108470355D02*
X169456596Y-107980272D01*
X178246373Y-105459844D02*
X179955497Y-104969761D01*
X179955497Y-104969761D02*
X180445580Y-106678884D01*
X182966008Y-115468661D02*
X183456091Y-117177785D01*
X183456091Y-117177785D02*
X181746968Y-117667868D01*
X172957191Y-120188296D02*
X171248067Y-120678379D01*
X171248067Y-120678379D02*
X170757984Y-118969256D01*
X168237556Y-110179479D02*
X167747473Y-108470355D01*
X162496582Y-90158320D02*
X164205705Y-89668237D01*
X172995482Y-87147809D02*
X174704606Y-86657726D01*
X174704606Y-86657726D02*
X175194689Y-88366849D01*
X177715117Y-97156626D02*
X178205200Y-98865750D01*
X178205200Y-98865750D02*
X176496077Y-99355833D01*
X167706300Y-101876261D02*
X165997176Y-102366344D01*
X165997176Y-102366344D02*
X165507093Y-100657221D01*
X162986665Y-91867444D02*
X162496582Y-90158320D01*
X157245691Y-71846285D02*
X158954814Y-71356202D01*
X167744591Y-68835774D02*
X169453715Y-68345691D01*
X169453715Y-68345691D02*
X169943798Y-70054814D01*
X172464226Y-78844591D02*
X172954309Y-80553715D01*
X172954309Y-80553715D02*
X171245186Y-81043798D01*
X162455409Y-83564226D02*
X160746285Y-84054309D01*
X160746285Y-84054309D02*
X160256202Y-82345186D01*
X157735774Y-73555409D02*
X157245691Y-71846285D01*
X125205644Y-128532687D02*
X126914768Y-129022770D01*
X135704545Y-131543198D02*
X137413668Y-132033281D01*
X137413668Y-132033281D02*
X136923585Y-133742405D01*
X134403157Y-142532182D02*
X133913074Y-144241305D01*
X133913074Y-144241305D02*
X132203950Y-143751222D01*
X123414173Y-141230794D02*
X121705050Y-140740711D01*
X121705050Y-140740711D02*
X122195133Y-139031587D01*
X124715561Y-130241810D02*
X125205644Y-128532687D01*
X112144501Y-104969761D02*
X113853625Y-105459844D01*
X122643402Y-107980272D02*
X124352525Y-108470355D01*
X124352525Y-108470355D02*
X123862442Y-110179479D01*
X121342014Y-118969256D02*
X120851931Y-120678379D01*
X120851931Y-120678379D02*
X119142807Y-120188296D01*
X110353030Y-117667868D02*
X108643907Y-117177785D01*
X108643907Y-117177785D02*
X109133990Y-115468661D01*
X111654418Y-106678884D02*
X112144501Y-104969761D01*
X117395393Y-86657726D02*
X119104517Y-87147809D01*
X127894294Y-89668237D02*
X129603417Y-90158320D01*
X129603417Y-90158320D02*
X129113334Y-91867444D01*
X126592906Y-100657221D02*
X126102823Y-102366344D01*
X126102823Y-102366344D02*
X124393699Y-101876261D01*
X115603922Y-99355833D02*
X113894799Y-98865750D01*
X113894799Y-98865750D02*
X114384882Y-97156626D01*
X116905310Y-88366849D02*
X117395393Y-86657726D01*
X122646285Y-68345691D02*
X124355409Y-68835774D01*
X133145186Y-71356202D02*
X134854309Y-71846285D01*
X134854309Y-71846285D02*
X134364226Y-73555409D01*
X131843798Y-82345186D02*
X131353715Y-84054309D01*
X131353715Y-84054309D02*
X129644591Y-83564226D01*
X120854814Y-81043798D02*
X119145691Y-80553715D01*
X119145691Y-80553715D02*
X119635774Y-78844591D01*
X122156202Y-70054814D02*
X122646285Y-68345691D01*
X106893609Y-123281796D02*
X108602733Y-123771879D01*
X117392510Y-126292307D02*
X119101633Y-126782390D01*
X119101633Y-126782390D02*
X118611550Y-128491514D01*
X116091122Y-137281291D02*
X115601039Y-138990414D01*
X115601039Y-138990414D02*
X113891915Y-138500331D01*
X105102138Y-135979903D02*
X103393015Y-135489820D01*
X103393015Y-135489820D02*
X103883098Y-133780696D01*
X106403526Y-124990919D02*
X106893609Y-123281796D01*
X95145187Y-95140859D02*
X96854311Y-95630942D01*
X105644088Y-98151370D02*
X107353211Y-98641453D01*
X107353211Y-98641453D02*
X106863128Y-100350577D01*
X104342700Y-109140354D02*
X103852617Y-110849477D01*
X103852617Y-110849477D02*
X102143493Y-110359394D01*
X93353716Y-107838966D02*
X91644593Y-107348883D01*
X91644593Y-107348883D02*
X92134676Y-105639759D01*
X94655104Y-96849982D02*
X95145187Y-95140859D01*
X100396079Y-76828824D02*
X102105203Y-77318907D01*
X110894980Y-79839335D02*
X112604103Y-80329418D01*
X112604103Y-80329418D02*
X112114020Y-82038542D01*
X109593592Y-90828319D02*
X109103509Y-92537442D01*
X109103509Y-92537442D02*
X107394385Y-92047359D01*
X98604608Y-89526931D02*
X96895485Y-89036848D01*
X96895485Y-89036848D02*
X97385568Y-87327724D01*
X99905996Y-78537947D02*
X100396079Y-76828824D01*
X105646971Y-58516789D02*
X107356095Y-59006872D01*
X116145872Y-61527300D02*
X117854995Y-62017383D01*
X117854995Y-62017383D02*
X117364912Y-63726507D01*
X114844484Y-72516284D02*
X114354401Y-74225407D01*
X114354401Y-74225407D02*
X112645277Y-73735324D01*
X103855500Y-71214896D02*
X102146377Y-70724813D01*
X102146377Y-70724813D02*
X102636460Y-69015689D01*
X105156888Y-60225912D02*
X105646971Y-58516789D01*
X89894295Y-113452894D02*
X91603419Y-113942977D01*
X100393196Y-116463405D02*
X102102319Y-116953488D01*
X102102319Y-116953488D02*
X101612236Y-118662612D01*
X99091808Y-127452389D02*
X98601725Y-129161512D01*
X98601725Y-129161512D02*
X96892601Y-128671429D01*
X88102824Y-126151001D02*
X86393701Y-125660918D01*
X86393701Y-125660918D02*
X86883784Y-123951794D01*
X89404212Y-115162017D02*
X89894295Y-113452894D01*
X78145873Y-85311957D02*
X79854997Y-85802040D01*
X88644774Y-88322468D02*
X90353897Y-88812551D01*
X90353897Y-88812551D02*
X89863814Y-90521675D01*
X87343386Y-99311452D02*
X86853303Y-101020575D01*
X86853303Y-101020575D02*
X85144179Y-100530492D01*
X76354402Y-98010064D02*
X74645279Y-97519981D01*
X74645279Y-97519981D02*
X75135362Y-95810857D01*
X77655790Y-87021080D02*
X78145873Y-85311957D01*
X83396765Y-66999922D02*
X85105889Y-67490005D01*
X93895666Y-70010433D02*
X95604789Y-70500516D01*
X95604789Y-70500516D02*
X95114706Y-72209640D01*
X92594278Y-80999417D02*
X92104195Y-82708540D01*
X92104195Y-82708540D02*
X90395071Y-82218457D01*
X81605294Y-79698029D02*
X79896171Y-79207946D01*
X79896171Y-79207946D02*
X80386254Y-77498822D01*
X82906682Y-68709045D02*
X83396765Y-66999922D01*
X88647657Y-48687887D02*
X90356781Y-49177970D01*
X99146558Y-51698398D02*
X100855681Y-52188481D01*
X100855681Y-52188481D02*
X100365598Y-53897605D01*
X97845170Y-62687382D02*
X97355087Y-64396505D01*
X97355087Y-64396505D02*
X95645963Y-63906422D01*
X86856186Y-61385994D02*
X85147063Y-60895911D01*
X85147063Y-60895911D02*
X85637146Y-59186787D01*
X88157574Y-50397010D02*
X88647657Y-48687887D01*
X72894981Y-103623992D02*
X74604105Y-104114075D01*
X83393882Y-106634503D02*
X85103005Y-107124586D01*
X85103005Y-107124586D02*
X84612922Y-108833710D01*
X82092494Y-117623487D02*
X81602411Y-119332610D01*
X81602411Y-119332610D02*
X79893287Y-118842527D01*
X71103510Y-116322099D02*
X69394387Y-115832016D01*
X69394387Y-115832016D02*
X69884470Y-114122892D01*
X72404898Y-105333115D02*
X72894981Y-103623992D01*
X58521114Y-84639074D02*
X60230238Y-85129157D01*
X69020015Y-87649585D02*
X70729138Y-88139668D01*
X70729138Y-88139668D02*
X70239055Y-89848792D01*
X67718627Y-98638569D02*
X67228544Y-100347692D01*
X67228544Y-100347692D02*
X65519420Y-99857609D01*
X56729643Y-97337181D02*
X55020520Y-96847098D01*
X55020520Y-96847098D02*
X55510603Y-95137974D01*
X58031031Y-86348197D02*
X58521114Y-84639074D01*
X63772006Y-66327039D02*
X65481130Y-66817122D01*
X74270907Y-69337550D02*
X75980030Y-69827633D01*
X75980030Y-69827633D02*
X75489947Y-71536757D01*
X72969519Y-80326534D02*
X72479436Y-82035657D01*
X72479436Y-82035657D02*
X70770312Y-81545574D01*
X61980535Y-79025146D02*
X60271412Y-78535063D01*
X60271412Y-78535063D02*
X60761495Y-76825939D01*
X63281923Y-68036162D02*
X63772006Y-66327039D01*
X69022897Y-48015003D02*
X70732021Y-48505086D01*
X79521798Y-51025514D02*
X81230921Y-51515597D01*
X81230921Y-51515597D02*
X80740838Y-53224721D01*
X78220410Y-62014498D02*
X77730327Y-63723621D01*
X77730327Y-63723621D02*
X76021203Y-63233538D01*
X67231426Y-60713110D02*
X65522303Y-60223027D01*
X65522303Y-60223027D02*
X66012386Y-58513903D01*
X68532814Y-49724126D02*
X69022897Y-48015003D01*
X53270222Y-102951109D02*
X54979346Y-103441192D01*
X63769123Y-105961620D02*
X65478246Y-106451703D01*
X65478246Y-106451703D02*
X64988163Y-108160827D01*
X62467735Y-116950604D02*
X61977652Y-118659727D01*
X61977652Y-118659727D02*
X60268528Y-118169644D01*
X51478751Y-115649216D02*
X49769628Y-115159133D01*
X49769628Y-115159133D02*
X50259711Y-113450009D01*
X52780139Y-104660232D02*
X53270222Y-102951109D01*
X38896354Y-83966190D02*
X40605478Y-84456273D01*
X49395255Y-86976701D02*
X51104378Y-87466784D01*
X51104378Y-87466784D02*
X50614295Y-89175908D01*
X48093867Y-97965685D02*
X47603784Y-99674808D01*
X47603784Y-99674808D02*
X45894660Y-99184725D01*
X37104883Y-96664297D02*
X35395760Y-96174214D01*
X35395760Y-96174214D02*
X35885843Y-94465090D01*
X38406271Y-85675313D02*
X38896354Y-83966190D01*
X44147246Y-65654155D02*
X45856370Y-66144238D01*
X54646147Y-68664666D02*
X56355270Y-69154749D01*
X56355270Y-69154749D02*
X55865187Y-70863873D01*
X53344759Y-79653650D02*
X52854676Y-81362773D01*
X52854676Y-81362773D02*
X51145552Y-80872690D01*
X42355775Y-78352262D02*
X40646652Y-77862179D01*
X40646652Y-77862179D02*
X41136735Y-76153055D01*
X43657163Y-67363278D02*
X44147246Y-65654155D01*
X49398137Y-47342119D02*
X51107261Y-47832202D01*
X59897038Y-50352630D02*
X61606161Y-50842713D01*
X61606161Y-50842713D02*
X61116078Y-52551837D01*
X58595650Y-61341614D02*
X58105567Y-63050737D01*
X58105567Y-63050737D02*
X56396443Y-62560654D01*
X47606666Y-60040226D02*
X45897543Y-59550143D01*
X45897543Y-59550143D02*
X46387626Y-57841019D01*
X48908054Y-49051242D02*
X49398137Y-47342119D01*
X19271594Y-83293306D02*
X20980718Y-83783389D01*
X29770495Y-86303817D02*
X31479618Y-86793900D01*
X31479618Y-86793900D02*
X30989535Y-88503024D01*
X28469107Y-97292801D02*
X27979024Y-99001924D01*
X27979024Y-99001924D02*
X26269900Y-98511841D01*
X17480123Y-95991413D02*
X15771000Y-95501330D01*
X15771000Y-95501330D02*
X16261083Y-93792206D01*
X18781511Y-85002429D02*
X19271594Y-83293306D01*
X24522486Y-64981271D02*
X26231610Y-65471354D01*
X35021387Y-67991782D02*
X36730510Y-68481865D01*
X36730510Y-68481865D02*
X36240427Y-70190989D01*
X33719999Y-78980766D02*
X33229916Y-80689889D01*
X33229916Y-80689889D02*
X31520792Y-80199806D01*
X22731015Y-77679378D02*
X21021892Y-77189295D01*
X21021892Y-77189295D02*
X21511975Y-75480171D01*
X24032403Y-66690394D02*
X24522486Y-64981271D01*
X29773377Y-46669235D02*
X31482501Y-47159318D01*
X40272278Y-49679746D02*
X41981401Y-50169829D01*
X41981401Y-50169829D02*
X41491318Y-51878953D01*
X38970890Y-60668730D02*
X38480807Y-62377853D01*
X38480807Y-62377853D02*
X36771683Y-61887770D01*
X27981906Y-59367342D02*
X26272783Y-58877259D01*
X26272783Y-58877259D02*
X26762866Y-57168135D01*
X29283294Y-48378358D02*
X29773377Y-46669235D01*
D12*
X261740032Y-83588697D02*
X262324384Y-85626572D01*
X262324384Y-85626572D02*
X266284782Y-84490946D01*
X266284782Y-84490946D02*
X265700431Y-82453071D01*
X265700431Y-82453071D02*
X261740032Y-83588697D01*
X261292036Y-84819875D02*
X262032208Y-84607635D01*
X266732778Y-83259768D02*
X265992606Y-83472009D01*
X262374465Y-83406777D02*
X262958816Y-85444651D01*
X256660032Y-65173697D02*
X257244384Y-67211572D01*
X257244384Y-67211572D02*
X261204782Y-66075946D01*
X261204782Y-66075946D02*
X260620431Y-64038071D01*
X260620431Y-64038071D02*
X256660032Y-65173697D01*
X256212036Y-66404875D02*
X256952208Y-66192635D01*
X261652778Y-64844768D02*
X260912606Y-65057009D01*
X257294465Y-64991777D02*
X257878816Y-67029651D01*
X250945032Y-46758697D02*
X251529384Y-48796572D01*
X251529384Y-48796572D02*
X255489782Y-47660946D01*
X255489782Y-47660946D02*
X254905431Y-45623071D01*
X254905431Y-45623071D02*
X250945032Y-46758697D01*
X250497036Y-47989875D02*
X251237208Y-47777635D01*
X255937778Y-46429768D02*
X255197606Y-46642009D01*
X251579465Y-46576777D02*
X252163816Y-48614651D01*
X227450032Y-103273697D02*
X228034384Y-105311572D01*
X228034384Y-105311572D02*
X231994782Y-104175946D01*
X231994782Y-104175946D02*
X231410431Y-102138071D01*
X231410431Y-102138071D02*
X227450032Y-103273697D01*
X227002036Y-104504875D02*
X227742208Y-104292635D01*
X232442778Y-102944768D02*
X231702606Y-103157009D01*
X228084465Y-103091777D02*
X228668816Y-105129651D01*
X242055032Y-83588697D02*
X242639384Y-85626572D01*
X242639384Y-85626572D02*
X246599782Y-84490946D01*
X246599782Y-84490946D02*
X246015431Y-82453071D01*
X246015431Y-82453071D02*
X242055032Y-83588697D01*
X241607036Y-84819875D02*
X242347208Y-84607635D01*
X247047778Y-83259768D02*
X246307606Y-83472009D01*
X242689465Y-83406777D02*
X243273816Y-85444651D01*
X236975032Y-65808697D02*
X237559384Y-67846572D01*
X237559384Y-67846572D02*
X241519782Y-66710946D01*
X241519782Y-66710946D02*
X240935431Y-64673071D01*
X240935431Y-64673071D02*
X236975032Y-65808697D01*
X236527036Y-67039875D02*
X237267208Y-66827635D01*
X241967778Y-65479768D02*
X241227606Y-65692009D01*
X237609465Y-65626777D02*
X238193816Y-67664651D01*
X231260032Y-47393697D02*
X231844384Y-49431572D01*
X231844384Y-49431572D02*
X235804782Y-48295946D01*
X235804782Y-48295946D02*
X235220431Y-46258071D01*
X235220431Y-46258071D02*
X231260032Y-47393697D01*
X230812036Y-48624875D02*
X231552208Y-48412635D01*
X236252778Y-47064768D02*
X235512606Y-47277009D01*
X231894465Y-47211777D02*
X232478816Y-49249651D01*
X208400032Y-103273697D02*
X208984384Y-105311572D01*
X208984384Y-105311572D02*
X212944782Y-104175946D01*
X212944782Y-104175946D02*
X212360431Y-102138071D01*
X212360431Y-102138071D02*
X208400032Y-103273697D01*
X207952036Y-104504875D02*
X208692208Y-104292635D01*
X213392778Y-102944768D02*
X212652606Y-103157009D01*
X209034465Y-103091777D02*
X209618816Y-105129651D01*
X222370032Y-84223697D02*
X222954384Y-86261572D01*
X222954384Y-86261572D02*
X226914782Y-85125946D01*
X226914782Y-85125946D02*
X226330431Y-83088071D01*
X226330431Y-83088071D02*
X222370032Y-84223697D01*
X221922036Y-85454875D02*
X222662208Y-85242635D01*
X227362778Y-83894768D02*
X226622606Y-84107009D01*
X223004465Y-84041777D02*
X223588816Y-86079651D01*
X217290032Y-66443697D02*
X217874384Y-68481572D01*
X217874384Y-68481572D02*
X221834782Y-67345946D01*
X221834782Y-67345946D02*
X221250431Y-65308071D01*
X221250431Y-65308071D02*
X217290032Y-66443697D01*
X216842036Y-67674875D02*
X217582208Y-67462635D01*
X222282778Y-66114768D02*
X221542606Y-66327009D01*
X217924465Y-66261777D02*
X218508816Y-68299651D01*
X212210032Y-48028697D02*
X212794384Y-50066572D01*
X212794384Y-50066572D02*
X216754782Y-48930946D01*
X216754782Y-48930946D02*
X216170431Y-46893071D01*
X216170431Y-46893071D02*
X212210032Y-48028697D01*
X211762036Y-49259875D02*
X212502208Y-49047635D01*
X217202778Y-47699768D02*
X216462606Y-47912009D01*
X212844465Y-47846777D02*
X213428816Y-49884651D01*
X191255032Y-113433697D02*
X191839384Y-115471572D01*
X191839384Y-115471572D02*
X195799782Y-114335946D01*
X195799782Y-114335946D02*
X195215431Y-112298071D01*
X195215431Y-112298071D02*
X191255032Y-113433697D01*
X190807036Y-114664875D02*
X191547208Y-114452635D01*
X196247778Y-113104768D02*
X195507606Y-113317009D01*
X191889465Y-113251777D02*
X192473816Y-115289651D01*
X203320032Y-84858697D02*
X203904384Y-86896572D01*
X203904384Y-86896572D02*
X207864782Y-85760946D01*
X207864782Y-85760946D02*
X207280431Y-83723071D01*
X207280431Y-83723071D02*
X203320032Y-84858697D01*
X202872036Y-86089875D02*
X203612208Y-85877635D01*
X208312778Y-84529768D02*
X207572606Y-84742009D01*
X203954465Y-84676777D02*
X204538816Y-86714651D01*
X197605032Y-67078697D02*
X198189384Y-69116572D01*
X198189384Y-69116572D02*
X202149782Y-67980946D01*
X202149782Y-67980946D02*
X201565431Y-65943071D01*
X201565431Y-65943071D02*
X197605032Y-67078697D01*
X197157036Y-68309875D02*
X197897208Y-68097635D01*
X202597778Y-66749768D02*
X201857606Y-66962009D01*
X198239465Y-66896777D02*
X198823816Y-68934651D01*
X192525032Y-48663697D02*
X193109384Y-50701572D01*
X193109384Y-50701572D02*
X197069782Y-49565946D01*
X197069782Y-49565946D02*
X196485431Y-47528071D01*
X196485431Y-47528071D02*
X192525032Y-48663697D01*
X192077036Y-49894875D02*
X192817208Y-49682635D01*
X197517778Y-48334768D02*
X196777606Y-48547009D01*
X193159465Y-48481777D02*
X193743816Y-50519651D01*
X174110032Y-122958697D02*
X174694384Y-124996572D01*
X174694384Y-124996572D02*
X178654782Y-123860946D01*
X178654782Y-123860946D02*
X178070431Y-121823071D01*
X178070431Y-121823071D02*
X174110032Y-122958697D01*
X173662036Y-124189875D02*
X174402208Y-123977635D01*
X179102778Y-122629768D02*
X178362606Y-122842009D01*
X174744465Y-122776777D02*
X175328816Y-124814651D01*
X186175032Y-95018697D02*
X186759384Y-97056572D01*
X186759384Y-97056572D02*
X190719782Y-95920946D01*
X190719782Y-95920946D02*
X190135431Y-93883071D01*
X190135431Y-93883071D02*
X186175032Y-95018697D01*
X185727036Y-96249875D02*
X186467208Y-96037635D01*
X191167778Y-94689768D02*
X190427606Y-94902009D01*
X186809465Y-94836777D02*
X187393816Y-96874651D01*
X180460032Y-76603697D02*
X181044384Y-78641572D01*
X181044384Y-78641572D02*
X185004782Y-77505946D01*
X185004782Y-77505946D02*
X184420431Y-75468071D01*
X184420431Y-75468071D02*
X180460032Y-76603697D01*
X180012036Y-77834875D02*
X180752208Y-77622635D01*
X185452778Y-76274768D02*
X184712606Y-76487009D01*
X181094465Y-76421777D02*
X181678816Y-78459651D01*
X175380032Y-58188697D02*
X175964384Y-60226572D01*
X175964384Y-60226572D02*
X179924782Y-59090946D01*
X179924782Y-59090946D02*
X179340431Y-57053071D01*
X179340431Y-57053071D02*
X175380032Y-58188697D01*
X174932036Y-59419875D02*
X175672208Y-59207635D01*
X180372778Y-57859768D02*
X179632606Y-58072009D01*
X176014465Y-58006777D02*
X176598816Y-60044651D01*
X155695032Y-128038697D02*
X156279384Y-130076572D01*
X156279384Y-130076572D02*
X160239782Y-128940946D01*
X160239782Y-128940946D02*
X159655431Y-126903071D01*
X159655431Y-126903071D02*
X155695032Y-128038697D01*
X155247036Y-129269875D02*
X155987208Y-129057635D01*
X160687778Y-127709768D02*
X159947606Y-127922009D01*
X156329465Y-127856777D02*
X156913816Y-129894651D01*
X169030032Y-104543697D02*
X169614384Y-106581572D01*
X169614384Y-106581572D02*
X173574782Y-105445946D01*
X173574782Y-105445946D02*
X172990431Y-103408071D01*
X172990431Y-103408071D02*
X169030032Y-104543697D01*
X168582036Y-105774875D02*
X169322208Y-105562635D01*
X174022778Y-104214768D02*
X173282606Y-104427009D01*
X169664465Y-104361777D02*
X170248816Y-106399651D01*
X163315032Y-86763697D02*
X163899384Y-88801572D01*
X163899384Y-88801572D02*
X167859782Y-87665946D01*
X167859782Y-87665946D02*
X167275431Y-85628071D01*
X167275431Y-85628071D02*
X163315032Y-86763697D01*
X162867036Y-87994875D02*
X163607208Y-87782635D01*
X168307778Y-86434768D02*
X167567606Y-86647009D01*
X163949465Y-86581777D02*
X164533816Y-88619651D01*
X158235032Y-68348697D02*
X158819384Y-70386572D01*
X158819384Y-70386572D02*
X162779782Y-69250946D01*
X162779782Y-69250946D02*
X162195431Y-67213071D01*
X162195431Y-67213071D02*
X158235032Y-68348697D01*
X157787036Y-69579875D02*
X158527208Y-69367635D01*
X163227778Y-68019768D02*
X162487606Y-68232009D01*
X158869465Y-68166777D02*
X159453816Y-70204651D01*
X128777369Y-126237807D02*
X128193017Y-128275682D01*
X128193017Y-128275682D02*
X132153416Y-129411308D01*
X132153416Y-129411308D02*
X132737767Y-127373433D01*
X132737767Y-127373433D02*
X128777369Y-126237807D01*
X127745021Y-127044504D02*
X128485193Y-127256744D01*
X133185763Y-128604611D02*
X132445591Y-128392370D01*
X129411801Y-126419728D02*
X128827450Y-128457602D01*
X115716226Y-102674881D02*
X115131874Y-104712756D01*
X115131874Y-104712756D02*
X119092273Y-105848382D01*
X119092273Y-105848382D02*
X119676624Y-103810507D01*
X119676624Y-103810507D02*
X115716226Y-102674881D01*
X114683878Y-103481578D02*
X115424050Y-103693818D01*
X120124620Y-105041685D02*
X119384448Y-104829444D01*
X116350658Y-102856802D02*
X115766307Y-104894676D01*
X120967118Y-84362846D02*
X120382766Y-86400721D01*
X120382766Y-86400721D02*
X124343165Y-87536347D01*
X124343165Y-87536347D02*
X124927516Y-85498472D01*
X124927516Y-85498472D02*
X120967118Y-84362846D01*
X119934770Y-85169543D02*
X120674942Y-85381783D01*
X125375512Y-86729650D02*
X124635340Y-86517409D01*
X121601550Y-84544767D02*
X121017199Y-86582641D01*
X126218010Y-66050811D02*
X125633658Y-68088686D01*
X125633658Y-68088686D02*
X129594057Y-69224312D01*
X129594057Y-69224312D02*
X130178408Y-67186437D01*
X130178408Y-67186437D02*
X126218010Y-66050811D01*
X125185662Y-66857508D02*
X125925834Y-67069748D01*
X130626404Y-68417615D02*
X129886232Y-68205374D01*
X126852442Y-66232732D02*
X126268091Y-68270606D01*
X110465334Y-120986916D02*
X109880982Y-123024791D01*
X109880982Y-123024791D02*
X113841381Y-124160417D01*
X113841381Y-124160417D02*
X114425732Y-122122542D01*
X114425732Y-122122542D02*
X110465334Y-120986916D01*
X109432986Y-121793613D02*
X110173158Y-122005853D01*
X114873728Y-123353720D02*
X114133556Y-123141479D01*
X111099766Y-121168837D02*
X110515415Y-123206711D01*
X98716912Y-92845979D02*
X98132560Y-94883854D01*
X98132560Y-94883854D02*
X102092959Y-96019480D01*
X102092959Y-96019480D02*
X102677310Y-93981605D01*
X102677310Y-93981605D02*
X98716912Y-92845979D01*
X97684564Y-93652676D02*
X98424736Y-93864916D01*
X103125306Y-95212783D02*
X102385134Y-95000542D01*
X99351344Y-93027900D02*
X98766993Y-95065774D01*
X104209384Y-74533944D02*
X103625032Y-76571819D01*
X103625032Y-76571819D02*
X107585431Y-77707445D01*
X107585431Y-77707445D02*
X108169782Y-75669570D01*
X108169782Y-75669570D02*
X104209384Y-74533944D01*
X103177036Y-75340641D02*
X103917208Y-75552881D01*
X108617778Y-76900748D02*
X107877606Y-76688507D01*
X104843816Y-74715865D02*
X104259465Y-76753739D01*
X109218696Y-56221909D02*
X108634344Y-58259784D01*
X108634344Y-58259784D02*
X112594743Y-59395410D01*
X112594743Y-59395410D02*
X113179094Y-57357535D01*
X113179094Y-57357535D02*
X109218696Y-56221909D01*
X108186348Y-57028606D02*
X108926520Y-57240846D01*
X113627090Y-58588713D02*
X112886918Y-58376472D01*
X109853128Y-56403830D02*
X109268777Y-58441704D01*
X93466020Y-111158014D02*
X92881668Y-113195889D01*
X92881668Y-113195889D02*
X96842067Y-114331515D01*
X96842067Y-114331515D02*
X97426418Y-112293640D01*
X97426418Y-112293640D02*
X93466020Y-111158014D01*
X92433672Y-111964711D02*
X93173844Y-112176951D01*
X97874414Y-113524818D02*
X97134242Y-113312577D01*
X94100452Y-111339935D02*
X93516101Y-113377809D01*
X81717598Y-83017077D02*
X81133246Y-85054952D01*
X81133246Y-85054952D02*
X85093645Y-86190578D01*
X85093645Y-86190578D02*
X85677996Y-84152703D01*
X85677996Y-84152703D02*
X81717598Y-83017077D01*
X80685250Y-83823774D02*
X81425422Y-84036014D01*
X86125992Y-85383881D02*
X85385820Y-85171640D01*
X82352030Y-83198998D02*
X81767679Y-85236872D01*
X86968490Y-64705042D02*
X86384138Y-66742917D01*
X86384138Y-66742917D02*
X90344537Y-67878543D01*
X90344537Y-67878543D02*
X90928888Y-65840668D01*
X90928888Y-65840668D02*
X86968490Y-64705042D01*
X85936142Y-65511739D02*
X86676314Y-65723979D01*
X91376884Y-67071846D02*
X90636712Y-66859605D01*
X87602922Y-64886963D02*
X87018571Y-66924837D01*
X92219382Y-46393007D02*
X91635030Y-48430882D01*
X91635030Y-48430882D02*
X95595429Y-49566508D01*
X95595429Y-49566508D02*
X96179780Y-47528633D01*
X96179780Y-47528633D02*
X92219382Y-46393007D01*
X91187034Y-47199704D02*
X91927206Y-47411944D01*
X96627776Y-48759811D02*
X95887604Y-48547570D01*
X92853814Y-46574928D02*
X92269463Y-48612802D01*
X76466706Y-101329112D02*
X75882354Y-103366987D01*
X75882354Y-103366987D02*
X79842753Y-104502613D01*
X79842753Y-104502613D02*
X80427104Y-102464738D01*
X80427104Y-102464738D02*
X76466706Y-101329112D01*
X75434358Y-102135809D02*
X76174530Y-102348049D01*
X80875100Y-103695916D02*
X80134928Y-103483675D01*
X77101138Y-101511033D02*
X76516787Y-103548907D01*
X62092839Y-82344194D02*
X61508487Y-84382069D01*
X61508487Y-84382069D02*
X65468886Y-85517695D01*
X65468886Y-85517695D02*
X66053237Y-83479820D01*
X66053237Y-83479820D02*
X62092839Y-82344194D01*
X61060491Y-83150891D02*
X61800663Y-83363131D01*
X66501233Y-84710998D02*
X65761061Y-84498757D01*
X62727271Y-82526115D02*
X62142920Y-84563989D01*
X67343731Y-64032159D02*
X66759379Y-66070034D01*
X66759379Y-66070034D02*
X70719778Y-67205660D01*
X70719778Y-67205660D02*
X71304129Y-65167785D01*
X71304129Y-65167785D02*
X67343731Y-64032159D01*
X66311383Y-64838856D02*
X67051555Y-65051096D01*
X71752125Y-66398963D02*
X71011953Y-66186722D01*
X67978163Y-64214080D02*
X67393812Y-66251954D01*
X72594622Y-45720123D02*
X72010270Y-47757998D01*
X72010270Y-47757998D02*
X75970669Y-48893624D01*
X75970669Y-48893624D02*
X76555020Y-46855749D01*
X76555020Y-46855749D02*
X72594622Y-45720123D01*
X71562274Y-46526820D02*
X72302446Y-46739060D01*
X77003016Y-48086927D02*
X76262844Y-47874686D01*
X73229054Y-45902044D02*
X72644703Y-47939918D01*
X56841947Y-100656229D02*
X56257595Y-102694104D01*
X56257595Y-102694104D02*
X60217994Y-103829730D01*
X60217994Y-103829730D02*
X60802345Y-101791855D01*
X60802345Y-101791855D02*
X56841947Y-100656229D01*
X55809599Y-101462926D02*
X56549771Y-101675166D01*
X61250341Y-103023033D02*
X60510169Y-102810792D01*
X57476379Y-100838150D02*
X56892028Y-102876024D01*
X42468079Y-81671310D02*
X41883727Y-83709185D01*
X41883727Y-83709185D02*
X45844126Y-84844811D01*
X45844126Y-84844811D02*
X46428477Y-82806936D01*
X46428477Y-82806936D02*
X42468079Y-81671310D01*
X41435731Y-82478007D02*
X42175903Y-82690247D01*
X46876473Y-84038114D02*
X46136301Y-83825873D01*
X43102511Y-81853231D02*
X42518160Y-83891105D01*
X47718971Y-63359275D02*
X47134619Y-65397150D01*
X47134619Y-65397150D02*
X51095018Y-66532776D01*
X51095018Y-66532776D02*
X51679369Y-64494901D01*
X51679369Y-64494901D02*
X47718971Y-63359275D01*
X46686623Y-64165972D02*
X47426795Y-64378212D01*
X52127365Y-65726079D02*
X51387193Y-65513838D01*
X48353403Y-63541196D02*
X47769052Y-65579070D01*
X52969862Y-45047239D02*
X52385510Y-47085114D01*
X52385510Y-47085114D02*
X56345909Y-48220740D01*
X56345909Y-48220740D02*
X56930260Y-46182865D01*
X56930260Y-46182865D02*
X52969862Y-45047239D01*
X51937514Y-45853936D02*
X52677686Y-46066176D01*
X57378256Y-47414043D02*
X56638084Y-47201802D01*
X53604294Y-45229160D02*
X53019943Y-47267034D01*
X22843319Y-80998426D02*
X22258967Y-83036301D01*
X22258967Y-83036301D02*
X26219366Y-84171927D01*
X26219366Y-84171927D02*
X26803717Y-82134052D01*
X26803717Y-82134052D02*
X22843319Y-80998426D01*
X21810971Y-81805123D02*
X22551143Y-82017363D01*
X27251713Y-83365230D02*
X26511541Y-83152989D01*
X23477751Y-81180347D02*
X22893400Y-83218221D01*
X28094211Y-62686391D02*
X27509859Y-64724266D01*
X27509859Y-64724266D02*
X31470258Y-65859892D01*
X31470258Y-65859892D02*
X32054609Y-63822017D01*
X32054609Y-63822017D02*
X28094211Y-62686391D01*
X27061863Y-63493088D02*
X27802035Y-63705328D01*
X32502605Y-65053195D02*
X31762433Y-64840954D01*
X28728643Y-62868312D02*
X28144292Y-64906186D01*
X33345102Y-44374355D02*
X32760750Y-46412230D01*
X32760750Y-46412230D02*
X36721149Y-47547856D01*
X36721149Y-47547856D02*
X37305500Y-45509981D01*
X37305500Y-45509981D02*
X33345102Y-44374355D01*
X32312754Y-45181052D02*
X33052926Y-45393292D01*
X37753496Y-46741159D02*
X37013324Y-46528918D01*
X33979534Y-44556276D02*
X33395183Y-46594150D01*
M02*
